%FSLAX46Y46*%
%MOMM*%
%AMPS35*
21,1,0.700000,2.200000,0.000000,0.000000,360.000000*
%
%ADD35PS35*%
%AMPS34*
21,1,0.700000,2.200000,0.000000,0.000000,180.000000*
%
%ADD34PS34*%
%AMPS27*
21,1,1.000000,0.950000,0.000000,0.000000,360.000000*
%
%ADD27PS27*%
%AMPS10*
21,1,1.000000,0.950000,0.000000,0.000000,270.000000*
%
%ADD10PS10*%
%AMPS30*
21,1,1.000000,0.950000,0.000000,0.000000,180.000000*
%
%ADD30PS30*%
%AMPS17*
21,1,1.000000,0.950000,0.000000,0.000000,90.000000*
%
%ADD17PS17*%
%AMPS25*
21,1,0.700000,1.100000,0.000000,0.000000,360.000000*
%
%ADD25PS25*%
%AMPS39*
21,1,0.700000,1.100000,0.000000,0.000000,270.000000*
%
%ADD39PS39*%
%AMPS38*
21,1,0.700000,1.100000,0.000000,0.000000,90.000000*
%
%ADD38PS38*%
%AMPS22*
21,1,1.216000,2.230000,0.000000,0.000000,360.000000*
%
%ADD22PS22*%
%AMPS48*
21,1,1.200000,1.450000,0.000000,0.000000,180.000000*
%
%ADD48PS48*%
%AMPS11*
21,1,1.200000,1.450000,0.000000,0.000000,90.000000*
%
%ADD11PS11*%
%AMPS19*
21,1,2.380000,2.200000,0.000000,0.000000,360.000000*
%
%ADD19PS19*%
%AMPS18*
21,1,0.800000,1.350000,0.000000,0.000000,360.000000*
%
%ADD18PS18*%
%AMPS23*
21,1,4.160000,6.200000,0.000000,0.000000,270.000000*
%
%ADD23PS23*%
%AMPS28*
21,1,4.160000,6.200000,0.000000,0.000000,90.000000*
%
%ADD28PS28*%
%AMPS20*
21,1,0.500000,1.350000,0.000000,0.000000,360.000000*
%
%ADD20PS20*%
%AMPS33*
21,1,0.900000,1.200000,0.000000,0.000000,360.000000*
%
%ADD33PS33*%
%AMPS26*
21,1,0.900000,1.200000,0.000000,0.000000,270.000000*
%
%ADD26PS26*%
%AMPS42*
21,1,0.900000,1.200000,0.000000,0.000000,90.000000*
%
%ADD42PS42*%
%AMPS50*
21,1,1.100000,2.700000,0.000000,0.000000,360.000000*
%
%ADD50PS50*%
%AMPS40*
21,1,1.100000,2.700000,0.000000,0.000000,270.000000*
%
%ADD40PS40*%
%AMPS41*
21,1,1.100000,2.700000,0.000000,0.000000,180.000000*
%
%ADD41PS41*%
%AMPS49*
21,1,1.600000,1.400000,0.000000,0.000000,270.000000*
%
%ADD49PS49*%
%AMPS24*
21,1,4.160000,2.540000,0.000000,0.000000,270.000000*
%
%ADD24PS24*%
%AMPS29*
21,1,4.160000,2.540000,0.000000,0.000000,90.000000*
%
%ADD29PS29*%
%AMPS16*
21,1,2.800000,2.800000,0.000000,0.000000,180.000000*
%
%ADD16PS16*%
%AMPS37*
1,1,1.750000,0.000000,0.000000*
%
%ADD37PS37*%
%AMPS36*
1,1,1.750000,0.000000,0.000000*
%
%ADD36PS36*%
%AMPS46*
1,1,1.150000,0.000000,0.000000*
%
%ADD46PS46*%
%AMPS47*
1,1,1.150000,0.000000,0.000000*
%
%ADD47PS47*%
%AMPS21*
1,1,0.850000,0.000000,0.000000*
%
%ADD21PS21*%
%AMPS13*
1,1,0.300000,0.075000,0.250000*
1,1,0.300000,-0.075000,-0.250000*
1,1,0.300000,-0.075000,0.250000*
1,1,0.300000,0.075000,-0.250000*
21,1,0.450000,0.500000,0.000000,0.000000,360.000000*
21,1,0.150000,0.800000,0.000000,0.000000,360.000000*
%
%ADD13PS13*%
%AMPS12*
1,1,0.300000,0.250000,-0.075000*
1,1,0.300000,-0.250000,0.075000*
1,1,0.300000,0.250000,0.075000*
1,1,0.300000,-0.250000,-0.075000*
21,1,0.450000,0.500000,0.000000,0.000000,270.000000*
21,1,0.150000,0.800000,0.000000,0.000000,270.000000*
%
%ADD12PS12*%
%AMPS15*
1,1,0.300000,-0.075000,-0.250000*
1,1,0.300000,0.075000,0.250000*
1,1,0.300000,0.075000,-0.250000*
1,1,0.300000,-0.075000,0.250000*
21,1,0.450000,0.500000,0.000000,0.000000,180.000000*
21,1,0.150000,0.800000,0.000000,0.000000,180.000000*
%
%ADD15PS15*%
%AMPS14*
1,1,0.300000,-0.250000,0.075000*
1,1,0.300000,0.250000,-0.075000*
1,1,0.300000,-0.250000,-0.075000*
1,1,0.300000,0.250000,0.075000*
21,1,0.450000,0.500000,0.000000,0.000000,90.000000*
21,1,0.150000,0.800000,0.000000,0.000000,90.000000*
%
%ADD14PS14*%
%AMPS44*
1,1,0.300000,-0.450000,-0.750000*
1,1,0.300000,0.450000,0.750000*
1,1,0.300000,0.450000,-0.750000*
1,1,0.300000,-0.450000,0.750000*
21,1,1.200000,1.500000,0.000000,0.000000,180.000000*
21,1,0.900000,1.800000,0.000000,0.000000,180.000000*
%
%ADD44PS44*%
%AMPS43*
1,1,0.300000,-0.175000,-0.100000*
1,1,0.300000,0.175000,0.100000*
1,1,0.300000,0.175000,-0.100000*
1,1,0.300000,-0.175000,0.100000*
21,1,0.650000,0.200000,0.000000,0.000000,180.000000*
21,1,0.350000,0.500000,0.000000,0.000000,180.000000*
%
%ADD43PS43*%
%AMPS31*
1,1,0.300000,0.500000,-0.250000*
1,1,0.300000,-0.500000,0.250000*
1,1,0.300000,0.500000,0.250000*
1,1,0.300000,-0.500000,-0.250000*
21,1,0.800000,1.000000,0.000000,0.000000,270.000000*
21,1,0.500000,1.300000,0.000000,0.000000,270.000000*
%
%ADD31PS31*%
%AMPS32*
1,1,0.300000,-0.500000,0.250000*
1,1,0.300000,0.500000,-0.250000*
1,1,0.300000,-0.500000,-0.250000*
1,1,0.300000,0.500000,0.250000*
21,1,0.800000,1.000000,0.000000,0.000000,90.000000*
21,1,0.500000,1.300000,0.000000,0.000000,90.000000*
%
%ADD32PS32*%
%AMPS45*
21,1,2.200000,2.200000,0.000000,0.000000,90.000000*
%
%ADD45PS45*%
G01*
G01*
%LPD*%
G75*
D10*
X-11000000Y12500000D03*
D10*
X-11000000Y11000000D03*
D11*
X-1069458Y10049944D03*
D11*
X-1069458Y8049944D03*
D12*
X-9150000Y15250000D03*
D13*
X-6500000Y12100000D03*
D13*
X-6000000Y12100000D03*
D14*
X-5350000Y14250000D03*
D14*
X-5350000Y15250000D03*
D14*
X-5350000Y12750000D03*
D12*
X-9150000Y12750000D03*
D12*
X-9150000Y13750000D03*
D12*
X-9150000Y14750000D03*
D15*
X-6500000Y15900000D03*
D15*
X-7500000Y15900000D03*
D16*
X-7250000Y14000000D03*
D14*
X-5350000Y14750000D03*
D15*
X-7000000Y15900000D03*
D12*
X-9150000Y14250000D03*
D14*
X-5350000Y13250000D03*
D13*
X-7000000Y12100000D03*
D14*
X-5350000Y13750000D03*
D15*
X-6000000Y15900000D03*
D15*
X-8500000Y15900000D03*
D15*
X-8000000Y15900000D03*
D13*
X-7500000Y12100000D03*
D12*
X-9150000Y13250000D03*
D13*
X-8500000Y12100000D03*
D13*
X-8000000Y12100000D03*
D17*
X4500000Y31500000D03*
D17*
X4500000Y33000000D03*
D18*
X-13200000Y3505000D03*
D19*
X-4890000Y2930000D03*
D20*
X-8750000Y3505000D03*
D19*
X-15110000Y-1000000D03*
D20*
X-11250000Y3505000D03*
D19*
X-15110000Y2930000D03*
D20*
X-9750000Y3505000D03*
D20*
X-8250000Y3505000D03*
D20*
X-11750000Y3505000D03*
D21*
X-7110000Y2430000D03*
D18*
X-7600000Y3505000D03*
D19*
X-4890000Y-1000000D03*
D20*
X-10250000Y3505000D03*
D18*
X-12400000Y3505000D03*
D18*
X-6800000Y3505000D03*
D20*
X-9250000Y3505000D03*
D21*
X-12890000Y2430000D03*
D20*
X-10750000Y3505000D03*
D22*
X5250000Y55450000D03*
D22*
X3250000Y58750000D03*
D23*
X10075000Y39705000D03*
D24*
X10075000Y52555000D03*
D17*
X13250000Y26500000D03*
D17*
X13250000Y28000000D03*
D25*
X-5750000Y7750000D03*
D25*
X-7250000Y7750000D03*
D26*
X-15903006Y9280856D03*
D26*
X-13503006Y10230856D03*
D26*
X-15903006Y8330856D03*
D26*
X-13503006Y8330856D03*
D26*
X-15903006Y10230856D03*
D27*
X-14000000Y13250000D03*
D27*
X-12500000Y13250000D03*
D28*
X10075000Y13215000D03*
D29*
X10075000Y365000D03*
D30*
X-15764106Y11730856D03*
D30*
X-17264106Y11730856D03*
D23*
X10075000Y42205000D03*
D24*
X10075000Y55055000D03*
D31*
X700000Y8200000D03*
D31*
X700000Y6300000D03*
D31*
X700000Y7250000D03*
D32*
X3300000Y6300000D03*
D32*
X3300000Y8200000D03*
D32*
X3300000Y7250000D03*
D33*
X-10250000Y6550000D03*
D33*
X-11200000Y8950000D03*
D33*
X-9300000Y6550000D03*
D33*
X-9300000Y8950000D03*
D33*
X-11200000Y6550000D03*
D34*
X-8120000Y28200000D03*
D34*
X-8920000Y28200000D03*
D35*
X-6120000Y20000000D03*
D35*
X-9320000Y20000000D03*
D35*
X-7720000Y20000000D03*
D34*
X-4920000Y28200000D03*
D36*
X-11920000Y24100000D03*
D34*
X-4120000Y28200000D03*
D34*
X-10520000Y28200000D03*
D35*
X-4520000Y20000000D03*
D34*
X-5720000Y28200000D03*
D34*
X-7320000Y28200000D03*
D35*
X-6920000Y20000000D03*
D35*
X-8520000Y20000000D03*
D35*
X-10120000Y20000000D03*
D37*
X-2320000Y24100000D03*
D35*
X-5320000Y20000000D03*
D34*
X-3320000Y28200000D03*
D34*
X-6520000Y28200000D03*
D34*
X-9720000Y28200000D03*
D35*
X-10920000Y20000000D03*
D35*
X-3720000Y20000000D03*
D17*
X3750000Y18750000D03*
D17*
X3750000Y20250000D03*
D38*
X16000000Y6750000D03*
D38*
X16000000Y5250000D03*
D25*
X-2250000Y16250000D03*
D25*
X-3750000Y16250000D03*
D11*
X4499988Y999924D03*
D11*
X4499988Y-1000076D03*
D39*
X-12250000Y14750000D03*
D39*
X-12250000Y16250000D03*
D40*
X-1500020Y-700020D03*
D40*
X-1500020Y2199980D03*
D41*
X550000Y10550000D03*
D41*
X3450000Y10550000D03*
D42*
X-13800000Y15500000D03*
D42*
X-16200000Y14550000D03*
D42*
X-13800000Y16450000D03*
D42*
X-16200000Y16450000D03*
D42*
X-13800000Y14550000D03*
D38*
X-17453006Y10030856D03*
D38*
X-17453006Y8530856D03*
D43*
X774980Y-20D03*
D43*
X774980Y-650020D03*
D43*
X2724980Y-650020D03*
D43*
X2724980Y-20D03*
D44*
X1749980Y-20D03*
D43*
X774980Y649980D03*
D43*
X2724980Y649980D03*
D45*
X0Y40000000D03*
D46*
X-11920000Y17900000D03*
D47*
X0Y22500000D03*
D45*
X0Y50000000D03*
D45*
X-14250000Y25000000D03*
D45*
X-3170000Y35000000D03*
D46*
X0Y32200000D03*
D45*
X0Y30000000D03*
D46*
X0Y27500000D03*
D47*
X-7120000Y17900000D03*
D47*
X-2320000Y17900000D03*
D45*
X-14250000Y35000000D03*
D45*
X-8570000Y35000000D03*
D45*
X-5670000Y55000000D03*
D45*
X0Y20000000D03*
D46*
X-14250000Y32200000D03*
D47*
X-14250000Y22500000D03*
D45*
X-14250000Y45000000D03*
D46*
X-14250000Y27500000D03*
D45*
X-14250000Y55000000D03*
D10*
X-3250000Y12750000D03*
D10*
X-3250000Y11250000D03*
D48*
X750036Y2249988D03*
D48*
X2750036Y2249988D03*
D49*
X1200000Y15950000D03*
D49*
X1200000Y13550000D03*
D49*
X-700000Y13550000D03*
D49*
X-700000Y15950000D03*
D50*
X-14050000Y6000000D03*
D50*
X-16950000Y6000000D03*
M02*
