%FSLAX46Y46*%
%MOMM*%
%ADD14C,0.200000*%
%ADD12C,0.230000*%
%ADD17C,0.240000*%
%ADD10C,0.250000*%
%ADD15C,0.300000*%
%ADD13C,0.500000*%
%ADD18C,0.700000*%
%ADD11C,0.750000*%
%ADD16C,1.000000*%
%AMPS50*
21,1,5.600000,5.600000,0.000000,0.000000,270.000000*
%
%ADD50PS50*%
%AMPS35*
21,1,0.300000,0.800000,0.000000,0.000000,0.000000*
%
%ADD35PS35*%
%AMPS23*
21,1,1.000000,1.600000,0.000000,0.000000,0.000000*
%
%ADD23PS23*%
%AMPS22*
21,1,1.000000,1.600000,0.000000,0.000000,180.000000*
%
%ADD22PS22*%
%AMPS33*
21,1,0.510000,0.400000,0.000000,0.000000,0.000000*
%
%ADD33PS33*%
%AMPS39*
21,1,0.900000,0.550000,0.000000,0.000000,180.000000*
%
%ADD39PS39*%
%AMPS25*
21,1,0.230000,0.700000,0.000000,0.000000,0.000000*
%
%ADD25PS25*%
%AMPS24*
21,1,0.230000,0.700000,0.000000,0.000000,180.000000*
%
%ADD24PS24*%
%AMPS20*
21,1,0.300000,0.450000,0.000000,0.000000,90.000000*
%
%ADD20PS20*%
%AMPS19*
21,1,0.300000,0.450000,0.000000,0.000000,270.000000*
%
%ADD19PS19*%
%AMPS26*
21,1,0.900000,1.500000,0.000000,0.000000,90.000000*
%
%ADD26PS26*%
%AMPS36*
21,1,0.400000,0.800000,0.000000,0.000000,0.000000*
%
%ADD36PS36*%
%AMPS42*
21,1,1.000000,1.250000,0.000000,0.000000,0.000000*
%
%ADD42PS42*%
%AMPS37*
21,1,1.000000,1.250000,0.000000,0.000000,90.000000*
%
%ADD37PS37*%
%AMPS38*
21,1,1.000000,1.250000,0.000000,0.000000,270.000000*
%
%ADD38PS38*%
%AMPS43*
21,1,0.500000,0.400000,0.000000,0.000000,90.000000*
%
%ADD43PS43*%
%AMPS44*
21,1,0.500000,0.750000,0.000000,0.000000,90.000000*
%
%ADD44PS44*%
%AMPS28*
21,1,0.800000,0.750000,0.000000,0.000000,0.000000*
%
%ADD28PS28*%
%AMPS27*
21,1,0.800000,0.750000,0.000000,0.000000,90.000000*
%
%ADD27PS27*%
%AMPS30*
21,1,0.800000,0.750000,0.000000,0.000000,180.000000*
%
%ADD30PS30*%
%AMPS34*
21,1,0.800000,0.750000,0.000000,0.000000,270.000000*
%
%ADD34PS34*%
%AMPS40*
21,1,0.250000,0.650000,0.000000,0.000000,270.000000*
%
%ADD40PS40*%
%AMPS47*
21,1,0.300000,0.550000,0.000000,0.000000,0.000000*
%
%ADD47PS47*%
%AMPS46*
21,1,0.300000,0.550000,0.000000,0.000000,90.000000*
%
%ADD46PS46*%
%AMPS49*
21,1,0.300000,0.550000,0.000000,0.000000,180.000000*
%
%ADD49PS49*%
%AMPS48*
21,1,0.300000,0.550000,0.000000,0.000000,270.000000*
%
%ADD48PS48*%
%AMPS45*
21,1,1.800000,1.800000,0.000000,0.000000,90.000000*
%
%ADD45PS45*%
%AMPS32*
21,1,0.500000,0.900000,0.000000,0.000000,0.000000*
%
%ADD32PS32*%
%AMPS29*
21,1,0.500000,0.900000,0.000000,0.000000,90.000000*
%
%ADD29PS29*%
%AMPS21*
21,1,0.500000,0.900000,0.000000,0.000000,180.000000*
%
%ADD21PS21*%
%AMPS31*
21,1,0.500000,0.900000,0.000000,0.000000,270.000000*
%
%ADD31PS31*%
%AMPS51*
1,1,0.700000,0.000000,0.000000*
%
%ADD51PS51*%
%AMPS41*
21,1,2.000000,2.000000,0.000000,0.000000,90.000000*
%
%ADD41PS41*%
G01*
%LPD*%
G36*
X-8355527Y12750000D02*
X-8317353Y12757573D01*
X-8284629Y12771088D01*
X-8243462Y12776494D01*
X-7506638Y12776494D01*
X-7464746Y12770906D01*
X-7433211Y12757730D01*
X-7394658Y12750000D01*
X-7105527Y12750000D01*
X-7067353Y12757573D01*
X-7034629Y12771088D01*
X-6993462Y12776494D01*
X-6256638Y12776494D01*
X-6214746Y12770906D01*
X-6183211Y12757730D01*
X-6144658Y12750000D01*
X-6100000Y12750000D01*
X-6060996Y12757920D01*
X-6028171Y12780425D01*
X-6006723Y12813952D01*
X-6000000Y12850000D01*
X-6000000Y16739949D01*
X-5998243Y16748603D01*
X-5990754Y16750000D01*
X400000Y16750000D01*
X439004Y16757920D01*
X471829Y16780425D01*
X493277Y16813952D01*
X500000Y16850000D01*
X500000Y21661047D01*
X492080Y21700051D01*
X469575Y21732876D01*
X436048Y21754324D01*
X396812Y21760996D01*
X357245Y21751446D01*
X335781Y21741294D01*
X299047Y21726078D01*
X259798Y21712034D01*
X221771Y21700499D01*
X181317Y21690365D01*
X142317Y21682608D01*
X101058Y21676488D01*
X61528Y21672594D01*
X19887Y21670548D01*
X-19887Y21670548D01*
X-61528Y21672594D01*
X-101058Y21676488D01*
X-142317Y21682608D01*
X-181317Y21690365D01*
X-221771Y21700499D01*
X-259798Y21712034D01*
X-299047Y21726078D01*
X-335781Y21741294D01*
X-373472Y21759121D01*
X-408525Y21777856D01*
X-444298Y21799297D01*
X-477330Y21821369D01*
X-510834Y21846217D01*
X-541569Y21871441D01*
X-572455Y21899435D01*
X-600569Y21927549D01*
X-628564Y21958437D01*
X-653781Y21989163D01*
X-678624Y22022660D01*
X-700703Y22055702D01*
X-722144Y22091475D01*
X-740879Y22126528D01*
X-758706Y22164219D01*
X-773922Y22200953D01*
X-787966Y22240202D01*
X-799501Y22278229D01*
X-809635Y22318683D01*
X-817392Y22357683D01*
X-823511Y22398936D01*
X-824582Y22409807D01*
X-836289Y22447846D01*
X-861905Y22478306D01*
X-897373Y22496362D01*
X-924100Y22500000D01*
X-13230000Y22500000D01*
X-13269004Y22492080D01*
X-13301829Y22469575D01*
X-13323277Y22436048D01*
X-13330000Y22400000D01*
X-13330000Y16850000D01*
X-13322080Y16810996D01*
X-13299575Y16778171D01*
X-13266048Y16756723D01*
X-13230000Y16750000D01*
X-10428560Y16750000D01*
X-10389556Y16757920D01*
X-10349370Y16788936D01*
X-10344659Y16795045D01*
X-10316912Y16816261D01*
X-10284630Y16829594D01*
X-10243462Y16835000D01*
X-9756638Y16835000D01*
X-9714742Y16829412D01*
X-9682614Y16815988D01*
X-9654952Y16794657D01*
X-9650826Y16789260D01*
X-9620844Y16763086D01*
X-9571387Y16750000D01*
X-8510051Y16750000D01*
X-8501397Y16748243D01*
X-8500000Y16740754D01*
X-8500000Y12850000D01*
X-8492080Y12810996D01*
X-8469575Y12778171D01*
X-8436048Y12756723D01*
X-8400000Y12750000D01*
X-8355527Y12750000D01*
D02*
G37*
%LPC*%
G36*
X-2300113Y17070548D02*
X-2339887Y17070548D01*
X-2381528Y17072594D01*
X-2421058Y17076488D01*
X-2462317Y17082608D01*
X-2501317Y17090365D01*
X-2541771Y17100499D01*
X-2579798Y17112034D01*
X-2619047Y17126078D01*
X-2655781Y17141294D01*
X-2693472Y17159121D01*
X-2728525Y17177856D01*
X-2764298Y17199297D01*
X-2797330Y17221369D01*
X-2830834Y17246217D01*
X-2861569Y17271441D01*
X-2892455Y17299435D01*
X-2920569Y17327549D01*
X-2948564Y17358437D01*
X-2973781Y17389163D01*
X-2998624Y17422660D01*
X-3020703Y17455702D01*
X-3042144Y17491475D01*
X-3060879Y17526528D01*
X-3078706Y17564219D01*
X-3093922Y17600953D01*
X-3107966Y17640202D01*
X-3119501Y17678229D01*
X-3129635Y17718683D01*
X-3137392Y17757683D01*
X-3143512Y17798942D01*
X-3147406Y17838472D01*
X-3149452Y17880113D01*
X-3149452Y17919887D01*
X-3147406Y17961528D01*
X-3143512Y18001058D01*
X-3137392Y18042317D01*
X-3129635Y18081317D01*
X-3119501Y18121771D01*
X-3107966Y18159798D01*
X-3093922Y18199047D01*
X-3078706Y18235781D01*
X-3060879Y18273472D01*
X-3042144Y18308525D01*
X-3020703Y18344298D01*
X-2998624Y18377340D01*
X-2973781Y18410837D01*
X-2948564Y18441563D01*
X-2920569Y18472451D01*
X-2892455Y18500565D01*
X-2861569Y18528559D01*
X-2830834Y18553783D01*
X-2797330Y18578631D01*
X-2764298Y18600703D01*
X-2728525Y18622144D01*
X-2693472Y18640879D01*
X-2655781Y18658706D01*
X-2619047Y18673922D01*
X-2579798Y18687966D01*
X-2541771Y18699501D01*
X-2501317Y18709635D01*
X-2462317Y18717392D01*
X-2421058Y18723512D01*
X-2381528Y18727406D01*
X-2339887Y18729452D01*
X-2300113Y18729452D01*
X-2258472Y18727406D01*
X-2218942Y18723512D01*
X-2177683Y18717392D01*
X-2138683Y18709635D01*
X-2098229Y18699501D01*
X-2060202Y18687966D01*
X-2020953Y18673922D01*
X-1984219Y18658706D01*
X-1946528Y18640879D01*
X-1911475Y18622144D01*
X-1875702Y18600703D01*
X-1842660Y18578624D01*
X-1809163Y18553781D01*
X-1778437Y18528564D01*
X-1747549Y18500569D01*
X-1719431Y18472451D01*
X-1691436Y18441563D01*
X-1666219Y18410837D01*
X-1641376Y18377340D01*
X-1619297Y18344298D01*
X-1597856Y18308525D01*
X-1579121Y18273472D01*
X-1561294Y18235781D01*
X-1546078Y18199047D01*
X-1532034Y18159798D01*
X-1520499Y18121771D01*
X-1510365Y18081317D01*
X-1502608Y18042317D01*
X-1496488Y18001058D01*
X-1492594Y17961528D01*
X-1490548Y17919887D01*
X-1490548Y17880113D01*
X-1492594Y17838472D01*
X-1496488Y17798942D01*
X-1502608Y17757683D01*
X-1510365Y17718683D01*
X-1520499Y17678229D01*
X-1532034Y17640202D01*
X-1546078Y17600953D01*
X-1561294Y17564219D01*
X-1579121Y17526528D01*
X-1597856Y17491475D01*
X-1619297Y17455702D01*
X-1641376Y17422660D01*
X-1666219Y17389163D01*
X-1691436Y17358437D01*
X-1719431Y17327549D01*
X-1747549Y17299431D01*
X-1778437Y17271436D01*
X-1809163Y17246219D01*
X-1842660Y17221376D01*
X-1875702Y17199297D01*
X-1911475Y17177856D01*
X-1946528Y17159121D01*
X-1984219Y17141294D01*
X-2020953Y17126078D01*
X-2060202Y17112034D01*
X-2098229Y17100499D01*
X-2138683Y17090365D01*
X-2177683Y17082608D01*
X-2218942Y17076488D01*
X-2258472Y17072594D01*
X-2300113Y17070548D01*
D02*
G37*
%LPC*%
G36*
X-7100113Y17070548D02*
X-7139887Y17070548D01*
X-7181528Y17072594D01*
X-7221058Y17076488D01*
X-7262317Y17082608D01*
X-7301317Y17090365D01*
X-7341771Y17100499D01*
X-7379798Y17112034D01*
X-7419047Y17126078D01*
X-7455781Y17141294D01*
X-7493472Y17159121D01*
X-7528525Y17177856D01*
X-7564298Y17199297D01*
X-7597330Y17221369D01*
X-7630834Y17246217D01*
X-7661569Y17271441D01*
X-7692455Y17299435D01*
X-7720569Y17327549D01*
X-7748564Y17358437D01*
X-7773781Y17389163D01*
X-7798624Y17422660D01*
X-7820703Y17455702D01*
X-7842144Y17491475D01*
X-7860879Y17526528D01*
X-7878706Y17564219D01*
X-7893922Y17600953D01*
X-7907966Y17640202D01*
X-7919501Y17678229D01*
X-7929635Y17718683D01*
X-7937392Y17757683D01*
X-7943512Y17798942D01*
X-7947406Y17838472D01*
X-7949452Y17880113D01*
X-7949452Y17919887D01*
X-7947406Y17961528D01*
X-7943512Y18001058D01*
X-7937392Y18042317D01*
X-7929635Y18081317D01*
X-7919501Y18121771D01*
X-7907966Y18159798D01*
X-7893922Y18199047D01*
X-7878706Y18235781D01*
X-7860879Y18273472D01*
X-7842144Y18308525D01*
X-7820703Y18344298D01*
X-7798624Y18377340D01*
X-7773781Y18410837D01*
X-7748564Y18441563D01*
X-7720569Y18472451D01*
X-7692455Y18500565D01*
X-7661569Y18528559D01*
X-7630834Y18553783D01*
X-7597330Y18578631D01*
X-7564298Y18600703D01*
X-7528525Y18622144D01*
X-7493472Y18640879D01*
X-7455781Y18658706D01*
X-7419047Y18673922D01*
X-7379798Y18687966D01*
X-7341771Y18699501D01*
X-7301317Y18709635D01*
X-7262317Y18717392D01*
X-7221058Y18723512D01*
X-7181528Y18727406D01*
X-7139887Y18729452D01*
X-7100113Y18729452D01*
X-7058472Y18727406D01*
X-7018942Y18723512D01*
X-6977683Y18717392D01*
X-6938683Y18709635D01*
X-6898229Y18699501D01*
X-6860202Y18687966D01*
X-6820953Y18673922D01*
X-6784219Y18658706D01*
X-6746528Y18640879D01*
X-6711475Y18622144D01*
X-6675702Y18600703D01*
X-6642660Y18578624D01*
X-6609163Y18553781D01*
X-6578437Y18528564D01*
X-6547549Y18500569D01*
X-6519431Y18472451D01*
X-6491436Y18441563D01*
X-6466219Y18410837D01*
X-6441376Y18377340D01*
X-6419297Y18344298D01*
X-6397856Y18308525D01*
X-6379121Y18273472D01*
X-6361294Y18235781D01*
X-6346078Y18199047D01*
X-6332034Y18159798D01*
X-6320499Y18121771D01*
X-6310365Y18081317D01*
X-6302608Y18042317D01*
X-6296488Y18001058D01*
X-6292594Y17961528D01*
X-6290548Y17919887D01*
X-6290548Y17880113D01*
X-6292594Y17838472D01*
X-6296488Y17798942D01*
X-6302608Y17757683D01*
X-6310365Y17718683D01*
X-6320499Y17678229D01*
X-6332034Y17640202D01*
X-6346078Y17600953D01*
X-6361294Y17564219D01*
X-6379121Y17526528D01*
X-6397856Y17491475D01*
X-6419297Y17455702D01*
X-6441376Y17422660D01*
X-6466219Y17389163D01*
X-6491436Y17358437D01*
X-6519431Y17327549D01*
X-6547549Y17299431D01*
X-6578437Y17271436D01*
X-6609163Y17246219D01*
X-6642660Y17221376D01*
X-6675702Y17199297D01*
X-6711475Y17177856D01*
X-6746528Y17159121D01*
X-6784219Y17141294D01*
X-6820953Y17126078D01*
X-6860202Y17112034D01*
X-6898229Y17100499D01*
X-6938683Y17090365D01*
X-6977683Y17082608D01*
X-7018942Y17076488D01*
X-7058472Y17072594D01*
X-7100113Y17070548D01*
D02*
G37*
%LPC*%
G36*
X-11900113Y17070548D02*
X-11939887Y17070548D01*
X-11981528Y17072594D01*
X-12021058Y17076488D01*
X-12062317Y17082608D01*
X-12101317Y17090365D01*
X-12141771Y17100499D01*
X-12179798Y17112034D01*
X-12219047Y17126078D01*
X-12255781Y17141294D01*
X-12293472Y17159121D01*
X-12328525Y17177856D01*
X-12364298Y17199297D01*
X-12397340Y17221376D01*
X-12430837Y17246219D01*
X-12461563Y17271436D01*
X-12492451Y17299431D01*
X-12520569Y17327549D01*
X-12548564Y17358437D01*
X-12573781Y17389163D01*
X-12598624Y17422660D01*
X-12620703Y17455702D01*
X-12642144Y17491475D01*
X-12660879Y17526528D01*
X-12678706Y17564219D01*
X-12693922Y17600953D01*
X-12707966Y17640202D01*
X-12719501Y17678229D01*
X-12729635Y17718683D01*
X-12737392Y17757683D01*
X-12743512Y17798942D01*
X-12747406Y17838472D01*
X-12749452Y17880113D01*
X-12749452Y17919887D01*
X-12747406Y17961528D01*
X-12743512Y18001058D01*
X-12737392Y18042317D01*
X-12729635Y18081317D01*
X-12719501Y18121771D01*
X-12707966Y18159798D01*
X-12693922Y18199047D01*
X-12678706Y18235781D01*
X-12660879Y18273472D01*
X-12642144Y18308525D01*
X-12620703Y18344298D01*
X-12598624Y18377340D01*
X-12573781Y18410837D01*
X-12548564Y18441563D01*
X-12520569Y18472451D01*
X-12492451Y18500569D01*
X-12461563Y18528564D01*
X-12430837Y18553781D01*
X-12397340Y18578624D01*
X-12364298Y18600703D01*
X-12328525Y18622144D01*
X-12293472Y18640879D01*
X-12255781Y18658706D01*
X-12219047Y18673922D01*
X-12179798Y18687966D01*
X-12141771Y18699501D01*
X-12101317Y18709635D01*
X-12062317Y18717392D01*
X-12021058Y18723512D01*
X-11981528Y18727406D01*
X-11939887Y18729452D01*
X-11900113Y18729452D01*
X-11858472Y18727406D01*
X-11818942Y18723512D01*
X-11777683Y18717392D01*
X-11738683Y18709635D01*
X-11698229Y18699501D01*
X-11660202Y18687966D01*
X-11620953Y18673922D01*
X-11584219Y18658706D01*
X-11546528Y18640879D01*
X-11511475Y18622144D01*
X-11475702Y18600703D01*
X-11442670Y18578631D01*
X-11409166Y18553783D01*
X-11378431Y18528559D01*
X-11347545Y18500565D01*
X-11319431Y18472451D01*
X-11291436Y18441563D01*
X-11266219Y18410837D01*
X-11241376Y18377340D01*
X-11219297Y18344298D01*
X-11197856Y18308525D01*
X-11179121Y18273472D01*
X-11161294Y18235781D01*
X-11146078Y18199047D01*
X-11132034Y18159798D01*
X-11120499Y18121771D01*
X-11110365Y18081317D01*
X-11102608Y18042317D01*
X-11096488Y18001058D01*
X-11092594Y17961528D01*
X-11090548Y17919887D01*
X-11090548Y17880113D01*
X-11092594Y17838472D01*
X-11096488Y17798942D01*
X-11102608Y17757683D01*
X-11110365Y17718683D01*
X-11120499Y17678229D01*
X-11132034Y17640202D01*
X-11146078Y17600953D01*
X-11161294Y17564219D01*
X-11179121Y17526528D01*
X-11197856Y17491475D01*
X-11219297Y17455702D01*
X-11241376Y17422660D01*
X-11266219Y17389163D01*
X-11291436Y17358437D01*
X-11319431Y17327549D01*
X-11347545Y17299435D01*
X-11378431Y17271441D01*
X-11409166Y17246217D01*
X-11442670Y17221369D01*
X-11475702Y17199297D01*
X-11511475Y17177856D01*
X-11546528Y17159121D01*
X-11584219Y17141294D01*
X-11620953Y17126078D01*
X-11660202Y17112034D01*
X-11698229Y17100499D01*
X-11738683Y17090365D01*
X-11777683Y17082608D01*
X-11818942Y17076488D01*
X-11858472Y17072594D01*
X-11900113Y17070548D01*
D02*
G37*
G01*
%LPD*%
D10*
X1305010Y18685001D02*
X1094999Y18474990D01*
D10*
X11150001Y2150000D02*
X11150001Y1150001D01*
D10*
X-4250000Y2500000D02*
X-3525000Y2500000D01*
D10*
X4000000Y41500000D02*
X4750000Y41500000D01*
D10*
X11250000Y8689998D02*
X11729290Y8689998D01*
D10*
X3750000Y35750000D02*
X3250000Y36250000D01*
D10*
X-2750000Y46430000D02*
X-2750000Y45430000D01*
D10*
X-7250000Y44430000D02*
X-7750000Y44430000D01*
D10*
X9750000Y12000000D02*
X12000000Y14250000D01*
D10*
X13500000Y16125000D02*
X13500000Y12750000D01*
D10*
X5750000Y45430000D02*
X5750000Y46500000D01*
D11*
X-16250000Y56250000D02*
X-16250000Y9250000D01*
D10*
X6250000Y46500000D02*
X7000008Y47250008D01*
D10*
X4500000Y15750000D02*
X4500000Y16250000D01*
D12*
X15850000Y5300000D02*
X15850000Y6650000D01*
D10*
X12750000Y28750000D02*
X6500000Y28750000D01*
D13*
X-5500000Y23250000D02*
X-5500000Y24500000D01*
D10*
X374401Y-219999D02*
X654402Y-500000D01*
D10*
X8375000Y18750000D02*
X7000000Y18750000D01*
D13*
X6820702Y2320654D02*
X6249992Y1749944D01*
D14*
X8300000Y9332844D02*
X6800000Y7832844D01*
D10*
X-2250000Y46430000D02*
X-2250000Y45430000D01*
D10*
X17000000Y47250000D02*
X16250000Y48000000D01*
D10*
X-250000Y44930000D02*
X7000000Y37913871D01*
D10*
X7250000Y35250000D02*
X6400001Y36099999D01*
D10*
X13500000Y22875000D02*
X13500000Y24000000D01*
D10*
X2500000Y17500000D02*
X3000000Y17000000D01*
D10*
X6250000Y5750000D02*
X6250000Y8000000D01*
D10*
X14250000Y3500000D02*
X14250000Y4250000D01*
D10*
X14250000Y13500000D02*
X14500000Y13250000D01*
D10*
X-6094999Y7344999D02*
X-1655001Y7344999D01*
D10*
X-1750000Y8000000D02*
X-5000000Y8000000D01*
D10*
X4750000Y45430000D02*
X4750000Y46180000D01*
D10*
X10000000Y15033751D02*
X8966249Y14000000D01*
D12*
X16650000Y2100000D02*
X16650000Y750000D01*
D10*
X-1750000Y46430000D02*
X-1750000Y45430000D01*
D10*
X5155001Y43344999D02*
X6594999Y43344999D01*
D10*
X-2250000Y46430000D02*
X-1750000Y46430000D01*
D10*
X3250000Y35250000D02*
X3000000Y35500000D01*
D10*
X1363644Y1250000D02*
X1750000Y1250000D01*
D10*
X1500000Y34050000D02*
X1800000Y33750000D01*
D10*
X16169985Y19750000D02*
X16419985Y20000000D01*
D12*
X15450000Y6050000D02*
X15000000Y6500000D01*
D10*
X9900000Y8439998D02*
X10500000Y8439998D01*
D10*
X6750000Y22000000D02*
X7000000Y21750000D01*
D12*
X16534442Y19250000D02*
X15500000Y19250000D01*
D10*
X-144386Y4500000D02*
X355614Y4000000D01*
D10*
X15517217Y33767217D02*
X15517217Y38482783D01*
D10*
X6250000Y45430000D02*
X6250000Y46500000D01*
D10*
X-9750000Y8250000D02*
X-7780598Y8250000D01*
D10*
X3500000Y49250000D02*
X2750000Y49250000D01*
D10*
X14500000Y23250000D02*
X14750000Y23500000D01*
D10*
X13250000Y7250000D02*
X13250000Y1250000D01*
D10*
X250000Y46430000D02*
X-1750000Y46430000D01*
D10*
X12250000Y6000000D02*
X12500000Y6000000D01*
D15*
X-9483746Y1593422D02*
X-8593422Y1593422D01*
D10*
X7750000Y7500000D02*
X7750000Y4970000D01*
D10*
X3500000Y49750000D02*
X3500000Y49250000D01*
D14*
X6800000Y7832844D02*
X6800000Y5582844D01*
D10*
X5303464Y-1500000D02*
X14000000Y-1500000D01*
D11*
X-16000056Y9000056D02*
X-14999992Y9000056D01*
D10*
X4724982Y9105552D02*
X5119430Y9500000D01*
D10*
X14500000Y13250000D02*
X14750000Y13250000D01*
D10*
X-3250000Y39250000D02*
X-1500000Y37500000D01*
D10*
X1750000Y7800000D02*
X1250000Y7300000D01*
D10*
X11500000Y24750000D02*
X11500000Y25469402D01*
D10*
X5750000Y46500000D02*
X5250008Y46999992D01*
D13*
X-4250000Y27250000D02*
X-3500000Y28000000D01*
D10*
X15175000Y45925000D02*
X14500000Y45250000D01*
D10*
X7750000Y22250000D02*
X8375000Y22250000D01*
D14*
X-2761668Y3000000D02*
X-3361668Y3600000D01*
D10*
X4250000Y14000000D02*
X-1750000Y8000000D01*
D10*
X6500000Y19750000D02*
X8375000Y19750000D01*
D14*
X9082844Y11050000D02*
X8700000Y10667156D01*
D10*
X12000000Y26000000D02*
X12000000Y24000000D01*
D14*
X6800000Y5582844D02*
X5667156Y4450000D01*
D10*
X8000000Y31250000D02*
X15750000Y31250000D01*
D10*
X-8250000Y43930000D02*
X-8250000Y42930000D01*
D10*
X5500000Y29750000D02*
X15000000Y29750000D01*
D10*
X-2425000Y4325000D02*
X-2250000Y4500000D01*
D10*
X-14000000Y3969402D02*
X-12619403Y5349999D01*
D10*
X-3750000Y46250000D02*
X-3570000Y46430000D01*
D10*
X1800000Y31800000D02*
X1800000Y32700000D01*
D13*
X-14999992Y11000056D02*
X-14999992Y11483868D01*
D10*
X10500000Y22875000D02*
X10500000Y25000000D01*
D12*
X15900000Y-650000D02*
X15900000Y-750000D01*
D12*
X15000000Y2000000D02*
X14250000Y2000000D01*
D10*
X8750000Y23750000D02*
X7375000Y23750000D01*
D11*
X-17500000Y6500000D02*
X-16250000Y5250000D01*
D10*
X15250000Y23500000D02*
X14750000Y23500000D01*
D10*
X2688160Y11080036D02*
X1750000Y10141876D01*
D14*
X-4100000Y3600000D02*
X-4500000Y4000000D01*
D10*
X14500000Y16125000D02*
X14500000Y15500000D01*
D12*
X16454602Y18750000D02*
X15500000Y18750000D01*
D10*
X500000Y36250000D02*
X-1800000Y33950000D01*
D10*
X3500000Y47250000D02*
X3500000Y47750000D01*
D10*
X14250000Y10750000D02*
X15500000Y10750000D01*
D10*
X10645000Y9939998D02*
X10500000Y9939998D01*
D13*
X-5500000Y22250000D02*
X-11591004Y22250000D01*
D10*
X-2425000Y4000000D02*
X-2425000Y4325000D01*
D15*
X-8593422Y1593422D02*
X-8250000Y1250000D01*
D10*
X1750000Y4000000D02*
X2750000Y5000000D01*
D14*
X-254571Y3500000D02*
X-750000Y3500000D01*
D10*
X-8000000Y7500000D02*
X-8000000Y7499936D01*
D10*
X13150000Y46250000D02*
X12250000Y46250000D01*
D10*
X6750000Y17000000D02*
X7500000Y17750000D01*
D14*
X-2425000Y3000000D02*
X-2000000Y3000000D01*
D10*
X-11250000Y9750000D02*
X-12000000Y10500000D01*
D10*
X-11000000Y10250000D02*
X-11500000Y10750000D01*
D13*
X10000000Y7500000D02*
X9500000Y7500000D01*
D13*
X14192618Y7442618D02*
X16000000Y9250000D01*
D10*
X285011Y8035011D02*
X1000000Y8750000D01*
D10*
X6250000Y21250000D02*
X6000000Y21500000D01*
D10*
X2750000Y34750000D02*
X2750000Y25250000D01*
D10*
X-5250000Y16000000D02*
X1250000Y16000000D01*
D10*
X13575000Y45750000D02*
X13150000Y45750000D01*
D10*
X10500000Y8439998D02*
X10750000Y8689998D01*
D13*
X9750000Y2150000D02*
X9150000Y2150000D01*
D10*
X12000000Y43750000D02*
X12500000Y44250000D01*
D10*
X-6500000Y4255026D02*
X-6500000Y4750000D01*
D10*
X15750000Y31250000D02*
X17750000Y29250000D01*
D10*
X6500000Y28750000D02*
X5600000Y27850000D01*
D10*
X16000000Y22000000D02*
X16500000Y22000000D01*
D10*
X9000000Y22875000D02*
X9000000Y23500000D01*
D12*
X17298277Y2250000D02*
X17500000Y2250000D01*
D10*
X12500000Y43500000D02*
X12750000Y43750000D01*
D13*
X14500000Y-750000D02*
X15150000Y-750000D01*
D10*
X6250000Y29250000D02*
X4250000Y27250000D01*
D10*
X-5500000Y10750000D02*
X-10250000Y10750000D01*
D10*
X-3750000Y13750000D02*
X-3750000Y14500000D01*
D10*
X-1500000Y11000000D02*
X500000Y13000000D01*
D10*
X7375000Y23750000D02*
X7000000Y23750000D01*
D10*
X6750000Y33500000D02*
X3500000Y36750000D01*
D10*
X3750000Y18250000D02*
X3750000Y21250000D01*
D12*
X15900000Y1400000D02*
X16250000Y1750000D01*
D10*
X-6625000Y12241494D02*
X-6625000Y11596520D01*
D10*
X3750000Y46430000D02*
X4250000Y46430000D01*
D10*
X6000000Y18500000D02*
X4500000Y18500000D01*
D10*
X-3250000Y9250000D02*
X-6500000Y9250000D01*
D10*
X6400001Y37599999D02*
X-750000Y44750000D01*
D12*
X16250000Y3200000D02*
X16250000Y4250000D01*
D10*
X13000000Y1000000D02*
X12500000Y1000000D01*
D12*
X15450000Y5300000D02*
X15450000Y6050000D01*
D14*
X8700000Y10667156D02*
X8700000Y9167156D01*
D10*
X12500000Y2125000D02*
X12525000Y2150000D01*
D10*
X-6750000Y46500000D02*
X-6750000Y48000000D01*
D13*
X-5600000Y26300000D02*
X-6950000Y26300000D01*
D10*
X-7250000Y9250000D02*
X-11672148Y9250000D01*
D10*
X-1250000Y4500000D02*
X-144386Y4500000D01*
D14*
X-4697599Y6380001D02*
X-4369999Y6052401D01*
D10*
X13215948Y8419288D02*
X14192618Y7442618D01*
D14*
X12550000Y16075000D02*
X12550000Y12582844D01*
D10*
X9900000Y9939998D02*
X9295008Y9939998D01*
D10*
X-7250000Y45430000D02*
X-7250000Y44430000D01*
D10*
X12550000Y9189998D02*
X14189998Y9189998D01*
D10*
X7250000Y18250000D02*
X8375000Y18250000D01*
D10*
X13000000Y22875000D02*
X13000000Y24250000D01*
D10*
X-7250000Y46000000D02*
X-6750000Y46500000D01*
D10*
X7935651Y20250000D02*
X6000000Y20250000D01*
D13*
X-12500000Y15500000D02*
X-10500000Y17500000D01*
D10*
X-8500000Y16250000D02*
X-8500000Y14366494D01*
D10*
X9105010Y9750000D02*
X9105010Y8855010D01*
D14*
X3082844Y4050000D02*
X2082844Y3050000D01*
D10*
X-2000000Y5250000D02*
X-1250000Y4500000D01*
D10*
X4974974Y7900026D02*
X4974974Y8855560D01*
D10*
X1094999Y18474990D02*
X1094999Y17185599D01*
D10*
X1750000Y6844974D02*
X1250000Y6350000D01*
D10*
X1305010Y23805010D02*
X1305010Y18685001D01*
D14*
X2917156Y4450000D02*
X1917156Y3450000D01*
D10*
X6750000Y11500000D02*
X6750000Y12141875D01*
D10*
X12000000Y14250000D02*
X12000000Y16125000D01*
D10*
X4750000Y23250000D02*
X3750000Y24250000D01*
D13*
X-15500000Y3000000D02*
X-15750000Y3250000D01*
D10*
X-3500000Y11750000D02*
X-4500000Y11750000D01*
D10*
X-2250000Y8750000D02*
X-6750000Y8750000D01*
D14*
X13000000Y16125000D02*
X12950000Y16075000D01*
D14*
X-5302401Y6380001D02*
X-4697599Y6380001D01*
D12*
X17750000Y18034442D02*
X16534442Y19250000D01*
D10*
X3750000Y46430000D02*
X3750000Y45430000D01*
D13*
X-4450000Y26300000D02*
X-4250000Y26500000D01*
D10*
X-12750000Y12000000D02*
X-12750000Y12500000D01*
D10*
X16750000Y16750000D02*
X16750000Y16000000D01*
D10*
X-2750000Y46430000D02*
X-2250000Y46430000D01*
D10*
X15750000Y16500000D02*
X15500000Y16750000D01*
D10*
X5250000Y13500000D02*
X9074373Y13500000D01*
D10*
X5750000Y9500000D02*
X6250000Y10000000D01*
D10*
X-5000000Y14750000D02*
X-7250000Y14750000D01*
D10*
X3050026Y6400026D02*
X2500000Y6350000D01*
D12*
X17500000Y2250000D02*
X17750000Y2500000D01*
D10*
X4250000Y46430000D02*
X4250000Y45430000D01*
D10*
X11000000Y42750000D02*
X11000000Y43500000D01*
D10*
X3750056Y50000056D02*
X3500000Y49750000D01*
D10*
X-6750000Y8750000D02*
X-7250000Y9250000D01*
D13*
X5376936Y-250056D02*
X6249992Y-250056D01*
D10*
X5119430Y9500000D02*
X5498991Y9500000D01*
D10*
X8375000Y21250000D02*
X7719402Y21250000D01*
D10*
X1750000Y48500000D02*
X-3750000Y48500000D01*
D10*
X11000000Y14817502D02*
X11000000Y16125000D01*
D10*
X-250000Y45430000D02*
X-250000Y44930000D01*
D13*
X-8406578Y3093422D02*
X-9483746Y3093422D01*
D13*
X-5600000Y26300000D02*
X-4450000Y26300000D01*
D10*
X5250000Y24000000D02*
X4500000Y24750000D01*
D10*
X8570000Y42930000D02*
X8250000Y42930000D01*
D10*
X14000000Y21750000D02*
X11750000Y19500000D01*
D10*
X5250000Y46288125D02*
X4538125Y47000000D01*
D10*
X-11500000Y14000000D02*
X-11250000Y14250000D01*
D10*
X7000000Y23750000D02*
X6500000Y23750000D01*
D12*
X15500000Y19250000D02*
X15125000Y19250000D01*
D10*
X14250000Y10750000D02*
X14250000Y11500000D01*
D10*
X9500000Y42750000D02*
X8750000Y42750000D01*
D14*
X-5849999Y5832403D02*
X-5302401Y6380001D01*
D13*
X-5500000Y-250000D02*
X-4750000Y500000D01*
D10*
X-13683858Y12750000D02*
X-13453004Y12519146D01*
D13*
X8500000Y500000D02*
X8500000Y1500000D01*
D10*
X6750000Y16250000D02*
X7750000Y17250000D01*
D10*
X3474974Y9025026D02*
X3474974Y7900026D01*
D10*
X11500000Y23500000D02*
X11500000Y22875000D01*
D12*
X15900000Y-600000D02*
X15900000Y-650000D01*
D10*
X3750000Y21250000D02*
X3750000Y22000000D01*
D10*
X-7500000Y8750000D02*
X-6094999Y7344999D01*
D10*
X-6625000Y14125000D02*
X-7250000Y14750000D01*
D12*
X15850000Y6650000D02*
X15750000Y6750000D01*
D13*
X-14999992Y11483868D02*
X-14453004Y12030856D01*
D13*
X-8000000Y23250000D02*
X-7000000Y23250000D01*
D10*
X7000000Y21750000D02*
X8375000Y21750000D01*
D10*
X-2849999Y13400001D02*
X-2849999Y12400001D01*
D10*
X-11469402Y15000000D02*
X-10750000Y15000000D01*
D14*
X5832844Y4050000D02*
X3082844Y4050000D01*
D11*
X3800000Y55450000D02*
X2474990Y56775010D01*
D10*
X1750000Y10141876D02*
X1750000Y7800000D01*
D11*
X-16250000Y9250000D02*
X-16250000Y7000000D01*
D10*
X5500000Y5000000D02*
X6250000Y5750000D01*
D10*
X11000000Y20250000D02*
X11750000Y19500000D01*
D12*
X16650000Y5300000D02*
X16650000Y6150000D01*
D10*
X11925000Y5675000D02*
X12250000Y6000000D01*
D13*
X14250000Y6500000D02*
X14192618Y6557382D01*
D13*
X-9000000Y17500000D02*
X-8500000Y17000000D01*
D10*
X-7744974Y11466494D02*
X-7875000Y11596520D01*
D10*
X8000000Y12500000D02*
X9500000Y12500000D01*
D10*
X-11500000Y10750000D02*
X-11500000Y14000000D01*
D10*
X2775026Y10525026D02*
X2250000Y10000000D01*
D10*
X11729290Y8689998D02*
X12000000Y8419288D01*
D10*
X3750000Y17500000D02*
X6500000Y17500000D01*
D10*
X17250000Y29000000D02*
X15500000Y30750000D01*
D13*
X-16500000Y3750000D02*
X-15750000Y3750000D01*
D13*
X0Y-1000000D02*
X500000Y-1500000D01*
D14*
X2082844Y3050000D02*
X195429Y3050000D01*
D10*
X7000008Y47250008D02*
X7000008Y48000056D01*
D10*
X2750000Y49250000D02*
X2500000Y49000000D01*
D10*
X3250000Y36250000D02*
X500000Y36250000D01*
D10*
X8858125Y14500000D02*
X9500000Y15141875D01*
D10*
X-9750000Y8250000D02*
X-10000000Y8000000D01*
D13*
X8500000Y6500000D02*
X8500000Y4750000D01*
D10*
X2500000Y21000000D02*
X2500000Y17500000D01*
D10*
X14000000Y27500000D02*
X12750000Y28750000D01*
D10*
X8375000Y19250000D02*
X6750000Y19250000D01*
D16*
X-14250000Y45000000D02*
X-14250000Y55000000D01*
D13*
X14000056Y-250056D02*
X14500000Y-750000D01*
D10*
X12900000Y25150000D02*
X12500000Y24750000D01*
D12*
X15450000Y3200000D02*
X15450000Y2450000D01*
D13*
X517709Y-1482291D02*
X4131353Y-1482291D01*
D10*
X-6500000Y9250000D02*
X-7000000Y9750000D01*
D13*
X-12000000Y21841004D02*
X-14250000Y24091004D01*
D10*
X7500000Y17750000D02*
X8375000Y17750000D01*
D10*
X11000000Y6000000D02*
X11000000Y5000001D01*
D10*
X7750000Y4970000D02*
X6030000Y3250000D01*
D10*
X3250000Y25000000D02*
X3250000Y35250000D01*
D10*
X5000000Y30250000D02*
X3750000Y31500000D01*
D10*
X4000000Y18000000D02*
X3750000Y18250000D01*
D10*
X-12900000Y32700000D02*
X-12900000Y33650000D01*
D10*
X-1655001Y7344999D02*
X4500000Y13500000D01*
D10*
X-3400001Y13400001D02*
X-2849999Y13400001D01*
D10*
X3250000Y46430000D02*
X3250000Y45430000D01*
D10*
X4750000Y46180000D02*
X4500000Y46430000D01*
D13*
X-7500000Y4500000D02*
X-7500000Y4000000D01*
D10*
X-15250000Y12750000D02*
X-13683858Y12750000D01*
D10*
X-7780598Y8250000D02*
X-6315609Y6785011D01*
D13*
X9750000Y2750000D02*
X9750000Y2150000D01*
D10*
X7000008Y50000056D02*
X5250008Y50000056D01*
D13*
X-10500000Y17500000D02*
X-9000000Y17500000D01*
D13*
X-11593422Y3093422D02*
X-12500000Y4000000D01*
D10*
X4750000Y19250000D02*
X5000000Y19000000D01*
D10*
X-7250000Y11466494D02*
X-6755026Y11466494D01*
D10*
X5600000Y27850000D02*
X5600000Y26300000D01*
D10*
X-2750000Y5250000D02*
X-2000000Y5250000D01*
D13*
X-8250000Y-250000D02*
X-5500000Y-250000D01*
D10*
X3474974Y7900026D02*
X3474974Y7675404D01*
D10*
X1750000Y50750000D02*
X1750000Y48500000D01*
D10*
X7000000Y18750000D02*
X6250000Y18000000D01*
D13*
X-15500000Y1750000D02*
X-15250000Y1500000D01*
D10*
X8750000Y42750000D02*
X8570000Y42930000D01*
D13*
X-7000000Y23250000D02*
X-7000000Y24500000D01*
D10*
X500000Y13000000D02*
X500000Y13750000D01*
D10*
X5250000Y13000000D02*
X5250000Y13500000D01*
D13*
X-4250000Y26500000D02*
X-4250000Y27250000D01*
D10*
X14000000Y25250000D02*
X14000000Y27500000D01*
D10*
X14500000Y22875000D02*
X14500000Y23250000D01*
D10*
X13150000Y45250000D02*
X14500000Y45250000D01*
D10*
X4500000Y18500000D02*
X4250000Y18750000D01*
D10*
X11000000Y5000001D02*
X11150001Y4850000D01*
D14*
X11582844Y11050000D02*
X9082844Y11050000D01*
D10*
X16250000Y31750000D02*
X15750000Y32250000D01*
D10*
X9105010Y8855010D02*
X7750000Y7500000D01*
D12*
X15000000Y6500000D02*
X14250000Y6500000D01*
D10*
X6750000Y31750000D02*
X6750000Y33500000D01*
D10*
X-3750000Y48500000D02*
X-4250000Y48000000D01*
D10*
X463739Y4500000D02*
X1500000Y4500000D01*
D10*
X7750000Y17250000D02*
X8375000Y17250000D01*
D10*
X2750000Y13750000D02*
X-2250000Y8750000D01*
D10*
X7750000Y30750000D02*
X6750000Y31750000D01*
D10*
X6500000Y23750000D02*
X5500000Y24750000D01*
D10*
X16000000Y28750000D02*
X16000000Y28250000D01*
D10*
X14000000Y17250000D02*
X11750000Y19500000D01*
D10*
X9074373Y13500000D02*
X10500000Y14925627D01*
D13*
X-5500000Y24500000D02*
X-5500000Y26200000D01*
D13*
X-5500000Y26200000D02*
X-5600000Y26300000D01*
D11*
X2474990Y56775010D02*
X-15724990Y56775010D01*
D10*
X15125000Y21250000D02*
X16000000Y21250000D01*
D10*
X-4000000Y9750000D02*
X-6250000Y9750000D01*
D12*
X17750000Y2500000D02*
X17750000Y18034442D01*
D10*
X1250000Y16000000D02*
X2250000Y15000000D01*
D10*
X7250000Y9750000D02*
X7250000Y11750000D01*
D10*
X9500000Y15141875D02*
X9500000Y16125000D01*
D14*
X-217156Y4000000D02*
X-1075000Y4000000D01*
D10*
X15250000Y30250000D02*
X5000000Y30250000D01*
D10*
X-2750000Y9750000D02*
X-3250000Y9250000D01*
D10*
X4750000Y43750000D02*
X5155001Y43344999D01*
D10*
X14750000Y48000000D02*
X14000000Y47250000D01*
D10*
X285011Y5714989D02*
X285011Y6214989D01*
D10*
X9500000Y17250000D02*
X11750000Y19500000D01*
D14*
X195429Y3050000D02*
X-254571Y3500000D01*
D14*
X8917156Y11450000D02*
X8300000Y10832844D01*
D10*
X-3750000Y13750000D02*
X-3400001Y13400001D01*
D10*
X-1250000Y23250000D02*
X1800000Y26300000D01*
D10*
X4250000Y18750000D02*
X4250000Y22500000D01*
D10*
X-4500000Y10500000D02*
X-4000000Y11000000D01*
D12*
X17250000Y17954602D02*
X16454602Y18750000D01*
D10*
X14000000Y15250000D02*
X14250000Y15000000D01*
D12*
X15900000Y-600000D02*
X15900000Y1400000D01*
D12*
X16650000Y6150000D02*
X17250000Y6750000D01*
D10*
X9000000Y23500000D02*
X8750000Y23750000D01*
D14*
X332844Y3450000D02*
X-217156Y4000000D01*
D10*
X11000000Y43500000D02*
X12250000Y44750000D01*
D10*
X9295008Y9939998D02*
X9105010Y9750000D01*
D10*
X16500000Y23500000D02*
X15250000Y23500000D01*
D10*
X10500000Y25000000D02*
X10750000Y25250000D01*
D10*
X2750000Y25250000D02*
X1305010Y23805010D01*
D10*
X-3750000Y45430000D02*
X-3750000Y46250000D01*
D10*
X3750000Y3250000D02*
X5250056Y1749944D01*
D14*
X12950000Y16075000D02*
X12950000Y12417156D01*
D10*
X-3750000Y10000000D02*
X-4000000Y9750000D01*
D10*
X-786261Y5750000D02*
X463739Y4500000D01*
D10*
X8000000Y16750000D02*
X6750000Y15500000D01*
D10*
X14250000Y14250000D02*
X14250000Y13500000D01*
D10*
X-2000000Y15250000D02*
X-2250000Y15000000D01*
D10*
X-10000000Y8000000D02*
X-11250000Y8000000D01*
D13*
X6249992Y-250056D02*
X7500000Y-250056D01*
D12*
X16250000Y1750000D02*
X16250000Y3200000D01*
D10*
X-14500000Y5250000D02*
X-12500000Y7250000D01*
D10*
X-1075000Y3000000D02*
X-1075000Y1925000D01*
D10*
X11141875Y44250000D02*
X12141875Y45250000D01*
D10*
X-1800000Y33950000D02*
X-1800000Y32700000D01*
D10*
X4750000Y15500000D02*
X4500000Y15750000D01*
D13*
X-12500000Y4000000D02*
X-12500000Y4500000D01*
D13*
X-15500000Y2500000D02*
X-15500000Y3000000D01*
D10*
X750000Y46430000D02*
X250000Y46430000D01*
D11*
X2000000Y58750000D02*
X1250000Y58000000D01*
D10*
X13500000Y12750000D02*
X13750000Y12500000D01*
D10*
X4500000Y13500000D02*
X5250000Y13500000D01*
D10*
X-14250000Y25000000D02*
X-14200000Y25000000D01*
D10*
X2000000Y37500000D02*
X3500000Y37500000D01*
D10*
X-2250000Y13750000D02*
X-2599999Y13400001D01*
D10*
X-3280001Y1280001D02*
X-1780001Y-219999D01*
D13*
X8500000Y4750000D02*
X6820702Y3070702D01*
D10*
X15125000Y21750000D02*
X14000000Y21750000D01*
D10*
X-6250000Y36750000D02*
X-6750000Y36250000D01*
D10*
X-1780001Y-219999D02*
X374401Y-219999D01*
D10*
X4250000Y22500000D02*
X3250000Y23500000D01*
D10*
X16250000Y38500000D02*
X16250000Y33500000D01*
D10*
X-1075000Y1925000D02*
X-1719999Y1280001D01*
D10*
X9000000Y15250000D02*
X9000000Y16125000D01*
D10*
X750000Y5250000D02*
X285011Y5714989D01*
D10*
X15750000Y33000000D02*
X16250000Y33500000D01*
D13*
X10350000Y4850000D02*
X11150001Y4850000D01*
D10*
X-7875000Y13741494D02*
X-7875000Y14125000D01*
D10*
X-5750000Y3505026D02*
X-6500000Y4255026D01*
D10*
X16000000Y21250000D02*
X16250000Y21000000D01*
D10*
X14500000Y15500000D02*
X15000000Y15000000D01*
D13*
X-8250000Y-250000D02*
X-10402168Y-250000D01*
D10*
X11000000Y35500000D02*
X11000000Y42750000D01*
D10*
X15125000Y19750000D02*
X16169985Y19750000D01*
D13*
X-3500000Y28000000D02*
X-2500000Y28000000D01*
D10*
X-12900000Y33650000D02*
X-14250000Y35000000D01*
D10*
X2750000Y46430000D02*
X2750000Y45430000D01*
D10*
X4750000Y22500000D02*
X4750000Y19250000D01*
D10*
X6750000Y44750000D02*
X7000000Y44500000D01*
D10*
X-14200000Y25000000D02*
X-12900000Y26300000D01*
D10*
X16750000Y28750000D02*
X15250000Y30250000D01*
D13*
X9750000Y4250000D02*
X9250000Y4250000D01*
D10*
X0Y30000000D02*
X1800000Y31800000D01*
D10*
X11500000Y47000000D02*
X11500000Y50500000D01*
D10*
X-15000000Y16505026D02*
X-15000000Y17000000D01*
D10*
X17250000Y27000000D02*
X17250000Y29000000D01*
D10*
X13725000Y45250000D02*
X13150000Y45250000D01*
D10*
X11250000Y9689998D02*
X10895000Y9689998D01*
D13*
X-16750000Y3000000D02*
X-16750000Y3500000D01*
D13*
X-8500000Y17000000D02*
X-8500000Y16250000D01*
D10*
X-1000000Y15250000D02*
X-2000000Y15250000D01*
D10*
X285011Y6214989D02*
X-285011Y6785011D01*
D10*
X7250000Y11750000D02*
X8000000Y12500000D01*
D10*
X-4000000Y11000000D02*
X-1500000Y11000000D01*
D12*
X16250000Y5300000D02*
X16250000Y6500000D01*
D10*
X4250000Y42000000D02*
X1750000Y44500000D01*
D10*
X14750000Y13250000D02*
X15750000Y13250000D01*
D10*
X-7750000Y44430000D02*
X-8250000Y43930000D01*
D13*
X9500000Y7500000D02*
X8500000Y6500000D01*
D10*
X2250000Y10000000D02*
X2250000Y7344974D01*
D10*
X8375000Y16750000D02*
X8000000Y16750000D01*
D14*
X-2084014Y3569990D02*
X-1654004Y4000000D01*
D12*
X17050000Y2498277D02*
X17298277Y2250000D01*
D10*
X-7744999Y1280001D02*
X-3280001Y1280001D01*
D17*
X16750000Y7000000D02*
X16750000Y16000000D01*
D10*
X3474974Y10525026D02*
X2775026Y10525026D01*
D10*
X2250000Y14500000D02*
X8858125Y14500000D01*
D10*
X6750000Y45430000D02*
X6750000Y44750000D01*
D14*
X-1500000Y3500000D02*
X-1075000Y3500000D01*
D14*
X12950000Y12417156D02*
X11582844Y11050000D01*
D10*
X4000000Y39250000D02*
X-1250000Y44500000D01*
D10*
X15500000Y30750000D02*
X7750000Y30750000D01*
D10*
X14000000Y46175000D02*
X13575000Y45750000D01*
D10*
X3250000Y18000000D02*
X3750000Y17500000D01*
D10*
X15125000Y17750000D02*
X16000000Y17750000D01*
D14*
X-5500000Y5000000D02*
X-5849999Y5349999D01*
D16*
X-14250000Y45000000D02*
X-14250000Y35000000D01*
D10*
X13750000Y12500000D02*
X14250000Y12500000D01*
D10*
X-285011Y6785011D02*
X-6315609Y6785011D01*
D10*
X5000000Y19000000D02*
X5750000Y19000000D01*
D14*
X5667156Y4450000D02*
X2917156Y4450000D01*
D10*
X11000000Y22875000D02*
X11000000Y24250000D01*
D14*
X-3750000Y4000000D02*
X-3195996Y4000000D01*
D10*
X-5600000Y26300000D02*
X-5600000Y32700000D01*
D10*
X7680000Y44500000D02*
X7250000Y44930000D01*
D14*
X-4500000Y5250000D02*
X-5000000Y5750000D01*
D10*
X3750000Y47000000D02*
X3500000Y47250000D01*
D10*
X4974974Y8855560D02*
X4724982Y9105552D01*
D10*
X500000Y15250000D02*
X-1000000Y15250000D01*
D10*
X15000000Y29750000D02*
X16000000Y28750000D01*
D10*
X2500000Y5500000D02*
X5250000Y5500000D01*
D10*
X13250000Y7250000D02*
X13000000Y7500000D01*
D10*
X11250000Y24500000D02*
X11500000Y24750000D01*
D10*
X15750000Y21750000D02*
X16000000Y22000000D01*
D10*
X-5250000Y46500000D02*
X-5250000Y48000000D01*
D14*
X-4369999Y6052401D02*
X-4369999Y5657413D01*
D10*
X-6250000Y9750000D02*
X-6750000Y10250000D01*
D10*
X9900000Y7600000D02*
X10000000Y7500000D01*
D10*
X-6625000Y13741494D02*
X-6625000Y14125000D01*
D10*
X0Y20000000D02*
X-1250000Y21250000D01*
D10*
X-8250000Y43930000D02*
X-9320000Y45000000D01*
D10*
X-10500000Y13750000D02*
X-10750000Y13500000D01*
D10*
X-5600000Y32700000D02*
X-3300000Y35000000D01*
D14*
X-4500000Y4000000D02*
X-4500000Y5250000D01*
D10*
X-9500000Y15250000D02*
X-9750000Y15250000D01*
D10*
X3500000Y37500000D02*
X7250000Y33750000D01*
D10*
X11250000Y8689998D02*
X10750000Y8689998D01*
D10*
X5498991Y9500000D02*
X5750000Y9500000D01*
D10*
X16750000Y27250000D02*
X16750000Y28750000D01*
D10*
X13000000Y24250000D02*
X14000000Y25250000D01*
D10*
X-5000000Y13250000D02*
X-4250000Y13250000D01*
D10*
X7250000Y44930000D02*
X7250000Y45430000D01*
D10*
X15250000Y23500000D02*
X15599999Y23150001D01*
D10*
X750000Y46430000D02*
X750000Y45430000D01*
D14*
X-5849999Y5349999D02*
X-5849999Y5832403D01*
D10*
X12750000Y43750000D02*
X13150000Y43750000D01*
D10*
X4538125Y47000000D02*
X3750000Y47000000D01*
D10*
X-3570000Y46430000D02*
X-2750000Y46430000D01*
D16*
X-5670000Y55000000D02*
X-14250000Y55000000D01*
D10*
X-7000000Y9750000D02*
X-11250000Y9750000D01*
D10*
X-2849999Y12400001D02*
X-3500000Y11750000D01*
D10*
X4500000Y46430000D02*
X4250000Y46430000D01*
D10*
X-2250000Y13750000D02*
X-1000000Y13750000D01*
D10*
X1750000Y17500000D02*
X1750000Y23500000D01*
D13*
X16650000Y-750000D02*
X15900000Y-750000D01*
D10*
X250000Y46430000D02*
X250000Y45430000D01*
D10*
X8250000Y12000000D02*
X9750000Y12000000D01*
D10*
X15750000Y27250000D02*
X15000000Y27250000D01*
D11*
X-15724990Y56775010D02*
X-16250000Y56250000D01*
D10*
X6000000Y20250000D02*
X5500000Y19750000D01*
D10*
X3474974Y6400026D02*
X3050026Y6400026D01*
D10*
X-9500000Y13750000D02*
X-10500000Y13750000D01*
D10*
X16250000Y38500000D02*
X12500000Y42250000D01*
D10*
X6594999Y43344999D02*
X7000000Y43750000D01*
D10*
X8570000Y44250000D02*
X11141875Y44250000D01*
D10*
X-13250000Y8750000D02*
X-7500000Y8750000D01*
D10*
X9050000Y32750000D02*
X9100000Y32700000D01*
D10*
X16250000Y17250000D02*
X16750000Y16750000D01*
D10*
X8250000Y43930000D02*
X7680000Y44500000D01*
D13*
X4626880Y500000D02*
X5376936Y-250056D01*
D10*
X11000000Y22875000D02*
X11000000Y20250000D01*
D10*
X15750000Y13250000D02*
X15750000Y12750000D01*
D13*
X-12000000Y20000000D02*
X-12000000Y21841004D01*
D13*
X-10520000Y25520000D02*
X-10520000Y26480000D01*
D10*
X-3500000Y5750000D02*
X-786261Y5750000D01*
D10*
X2500000Y46430000D02*
X2500000Y49000000D01*
D16*
X0Y55000000D02*
X0Y50000000D01*
D14*
X11417156Y11450000D02*
X8917156Y11450000D01*
D10*
X3750000Y31500000D02*
X3750000Y35750000D01*
D10*
X5250000Y21000000D02*
X5250000Y24000000D01*
D10*
X1800000Y33750000D02*
X1800000Y32700000D01*
D10*
X5250056Y1749944D02*
X6249992Y1749944D01*
D10*
X15125000Y4250000D02*
X14250000Y4250000D01*
D10*
X15000000Y27250000D02*
X13000000Y29250000D01*
D10*
X8250000Y42930000D02*
X8250000Y43930000D01*
D13*
X-10000000Y25000000D02*
X-10520000Y25520000D01*
D14*
X8300000Y10832844D02*
X8300000Y9332844D01*
D13*
X-8250000Y25000000D02*
X-10000000Y25000000D01*
D10*
X1500000Y4500000D02*
X2500000Y5500000D01*
D10*
X15175000Y47175000D02*
X15175000Y45925000D01*
D10*
X6000000Y16250000D02*
X6750000Y16250000D01*
D10*
X-4750000Y45430000D02*
X-4750000Y46000000D01*
D10*
X6400001Y36099999D02*
X6400001Y37599999D01*
D10*
X-7775000Y1250000D02*
X-7744999Y1280001D01*
D10*
X-8000000Y7499936D02*
X-8749944Y6749992D01*
D10*
X6250000Y44500000D02*
X5750000Y44000000D01*
D10*
X12500000Y24750000D02*
X12500000Y22875000D01*
D10*
X9900000Y8439998D02*
X9900000Y7600000D01*
D10*
X15250000Y15750000D02*
X15750000Y16250000D01*
D10*
X631353Y517709D02*
X1363644Y1250000D01*
D10*
X15750000Y11000000D02*
X15750000Y11250000D01*
D10*
X11925000Y4850000D02*
X11925000Y5675000D01*
D10*
X16500000Y32750000D02*
X17000000Y33250000D01*
D10*
X-3750000Y44750000D02*
X-3750000Y45430000D01*
D10*
X2030598Y16250000D02*
X3500000Y16250000D01*
D10*
X15125000Y22250000D02*
X15500000Y22250000D01*
D10*
X6250000Y42000000D02*
X4250000Y42000000D01*
D10*
X-8250000Y1250000D02*
X-7775000Y1250000D01*
D10*
X12250000Y44750000D02*
X13150000Y44750000D01*
D10*
X10500000Y14925627D02*
X10500000Y16125000D01*
D10*
X-15250000Y15000000D02*
X-15250000Y16255026D01*
D10*
X-11672148Y9250000D02*
X-13453004Y11030856D01*
D10*
X-7250000Y45430000D02*
X-7250000Y46000000D01*
D10*
X7250000Y32000000D02*
X8000000Y31250000D01*
D10*
X3750000Y22000000D02*
X3250000Y22500000D01*
D10*
X-13453004Y12519146D02*
X-13453004Y11030856D01*
D10*
X2250000Y7344974D02*
X1750000Y6844974D01*
D12*
X15500000Y18750000D02*
X15125000Y18750000D01*
D10*
X16000000Y17750000D02*
X16250000Y18000000D01*
D10*
X5750000Y6000000D02*
X5750000Y8250000D01*
D14*
X-4000000Y4250000D02*
X-3750000Y4000000D01*
D10*
X-3250000Y4750000D02*
X-2750000Y5250000D01*
D10*
X-6750000Y10250000D02*
X-11000000Y10250000D01*
D13*
X6820702Y3070702D02*
X6820702Y2320654D01*
D10*
X17750000Y29250000D02*
X17750000Y26750000D01*
D10*
X7000000Y44500000D02*
X7680000Y44500000D01*
D10*
X-6750000Y33750000D02*
X-7800000Y32700000D01*
D10*
X-1250000Y21250000D02*
X-1250000Y23250000D01*
D10*
X12500000Y44250000D02*
X13150000Y44250000D01*
D10*
X6250000Y45430000D02*
X6250000Y44500000D01*
D10*
X15175000Y44575000D02*
X14500000Y45250000D01*
D10*
X4750000Y41500000D02*
X5250000Y41000000D01*
D10*
X-15250000Y16255026D02*
X-15000000Y16505026D01*
D10*
X15599999Y23150001D02*
X15750000Y23000000D01*
D10*
X-5750000Y2500000D02*
X-5750000Y3505026D01*
D10*
X16625000Y4250000D02*
X15875000Y4250000D01*
D10*
X5500000Y20750000D02*
X5250000Y21000000D01*
D12*
X15450000Y2450000D02*
X15000000Y2000000D01*
D10*
X1750000Y1250000D02*
X3750000Y3250000D01*
D10*
X-13500000Y9000000D02*
X-13250000Y8750000D01*
D10*
X654402Y-500000D02*
X4303464Y-500000D01*
D10*
X750000Y46430000D02*
X2500000Y46430000D01*
D10*
X11150001Y2150000D02*
X11925000Y2150000D01*
D11*
X-17500000Y57000000D02*
X-17500000Y6500000D01*
D10*
X500000Y13750000D02*
X1500000Y13750000D01*
D10*
X-1800000Y26300000D02*
X-1800000Y32700000D01*
D10*
X-4500000Y11750000D02*
X-5500000Y10750000D01*
D10*
X-7800000Y32700000D02*
X-9100000Y32700000D01*
D13*
X-5500000Y22250000D02*
X-5500000Y23250000D01*
D10*
X4750000Y45430000D02*
X4750000Y43750000D01*
D10*
X2000000Y35500000D02*
X2750000Y34750000D01*
D10*
X6750000Y12141875D02*
X7608125Y13000000D01*
D10*
X3500000Y36750000D02*
X-6250000Y36750000D01*
D10*
X9500000Y12500000D02*
X11500000Y14500000D01*
D12*
X16650000Y3200000D02*
X16650000Y2100000D01*
D14*
X-2765986Y3569990D02*
X-2084014Y3569990D01*
D10*
X7750000Y11500000D02*
X8250000Y12000000D01*
D10*
X1800000Y26300000D02*
X1800000Y31800000D01*
D10*
X-15750000Y5250000D02*
X-14500000Y5250000D01*
D10*
X285011Y7355033D02*
X285011Y8035011D01*
D10*
X4000000Y41500000D02*
X1250000Y44250000D01*
D10*
X2250000Y15000000D02*
X8750000Y15000000D01*
D13*
X7500712Y2500712D02*
X9250000Y4250000D01*
D10*
X12900000Y26300000D02*
X12900000Y25150000D01*
D10*
X355614Y4000000D02*
X1750000Y4000000D01*
D10*
X6750000Y15500000D02*
X4750000Y15500000D01*
D10*
X4303464Y-500000D02*
X5303464Y-1500000D01*
D10*
X-9750000Y15250000D02*
X-10000000Y15500000D01*
D10*
X-3300000Y35000000D02*
X-3170000Y35000000D01*
D10*
X6250000Y18000000D02*
X4000000Y18000000D01*
D10*
X16500000Y25500000D02*
X16500000Y23500000D01*
D13*
X11000000Y7500000D02*
X10000000Y7500000D01*
D14*
X-1654004Y4000000D02*
X-1075000Y4000000D01*
D10*
X17750000Y26750000D02*
X16500000Y25500000D01*
D10*
X-4250000Y13250000D02*
X-3750000Y13750000D01*
D10*
X9500000Y52500000D02*
X3500000Y52500000D01*
D10*
X6250000Y8000000D02*
X7750000Y9500000D01*
D10*
X14000000Y22875000D02*
X14000000Y23750000D01*
D10*
X10669402Y26300000D02*
X11500000Y25469402D01*
D10*
X-10750000Y11250000D02*
X-10750000Y12750000D01*
D10*
X-6625000Y11596520D02*
X-6755026Y11466494D01*
D14*
X1917156Y3450000D02*
X332844Y3450000D01*
D10*
X-8500000Y14366494D02*
X-7875000Y13741494D01*
D10*
X16250000Y48000000D02*
X14750000Y48000000D01*
D13*
X14000000Y1750000D02*
X14250000Y2000000D01*
D10*
X-12619403Y5349999D02*
X-11849999Y5349999D01*
D14*
X-2425000Y3000000D02*
X-2761668Y3000000D01*
D14*
X7200000Y7667156D02*
X7200000Y5417156D01*
D10*
X8750000Y15000000D02*
X9000000Y15250000D01*
D10*
X-12000000Y14469402D02*
X-11469402Y15000000D01*
D10*
X-4070000Y44430000D02*
X-3750000Y44750000D01*
D10*
X15175000Y42825000D02*
X15175000Y44575000D01*
D10*
X9500000Y22875000D02*
X9500000Y24000000D01*
D10*
X9100000Y26300000D02*
X10669402Y26300000D01*
D10*
X5775026Y10525026D02*
X6750000Y11500000D01*
D18*
X6249992Y1749944D02*
X6499944Y1749944D01*
D10*
X-10749944Y6749992D02*
X-10749944Y7499944D01*
D10*
X-7250000Y44430000D02*
X-4070000Y44430000D01*
D10*
X-7875000Y14125000D02*
X-7250000Y14750000D01*
D13*
X500000Y-1500000D02*
X517709Y-1482291D01*
D10*
X3250000Y46430000D02*
X2750000Y46430000D01*
D13*
X-14250000Y24091004D02*
X-14250000Y25000000D01*
D10*
X-10250000Y10750000D02*
X-10750000Y11250000D01*
D10*
X-10000000Y15500000D02*
X-10000000Y16250000D01*
D10*
X15517217Y38482783D02*
X12000000Y42000000D01*
D10*
X-10750000Y12750000D02*
X-10750000Y13500000D01*
D10*
X5250000Y5500000D02*
X5750000Y6000000D01*
D13*
X-11591004Y22250000D02*
X-12000000Y21841004D01*
D10*
X17000000Y33250000D02*
X17000000Y47250000D01*
D14*
X-750000Y3500000D02*
X-1075000Y3500000D01*
D10*
X15500000Y10750000D02*
X15750000Y11000000D01*
D10*
X11150001Y1150001D02*
X11000000Y1000000D01*
D10*
X12000000Y42000000D02*
X12000000Y43750000D01*
D10*
X7000000Y43750000D02*
X7000000Y44500000D01*
D13*
X-14500000Y15500000D02*
X-12500000Y15500000D01*
D14*
X-3361668Y3600000D02*
X-4100000Y3600000D01*
D10*
X-750000Y44750000D02*
X-750000Y45430000D01*
D13*
X-16750000Y3500000D02*
X-16500000Y3750000D01*
D10*
X-10749944Y7499944D02*
X-11250000Y8000000D01*
D10*
X12000000Y8419288D02*
X13215948Y8419288D01*
D10*
X15500000Y22250000D02*
X15750000Y22500000D01*
D13*
X2881353Y500000D02*
X4626880Y500000D01*
D16*
X-5670000Y55000000D02*
X0Y55000000D01*
D10*
X-12750000Y12500000D02*
X-15250000Y15000000D01*
D10*
X12250000Y28000000D02*
X7500000Y28000000D01*
D10*
X10000000Y24500000D02*
X9750000Y24750000D01*
D10*
X-1500000Y37500000D02*
X2000000Y37500000D01*
D10*
X9500000Y24000000D02*
X8750000Y24750000D01*
D10*
X11000000Y24250000D02*
X11250000Y24500000D01*
D10*
X3250000Y21250000D02*
X3250000Y18000000D01*
D10*
X15750000Y14250000D02*
X15750000Y15000000D01*
D10*
X15125000Y17250000D02*
X16250000Y17250000D01*
D10*
X10000000Y16125000D02*
X10000000Y15033751D01*
D10*
X3919964Y11500000D02*
X3500000Y11080036D01*
D13*
X7500000Y-250056D02*
X7500712Y-249344D01*
D10*
X1500000Y34750000D02*
X1500000Y34050000D01*
D13*
X15900000Y-750000D02*
X15150000Y-750000D01*
D10*
X7608125Y13000000D02*
X9182498Y13000000D01*
D11*
X-16250000Y9250000D02*
X-16000056Y9000056D01*
D10*
X7250000Y22750000D02*
X7750000Y22250000D01*
D10*
X9182498Y13000000D02*
X11000000Y14817502D01*
D13*
X11150001Y2150000D02*
X9750000Y2150000D01*
D10*
X4750000Y23000000D02*
X4750000Y23250000D01*
D10*
X3500000Y52500000D02*
X1750000Y50750000D01*
D10*
X8570000Y44250000D02*
X8250000Y43930000D01*
D10*
X5250008Y46999992D02*
X5250008Y48000056D01*
D13*
X7500712Y-249344D02*
X7500712Y2500712D01*
D10*
X7000000Y37000000D02*
X7000000Y37913871D01*
D10*
X10000000Y22875000D02*
X10000000Y24500000D01*
D10*
X2750000Y5000000D02*
X5500000Y5000000D01*
D10*
X6500000Y17500000D02*
X7250000Y18250000D01*
D13*
X-7500000Y4000000D02*
X-8406578Y3093422D01*
D10*
X-1250000Y44500000D02*
X-1250000Y45430000D01*
D10*
X12000000Y24000000D02*
X11500000Y23500000D01*
D10*
X15125000Y21750000D02*
X15750000Y21750000D01*
D14*
X12550000Y12582844D02*
X11417156Y11450000D01*
D17*
X15850000Y2048272D02*
X15150000Y1348272D01*
D10*
X-9250000Y12750000D02*
X-8866494Y12750000D01*
D10*
X-9320000Y45000000D02*
X-14250000Y45000000D01*
D10*
X3474974Y6400026D02*
X4974974Y6400026D01*
D10*
X15500000Y16750000D02*
X15125000Y16750000D01*
D10*
X3474974Y7675404D02*
X3850378Y7300000D01*
D13*
X14192618Y6557382D02*
X14192618Y7442618D01*
D10*
X14000000Y16125000D02*
X14000000Y17250000D01*
D10*
X3500000Y11080036D02*
X2688160Y11080036D01*
D10*
X13000000Y26200000D02*
X12900000Y26300000D01*
D10*
X3000000Y17000000D02*
X6750000Y17000000D01*
D10*
X3474974Y10525026D02*
X5775026Y10525026D01*
D12*
X17250000Y6750000D02*
X17250000Y17954602D01*
D10*
X-6750000Y36250000D02*
X-6750000Y33750000D01*
D14*
X-4369999Y5657413D02*
X-4000000Y5287414D01*
D10*
X7750000Y9500000D02*
X7750000Y11500000D01*
D13*
X-10402168Y-250000D02*
X-12152168Y1500000D01*
D12*
X15750000Y6750000D02*
X15750000Y7250000D01*
D10*
X15750000Y16250000D02*
X15750000Y16500000D01*
D10*
X12250000Y46250000D02*
X11500000Y47000000D01*
D10*
X5750000Y8250000D02*
X7250000Y9750000D01*
D13*
X9150000Y2150000D02*
X8500000Y1500000D01*
D14*
X-2000000Y3000000D02*
X-1500000Y3500000D01*
D10*
X7750000Y36250000D02*
X7000000Y37000000D01*
D10*
X8966249Y14000000D02*
X4250000Y14000000D01*
D10*
X14000000Y16125000D02*
X14000000Y15250000D01*
D10*
X14189998Y9189998D02*
X14250000Y9250000D01*
D10*
X12500000Y42250000D02*
X12500000Y43500000D01*
D10*
X-285011Y6785011D02*
X285011Y7355033D01*
D10*
X-8866494Y12750000D02*
X-7875000Y13741494D01*
D11*
X1250000Y58000000D02*
X-16500000Y58000000D01*
D11*
X-16500000Y58000000D02*
X-17500000Y57000000D01*
D10*
X4250000Y28500000D02*
X5500000Y29750000D01*
D12*
X17050000Y3200000D02*
X17050000Y2498277D01*
D10*
X-9100000Y26300000D02*
X-9100000Y32700000D01*
D10*
X4000000Y38500000D02*
X4000000Y39250000D01*
D13*
X14000000Y1000000D02*
X14000000Y1750000D01*
D10*
X-7875000Y11596520D02*
X-7875000Y12241494D01*
D10*
X5750000Y19000000D02*
X6500000Y19750000D01*
D13*
X-12152168Y1500000D02*
X-15250000Y1500000D01*
D10*
X-4750000Y46000000D02*
X-5250000Y46500000D01*
D10*
X14250000Y15000000D02*
X14250000Y14250000D01*
D10*
X8375000Y17250000D02*
X9500000Y17250000D01*
D10*
X7719402Y21250000D02*
X6250000Y21250000D01*
D10*
X5250008Y50000056D02*
X3750056Y50000056D01*
D17*
X15150000Y1348272D02*
X15150000Y750000D01*
D10*
X1750000Y23500000D02*
X3250000Y25000000D01*
D10*
X6750000Y19250000D02*
X6000000Y18500000D01*
D11*
X-16250000Y5250000D02*
X-15750000Y5250000D01*
D14*
X12500000Y16125000D02*
X12550000Y16075000D01*
D13*
X7500000Y-250056D02*
X14000056Y-250056D01*
D10*
X-1719999Y1280001D02*
X-3280001Y1280001D01*
D10*
X5250000Y11500000D02*
X3919964Y11500000D01*
D13*
X9750000Y4250000D02*
X10350000Y4850000D01*
D10*
X13000000Y7500000D02*
X12500000Y7500000D01*
D10*
X-12000000Y10500000D02*
X-12000000Y14469402D01*
D10*
X9900000Y9939998D02*
X10500000Y9939998D01*
D10*
X-4250000Y48000000D02*
X-5250000Y48000000D01*
D14*
X-4000000Y5287414D02*
X-4000000Y4250000D01*
D10*
X8375000Y20250000D02*
X7935651Y20250000D01*
D10*
X15000000Y15000000D02*
X15750000Y15000000D01*
D10*
X15750000Y23000000D02*
X15750000Y22500000D01*
D14*
X8700000Y9167156D02*
X7200000Y7667156D01*
D10*
X1250000Y45430000D02*
X1250000Y44250000D01*
D10*
X2500000Y22000000D02*
X3250000Y21250000D01*
D10*
X5250000Y45430000D02*
X5250000Y46288125D01*
D17*
X15850000Y3200000D02*
X15850000Y2048272D01*
D10*
X1094999Y17185599D02*
X2030598Y16250000D01*
D10*
X7250000Y33750000D02*
X7250000Y32000000D01*
D10*
X13000000Y29250000D02*
X6250000Y29250000D01*
D10*
X3500000Y16250000D02*
X4500000Y16250000D01*
D10*
X1500000Y13750000D02*
X2250000Y14500000D01*
D13*
X-9483746Y3093422D02*
X-11593422Y3093422D01*
D10*
X11000000Y27000000D02*
X12000000Y26000000D01*
D10*
X-3250000Y45430000D02*
X-3250000Y39250000D01*
D10*
X3750000Y46430000D02*
X3250000Y46430000D01*
D13*
X-6950000Y26300000D02*
X-8250000Y25000000D01*
D10*
X11500000Y14500000D02*
X11500000Y16125000D01*
D10*
X13250000Y1250000D02*
X13000000Y1000000D01*
D14*
X-3195996Y4000000D02*
X-2765986Y3569990D01*
D13*
X-15500000Y2500000D02*
X-15500000Y1750000D01*
D10*
X1750000Y44500000D02*
X1750000Y45430000D01*
D10*
X14250000Y4250000D02*
X14250000Y5000000D01*
D10*
X12141875Y45250000D02*
X13725000Y45250000D01*
D10*
X13500000Y24000000D02*
X16750000Y27250000D01*
D10*
X4750000Y22500000D02*
X4750000Y23000000D01*
D10*
X-11849999Y5349999D02*
X-11500000Y5000000D01*
D14*
X7200000Y5417156D02*
X5832844Y4050000D01*
D10*
X-2599999Y13400001D02*
X-2849999Y13400001D01*
D10*
X14000000Y47250000D02*
X14000000Y46175000D01*
D10*
X-14000000Y2500000D02*
X-14000000Y3969402D01*
D10*
X8375000Y20750000D02*
X5500000Y20750000D01*
D17*
X16250000Y6500000D02*
X16750000Y7000000D01*
D10*
X11500000Y50500000D02*
X9500000Y52500000D01*
D10*
X15750000Y32250000D02*
X15750000Y33000000D01*
D10*
X2500000Y46430000D02*
X2750000Y46430000D01*
D13*
X-15750000Y3250000D02*
X-15750000Y3750000D01*
D10*
X12500000Y1000000D02*
X12500000Y2125000D01*
D10*
X14000000Y23750000D02*
X17250000Y27000000D01*
D10*
X10895000Y9689998D02*
X10645000Y9939998D01*
D10*
X-7250000Y11466494D02*
X-7744974Y11466494D01*
G75*
D19*
X-2425000Y3000000D03*
D20*
X-1075000Y3000000D03*
D20*
X-1075000Y3500000D03*
D20*
X-1075000Y4000000D03*
D19*
X-2425000Y4000000D03*
D21*
X12500000Y6000000D03*
D21*
X11000000Y6000000D03*
D22*
X-9100000Y32700000D03*
D23*
X-12900000Y26300000D03*
D23*
X-9100000Y26300000D03*
D22*
X-12900000Y32700000D03*
D24*
X17050000Y5300000D03*
D24*
X16250000Y5300000D03*
D25*
X16250000Y3200000D03*
D25*
X17050000Y3200000D03*
D25*
X15850000Y3200000D03*
D25*
X15450000Y3200000D03*
D24*
X15850000Y5300000D03*
D25*
X16650000Y3200000D03*
D24*
X16650000Y5300000D03*
D26*
X16250000Y4250000D03*
D24*
X15450000Y5300000D03*
D27*
X14250000Y3500000D03*
D27*
X14250000Y2000000D03*
D28*
X-9250000Y12750000D03*
D28*
X-10750000Y12750000D03*
D29*
X15750000Y11250000D03*
D29*
X15750000Y12750000D03*
D30*
X9500000Y42750000D03*
D30*
X11000000Y42750000D03*
D31*
X3474974Y10525026D03*
D31*
X3474974Y9025026D03*
D22*
X-1800000Y32700000D03*
D23*
X-5600000Y26300000D03*
D23*
X-1800000Y26300000D03*
D22*
X-5600000Y32700000D03*
D32*
X11000000Y7500000D03*
D32*
X12500000Y7500000D03*
D28*
X-5500000Y23250000D03*
D28*
X-7000000Y23250000D03*
D29*
X9900000Y8439998D03*
D29*
X9900000Y9939998D03*
D27*
X-5000000Y14750000D03*
D27*
X-5000000Y13250000D03*
D31*
X15150000Y750000D03*
D31*
X15150000Y-750000D03*
D29*
X3500000Y47750000D03*
D29*
X3500000Y49250000D03*
D33*
X11250000Y9689998D03*
D33*
X11250000Y8689998D03*
D33*
X12550000Y9189998D03*
D34*
X14250000Y5000000D03*
D34*
X14250000Y6500000D03*
D31*
X-15750000Y5250000D03*
D31*
X-15750000Y3750000D03*
D30*
X11000000Y1000000D03*
D30*
X12500000Y1000000D03*
D31*
X5250000Y13000000D03*
D31*
X5250000Y11500000D03*
D32*
X-15500000Y2500000D03*
D32*
X-14000000Y2500000D03*
D29*
X3474974Y6400026D03*
D29*
X3474974Y7900026D03*
D27*
X-1000000Y15250000D03*
D27*
X-1000000Y13750000D03*
D34*
X16500000Y22000000D03*
D34*
X16500000Y23500000D03*
D35*
X3250000Y45430000D03*
D35*
X1750000Y45430000D03*
D35*
X1250000Y45430000D03*
D35*
X-3250000Y45430000D03*
D35*
X7250000Y45430000D03*
D35*
X4750000Y45430000D03*
D35*
X-1250000Y45430000D03*
D35*
X5250000Y45430000D03*
D35*
X2250000Y45430000D03*
D35*
X-2750000Y45430000D03*
D35*
X4250000Y45430000D03*
D35*
X5750000Y45430000D03*
D35*
X750000Y45430000D03*
D35*
X-750000Y45430000D03*
D35*
X-4750000Y45430000D03*
D35*
X250000Y45430000D03*
D35*
X-250000Y45430000D03*
D35*
X-6750000Y45430000D03*
D36*
X-8250000Y42930000D03*
D35*
X6250000Y45430000D03*
D35*
X3750000Y45430000D03*
D35*
X-6250000Y45430000D03*
D35*
X-3750000Y45430000D03*
D35*
X-1750000Y45430000D03*
D35*
X-5750000Y45430000D03*
D35*
X-5250000Y45430000D03*
D36*
X8250000Y42930000D03*
D35*
X6750000Y45430000D03*
D35*
X-7250000Y45430000D03*
D35*
X2750000Y45430000D03*
D35*
X-4250000Y45430000D03*
D35*
X-2250000Y45430000D03*
D37*
X7000008Y48000056D03*
D37*
X7000008Y50000056D03*
D29*
X14250000Y9250000D03*
D29*
X14250000Y10750000D03*
D27*
X-6625000Y13741494D03*
D27*
X-6625000Y12241494D03*
D32*
X-10000000Y16250000D03*
D32*
X-8500000Y16250000D03*
D22*
X5600000Y32700000D03*
D23*
X1800000Y26300000D03*
D23*
X5600000Y26300000D03*
D22*
X1800000Y32700000D03*
D30*
X14250000Y14250000D03*
D30*
X15750000Y14250000D03*
D38*
X6249992Y1749944D03*
D38*
X6249992Y-250056D03*
D39*
X15175000Y47175000D03*
D40*
X13150000Y44750000D03*
D40*
X13150000Y45250000D03*
D40*
X13150000Y44250000D03*
D40*
X13150000Y43750000D03*
D40*
X13150000Y46250000D03*
D39*
X15175000Y42825000D03*
D40*
X13150000Y45750000D03*
D31*
X4974974Y7900026D03*
D31*
X4974974Y6400026D03*
D27*
X-7875000Y13741494D03*
D27*
X-7875000Y12241494D03*
D34*
X-8250000Y-250000D03*
D34*
X-8250000Y1250000D03*
D37*
X-14999992Y9000056D03*
D37*
X-14999992Y11000056D03*
D34*
X-9483746Y1593422D03*
D34*
X-9483746Y3093422D03*
D41*
X0Y40000000D03*
D41*
X0Y50000000D03*
D41*
X-14250000Y25000000D03*
D41*
X-3170000Y35000000D03*
D41*
X0Y30000000D03*
D41*
X-14250000Y35000000D03*
D41*
X-8570000Y35000000D03*
D41*
X-5670000Y55000000D03*
D41*
X0Y20000000D03*
D41*
X-14250000Y45000000D03*
D41*
X-14250000Y55000000D03*
D31*
X16650000Y750000D03*
D31*
X16650000Y-750000D03*
D31*
X9750000Y4250000D03*
D31*
X9750000Y2750000D03*
D37*
X5250008Y48000056D03*
D37*
X5250008Y50000056D03*
D22*
X12900000Y32700000D03*
D23*
X9100000Y26300000D03*
D23*
X12900000Y26300000D03*
D22*
X9100000Y32700000D03*
D28*
X-5500000Y24500000D03*
D28*
X-7000000Y24500000D03*
D42*
X-10749944Y6749992D03*
D42*
X-8749944Y6749992D03*
D32*
X-5750000Y2500000D03*
D32*
X-4250000Y2500000D03*
D29*
X-9500000Y13750000D03*
D29*
X-9500000Y15250000D03*
D29*
X500000Y13750000D03*
D29*
X500000Y15250000D03*
D43*
X11925000Y2150000D03*
D43*
X12525000Y4850000D03*
D43*
X12525000Y2150000D03*
D44*
X11150001Y2150000D03*
D43*
X11925000Y4850000D03*
D45*
X11750000Y3500000D03*
D44*
X11150001Y4850000D03*
D46*
X15125000Y19250000D03*
D47*
X12500000Y16125000D03*
D48*
X8375000Y19750000D03*
D49*
X13500000Y22875000D03*
D49*
X14000000Y22875000D03*
D46*
X15125000Y17750000D03*
D49*
X11000000Y22875000D03*
D48*
X8375000Y17750000D03*
D50*
X11750000Y19500000D03*
D48*
X8375000Y16750000D03*
D48*
X8375000Y20250000D03*
D46*
X15125000Y19750000D03*
D49*
X11500000Y22875000D03*
D49*
X12500000Y22875000D03*
D46*
X15125000Y18250000D03*
D47*
X14000000Y16125000D03*
D46*
X15125000Y21750000D03*
D49*
X10000000Y22875000D03*
D46*
X15125000Y20750000D03*
D48*
X8375000Y18250000D03*
D48*
X8375000Y18750000D03*
D46*
X15125000Y22250000D03*
D49*
X12000000Y22875000D03*
D48*
X8375000Y22250000D03*
D46*
X15125000Y20250000D03*
D46*
X15125000Y21250000D03*
D47*
X11500000Y16125000D03*
D46*
X15125000Y16750000D03*
D48*
X8375000Y21250000D03*
D47*
X11000000Y16125000D03*
D47*
X10500000Y16125000D03*
D47*
X13500000Y16125000D03*
D47*
X9000000Y16125000D03*
D49*
X13000000Y22875000D03*
D47*
X14500000Y16125000D03*
D49*
X9000000Y22875000D03*
D47*
X12000000Y16125000D03*
D47*
X10000000Y16125000D03*
D47*
X13000000Y16125000D03*
D46*
X15125000Y18750000D03*
D48*
X8375000Y19250000D03*
D48*
X8375000Y17250000D03*
D49*
X14500000Y22875000D03*
D47*
X9500000Y16125000D03*
D49*
X9500000Y22875000D03*
D48*
X8375000Y20750000D03*
D49*
X10500000Y22875000D03*
D48*
X8375000Y21750000D03*
D46*
X15125000Y17250000D03*
D28*
X6000000Y16250000D03*
D28*
X4500000Y16250000D03*
D30*
X-6750000Y48000000D03*
D30*
X-5250000Y48000000D03*
D51*
X-11500000Y5000000D03*
D51*
X11250000Y24500000D03*
D51*
X16000000Y9250000D03*
D51*
X10750000Y25250000D03*
D51*
X-3750000Y10000000D03*
D51*
X2500000Y22000000D03*
D51*
X16250000Y18000000D03*
D51*
X3000000Y35500000D03*
D51*
X-12000000Y20000000D03*
D51*
X-3500000Y5750000D03*
D51*
X4250000Y27250000D03*
D51*
X2000000Y37500000D03*
D51*
X14000000Y-1500000D03*
D51*
X8500000Y1500000D03*
D51*
X15900000Y-750000D03*
D51*
X15750000Y15000000D03*
D51*
X-5250000Y16000000D03*
D51*
X-3750000Y14500000D03*
D51*
X-8000000Y7500000D03*
D51*
X-12500000Y4500000D03*
D51*
X-12500000Y7250000D03*
D51*
X-4000000Y21750000D03*
D51*
X631353Y517709D03*
D51*
X8500000Y500000D03*
D51*
X-10750000Y13500000D03*
D51*
X-15000000Y17000000D03*
D51*
X-11250000Y14250000D03*
D51*
X4000000Y38500000D03*
D51*
X-2250000Y4500000D03*
D51*
X-5000000Y5750000D03*
D51*
X14250000Y12500000D03*
D51*
X-5000000Y8000000D03*
D51*
X5500000Y19750000D03*
D51*
X-2250000Y15000000D03*
D51*
X-11250000Y8000000D03*
D51*
X11000000Y35500000D03*
D51*
X2000000Y58750000D03*
D51*
X4250000Y28500000D03*
D51*
X-3250000Y4750000D03*
D51*
X-8500000Y18750000D03*
D51*
X15750000Y7250000D03*
D51*
X-10750000Y15000000D03*
D51*
X7250000Y22750000D03*
D51*
X4131353Y-1482291D03*
D51*
X-5500000Y5000000D03*
D51*
X3250000Y22500000D03*
D51*
X-7250000Y11466494D03*
D51*
X9750000Y24750000D03*
D51*
X4500000Y24750000D03*
D51*
X5750000Y44000000D03*
D51*
X-4500000Y10500000D03*
D51*
X6250000Y42000000D03*
D51*
X6250000Y10000000D03*
D51*
X-12750000Y12000000D03*
D51*
X15750000Y13250000D03*
D51*
X2750000Y13750000D03*
D51*
X15125000Y4250000D03*
D51*
X2500000Y21000000D03*
D51*
X1000000Y8750000D03*
D51*
X-14500000Y15500000D03*
D51*
X6000000Y21500000D03*
D51*
X-7250000Y14750000D03*
D51*
X-16250000Y7000000D03*
D51*
X16250000Y31750000D03*
D51*
X16625000Y4250000D03*
D51*
X4724982Y9105552D03*
D51*
X-16750000Y3000000D03*
D51*
X-10500000Y21750000D03*
D51*
X16000000Y28250000D03*
D51*
X15250000Y23500000D03*
D51*
X750000Y5250000D03*
D51*
X-10500000Y17500000D03*
D51*
X5250000Y41000000D03*
D51*
X-8000000Y23250000D03*
D51*
X14250000Y11500000D03*
D51*
X-13500000Y9000000D03*
D51*
X-10520000Y26480000D03*
D51*
X2500000Y6350000D03*
D51*
X-14453004Y12030856D03*
D51*
X12250000Y28000000D03*
D51*
X-7250000Y16500000D03*
D51*
X7500000Y28000000D03*
D51*
X1250000Y6350000D03*
D51*
X1750000Y48500000D03*
D51*
X14000000Y1000000D03*
D51*
X3800000Y55450000D03*
D51*
X-10000000Y15500000D03*
D51*
X2881353Y500000D03*
D51*
X8750000Y24750000D03*
D51*
X15517217Y33767217D03*
D51*
X1500000Y34750000D03*
D51*
X7750000Y36250000D03*
D51*
X-6500000Y4750000D03*
D51*
X6030000Y3250000D03*
D51*
X15250000Y15750000D03*
D51*
X3250000Y23500000D03*
D51*
X3850378Y7300000D03*
D51*
X0Y-1000000D03*
D51*
X3750000Y3250000D03*
D51*
X16419985Y20000000D03*
D51*
X2000000Y35500000D03*
D51*
X16250000Y21000000D03*
D51*
X-5500000Y22250000D03*
D51*
X7250000Y35250000D03*
D51*
X3500000Y16250000D03*
D51*
X16500000Y32750000D03*
D51*
X15750000Y27250000D03*
D51*
X-8750000Y21750000D03*
D51*
X-15250000Y12750000D03*
D51*
X-2250000Y13750000D03*
D51*
X-7500000Y4500000D03*
D51*
X-3525000Y2500000D03*
D51*
X-6058300Y18652494D03*
D51*
X-2750000Y9750000D03*
D51*
X-13453004Y11030856D03*
D51*
X1750000Y17500000D03*
D51*
X1250000Y7300000D03*
D51*
X5500000Y24750000D03*
D51*
X-3500000Y18750000D03*
D51*
X15875000Y4250000D03*
D51*
X11000000Y27000000D03*
D51*
X6750000Y22000000D03*
D51*
X-2500000Y28000000D03*
D51*
X-4750000Y500000D03*
D51*
X3750000Y24250000D03*
M02*
