%FSLAX46Y46*%
%MOMM*%
%ADD10C,0.150000*%
%ADD11C,0.250000*%
%ADD12C,1.000000*%
G01*
G01*
%LPD*%
D10*
X-3154762Y8428571D02*
X-3107143Y8428571D01*
D10*
X-3202381Y8523810D02*
X-3154762Y8428571D01*
D10*
X-3154762Y8238095D02*
X-3202381Y8523810D01*
D10*
X-3154762Y8333333D02*
X-3154762Y8238095D01*
D10*
X-3107143Y8428571D02*
X-3154762Y8333333D01*
D10*
X-3059523Y8476190D02*
X-3107143Y8428571D01*
D10*
X-2964285Y8523810D02*
X-3059523Y8476190D01*
D10*
X-2821428Y8523810D02*
X-2964285Y8523810D01*
D10*
X-2678571Y8476190D02*
X-2821428Y8523810D01*
D10*
X-2583333Y8380952D02*
X-2678571Y8476190D01*
D10*
X-2488095Y8238095D02*
X-2583333Y8380952D01*
D10*
X-2440476Y8095238D02*
X-2488095Y8238095D01*
D10*
X-2392857Y7904762D02*
X-2440476Y8095238D01*
D10*
X-2392857Y7761905D02*
X-2392857Y7904762D01*
D10*
X-2440476Y7619047D02*
X-2392857Y7761905D01*
D10*
X-2488095Y7571428D02*
X-2440476Y7619047D01*
D10*
X-2630952Y7523809D02*
X-2488095Y7571428D01*
D10*
X-2773809Y7523809D02*
X-2630952Y7523809D01*
D10*
X-2869047Y7571428D02*
X-2773809Y7523809D01*
D10*
X-2964285Y7666666D02*
X-2869047Y7571428D01*
D10*
X-3011904Y7761905D02*
X-2964285Y7666666D01*
D10*
X-2726190Y8476190D02*
X-2821428Y8523810D01*
D10*
X-2630952Y8380952D02*
X-2726190Y8476190D01*
D10*
X-2535714Y8238095D02*
X-2630952Y8380952D01*
D10*
X-2488095Y8095238D02*
X-2535714Y8238095D01*
D10*
X-2440476Y7904762D02*
X-2488095Y8095238D01*
D10*
X-2440476Y7761905D02*
X-2440476Y7904762D01*
D10*
X-2488095Y7619047D02*
X-2440476Y7761905D01*
D10*
X-2535714Y7571428D02*
X-2488095Y7619047D01*
D10*
X-2630952Y7523809D02*
X-2535714Y7571428D01*
D10*
X-3630952Y8285714D02*
X-3583333Y8333333D01*
D10*
X-3583333Y8238095D02*
X-3630952Y8285714D01*
D10*
X-3535714Y8285714D02*
X-3583333Y8238095D01*
D10*
X-3535714Y8333333D02*
X-3535714Y8285714D01*
D10*
X-3583333Y8428571D02*
X-3535714Y8333333D01*
D10*
X-3630952Y8476190D02*
X-3583333Y8428571D01*
D10*
X-3773809Y8523810D02*
X-3630952Y8476190D01*
D10*
X-3916666Y8523810D02*
X-3773809Y8523810D01*
D10*
X-4059523Y8476190D02*
X-3916666Y8523810D01*
D10*
X-4107143Y8380952D02*
X-4059523Y8476190D01*
D10*
X-4107143Y8285714D02*
X-4107143Y8380952D01*
D10*
X-4059523Y8190476D02*
X-4107143Y8285714D01*
D10*
X-3964285Y8095238D02*
X-4059523Y8190476D01*
D10*
X-3821428Y8000000D02*
X-3964285Y8095238D01*
D10*
X-3630952Y7904762D02*
X-3821428Y8000000D01*
D10*
X-3488095Y7809524D02*
X-3630952Y7904762D01*
D10*
X-3392857Y7714285D02*
X-3488095Y7809524D01*
D10*
X-3297619Y7523809D02*
X-3392857Y7714285D01*
D10*
X-4011904Y8476190D02*
X-3916666Y8523810D01*
D10*
X-4059523Y8380952D02*
X-4011904Y8476190D01*
D10*
X-4059523Y8285714D02*
X-4059523Y8380952D01*
D10*
X-4011904Y8190476D02*
X-4059523Y8285714D01*
D10*
X-3916666Y8095238D02*
X-4011904Y8190476D01*
D10*
X-3630952Y7904762D02*
X-3916666Y8095238D01*
D10*
X-3392857Y7666666D02*
X-3345238Y7619047D01*
D10*
X-3488095Y7666666D02*
X-3392857Y7666666D01*
D10*
X-3726190Y7571428D02*
X-3488095Y7666666D01*
D10*
X-3869047Y7571428D02*
X-3726190Y7571428D01*
D10*
X-3964285Y7619047D02*
X-3869047Y7571428D01*
D10*
X-4011904Y7714285D02*
X-3964285Y7619047D01*
D10*
X-3726190Y7523809D02*
X-3488095Y7666666D01*
D10*
X-3869047Y7523809D02*
X-3726190Y7523809D01*
D10*
X-3964285Y7571428D02*
X-3869047Y7523809D01*
D10*
X-4011904Y7714285D02*
X-3964285Y7571428D01*
D10*
X-4583333Y7523809D02*
X-4821428Y8333333D01*
D10*
X-4630952Y7523809D02*
X-4916666Y8523810D01*
D10*
X-4773809Y8380952D02*
X-4916666Y8523810D01*
D10*
X-4630952Y8285714D02*
X-4773809Y8380952D01*
D10*
X-4535714Y8238095D02*
X-4630952Y8285714D01*
D10*
X-4678571Y8285714D02*
X-4869047Y8380952D01*
D10*
X-4535714Y8238095D02*
X-4678571Y8285714D01*
D10*
X6452381Y6250000D02*
X6309524Y6773809D01*
D10*
X6500000Y6059524D02*
X6452381Y6250000D01*
D10*
X6500000Y5916666D02*
X6500000Y6059524D01*
D10*
X6452381Y5821428D02*
X6500000Y5916666D01*
D10*
X6309524Y5773809D02*
X6452381Y5821428D01*
D10*
X6119047Y5773809D02*
X6309524Y5773809D01*
D10*
X5976190Y5821428D02*
X6119047Y5773809D01*
D10*
X5880952Y5916666D02*
X5976190Y5821428D01*
D10*
X5833333Y6059524D02*
X5880952Y5916666D01*
D10*
X5642857Y6773809D02*
X5833333Y6059524D01*
D10*
X6404762Y6250000D02*
X6261905Y6773809D01*
D10*
X6452381Y6059524D02*
X6404762Y6250000D01*
D10*
X6452381Y5916666D02*
X6452381Y6059524D01*
D10*
X6404762Y5821428D02*
X6452381Y5916666D01*
D10*
X6309524Y5773809D02*
X6404762Y5821428D01*
D10*
X6119047Y6773809D02*
X6452381Y6773809D01*
D10*
X5500000Y6773809D02*
X5785714Y6773809D01*
D10*
X5309524Y6488095D02*
X5214285Y6773809D01*
D10*
X4642857Y6630952D02*
X4595238Y6773809D01*
D10*
X4738095Y6488095D02*
X4642857Y6630952D01*
D10*
X4976190Y6202381D02*
X4738095Y6488095D01*
D10*
X5071428Y6059524D02*
X4976190Y6202381D01*
D10*
X5119047Y5964285D02*
X5071428Y6059524D01*
D10*
X5166666Y5773809D02*
X5119047Y5964285D01*
D10*
X5023809Y6202381D02*
X4738095Y6488095D01*
D10*
X5119047Y6059524D02*
X5023809Y6202381D01*
D10*
X5166666Y5964285D02*
X5119047Y6059524D01*
D10*
X5214285Y5773809D02*
X5166666Y5964285D01*
D10*
X5119047Y6773809D02*
X5261905Y6630952D01*
D10*
X5023809Y6773809D02*
X5119047Y6773809D01*
D10*
X4785714Y6630952D02*
X5023809Y6773809D01*
D10*
X5119047Y6726190D02*
X5214285Y6678571D01*
D10*
X5023809Y6726190D02*
X5119047Y6726190D01*
D10*
X4785714Y6630952D02*
X5023809Y6726190D01*
D10*
X4690476Y6630952D02*
X4785714Y6630952D01*
D10*
X4642857Y6678571D02*
X4690476Y6630952D01*
D10*
X4595238Y6773809D02*
X4642857Y6678571D01*
D10*
X-12750000Y5047619D02*
X-12226190Y5190476D01*
D10*
X-12940476Y5000000D02*
X-12750000Y5047619D01*
D10*
X-13083333Y5000000D02*
X-12940476Y5000000D01*
D10*
X-13178571Y5047619D02*
X-13083333Y5000000D01*
D10*
X-13226190Y5190476D02*
X-13178571Y5047619D01*
D10*
X-13226190Y5380952D02*
X-13226190Y5190476D01*
D10*
X-13178571Y5523809D02*
X-13226190Y5380952D01*
D10*
X-13083333Y5619047D02*
X-13178571Y5523809D01*
D10*
X-12940476Y5666667D02*
X-13083333Y5619047D01*
D10*
X-12226190Y5857143D02*
X-12940476Y5666667D01*
D10*
X-12750000Y5095238D02*
X-12226190Y5238095D01*
D10*
X-12940476Y5047619D02*
X-12750000Y5095238D01*
D10*
X-13083333Y5047619D02*
X-12940476Y5047619D01*
D10*
X-13178571Y5095238D02*
X-13083333Y5047619D01*
D10*
X-13226190Y5190476D02*
X-13178571Y5095238D01*
D10*
X-12226190Y5380952D02*
X-12226190Y5047619D01*
D10*
X-12226190Y6000000D02*
X-12226190Y5714286D01*
D10*
X-12416667Y6761905D02*
X-12369048Y6809524D01*
D10*
X-12464286Y6809524D02*
X-12416667Y6761905D01*
D10*
X-12416667Y6857143D02*
X-12464286Y6809524D01*
D10*
X-12369048Y6857143D02*
X-12416667Y6857143D01*
D10*
X-12273810Y6809524D02*
X-12369048Y6857143D01*
D10*
X-12226190Y6714285D02*
X-12273810Y6809524D01*
D10*
X-12226190Y6571428D02*
X-12226190Y6714285D01*
D10*
X-12273810Y6428571D02*
X-12226190Y6571428D01*
D10*
X-12369048Y6333333D02*
X-12273810Y6428571D01*
D10*
X-12511905Y6238095D02*
X-12369048Y6333333D01*
D10*
X-12654762Y6190476D02*
X-12511905Y6238095D01*
D10*
X-12845238Y6142857D02*
X-12654762Y6190476D01*
D10*
X-13035714Y6142857D02*
X-12845238Y6142857D01*
D10*
X-13130952Y6190476D02*
X-13035714Y6142857D01*
D10*
X-13178571Y6238095D02*
X-13130952Y6190476D01*
D10*
X-13226190Y6333333D02*
X-13178571Y6238095D01*
D10*
X-13226190Y6476190D02*
X-13226190Y6333333D01*
D10*
X-13178571Y6619047D02*
X-13226190Y6476190D01*
D10*
X-13083333Y6714285D02*
X-13178571Y6619047D01*
D10*
X-12988095Y6761905D02*
X-13083333Y6714285D01*
D10*
X-12845238Y6761905D02*
X-12988095Y6761905D01*
D10*
X-12750000Y6714285D02*
X-12845238Y6761905D01*
D10*
X-12702381Y6666666D02*
X-12750000Y6714285D01*
D10*
X-12654762Y6571428D02*
X-12702381Y6666666D01*
D10*
X-12654762Y6428571D02*
X-12654762Y6571428D01*
D10*
X-12702381Y6333333D02*
X-12654762Y6428571D01*
D10*
X-12797619Y6238095D02*
X-12702381Y6333333D01*
D10*
X-12892857Y6190476D02*
X-12797619Y6238095D01*
D10*
X-12273810Y6476190D02*
X-12226190Y6571428D01*
D10*
X-12369048Y6380952D02*
X-12273810Y6476190D01*
D10*
X-12511905Y6285714D02*
X-12369048Y6380952D01*
D10*
X-12654762Y6238095D02*
X-12511905Y6285714D01*
D10*
X-12845238Y6190476D02*
X-12654762Y6238095D01*
D10*
X-13083333Y6190476D02*
X-12845238Y6190476D01*
D10*
X-13178571Y6238095D02*
X-13083333Y6190476D01*
D10*
X-13178571Y6571428D02*
X-13226190Y6476190D01*
D10*
X-13083333Y6666666D02*
X-13178571Y6571428D01*
D10*
X-12988095Y6714285D02*
X-13083333Y6666666D01*
D10*
X-12797619Y6714285D02*
X-12988095Y6714285D01*
D10*
X-12702381Y6666666D02*
X-12797619Y6714285D01*
D10*
X15380952Y51964284D02*
X15142857Y52773808D01*
D10*
X15428571Y51869048D02*
X15380952Y51964284D01*
D10*
X15476190Y51821428D02*
X15428571Y51869048D01*
D10*
X15571428Y51773808D02*
X15476190Y51821428D01*
D10*
X15666667Y51773808D02*
X15571428Y51773808D01*
D10*
X15761905Y51821428D02*
X15666667Y51773808D01*
D10*
X15809524Y51916668D02*
X15761905Y51821428D01*
D10*
X15809524Y52011904D02*
X15809524Y51916668D01*
D10*
X15761905Y52059524D02*
X15809524Y52011904D01*
D10*
X15714286Y52011904D02*
X15761905Y52059524D01*
D10*
X15761905Y51964284D02*
X15714286Y52011904D01*
D10*
X15428571Y51964284D02*
X15190476Y52773808D01*
D10*
X15476190Y51869048D02*
X15428571Y51964284D01*
D10*
X15571428Y51773808D02*
X15476190Y51869048D01*
D10*
X15000000Y52773808D02*
X15333333Y52773808D01*
D10*
X14809524Y52488096D02*
X14714286Y52773808D01*
D10*
X14142857Y52630952D02*
X14095238Y52773808D01*
D10*
X14238095Y52488096D02*
X14142857Y52630952D01*
D10*
X14476190Y52202380D02*
X14238095Y52488096D01*
D10*
X14571429Y52059524D02*
X14476190Y52202380D01*
D10*
X14619048Y51964284D02*
X14571429Y52059524D01*
D10*
X14666667Y51773808D02*
X14619048Y51964284D01*
D10*
X14523810Y52202380D02*
X14238095Y52488096D01*
D10*
X14619048Y52059524D02*
X14523810Y52202380D01*
D10*
X14666667Y51964284D02*
X14619048Y52059524D01*
D10*
X14714286Y51773808D02*
X14666667Y51964284D01*
D10*
X14619048Y52773808D02*
X14761905Y52630952D01*
D10*
X14523810Y52773808D02*
X14619048Y52773808D01*
D10*
X14285714Y52630952D02*
X14523810Y52773808D01*
D10*
X14619048Y52726192D02*
X14714286Y52678572D01*
D10*
X14523810Y52726192D02*
X14619048Y52726192D01*
D10*
X14285714Y52630952D02*
X14523810Y52726192D01*
D10*
X14190476Y52630952D02*
X14285714Y52630952D01*
D10*
X14142857Y52678572D02*
X14190476Y52630952D01*
D10*
X14095238Y52773808D02*
X14142857Y52678572D01*
D10*
X-6047619Y10750000D02*
X-6190476Y11273810D01*
D10*
X-6000000Y10559524D02*
X-6047619Y10750000D01*
D10*
X-6000000Y10416667D02*
X-6000000Y10559524D01*
D10*
X-6047619Y10321429D02*
X-6000000Y10416667D01*
D10*
X-6190476Y10273810D02*
X-6047619Y10321429D01*
D10*
X-6380952Y10273810D02*
X-6190476Y10273810D01*
D10*
X-6523809Y10321429D02*
X-6380952Y10273810D01*
D10*
X-6619048Y10416667D02*
X-6523809Y10321429D01*
D10*
X-6666667Y10559524D02*
X-6619048Y10416667D01*
D10*
X-6857143Y11273810D02*
X-6666667Y10559524D01*
D10*
X-6095238Y10750000D02*
X-6238095Y11273810D01*
D10*
X-6047619Y10559524D02*
X-6095238Y10750000D01*
D10*
X-6047619Y10416667D02*
X-6047619Y10559524D01*
D10*
X-6095238Y10321429D02*
X-6047619Y10416667D01*
D10*
X-6190476Y10273810D02*
X-6095238Y10321429D01*
D10*
X-6380952Y11273810D02*
X-6047619Y11273810D01*
D10*
X-7000000Y11273810D02*
X-6714286Y11273810D01*
D10*
X-7333333Y10273810D02*
X-7571428Y11083333D01*
D10*
X-7380952Y10273810D02*
X-7666667Y11273810D01*
D10*
X-7523809Y11130952D02*
X-7666667Y11273810D01*
D10*
X-7380952Y11035714D02*
X-7523809Y11130952D01*
D10*
X-7285714Y10988095D02*
X-7380952Y11035714D01*
D10*
X-7428571Y11035714D02*
X-7619047Y11130952D01*
D10*
X-7285714Y10988095D02*
X-7428571Y11035714D01*
D10*
X-8428571Y11226190D02*
X-8571429Y11273810D01*
D10*
X-8333333Y11130952D02*
X-8428571Y11226190D01*
D10*
X-8238095Y10988095D02*
X-8333333Y11130952D01*
D10*
X-8190476Y10845238D02*
X-8238095Y10988095D01*
D10*
X-8142857Y10654762D02*
X-8190476Y10845238D01*
D10*
X-8142857Y10511905D02*
X-8142857Y10654762D01*
D10*
X-8190476Y10369048D02*
X-8142857Y10511905D01*
D10*
X-8238095Y10321429D02*
X-8190476Y10369048D01*
D10*
X-8333333Y10273810D02*
X-8238095Y10321429D01*
D10*
X-8428571Y10273810D02*
X-8333333Y10273810D01*
D10*
X-8571429Y10321429D02*
X-8428571Y10273810D01*
D10*
X-8666667Y10416667D02*
X-8571429Y10321429D01*
D10*
X-8761905Y10559524D02*
X-8666667Y10416667D01*
D10*
X-8809524Y10702381D02*
X-8761905Y10559524D01*
D10*
X-8857143Y10892857D02*
X-8809524Y10702381D01*
D10*
X-8857143Y11035714D02*
X-8857143Y10892857D01*
D10*
X-8809524Y11178571D02*
X-8857143Y11035714D01*
D10*
X-8761905Y11226190D02*
X-8809524Y11178571D01*
D10*
X-8666667Y11273810D02*
X-8761905Y11226190D01*
D10*
X-8571429Y11273810D02*
X-8666667Y11273810D01*
D10*
X-8476190Y11226190D02*
X-8571429Y11273810D01*
D10*
X-8380952Y11130952D02*
X-8476190Y11226190D01*
D10*
X-8285714Y10988095D02*
X-8380952Y11130952D01*
D10*
X-8238095Y10845238D02*
X-8285714Y10988095D01*
D10*
X-8190476Y10654762D02*
X-8238095Y10845238D01*
D10*
X-8190476Y10511905D02*
X-8190476Y10654762D01*
D10*
X-8238095Y10369048D02*
X-8190476Y10511905D01*
D10*
X-8333333Y10273810D02*
X-8238095Y10369048D01*
D10*
X-8523810Y10321429D02*
X-8428571Y10273810D01*
D10*
X-8619048Y10416667D02*
X-8523810Y10321429D01*
D10*
X-8714286Y10559524D02*
X-8619048Y10416667D01*
D10*
X-8761905Y10702381D02*
X-8714286Y10559524D01*
D10*
X-8809524Y10892857D02*
X-8761905Y10702381D01*
D10*
X-8809524Y11035714D02*
X-8809524Y10892857D01*
D10*
X-8761905Y11178571D02*
X-8809524Y11035714D01*
D10*
X-8666667Y11273810D02*
X-8761905Y11178571D01*
D11*
X14900000Y16476190D02*
X15947619Y16761905D01*
D11*
X14519048Y16380952D02*
X14900000Y16476190D01*
D11*
X14233333Y16380952D02*
X14519048Y16380952D01*
D11*
X14042857Y16476190D02*
X14233333Y16380952D01*
D11*
X13947619Y16761905D02*
X14042857Y16476190D01*
D11*
X13947619Y17142858D02*
X13947619Y16761905D01*
D11*
X14042857Y17428572D02*
X13947619Y17142858D01*
D11*
X14233333Y17619048D02*
X14042857Y17428572D01*
D11*
X14519048Y17714286D02*
X14233333Y17619048D01*
D11*
X15947619Y18095238D02*
X14519048Y17714286D01*
D11*
X14900000Y16571429D02*
X15947619Y16857142D01*
D11*
X14519048Y16476190D02*
X14900000Y16571429D01*
D11*
X14233333Y16476190D02*
X14519048Y16476190D01*
D11*
X14042857Y16571429D02*
X14233333Y16476190D01*
D11*
X13947619Y16761905D02*
X14042857Y16571429D01*
D11*
X15947619Y17142858D02*
X15947619Y16476190D01*
D11*
X15947619Y18380952D02*
X15947619Y17809524D01*
D11*
X14995238Y19714286D02*
X15090476Y19714286D01*
D11*
X14995238Y19809524D02*
X14995238Y19714286D01*
D11*
X15090476Y19809524D02*
X14995238Y19809524D01*
D11*
X15185714Y19714286D02*
X15090476Y19809524D01*
D11*
X15280952Y19428572D02*
X15185714Y19714286D01*
D11*
X15280952Y19142856D02*
X15280952Y19428572D01*
D11*
X15185714Y18857142D02*
X15280952Y19142856D01*
D11*
X15090476Y18761904D02*
X15185714Y18857142D01*
D11*
X14900000Y18761904D02*
X15090476Y18761904D01*
D11*
X14804762Y18857142D02*
X14900000Y18761904D01*
D11*
X14423810Y19523810D02*
X14804762Y18857142D01*
D11*
X14328571Y19619048D02*
X14423810Y19523810D01*
D11*
X14900000Y18857142D02*
X14995238Y18761904D01*
D11*
X14519048Y19523810D02*
X14900000Y18857142D01*
D11*
X14423810Y19619048D02*
X14519048Y19523810D01*
D11*
X14138095Y19619048D02*
X14423810Y19619048D01*
D11*
X14042857Y19523810D02*
X14138095Y19619048D01*
D11*
X13947619Y19238096D02*
X14042857Y19523810D01*
D11*
X13947619Y18952380D02*
X13947619Y19238096D01*
D11*
X14042857Y18666666D02*
X13947619Y18952380D01*
D11*
X14138095Y18571428D02*
X14042857Y18666666D01*
D11*
X14233333Y18571428D02*
X14138095Y18571428D01*
D11*
X14233333Y18666666D02*
X14233333Y18571428D01*
D11*
X14138095Y18666666D02*
X14233333Y18666666D01*
D11*
X14519048Y20761904D02*
X14423810Y20380952D01*
D11*
X14614286Y21047620D02*
X14519048Y20761904D01*
D11*
X14804762Y21333332D02*
X14614286Y21047620D01*
D11*
X14995238Y21428572D02*
X14804762Y21333332D01*
D11*
X15185714Y21333332D02*
X14995238Y21428572D01*
D11*
X15280952Y21142856D02*
X15185714Y21333332D01*
D11*
X15280952Y20857144D02*
X15280952Y21142856D01*
D11*
X15185714Y20571428D02*
X15280952Y20857144D01*
D11*
X14900000Y20380952D02*
X15185714Y20571428D01*
D11*
X14614286Y20285714D02*
X14900000Y20380952D01*
D11*
X14328571Y20285714D02*
X14614286Y20285714D01*
D11*
X14138095Y20380952D02*
X14328571Y20285714D01*
D11*
X14042857Y20476190D02*
X14138095Y20380952D01*
D11*
X13947619Y20666666D02*
X14042857Y20476190D01*
D11*
X13947619Y20857144D02*
X13947619Y20666666D01*
D11*
X14042857Y21142856D02*
X13947619Y20857144D01*
D11*
X14233333Y21333332D02*
X14042857Y21142856D01*
D11*
X15185714Y20666666D02*
X15280952Y20857144D01*
D11*
X14900000Y20476190D02*
X15185714Y20666666D01*
D11*
X14614286Y20380952D02*
X14900000Y20476190D01*
D11*
X14233333Y20380952D02*
X14614286Y20380952D01*
D11*
X14042857Y20476190D02*
X14233333Y20380952D01*
D11*
X13947619Y23142856D02*
X15566667Y23619048D01*
D11*
X13947619Y23238096D02*
X15947619Y23809524D01*
D11*
X15661905Y23523810D02*
X15947619Y23809524D01*
D11*
X15471429Y23238096D02*
X15661905Y23523810D01*
D11*
X15376190Y23047620D02*
X15471429Y23238096D01*
D11*
X15471429Y23333332D02*
X15661905Y23714286D01*
D11*
X15376190Y23047620D02*
X15471429Y23333332D01*
D11*
X13947619Y25428572D02*
X15852381Y26000000D01*
D11*
X13947619Y25523808D02*
X15947619Y26095238D01*
D11*
X14519048Y24666668D02*
X15947619Y26095238D01*
D11*
X14519048Y26190476D02*
X14519048Y24666668D01*
D11*
X14995238Y26857144D02*
X15947619Y27333332D01*
D11*
X15947619Y28285714D02*
X15947619Y27333332D01*
D11*
X15852381Y27809524D02*
X15852381Y27333332D01*
D11*
X15947619Y28285714D02*
X15852381Y27809524D01*
D11*
X15090476Y26952380D02*
X14995238Y26857144D01*
D11*
X15185714Y27238096D02*
X15090476Y26952380D01*
D11*
X15185714Y27523808D02*
X15185714Y27238096D01*
D11*
X15090476Y27809524D02*
X15185714Y27523808D01*
D11*
X14995238Y27904762D02*
X15090476Y27809524D01*
D11*
X14804762Y28000000D02*
X14995238Y27904762D01*
D11*
X14519048Y28000000D02*
X14804762Y28000000D01*
D11*
X14233333Y27904762D02*
X14519048Y28000000D01*
D11*
X14042857Y27714286D02*
X14233333Y27904762D01*
D11*
X13947619Y27428572D02*
X14042857Y27714286D01*
D11*
X13947619Y27142856D02*
X13947619Y27428572D01*
D11*
X14042857Y26857144D02*
X13947619Y27142856D01*
D11*
X14138095Y26761904D02*
X14042857Y26857144D01*
D11*
X14328571Y26666666D02*
X14138095Y26761904D01*
D11*
X14423810Y26666666D02*
X14328571Y26666666D01*
D11*
X14519048Y26761904D02*
X14423810Y26666666D01*
D11*
X14423810Y26857144D02*
X14519048Y26761904D01*
D11*
X14328571Y26761904D02*
X14423810Y26857144D01*
D11*
X15090476Y27714286D02*
X15185714Y27523808D01*
D11*
X14995238Y27809524D02*
X15090476Y27714286D01*
D11*
X14804762Y27904762D02*
X14995238Y27809524D01*
D11*
X14519048Y27904762D02*
X14804762Y27904762D01*
D11*
X14233333Y27809524D02*
X14519048Y27904762D01*
D11*
X14042857Y27619048D02*
X14233333Y27809524D01*
D11*
X13947619Y27428572D02*
X14042857Y27619048D01*
D11*
X15852381Y29333332D02*
X15947619Y29619048D01*
D11*
X15661905Y29142856D02*
X15852381Y29333332D01*
D11*
X15376190Y28952380D02*
X15661905Y29142856D01*
D11*
X15090476Y28857144D02*
X15376190Y28952380D01*
D11*
X14709524Y28761904D02*
X15090476Y28857144D01*
D11*
X14423810Y28761904D02*
X14709524Y28761904D01*
D11*
X14138095Y28857144D02*
X14423810Y28761904D01*
D11*
X14042857Y28952380D02*
X14138095Y28857144D01*
D11*
X13947619Y29142856D02*
X14042857Y28952380D01*
D11*
X13947619Y29333332D02*
X13947619Y29142856D01*
D11*
X14042857Y29619048D02*
X13947619Y29333332D01*
D11*
X14233333Y29809524D02*
X14042857Y29619048D01*
D11*
X14519048Y30000000D02*
X14233333Y29809524D01*
D11*
X14804762Y30095238D02*
X14519048Y30000000D01*
D11*
X15185714Y30190476D02*
X14804762Y30095238D01*
D11*
X15471429Y30190476D02*
X15185714Y30190476D01*
D11*
X15757143Y30095238D02*
X15471429Y30190476D01*
D11*
X15852381Y30000000D02*
X15757143Y30095238D01*
D11*
X15947619Y29809524D02*
X15852381Y30000000D01*
D11*
X15947619Y29619048D02*
X15947619Y29809524D01*
D11*
X15852381Y29428572D02*
X15947619Y29619048D01*
D11*
X15661905Y29238096D02*
X15852381Y29428572D01*
D11*
X15376190Y29047620D02*
X15661905Y29238096D01*
D11*
X15090476Y28952380D02*
X15376190Y29047620D01*
D11*
X14709524Y28857144D02*
X15090476Y28952380D01*
D11*
X14423810Y28857144D02*
X14709524Y28857144D01*
D11*
X14138095Y28952380D02*
X14423810Y28857144D01*
D11*
X13947619Y29142856D02*
X14138095Y28952380D01*
D11*
X14042857Y29523808D02*
X13947619Y29333332D01*
D11*
X14233333Y29714286D02*
X14042857Y29523808D01*
D11*
X14519048Y29904762D02*
X14233333Y29714286D01*
D11*
X14804762Y30000000D02*
X14519048Y29904762D01*
D11*
X15185714Y30095238D02*
X14804762Y30000000D01*
D11*
X15471429Y30095238D02*
X15185714Y30095238D01*
D11*
X15757143Y30000000D02*
X15471429Y30095238D01*
D11*
X15947619Y29809524D02*
X15757143Y30000000D01*
D11*
X15852381Y31333332D02*
X15947619Y31619048D01*
D11*
X15661905Y31142856D02*
X15852381Y31333332D01*
D11*
X15376190Y30952380D02*
X15661905Y31142856D01*
D11*
X15090476Y30857144D02*
X15376190Y30952380D01*
D11*
X14709524Y30761904D02*
X15090476Y30857144D01*
D11*
X14423810Y30761904D02*
X14709524Y30761904D01*
D11*
X14138095Y30857144D02*
X14423810Y30761904D01*
D11*
X14042857Y30952380D02*
X14138095Y30857144D01*
D11*
X13947619Y31142856D02*
X14042857Y30952380D01*
D11*
X13947619Y31333332D02*
X13947619Y31142856D01*
D11*
X14042857Y31619048D02*
X13947619Y31333332D01*
D11*
X14233333Y31809524D02*
X14042857Y31619048D01*
D11*
X14519048Y32000000D02*
X14233333Y31809524D01*
D11*
X14804762Y32095238D02*
X14519048Y32000000D01*
D11*
X15185714Y32190476D02*
X14804762Y32095238D01*
D11*
X15471429Y32190476D02*
X15185714Y32190476D01*
D11*
X15757143Y32095238D02*
X15471429Y32190476D01*
D11*
X15852381Y32000000D02*
X15757143Y32095238D01*
D11*
X15947619Y31809524D02*
X15852381Y32000000D01*
D11*
X15947619Y31619048D02*
X15947619Y31809524D01*
D11*
X15852381Y31428572D02*
X15947619Y31619048D01*
D11*
X15661905Y31238096D02*
X15852381Y31428572D01*
D11*
X15376190Y31047620D02*
X15661905Y31238096D01*
D11*
X15090476Y30952380D02*
X15376190Y31047620D01*
D11*
X14709524Y30857144D02*
X15090476Y30952380D01*
D11*
X14423810Y30857144D02*
X14709524Y30857144D01*
D11*
X14138095Y30952380D02*
X14423810Y30857144D01*
D11*
X13947619Y31142856D02*
X14138095Y30952380D01*
D11*
X14042857Y31523808D02*
X13947619Y31333332D01*
D11*
X14233333Y31714284D02*
X14042857Y31523808D01*
D11*
X14519048Y31904762D02*
X14233333Y31714284D01*
D11*
X14804762Y32000000D02*
X14519048Y31904762D01*
D11*
X15185714Y32095238D02*
X14804762Y32000000D01*
D11*
X15471429Y32095238D02*
X15185714Y32095238D01*
D11*
X15757143Y32000000D02*
X15471429Y32095238D01*
D11*
X15947619Y31809524D02*
X15757143Y32000000D01*
D11*
X10997619Y16285714D02*
X12997619Y16857142D01*
D11*
X10997619Y16380952D02*
X12997619Y16952380D01*
D11*
X12997619Y17238096D02*
X12997619Y16571429D01*
D11*
X10997619Y17428572D02*
X10997619Y16000000D01*
D11*
X11569048Y17619048D02*
X10997619Y17428572D01*
D11*
X10997619Y17333334D02*
X11569048Y17619048D01*
D11*
X12902381Y18666666D02*
X12997619Y18761904D01*
D11*
X12807143Y18761904D02*
X12902381Y18666666D01*
D11*
X12902381Y18857142D02*
X12807143Y18761904D01*
D11*
X12997619Y18761904D02*
X12902381Y18857142D01*
D11*
X12140476Y18095238D02*
X11950000Y18000000D01*
D11*
X12330952Y18285714D02*
X12140476Y18095238D01*
D11*
X12330952Y18571428D02*
X12330952Y18285714D01*
D11*
X12235714Y18666666D02*
X12330952Y18571428D01*
D11*
X11950000Y18666666D02*
X12235714Y18666666D01*
D11*
X11378571Y18476190D02*
X11950000Y18666666D01*
D11*
X11092857Y18476190D02*
X11378571Y18476190D01*
D11*
X10997619Y18571428D02*
X11092857Y18476190D01*
D11*
X12235714Y18571428D02*
X12330952Y18476190D01*
D11*
X11950000Y18571428D02*
X12235714Y18571428D01*
D11*
X11378571Y18380952D02*
X11950000Y18571428D01*
D11*
X11092857Y18380952D02*
X11378571Y18380952D01*
D11*
X10997619Y18476190D02*
X11092857Y18380952D01*
D11*
X10997619Y18761904D02*
X10997619Y18476190D01*
D11*
X11188095Y18952380D02*
X10997619Y18761904D01*
D11*
X11378571Y19047620D02*
X11188095Y18952380D01*
D11*
X11664286Y19619048D02*
X12997619Y20000000D01*
D11*
X11283333Y19523810D02*
X11664286Y19619048D01*
D11*
X11092857Y19523810D02*
X11283333Y19523810D01*
D11*
X10997619Y19619048D02*
X11092857Y19523810D01*
D11*
X10997619Y19904762D02*
X10997619Y19619048D01*
D11*
X11188095Y20095238D02*
X10997619Y19904762D01*
D11*
X11378571Y20190476D02*
X11188095Y20095238D01*
D11*
X11664286Y19714286D02*
X12997619Y20095238D01*
D11*
X11283333Y19619048D02*
X11664286Y19714286D01*
D11*
X11092857Y19619048D02*
X11283333Y19619048D01*
D11*
X10997619Y19714286D02*
X11092857Y19619048D01*
D11*
X12330952Y20285714D02*
X12330952Y19428572D01*
D11*
X10997619Y20666666D02*
X12997619Y21238096D01*
D11*
X10997619Y20761904D02*
X12997619Y21333332D01*
D11*
X12045238Y21142856D02*
X11664286Y20952380D01*
D11*
X12235714Y21333332D02*
X12045238Y21142856D01*
D11*
X12330952Y21523810D02*
X12235714Y21333332D01*
D11*
X12330952Y21714286D02*
X12330952Y21523810D01*
D11*
X12235714Y21904762D02*
X12330952Y21714286D01*
D11*
X12140476Y22000000D02*
X12235714Y21904762D01*
D11*
X11950000Y22000000D02*
X12140476Y22000000D01*
D11*
X11378571Y21809524D02*
X11950000Y22000000D01*
D11*
X11092857Y21809524D02*
X11378571Y21809524D01*
D11*
X10997619Y21904762D02*
X11092857Y21809524D01*
D11*
X12140476Y21904762D02*
X12330952Y21714286D01*
D11*
X11950000Y21904762D02*
X12140476Y21904762D01*
D11*
X11378571Y21714286D02*
X11950000Y21904762D01*
D11*
X11092857Y21714286D02*
X11378571Y21714286D01*
D11*
X10997619Y21809524D02*
X11092857Y21714286D01*
D11*
X10997619Y22095238D02*
X10997619Y21809524D01*
D11*
X11188095Y22285714D02*
X10997619Y22095238D01*
D11*
X11378571Y22380952D02*
X11188095Y22285714D01*
D11*
X12997619Y21333332D02*
X12997619Y20952380D01*
D11*
X12902381Y23238096D02*
X12997619Y23333332D01*
D11*
X12807143Y23333332D02*
X12902381Y23238096D01*
D11*
X12902381Y23428572D02*
X12807143Y23333332D01*
D11*
X12997619Y23333332D02*
X12902381Y23428572D01*
D11*
X12140476Y22666666D02*
X11950000Y22571428D01*
D11*
X12330952Y22857144D02*
X12140476Y22666666D01*
D11*
X12330952Y23142856D02*
X12330952Y22857144D01*
D11*
X12235714Y23238096D02*
X12330952Y23142856D01*
D11*
X11950000Y23238096D02*
X12235714Y23238096D01*
D11*
X11378571Y23047620D02*
X11950000Y23238096D01*
D11*
X11092857Y23047620D02*
X11378571Y23047620D01*
D11*
X10997619Y23142856D02*
X11092857Y23047620D01*
D11*
X12235714Y23142856D02*
X12330952Y23047620D01*
D11*
X11950000Y23142856D02*
X12235714Y23142856D01*
D11*
X11378571Y22952380D02*
X11950000Y23142856D01*
D11*
X11092857Y22952380D02*
X11378571Y22952380D01*
D11*
X10997619Y23047620D02*
X11092857Y22952380D01*
D11*
X10997619Y23333332D02*
X10997619Y23047620D01*
D11*
X11188095Y23523810D02*
X10997619Y23333332D01*
D11*
X11378571Y23619048D02*
X11188095Y23523810D01*
D11*
X12140476Y23904762D02*
X11950000Y23809524D01*
D11*
X12330952Y24095238D02*
X12140476Y23904762D01*
D11*
X12330952Y24380952D02*
X12330952Y24095238D01*
D11*
X12235714Y24476190D02*
X12330952Y24380952D01*
D11*
X11950000Y24476190D02*
X12235714Y24476190D01*
D11*
X11378571Y24285714D02*
X11950000Y24476190D01*
D11*
X11188095Y24285714D02*
X11378571Y24285714D01*
D11*
X10997619Y24476190D02*
X11188095Y24285714D01*
D11*
X12235714Y24380952D02*
X12330952Y24285714D01*
D11*
X11950000Y24380952D02*
X12235714Y24380952D01*
D11*
X11378571Y24190476D02*
X11950000Y24380952D01*
D11*
X11188095Y24190476D02*
X11378571Y24190476D01*
D11*
X11092857Y24285714D02*
X11188095Y24190476D01*
D11*
X10997619Y24476190D02*
X11092857Y24285714D01*
D11*
X10997619Y24666668D02*
X10997619Y24476190D01*
D11*
X11092857Y24857144D02*
X10997619Y24666668D01*
D11*
X11283333Y25047620D02*
X11092857Y24857144D01*
D11*
X11664286Y25238096D02*
X11283333Y25047620D01*
D11*
X11664286Y25238096D02*
X12330952Y25428572D01*
D11*
X11283333Y25142856D02*
X11664286Y25238096D01*
D11*
X11092857Y25142856D02*
X11283333Y25142856D01*
D11*
X10997619Y25238096D02*
X11092857Y25142856D01*
D11*
X10997619Y25523808D02*
X10997619Y25238096D01*
D11*
X11188095Y25714286D02*
X10997619Y25523808D01*
D11*
X11378571Y25809524D02*
X11188095Y25714286D01*
D11*
X11664286Y25333332D02*
X12330952Y25523808D01*
D11*
X11283333Y25238096D02*
X11664286Y25333332D01*
D11*
X11092857Y25238096D02*
X11283333Y25238096D01*
D11*
X10997619Y25333332D02*
X11092857Y25238096D01*
D11*
X12140476Y26095238D02*
X11950000Y26000000D01*
D11*
X12330952Y26285714D02*
X12140476Y26095238D01*
D11*
X12330952Y26571428D02*
X12330952Y26285714D01*
D11*
X12235714Y26666666D02*
X12330952Y26571428D01*
D11*
X12045238Y26666666D02*
X12235714Y26666666D01*
D11*
X11664286Y26571428D02*
X12045238Y26666666D01*
D11*
X10997619Y26380952D02*
X11664286Y26571428D01*
D11*
X12235714Y26571428D02*
X12330952Y26476190D01*
D11*
X12045238Y26571428D02*
X12235714Y26571428D01*
D11*
X11664286Y26476190D02*
X12045238Y26571428D01*
D11*
X10997619Y26285714D02*
X11664286Y26476190D01*
D11*
X12045238Y26761904D02*
X11664286Y26571428D01*
D11*
X12235714Y26952380D02*
X12045238Y26761904D01*
D11*
X12330952Y27142856D02*
X12235714Y26952380D01*
D11*
X12330952Y27333332D02*
X12330952Y27142856D01*
D11*
X12235714Y27523808D02*
X12330952Y27333332D01*
D11*
X12140476Y27619048D02*
X12235714Y27523808D01*
D11*
X11950000Y27619048D02*
X12140476Y27619048D01*
D11*
X10997619Y27333332D02*
X11950000Y27619048D01*
D11*
X12140476Y27523808D02*
X12330952Y27333332D01*
D11*
X11950000Y27523808D02*
X12140476Y27523808D01*
D11*
X10997619Y27238096D02*
X11950000Y27523808D01*
D11*
X12045238Y27714286D02*
X11664286Y27523808D01*
D11*
X12235714Y27904762D02*
X12045238Y27714286D01*
D11*
X12330952Y28095238D02*
X12235714Y27904762D01*
D11*
X12330952Y28285714D02*
X12330952Y28095238D01*
D11*
X12235714Y28476190D02*
X12330952Y28285714D01*
D11*
X12140476Y28571428D02*
X12235714Y28476190D01*
D11*
X11950000Y28571428D02*
X12140476Y28571428D01*
D11*
X11378571Y28380952D02*
X11950000Y28571428D01*
D11*
X11092857Y28380952D02*
X11378571Y28380952D01*
D11*
X10997619Y28476190D02*
X11092857Y28380952D01*
D11*
X12140476Y28476190D02*
X12330952Y28285714D01*
D11*
X11950000Y28476190D02*
X12140476Y28476190D01*
D11*
X11378571Y28285714D02*
X11950000Y28476190D01*
D11*
X11092857Y28285714D02*
X11378571Y28285714D01*
D11*
X10997619Y28380952D02*
X11092857Y28285714D01*
D11*
X10997619Y28666666D02*
X10997619Y28380952D01*
D11*
X11188095Y28857144D02*
X10997619Y28666666D01*
D11*
X11378571Y28952380D02*
X11188095Y28857144D01*
D11*
X9190476Y16190476D02*
X9000000Y16095238D01*
D11*
X9380952Y16380952D02*
X9190476Y16190476D01*
D11*
X9380952Y16666667D02*
X9380952Y16380952D01*
D11*
X9285714Y16761905D02*
X9380952Y16666667D01*
D11*
X9095238Y16761905D02*
X9285714Y16761905D01*
D11*
X8714286Y16666667D02*
X9095238Y16761905D01*
D11*
X8047619Y16476190D02*
X8714286Y16666667D01*
D11*
X9285714Y16666667D02*
X9380952Y16571429D01*
D11*
X9095238Y16666667D02*
X9285714Y16666667D01*
D11*
X8714286Y16571429D02*
X9095238Y16666667D01*
D11*
X8047619Y16380952D02*
X8714286Y16571429D01*
D11*
X9095238Y16857142D02*
X8714286Y16666667D01*
D11*
X9285714Y17047620D02*
X9095238Y16857142D01*
D11*
X9380952Y17238096D02*
X9285714Y17047620D01*
D11*
X9380952Y17428572D02*
X9380952Y17238096D01*
D11*
X9285714Y17523810D02*
X9380952Y17428572D01*
D11*
X9190476Y17523810D02*
X9285714Y17523810D01*
D11*
X9095238Y17428572D02*
X9190476Y17523810D01*
D11*
X9190476Y17333334D02*
X9095238Y17428572D01*
D11*
X9285714Y17428572D02*
X9190476Y17333334D01*
D11*
X8619048Y18380952D02*
X8523810Y18000000D01*
D11*
X8714286Y18666666D02*
X8619048Y18380952D01*
D11*
X8904762Y18952380D02*
X8714286Y18666666D01*
D11*
X9095238Y19047620D02*
X8904762Y18952380D01*
D11*
X9285714Y18952380D02*
X9095238Y19047620D01*
D11*
X9380952Y18761904D02*
X9285714Y18952380D01*
D11*
X9380952Y18476190D02*
X9380952Y18761904D01*
D11*
X9285714Y18190476D02*
X9380952Y18476190D01*
D11*
X9000000Y18000000D02*
X9285714Y18190476D01*
D11*
X8714286Y17904762D02*
X9000000Y18000000D01*
D11*
X8428571Y17904762D02*
X8714286Y17904762D01*
D11*
X8238095Y18000000D02*
X8428571Y17904762D01*
D11*
X8142857Y18095238D02*
X8238095Y18000000D01*
D11*
X8047619Y18285714D02*
X8142857Y18095238D01*
D11*
X8047619Y18476190D02*
X8047619Y18285714D01*
D11*
X8142857Y18761904D02*
X8047619Y18476190D01*
D11*
X8333333Y18952380D02*
X8142857Y18761904D01*
D11*
X9285714Y18285714D02*
X9380952Y18476190D01*
D11*
X9000000Y18095238D02*
X9285714Y18285714D01*
D11*
X8714286Y18000000D02*
X9000000Y18095238D01*
D11*
X8333333Y18000000D02*
X8714286Y18000000D01*
D11*
X8142857Y18095238D02*
X8333333Y18000000D01*
D11*
X9000000Y20666666D02*
X9095238Y20666666D01*
D11*
X9000000Y20761904D02*
X9000000Y20666666D01*
D11*
X9095238Y20761904D02*
X9000000Y20761904D01*
D11*
X9285714Y20666666D02*
X9095238Y20761904D01*
D11*
X9380952Y20476190D02*
X9285714Y20666666D01*
D11*
X9380952Y20190476D02*
X9380952Y20476190D01*
D11*
X9285714Y19904762D02*
X9380952Y20190476D01*
D11*
X9000000Y19714286D02*
X9285714Y19904762D01*
D11*
X8714286Y19619048D02*
X9000000Y19714286D01*
D11*
X8428571Y19619048D02*
X8714286Y19619048D01*
D11*
X8238095Y19714286D02*
X8428571Y19619048D01*
D11*
X8142857Y19809524D02*
X8238095Y19714286D01*
D11*
X8047619Y20000000D02*
X8142857Y19809524D01*
D11*
X8047619Y20190476D02*
X8047619Y20000000D01*
D11*
X8142857Y20476190D02*
X8047619Y20190476D01*
D11*
X8428571Y20666666D02*
X8142857Y20476190D01*
D11*
X9285714Y20000000D02*
X9380952Y20190476D01*
D11*
X9000000Y19809524D02*
X9285714Y20000000D01*
D11*
X8714286Y19714286D02*
X9000000Y19809524D01*
D11*
X8333333Y19714286D02*
X8714286Y19714286D01*
D11*
X8142857Y19809524D02*
X8333333Y19714286D01*
D11*
X8047619Y21238096D02*
X10047619Y21809524D01*
D11*
X8047619Y21333332D02*
X10047619Y21904762D01*
D11*
X9095238Y21714286D02*
X8714286Y21523810D01*
D11*
X9285714Y21904762D02*
X9095238Y21714286D01*
D11*
X9380952Y22095238D02*
X9285714Y21904762D01*
D11*
X9380952Y22285714D02*
X9380952Y22095238D01*
D11*
X9285714Y22476190D02*
X9380952Y22285714D01*
D11*
X9190476Y22571428D02*
X9285714Y22476190D01*
D11*
X9000000Y22571428D02*
X9190476Y22571428D01*
D11*
X8428571Y22380952D02*
X9000000Y22571428D01*
D11*
X8142857Y22380952D02*
X8428571Y22380952D01*
D11*
X8047619Y22476190D02*
X8142857Y22380952D01*
D11*
X9190476Y22476190D02*
X9380952Y22285714D01*
D11*
X9000000Y22476190D02*
X9190476Y22476190D01*
D11*
X8428571Y22285714D02*
X9000000Y22476190D01*
D11*
X8142857Y22285714D02*
X8428571Y22285714D01*
D11*
X8047619Y22380952D02*
X8142857Y22285714D01*
D11*
X8047619Y22666666D02*
X8047619Y22380952D01*
D11*
X8238095Y22857144D02*
X8047619Y22666666D01*
D11*
X8428571Y22952380D02*
X8238095Y22857144D01*
D11*
X10047619Y21904762D02*
X10047619Y21523810D01*
D11*
X8714286Y24380952D02*
X9380952Y24571428D01*
D11*
X8333333Y24285714D02*
X8714286Y24380952D01*
D11*
X8142857Y24285714D02*
X8333333Y24285714D01*
D11*
X8047619Y24380952D02*
X8142857Y24285714D01*
D11*
X8047619Y24666668D02*
X8047619Y24380952D01*
D11*
X8238095Y24857144D02*
X8047619Y24666668D01*
D11*
X8428571Y24952380D02*
X8238095Y24857144D01*
D11*
X8714286Y24476190D02*
X9380952Y24666668D01*
D11*
X8333333Y24380952D02*
X8714286Y24476190D01*
D11*
X8142857Y24380952D02*
X8333333Y24380952D01*
D11*
X8047619Y24476190D02*
X8142857Y24380952D01*
D11*
X9000000Y24380952D02*
X8714286Y24380952D01*
D11*
X9285714Y24285714D02*
X9000000Y24380952D01*
D11*
X9380952Y24095238D02*
X9285714Y24285714D01*
D11*
X9380952Y23904762D02*
X9380952Y24095238D01*
D11*
X9285714Y23619048D02*
X9380952Y23904762D01*
D11*
X9000000Y23428572D02*
X9285714Y23619048D01*
D11*
X8714286Y23333332D02*
X9000000Y23428572D01*
D11*
X8428571Y23333332D02*
X8714286Y23333332D01*
D11*
X8238095Y23428572D02*
X8428571Y23333332D01*
D11*
X8142857Y23523810D02*
X8238095Y23428572D01*
D11*
X8047619Y23714286D02*
X8142857Y23523810D01*
D11*
X8047619Y23904762D02*
X8047619Y23714286D01*
D11*
X8142857Y24095238D02*
X8047619Y23904762D01*
D11*
X8428571Y24285714D02*
X8142857Y24095238D01*
D11*
X8714286Y24380952D02*
X8428571Y24285714D01*
D11*
X9285714Y23714286D02*
X9380952Y23904762D01*
D11*
X9000000Y23523810D02*
X9285714Y23714286D01*
D11*
X8714286Y23428572D02*
X9000000Y23523810D01*
D11*
X8333333Y23428572D02*
X8714286Y23428572D01*
D11*
X8142857Y23523810D02*
X8333333Y23428572D01*
D11*
X9190476Y25238096D02*
X9000000Y25142856D01*
D11*
X9380952Y25428572D02*
X9190476Y25238096D01*
D11*
X9380952Y25714286D02*
X9380952Y25428572D01*
D11*
X9285714Y25809524D02*
X9380952Y25714286D01*
D11*
X9095238Y25809524D02*
X9285714Y25809524D01*
D11*
X8714286Y25714286D02*
X9095238Y25809524D01*
D11*
X8047619Y25523808D02*
X8714286Y25714286D01*
D11*
X9285714Y25714286D02*
X9380952Y25619048D01*
D11*
X9095238Y25714286D02*
X9285714Y25714286D01*
D11*
X8714286Y25619048D02*
X9095238Y25714286D01*
D11*
X8047619Y25428572D02*
X8714286Y25619048D01*
D11*
X9095238Y25904762D02*
X8714286Y25714286D01*
D11*
X9285714Y26095238D02*
X9095238Y25904762D01*
D11*
X9380952Y26285714D02*
X9285714Y26095238D01*
D11*
X9380952Y26476190D02*
X9380952Y26285714D01*
D11*
X9285714Y26571428D02*
X9380952Y26476190D01*
D11*
X9190476Y26571428D02*
X9285714Y26571428D01*
D11*
X9095238Y26476190D02*
X9190476Y26571428D01*
D11*
X9190476Y26380952D02*
X9095238Y26476190D01*
D11*
X9285714Y26476190D02*
X9190476Y26380952D01*
D11*
X8047619Y27904762D02*
X9380952Y28285714D01*
D11*
X7761905Y27809524D02*
X8047619Y27904762D01*
D11*
X7476190Y27619048D02*
X7761905Y27809524D01*
D11*
X7380952Y27333332D02*
X7476190Y27619048D01*
D11*
X7380952Y27047620D02*
X7380952Y27333332D01*
D11*
X7476190Y26857144D02*
X7380952Y27047620D01*
D11*
X7571428Y26761904D02*
X7476190Y26857144D01*
D11*
X7666667Y26761904D02*
X7571428Y26761904D01*
D11*
X7761905Y26857144D02*
X7666667Y26761904D01*
D11*
X7666667Y26952380D02*
X7761905Y26857144D01*
D11*
X7571428Y26857144D02*
X7666667Y26952380D01*
D11*
X8047619Y27809524D02*
X9380952Y28190476D01*
D11*
X7761905Y27714286D02*
X8047619Y27809524D01*
D11*
X7476190Y27523808D02*
X7761905Y27714286D01*
D11*
X7380952Y27333332D02*
X7476190Y27523808D01*
D11*
X9000000Y28000000D02*
X8714286Y28000000D01*
D11*
X9285714Y27904762D02*
X9000000Y28000000D01*
D11*
X9380952Y27714286D02*
X9285714Y27904762D01*
D11*
X9380952Y27523808D02*
X9380952Y27714286D01*
D11*
X9285714Y27238096D02*
X9380952Y27523808D01*
D11*
X9000000Y27047620D02*
X9285714Y27238096D01*
D11*
X8714286Y26952380D02*
X9000000Y27047620D01*
D11*
X8428571Y26952380D02*
X8714286Y26952380D01*
D11*
X8238095Y27047620D02*
X8428571Y26952380D01*
D11*
X8142857Y27142856D02*
X8238095Y27047620D01*
D11*
X8047619Y27333332D02*
X8142857Y27142856D01*
D11*
X8047619Y27523808D02*
X8047619Y27333332D01*
D11*
X8142857Y27714286D02*
X8047619Y27523808D01*
D11*
X8428571Y27904762D02*
X8142857Y27714286D01*
D11*
X8714286Y28000000D02*
X8428571Y27904762D01*
D11*
X9285714Y27333332D02*
X9380952Y27523808D01*
D11*
X9000000Y27142856D02*
X9285714Y27333332D01*
D11*
X8714286Y27047620D02*
X9000000Y27142856D01*
D11*
X8333333Y27047620D02*
X8714286Y27047620D01*
D11*
X8142857Y27142856D02*
X8333333Y27047620D01*
D11*
X8619048Y29333332D02*
X8523810Y28952380D01*
D11*
X8714286Y29619048D02*
X8619048Y29333332D01*
D11*
X8904762Y29904762D02*
X8714286Y29619048D01*
D11*
X9095238Y30000000D02*
X8904762Y29904762D01*
D11*
X9285714Y29904762D02*
X9095238Y30000000D01*
D11*
X9380952Y29714286D02*
X9285714Y29904762D01*
D11*
X9380952Y29428572D02*
X9380952Y29714286D01*
D11*
X9285714Y29142856D02*
X9380952Y29428572D01*
D11*
X9000000Y28952380D02*
X9285714Y29142856D01*
D11*
X8714286Y28857144D02*
X9000000Y28952380D01*
D11*
X8428571Y28857144D02*
X8714286Y28857144D01*
D11*
X8238095Y28952380D02*
X8428571Y28857144D01*
D11*
X8142857Y29047620D02*
X8238095Y28952380D01*
D11*
X8047619Y29238096D02*
X8142857Y29047620D01*
D11*
X8047619Y29428572D02*
X8047619Y29238096D01*
D11*
X8142857Y29714286D02*
X8047619Y29428572D01*
D11*
X8333333Y29904762D02*
X8142857Y29714286D01*
D11*
X9285714Y29238096D02*
X9380952Y29428572D01*
D11*
X9000000Y29047620D02*
X9285714Y29238096D01*
D11*
X8714286Y28952380D02*
X9000000Y29047620D01*
D11*
X8333333Y28952380D02*
X8714286Y28952380D01*
D11*
X8142857Y29047620D02*
X8333333Y28952380D01*
D11*
X8714286Y31619048D02*
X9380952Y31809524D01*
D11*
X8333333Y31523808D02*
X8714286Y31619048D01*
D11*
X8142857Y31523808D02*
X8333333Y31523808D01*
D11*
X8047619Y31619048D02*
X8142857Y31523808D01*
D11*
X8047619Y31904762D02*
X8047619Y31619048D01*
D11*
X8238095Y32095238D02*
X8047619Y31904762D01*
D11*
X8428571Y32190476D02*
X8238095Y32095238D01*
D11*
X8714286Y31714284D02*
X9380952Y31904762D01*
D11*
X8333333Y31619048D02*
X8714286Y31714284D01*
D11*
X8142857Y31619048D02*
X8333333Y31619048D01*
D11*
X8047619Y31714284D02*
X8142857Y31619048D01*
D11*
X9000000Y31619048D02*
X8714286Y31619048D01*
D11*
X9285714Y31523808D02*
X9000000Y31619048D01*
D11*
X9380952Y31333332D02*
X9285714Y31523808D01*
D11*
X9380952Y31142856D02*
X9380952Y31333332D01*
D11*
X9285714Y30857144D02*
X9380952Y31142856D01*
D11*
X9000000Y30666666D02*
X9285714Y30857144D01*
D11*
X8714286Y30571428D02*
X9000000Y30666666D01*
D11*
X8428571Y30571428D02*
X8714286Y30571428D01*
D11*
X8238095Y30666666D02*
X8428571Y30571428D01*
D11*
X8142857Y30761904D02*
X8238095Y30666666D01*
D11*
X8047619Y30952380D02*
X8142857Y30761904D01*
D11*
X8047619Y31142856D02*
X8047619Y30952380D01*
D11*
X8142857Y31333332D02*
X8047619Y31142856D01*
D11*
X8428571Y31523808D02*
X8142857Y31333332D01*
D11*
X8714286Y31619048D02*
X8428571Y31523808D01*
D11*
X9285714Y30952380D02*
X9380952Y31142856D01*
D11*
X9000000Y30761904D02*
X9285714Y30952380D01*
D11*
X8714286Y30666666D02*
X9000000Y30761904D01*
D11*
X8333333Y30666666D02*
X8714286Y30666666D01*
D11*
X8142857Y30761904D02*
X8333333Y30666666D01*
D11*
X8809524Y32666666D02*
X10047619Y33047618D01*
D11*
X8523810Y32666666D02*
X8809524Y32666666D01*
D11*
X8238095Y32761904D02*
X8523810Y32666666D01*
D11*
X8142857Y32857142D02*
X8238095Y32761904D01*
D11*
X8809524Y32761904D02*
X10047619Y33142856D01*
D11*
X9095238Y32857142D02*
X8809524Y32761904D01*
D11*
X9285714Y33047618D02*
X9095238Y32857142D01*
D11*
X9380952Y33238094D02*
X9285714Y33047618D01*
D11*
X9380952Y33428572D02*
X9380952Y33238094D01*
D11*
X9285714Y33619048D02*
X9380952Y33428572D01*
D11*
X9190476Y33714288D02*
X9285714Y33619048D01*
D11*
X9000000Y33809524D02*
X9190476Y33714288D01*
D11*
X8714286Y33809524D02*
X9000000Y33809524D01*
D11*
X8428571Y33714288D02*
X8714286Y33809524D01*
D11*
X8142857Y33523810D02*
X8428571Y33714288D01*
D11*
X8047619Y33238094D02*
X8142857Y33523810D01*
D11*
X8047619Y33047618D02*
X8047619Y33238094D01*
D11*
X8142857Y32857142D02*
X8047619Y33047618D01*
D11*
X8428571Y32761904D02*
X8142857Y32857142D01*
D11*
X8809524Y32761904D02*
X8428571Y32761904D01*
D11*
X9095238Y33714288D02*
X9285714Y33619048D01*
D11*
X8714286Y33714288D02*
X9095238Y33714288D01*
D11*
X8428571Y33619048D02*
X8714286Y33714288D01*
D11*
X8142857Y33428572D02*
X8428571Y33619048D01*
D11*
X8047619Y33238094D02*
X8142857Y33428572D01*
D11*
X10047619Y33142856D02*
X10047619Y32761904D01*
D11*
X8714286Y34476192D02*
X10047619Y34857144D01*
D11*
X8333333Y34380952D02*
X8714286Y34476192D01*
D11*
X8142857Y34380952D02*
X8333333Y34380952D01*
D11*
X8047619Y34476192D02*
X8142857Y34380952D01*
D11*
X8047619Y34761904D02*
X8047619Y34476192D01*
D11*
X8238095Y34952380D02*
X8047619Y34761904D01*
D11*
X8428571Y35047616D02*
X8238095Y34952380D01*
D11*
X8714286Y34571428D02*
X10047619Y34952380D01*
D11*
X8333333Y34476192D02*
X8714286Y34571428D01*
D11*
X8142857Y34476192D02*
X8333333Y34476192D01*
D11*
X8047619Y34571428D02*
X8142857Y34476192D01*
D11*
X10047619Y34952380D02*
X10047619Y34571428D01*
D11*
X8619048Y36000000D02*
X8523810Y35619048D01*
D11*
X8714286Y36285712D02*
X8619048Y36000000D01*
D11*
X8904762Y36571428D02*
X8714286Y36285712D01*
D11*
X9095238Y36666664D02*
X8904762Y36571428D01*
D11*
X9285714Y36571428D02*
X9095238Y36666664D01*
D11*
X9380952Y36380952D02*
X9285714Y36571428D01*
D11*
X9380952Y36095240D02*
X9380952Y36380952D01*
D11*
X9285714Y35809524D02*
X9380952Y36095240D01*
D11*
X9000000Y35619048D02*
X9285714Y35809524D01*
D11*
X8714286Y35523808D02*
X9000000Y35619048D01*
D11*
X8428571Y35523808D02*
X8714286Y35523808D01*
D11*
X8238095Y35619048D02*
X8428571Y35523808D01*
D11*
X8142857Y35714288D02*
X8238095Y35619048D01*
D11*
X8047619Y35904760D02*
X8142857Y35714288D01*
D11*
X8047619Y36095240D02*
X8047619Y35904760D01*
D11*
X8142857Y36380952D02*
X8047619Y36095240D01*
D11*
X8333333Y36571428D02*
X8142857Y36380952D01*
D11*
X9285714Y35904760D02*
X9380952Y36095240D01*
D11*
X9000000Y35714288D02*
X9285714Y35904760D01*
D11*
X8714286Y35619048D02*
X9000000Y35714288D01*
D11*
X8333333Y35619048D02*
X8714286Y35619048D01*
D11*
X8142857Y35714288D02*
X8333333Y35619048D01*
D10*
X13428571Y29904762D02*
X13428571Y29857142D01*
D10*
X13523810Y29952380D02*
X13428571Y29904762D01*
D10*
X13238095Y29904762D02*
X13523810Y29952380D01*
D10*
X13333333Y29904762D02*
X13238095Y29904762D01*
D10*
X13428571Y29857142D02*
X13333333Y29904762D01*
D10*
X13476190Y29809524D02*
X13428571Y29857142D01*
D10*
X13523810Y29714286D02*
X13476190Y29809524D01*
D10*
X13523810Y29571428D02*
X13523810Y29714286D01*
D10*
X13476190Y29428572D02*
X13523810Y29571428D01*
D10*
X13380952Y29333334D02*
X13476190Y29428572D01*
D10*
X13238095Y29238096D02*
X13380952Y29333334D01*
D10*
X13095238Y29190476D02*
X13238095Y29238096D01*
D10*
X12904762Y29142858D02*
X13095238Y29190476D01*
D10*
X12761905Y29142858D02*
X12904762Y29142858D01*
D10*
X12619048Y29190476D02*
X12761905Y29142858D01*
D10*
X12571429Y29238096D02*
X12619048Y29190476D01*
D10*
X12523810Y29380952D02*
X12571429Y29238096D01*
D10*
X12523810Y29523810D02*
X12523810Y29380952D01*
D10*
X12571429Y29619048D02*
X12523810Y29523810D01*
D10*
X12666667Y29714286D02*
X12571429Y29619048D01*
D10*
X12761905Y29761904D02*
X12666667Y29714286D01*
D10*
X13476190Y29476190D02*
X13523810Y29571428D01*
D10*
X13380952Y29380952D02*
X13476190Y29476190D01*
D10*
X13238095Y29285714D02*
X13380952Y29380952D01*
D10*
X13095238Y29238096D02*
X13238095Y29285714D01*
D10*
X12904762Y29190476D02*
X13095238Y29238096D01*
D10*
X12761905Y29190476D02*
X12904762Y29190476D01*
D10*
X12619048Y29238096D02*
X12761905Y29190476D01*
D10*
X12571429Y29285714D02*
X12619048Y29238096D01*
D10*
X12523810Y29380952D02*
X12571429Y29285714D01*
D10*
X12523810Y30333334D02*
X13333333Y30571428D01*
D10*
X12523810Y30380952D02*
X13523810Y30666666D01*
D10*
X13380952Y30523810D02*
X13523810Y30666666D01*
D10*
X13285714Y30380952D02*
X13380952Y30523810D01*
D10*
X13238095Y30285714D02*
X13285714Y30380952D01*
D10*
X13285714Y30428572D02*
X13380952Y30619048D01*
D10*
X13238095Y30285714D02*
X13285714Y30428572D01*
D10*
X13476190Y31428572D02*
X13523810Y31571428D01*
D10*
X13380952Y31333334D02*
X13476190Y31428572D01*
D10*
X13238095Y31238096D02*
X13380952Y31333334D01*
D10*
X13095238Y31190476D02*
X13238095Y31238096D01*
D10*
X12904762Y31142856D02*
X13095238Y31190476D01*
D10*
X12761905Y31142856D02*
X12904762Y31142856D01*
D10*
X12619048Y31190476D02*
X12761905Y31142856D01*
D10*
X12571429Y31238096D02*
X12619048Y31190476D01*
D10*
X12523810Y31333334D02*
X12571429Y31238096D01*
D10*
X12523810Y31428572D02*
X12523810Y31333334D01*
D10*
X12571429Y31571428D02*
X12523810Y31428572D01*
D10*
X12666667Y31666666D02*
X12571429Y31571428D01*
D10*
X12809524Y31761904D02*
X12666667Y31666666D01*
D10*
X12952381Y31809524D02*
X12809524Y31761904D01*
D10*
X13142857Y31857142D02*
X12952381Y31809524D01*
D10*
X13285714Y31857142D02*
X13142857Y31857142D01*
D10*
X13428571Y31809524D02*
X13285714Y31857142D01*
D10*
X13476190Y31761904D02*
X13428571Y31809524D01*
D10*
X13523810Y31666666D02*
X13476190Y31761904D01*
D10*
X13523810Y31571428D02*
X13523810Y31666666D01*
D10*
X13476190Y31476190D02*
X13523810Y31571428D01*
D10*
X13380952Y31380952D02*
X13476190Y31476190D01*
D10*
X13238095Y31285714D02*
X13380952Y31380952D01*
D10*
X13095238Y31238096D02*
X13238095Y31285714D01*
D10*
X12904762Y31190476D02*
X13095238Y31238096D01*
D10*
X12761905Y31190476D02*
X12904762Y31190476D01*
D10*
X12619048Y31238096D02*
X12761905Y31190476D01*
D10*
X12523810Y31333334D02*
X12619048Y31238096D01*
D10*
X12571429Y31523810D02*
X12523810Y31428572D01*
D10*
X12666667Y31619048D02*
X12571429Y31523810D01*
D10*
X12809524Y31714286D02*
X12666667Y31619048D01*
D10*
X12952381Y31761904D02*
X12809524Y31714286D01*
D10*
X13142857Y31809524D02*
X12952381Y31761904D01*
D10*
X13285714Y31809524D02*
X13142857Y31809524D01*
D10*
X13428571Y31761904D02*
X13285714Y31809524D01*
D10*
X13523810Y31666666D02*
X13428571Y31761904D01*
D10*
X-15654762Y13278571D02*
X-15607143Y13278571D01*
D10*
X-15702381Y13373810D02*
X-15654762Y13278571D01*
D10*
X-15654762Y13088095D02*
X-15702381Y13373810D01*
D10*
X-15654762Y13183333D02*
X-15654762Y13088095D01*
D10*
X-15607143Y13278571D02*
X-15654762Y13183333D01*
D10*
X-15559524Y13326190D02*
X-15607143Y13278571D01*
D10*
X-15464286Y13373810D02*
X-15559524Y13326190D01*
D10*
X-15321429Y13373810D02*
X-15464286Y13373810D01*
D10*
X-15178571Y13326190D02*
X-15321429Y13373810D01*
D10*
X-15083333Y13230952D02*
X-15178571Y13326190D01*
D10*
X-14988095Y13088095D02*
X-15083333Y13230952D01*
D10*
X-14940476Y12945238D02*
X-14988095Y13088095D01*
D10*
X-14892857Y12754762D02*
X-14940476Y12945238D01*
D10*
X-14892857Y12611905D02*
X-14892857Y12754762D01*
D10*
X-14940476Y12469048D02*
X-14892857Y12611905D01*
D10*
X-14988095Y12421429D02*
X-14940476Y12469048D01*
D10*
X-15130952Y12373810D02*
X-14988095Y12421429D01*
D10*
X-15273810Y12373810D02*
X-15130952Y12373810D01*
D10*
X-15369048Y12421429D02*
X-15273810Y12373810D01*
D10*
X-15464286Y12516667D02*
X-15369048Y12421429D01*
D10*
X-15511905Y12611905D02*
X-15464286Y12516667D01*
D10*
X-15226190Y13326190D02*
X-15321429Y13373810D01*
D10*
X-15130952Y13230952D02*
X-15226190Y13326190D01*
D10*
X-15035714Y13088095D02*
X-15130952Y13230952D01*
D10*
X-14988095Y12945238D02*
X-15035714Y13088095D01*
D10*
X-14940476Y12754762D02*
X-14988095Y12945238D01*
D10*
X-14940476Y12611905D02*
X-14940476Y12754762D01*
D10*
X-14988095Y12469048D02*
X-14940476Y12611905D01*
D10*
X-15035714Y12421429D02*
X-14988095Y12469048D01*
D10*
X-15130952Y12373810D02*
X-15035714Y12421429D01*
D10*
X-16130952Y13135714D02*
X-16083333Y13183333D01*
D10*
X-16083333Y13088095D02*
X-16130952Y13135714D01*
D10*
X-16035714Y13135714D02*
X-16083333Y13088095D01*
D10*
X-16035714Y13183333D02*
X-16035714Y13135714D01*
D10*
X-16083333Y13278571D02*
X-16035714Y13183333D01*
D10*
X-16130952Y13326190D02*
X-16083333Y13278571D01*
D10*
X-16273810Y13373810D02*
X-16130952Y13326190D01*
D10*
X-16416667Y13373810D02*
X-16273810Y13373810D01*
D10*
X-16559524Y13326190D02*
X-16416667Y13373810D01*
D10*
X-16607143Y13230952D02*
X-16559524Y13326190D01*
D10*
X-16607143Y13135714D02*
X-16607143Y13230952D01*
D10*
X-16559524Y13040476D02*
X-16607143Y13135714D01*
D10*
X-16464286Y12945238D02*
X-16559524Y13040476D01*
D10*
X-16321428Y12850000D02*
X-16464286Y12945238D01*
D10*
X-16130952Y12754762D02*
X-16321428Y12850000D01*
D10*
X-15988095Y12659524D02*
X-16130952Y12754762D01*
D10*
X-15892857Y12564286D02*
X-15988095Y12659524D01*
D10*
X-15797619Y12373810D02*
X-15892857Y12564286D01*
D10*
X-16511905Y13326190D02*
X-16416667Y13373810D01*
D10*
X-16559524Y13230952D02*
X-16511905Y13326190D01*
D10*
X-16559524Y13135714D02*
X-16559524Y13230952D01*
D10*
X-16511905Y13040476D02*
X-16559524Y13135714D01*
D10*
X-16416667Y12945238D02*
X-16511905Y13040476D01*
D10*
X-16130952Y12754762D02*
X-16416667Y12945238D01*
D10*
X-15892857Y12516667D02*
X-15845238Y12469048D01*
D10*
X-15988095Y12516667D02*
X-15892857Y12516667D01*
D10*
X-16226190Y12421429D02*
X-15988095Y12516667D01*
D10*
X-16369048Y12421429D02*
X-16226190Y12421429D01*
D10*
X-16464286Y12469048D02*
X-16369048Y12421429D01*
D10*
X-16511905Y12564286D02*
X-16464286Y12469048D01*
D10*
X-16226190Y12373810D02*
X-15988095Y12516667D01*
D10*
X-16369048Y12373810D02*
X-16226190Y12373810D01*
D10*
X-16464286Y12421429D02*
X-16369048Y12373810D01*
D10*
X-16511905Y12564286D02*
X-16464286Y12421429D01*
D10*
X-17130952Y13135714D02*
X-17083334Y13183333D01*
D10*
X-17083334Y13088095D02*
X-17130952Y13135714D01*
D10*
X-17035714Y13135714D02*
X-17083334Y13088095D01*
D10*
X-17035714Y13183333D02*
X-17035714Y13135714D01*
D10*
X-17083334Y13278571D02*
X-17035714Y13183333D01*
D10*
X-17130952Y13326190D02*
X-17083334Y13278571D01*
D10*
X-17273810Y13373810D02*
X-17130952Y13326190D01*
D10*
X-17416666Y13373810D02*
X-17273810Y13373810D01*
D10*
X-17559524Y13326190D02*
X-17416666Y13373810D01*
D10*
X-17607142Y13230952D02*
X-17559524Y13326190D01*
D10*
X-17607142Y13135714D02*
X-17607142Y13230952D01*
D10*
X-17559524Y13040476D02*
X-17607142Y13135714D01*
D10*
X-17416666Y12945238D02*
X-17559524Y13040476D01*
D10*
X-17273810Y12897619D02*
X-17416666Y12945238D01*
D10*
X-17511904Y13326190D02*
X-17416666Y13373810D01*
D10*
X-17559524Y13230952D02*
X-17511904Y13326190D01*
D10*
X-17559524Y13135714D02*
X-17559524Y13230952D01*
D10*
X-17511904Y13040476D02*
X-17559524Y13135714D01*
D10*
X-17416666Y12945238D02*
X-17511904Y13040476D01*
D10*
X-17273810Y12897619D02*
X-17178572Y12897619D01*
D10*
X-17416666Y12850000D02*
X-17273810Y12897619D01*
D10*
X-17464286Y12802381D02*
X-17416666Y12850000D01*
D10*
X-17511904Y12707143D02*
X-17464286Y12802381D01*
D10*
X-17511904Y12564286D02*
X-17511904Y12707143D01*
D10*
X-17464286Y12469048D02*
X-17511904Y12564286D01*
D10*
X-17416666Y12421429D02*
X-17464286Y12469048D01*
D10*
X-17273810Y12373810D02*
X-17416666Y12421429D01*
D10*
X-17083334Y12373810D02*
X-17273810Y12373810D01*
D10*
X-16940476Y12421429D02*
X-17083334Y12373810D01*
D10*
X-16892856Y12469048D02*
X-16940476Y12421429D01*
D10*
X-16845238Y12564286D02*
X-16892856Y12469048D01*
D10*
X-16845238Y12611905D02*
X-16845238Y12564286D01*
D10*
X-16892856Y12659524D02*
X-16845238Y12611905D01*
D10*
X-16940476Y12611905D02*
X-16892856Y12659524D01*
D10*
X-16892856Y12564286D02*
X-16940476Y12611905D01*
D10*
X-17369048Y12850000D02*
X-17273810Y12897619D01*
D10*
X-17416666Y12802381D02*
X-17369048Y12850000D01*
D10*
X-17464286Y12707143D02*
X-17416666Y12802381D01*
D10*
X-17464286Y12564286D02*
X-17464286Y12707143D01*
D10*
X-17416666Y12469048D02*
X-17464286Y12564286D01*
D10*
X-17369048Y12421429D02*
X-17416666Y12469048D01*
D10*
X-17273810Y12373810D02*
X-17369048Y12421429D01*
D10*
X-11796429Y10479762D02*
X-11796429Y10432143D01*
D10*
X-11701190Y10527381D02*
X-11796429Y10479762D01*
D10*
X-11986905Y10479762D02*
X-11701190Y10527381D01*
D10*
X-11891667Y10479762D02*
X-11986905Y10479762D01*
D10*
X-11796429Y10432143D02*
X-11891667Y10479762D01*
D10*
X-11748810Y10384524D02*
X-11796429Y10432143D01*
D10*
X-11701190Y10289286D02*
X-11748810Y10384524D01*
D10*
X-11701190Y10146428D02*
X-11701190Y10289286D01*
D10*
X-11748810Y10003572D02*
X-11701190Y10146428D01*
D10*
X-11844048Y9908334D02*
X-11748810Y10003572D01*
D10*
X-11986905Y9813095D02*
X-11844048Y9908334D01*
D10*
X-12129762Y9765476D02*
X-11986905Y9813095D01*
D10*
X-12320238Y9717857D02*
X-12129762Y9765476D01*
D10*
X-12463095Y9717857D02*
X-12320238Y9717857D01*
D10*
X-12605952Y9765476D02*
X-12463095Y9717857D01*
D10*
X-12653571Y9813095D02*
X-12605952Y9765476D01*
D10*
X-12701190Y9955952D02*
X-12653571Y9813095D01*
D10*
X-12701190Y10098810D02*
X-12701190Y9955952D01*
D10*
X-12653571Y10194048D02*
X-12701190Y10098810D01*
D10*
X-12558333Y10289286D02*
X-12653571Y10194048D01*
D10*
X-12463095Y10336905D02*
X-12558333Y10289286D01*
D10*
X-11748810Y10051190D02*
X-11701190Y10146428D01*
D10*
X-11844048Y9955952D02*
X-11748810Y10051190D01*
D10*
X-11986905Y9860714D02*
X-11844048Y9955952D01*
D10*
X-12129762Y9813095D02*
X-11986905Y9860714D01*
D10*
X-12320238Y9765476D02*
X-12129762Y9813095D01*
D10*
X-12463095Y9765476D02*
X-12320238Y9765476D01*
D10*
X-12605952Y9813095D02*
X-12463095Y9765476D01*
D10*
X-12653571Y9860714D02*
X-12605952Y9813095D01*
D10*
X-12701190Y9955952D02*
X-12653571Y9860714D01*
D10*
X-11939286Y10955952D02*
X-11891667Y10908333D01*
D10*
X-11986905Y10908333D02*
X-11939286Y10955952D01*
D10*
X-11939286Y10860714D02*
X-11986905Y10908333D01*
D10*
X-11891667Y10860714D02*
X-11939286Y10860714D01*
D10*
X-11796429Y10908333D02*
X-11891667Y10860714D01*
D10*
X-11748810Y10955952D02*
X-11796429Y10908333D01*
D10*
X-11701190Y11098810D02*
X-11748810Y10955952D01*
D10*
X-11701190Y11241667D02*
X-11701190Y11098810D01*
D10*
X-11748810Y11384524D02*
X-11701190Y11241667D01*
D10*
X-11844048Y11432143D02*
X-11748810Y11384524D01*
D10*
X-11939286Y11432143D02*
X-11844048Y11432143D01*
D10*
X-12034524Y11384524D02*
X-11939286Y11432143D01*
D10*
X-12129762Y11289286D02*
X-12034524Y11384524D01*
D10*
X-12225000Y11146429D02*
X-12129762Y11289286D01*
D10*
X-12320238Y10955952D02*
X-12225000Y11146429D01*
D10*
X-12415476Y10813095D02*
X-12320238Y10955952D01*
D10*
X-12510714Y10717857D02*
X-12415476Y10813095D01*
D10*
X-12701190Y10622619D02*
X-12510714Y10717857D01*
D10*
X-11748810Y11336905D02*
X-11701190Y11241667D01*
D10*
X-11844048Y11384524D02*
X-11748810Y11336905D01*
D10*
X-11939286Y11384524D02*
X-11844048Y11384524D01*
D10*
X-12034524Y11336905D02*
X-11939286Y11384524D01*
D10*
X-12129762Y11241667D02*
X-12034524Y11336905D01*
D10*
X-12320238Y10955952D02*
X-12129762Y11241667D01*
D10*
X-12558333Y10717857D02*
X-12605952Y10670238D01*
D10*
X-12558333Y10813095D02*
X-12558333Y10717857D01*
D10*
X-12653571Y11051190D02*
X-12558333Y10813095D01*
D10*
X-12653571Y11194048D02*
X-12653571Y11051190D01*
D10*
X-12605952Y11289286D02*
X-12653571Y11194048D01*
D10*
X-12510714Y11336905D02*
X-12605952Y11289286D01*
D10*
X-12701190Y11051190D02*
X-12558333Y10813095D01*
D10*
X-12701190Y11194048D02*
X-12701190Y11051190D01*
D10*
X-12653571Y11289286D02*
X-12701190Y11194048D01*
D10*
X-12510714Y11336905D02*
X-12653571Y11289286D01*
D10*
X-12129762Y12336905D02*
X-12034524Y12384524D01*
D10*
X-12225000Y12241667D02*
X-12129762Y12336905D01*
D10*
X-12272619Y12146429D02*
X-12225000Y12241667D01*
D10*
X-12272619Y12003571D02*
X-12272619Y12146429D01*
D10*
X-12225000Y11908333D02*
X-12272619Y12003571D01*
D10*
X-12177381Y11860714D02*
X-12225000Y11908333D01*
D10*
X-12082143Y11813095D02*
X-12177381Y11860714D01*
D10*
X-11939286Y11813095D02*
X-12082143Y11813095D01*
D10*
X-11844048Y11860714D02*
X-11939286Y11813095D01*
D10*
X-11748810Y11955952D02*
X-11844048Y11860714D01*
D10*
X-11701190Y12098810D02*
X-11748810Y11955952D01*
D10*
X-11701190Y12241667D02*
X-11701190Y12098810D01*
D10*
X-11748810Y12336905D02*
X-11701190Y12241667D01*
D10*
X-11796429Y12384524D02*
X-11748810Y12336905D01*
D10*
X-11891667Y12432143D02*
X-11796429Y12384524D01*
D10*
X-12082143Y12432143D02*
X-11891667Y12432143D01*
D10*
X-12272619Y12384524D02*
X-12082143Y12432143D01*
D10*
X-12415476Y12336905D02*
X-12272619Y12384524D01*
D10*
X-12558333Y12241667D02*
X-12415476Y12336905D01*
D10*
X-12653571Y12146429D02*
X-12558333Y12241667D01*
D10*
X-12701190Y12003571D02*
X-12653571Y12146429D01*
D10*
X-12701190Y11860714D02*
X-12701190Y12003571D01*
D10*
X-12653571Y11765476D02*
X-12701190Y11860714D01*
D10*
X-12558333Y11717857D02*
X-12653571Y11765476D01*
D10*
X-12510714Y11717857D02*
X-12558333Y11717857D01*
D10*
X-12463095Y11765476D02*
X-12510714Y11717857D01*
D10*
X-12510714Y11813095D02*
X-12463095Y11765476D01*
D10*
X-12558333Y11765476D02*
X-12510714Y11813095D01*
D10*
X-12129762Y11860714D02*
X-12225000Y11908333D01*
D10*
X-11939286Y11860714D02*
X-12129762Y11860714D01*
D10*
X-11844048Y11908333D02*
X-11939286Y11860714D01*
D10*
X-11748810Y12003571D02*
X-11844048Y11908333D01*
D10*
X-11701190Y12098810D02*
X-11748810Y12003571D01*
D10*
X-11844048Y12384524D02*
X-11748810Y12336905D01*
D10*
X-12082143Y12384524D02*
X-11844048Y12384524D01*
D10*
X-12272619Y12336905D02*
X-12082143Y12384524D01*
D10*
X-12415476Y12289286D02*
X-12272619Y12336905D01*
D10*
X-12558333Y12194048D02*
X-12415476Y12289286D01*
D10*
X-12653571Y12098810D02*
X-12558333Y12194048D01*
D10*
X-12701190Y12003571D02*
X-12653571Y12098810D01*
D10*
X4523809Y10940476D02*
X5523809Y11226190D01*
D10*
X4523809Y10988095D02*
X5523809Y11273810D01*
D10*
X5523809Y11416667D02*
X5523809Y11083333D01*
D10*
X4523809Y11511905D02*
X4523809Y10797619D01*
D10*
X4809524Y11607143D02*
X4523809Y11511905D01*
D10*
X4523809Y11464286D02*
X4809524Y11607143D01*
D10*
X5285714Y12130952D02*
X5333333Y12083333D01*
D10*
X5238095Y12083333D02*
X5285714Y12130952D01*
D10*
X5285714Y12035714D02*
X5238095Y12083333D01*
D10*
X5333333Y12035714D02*
X5285714Y12035714D01*
D10*
X5428571Y12083333D02*
X5333333Y12035714D01*
D10*
X5476190Y12130952D02*
X5428571Y12083333D01*
D10*
X5523809Y12273810D02*
X5476190Y12130952D01*
D10*
X5523809Y12416667D02*
X5523809Y12273810D01*
D10*
X5476190Y12559524D02*
X5523809Y12416667D01*
D10*
X5380952Y12607143D02*
X5476190Y12559524D01*
D10*
X5285714Y12607143D02*
X5380952Y12607143D01*
D10*
X5190476Y12559524D02*
X5285714Y12607143D01*
D10*
X5095238Y12416667D02*
X5190476Y12559524D01*
D10*
X5047619Y12273810D02*
X5095238Y12416667D01*
D10*
X5476190Y12511905D02*
X5523809Y12416667D01*
D10*
X5380952Y12559524D02*
X5476190Y12511905D01*
D10*
X5285714Y12559524D02*
X5380952Y12559524D01*
D10*
X5190476Y12511905D02*
X5285714Y12559524D01*
D10*
X5095238Y12416667D02*
X5190476Y12511905D01*
D10*
X5047619Y12273810D02*
X5047619Y12178571D01*
D10*
X5000000Y12416667D02*
X5047619Y12273810D01*
D10*
X4952381Y12464286D02*
X5000000Y12416667D01*
D10*
X4857143Y12511905D02*
X4952381Y12464286D01*
D10*
X4714285Y12511905D02*
X4857143Y12511905D01*
D10*
X4619047Y12464286D02*
X4714285Y12511905D01*
D10*
X4571428Y12416667D02*
X4619047Y12464286D01*
D10*
X4523809Y12273810D02*
X4571428Y12416667D01*
D10*
X4523809Y12083333D02*
X4523809Y12273810D01*
D10*
X4571428Y11940476D02*
X4523809Y12083333D01*
D10*
X4619047Y11892857D02*
X4571428Y11940476D01*
D10*
X4714285Y11845238D02*
X4619047Y11892857D01*
D10*
X4761905Y11845238D02*
X4714285Y11845238D01*
D10*
X4809524Y11892857D02*
X4761905Y11845238D01*
D10*
X4761905Y11940476D02*
X4809524Y11892857D01*
D10*
X4714285Y11892857D02*
X4761905Y11940476D01*
D10*
X5000000Y12369048D02*
X5047619Y12273810D01*
D10*
X4952381Y12416667D02*
X5000000Y12369048D01*
D10*
X4857143Y12464286D02*
X4952381Y12416667D01*
D10*
X4714285Y12464286D02*
X4857143Y12464286D01*
D10*
X4619047Y12416667D02*
X4714285Y12464286D01*
D10*
X4571428Y12369048D02*
X4619047Y12416667D01*
D10*
X4523809Y12273810D02*
X4571428Y12369048D01*
D10*
X-1988095Y14750000D02*
X-2130952Y15273810D01*
D10*
X-1940476Y14559524D02*
X-1988095Y14750000D01*
D10*
X-1940476Y14416667D02*
X-1940476Y14559524D01*
D10*
X-1988095Y14321429D02*
X-1940476Y14416667D01*
D10*
X-2130952Y14273810D02*
X-1988095Y14321429D01*
D10*
X-2321428Y14273810D02*
X-2130952Y14273810D01*
D10*
X-2464285Y14321429D02*
X-2321428Y14273810D01*
D10*
X-2559523Y14416667D02*
X-2464285Y14321429D01*
D10*
X-2607143Y14559524D02*
X-2559523Y14416667D01*
D10*
X-2797619Y15273810D02*
X-2607143Y14559524D01*
D10*
X-2035714Y14750000D02*
X-2178571Y15273810D01*
D10*
X-1988095Y14559524D02*
X-2035714Y14750000D01*
D10*
X-1988095Y14416667D02*
X-1988095Y14559524D01*
D10*
X-2035714Y14321429D02*
X-1988095Y14416667D01*
D10*
X-2130952Y14273810D02*
X-2035714Y14321429D01*
D10*
X-2321428Y15273810D02*
X-1988095Y15273810D01*
D10*
X-2940476Y15273810D02*
X-2654762Y15273810D01*
D10*
X-3702381Y14845238D02*
X-3750000Y14940476D01*
D10*
X-3607143Y14750000D02*
X-3702381Y14845238D01*
D10*
X-3511904Y14702381D02*
X-3607143Y14750000D01*
D10*
X-3369047Y14702381D02*
X-3511904Y14702381D01*
D10*
X-3273809Y14750000D02*
X-3369047Y14702381D01*
D10*
X-3226190Y14797619D02*
X-3273809Y14750000D01*
D10*
X-3178571Y14892857D02*
X-3226190Y14797619D01*
D10*
X-3178571Y15035714D02*
X-3178571Y14892857D01*
D10*
X-3226190Y15130952D02*
X-3178571Y15035714D01*
D10*
X-3321428Y15226190D02*
X-3226190Y15130952D01*
D10*
X-3464285Y15273810D02*
X-3321428Y15226190D01*
D10*
X-3607143Y15273810D02*
X-3464285Y15273810D01*
D10*
X-3702381Y15226190D02*
X-3607143Y15273810D01*
D10*
X-3750000Y15178571D02*
X-3702381Y15226190D01*
D10*
X-3797619Y15083333D02*
X-3750000Y15178571D01*
D10*
X-3797619Y14892857D02*
X-3797619Y15083333D01*
D10*
X-3750000Y14702381D02*
X-3797619Y14892857D01*
D10*
X-3702381Y14559524D02*
X-3750000Y14702381D01*
D10*
X-3607143Y14416667D02*
X-3702381Y14559524D01*
D10*
X-3511904Y14321429D02*
X-3607143Y14416667D01*
D10*
X-3369047Y14273810D02*
X-3511904Y14321429D01*
D10*
X-3226190Y14273810D02*
X-3369047Y14273810D01*
D10*
X-3130952Y14321429D02*
X-3226190Y14273810D01*
D10*
X-3083333Y14416667D02*
X-3130952Y14321429D01*
D10*
X-3083333Y14464286D02*
X-3083333Y14416667D01*
D10*
X-3130952Y14511905D02*
X-3083333Y14464286D01*
D10*
X-3178571Y14464286D02*
X-3130952Y14511905D01*
D10*
X-3130952Y14416667D02*
X-3178571Y14464286D01*
D10*
X-3226190Y14845238D02*
X-3273809Y14750000D01*
D10*
X-3226190Y15035714D02*
X-3226190Y14845238D01*
D10*
X-3273809Y15130952D02*
X-3226190Y15035714D01*
D10*
X-3369047Y15226190D02*
X-3273809Y15130952D01*
D10*
X-3464285Y15273810D02*
X-3369047Y15226190D01*
D10*
X-3750000Y15130952D02*
X-3702381Y15226190D01*
D10*
X-3750000Y14892857D02*
X-3750000Y15130952D01*
D10*
X-3702381Y14702381D02*
X-3750000Y14892857D01*
D10*
X-3654762Y14559524D02*
X-3702381Y14702381D01*
D10*
X-3559523Y14416667D02*
X-3654762Y14559524D01*
D10*
X-3464285Y14321429D02*
X-3559523Y14416667D01*
D10*
X-3369047Y14273810D02*
X-3464285Y14321429D01*
D10*
X-3654762Y10428571D02*
X-3607143Y10428571D01*
D10*
X-3702381Y10523810D02*
X-3654762Y10428571D01*
D10*
X-3654762Y10238095D02*
X-3702381Y10523810D01*
D10*
X-3654762Y10333333D02*
X-3654762Y10238095D01*
D10*
X-3607143Y10428571D02*
X-3654762Y10333333D01*
D10*
X-3559523Y10476190D02*
X-3607143Y10428571D01*
D10*
X-3464285Y10523810D02*
X-3559523Y10476190D01*
D10*
X-3321428Y10523810D02*
X-3464285Y10523810D01*
D10*
X-3178571Y10476190D02*
X-3321428Y10523810D01*
D10*
X-3083333Y10380952D02*
X-3178571Y10476190D01*
D10*
X-2988095Y10238095D02*
X-3083333Y10380952D01*
D10*
X-2940476Y10095238D02*
X-2988095Y10238095D01*
D10*
X-2892857Y9904762D02*
X-2940476Y10095238D01*
D10*
X-2892857Y9761905D02*
X-2892857Y9904762D01*
D10*
X-2940476Y9619048D02*
X-2892857Y9761905D01*
D10*
X-2988095Y9571429D02*
X-2940476Y9619048D01*
D10*
X-3130952Y9523810D02*
X-2988095Y9571429D01*
D10*
X-3273809Y9523810D02*
X-3130952Y9523810D01*
D10*
X-3369047Y9571429D02*
X-3273809Y9523810D01*
D10*
X-3464285Y9666667D02*
X-3369047Y9571429D01*
D10*
X-3511904Y9761905D02*
X-3464285Y9666667D01*
D10*
X-3226190Y10476190D02*
X-3321428Y10523810D01*
D10*
X-3130952Y10380952D02*
X-3226190Y10476190D01*
D10*
X-3035714Y10238095D02*
X-3130952Y10380952D01*
D10*
X-2988095Y10095238D02*
X-3035714Y10238095D01*
D10*
X-2940476Y9904762D02*
X-2988095Y10095238D01*
D10*
X-2940476Y9761905D02*
X-2940476Y9904762D01*
D10*
X-2988095Y9619048D02*
X-2940476Y9761905D01*
D10*
X-3035714Y9571429D02*
X-2988095Y9619048D01*
D10*
X-3130952Y9523810D02*
X-3035714Y9571429D01*
D10*
X-4130952Y10285714D02*
X-4083333Y10333333D01*
D10*
X-4083333Y10238095D02*
X-4130952Y10285714D01*
D10*
X-4035714Y10285714D02*
X-4083333Y10238095D01*
D10*
X-4035714Y10333333D02*
X-4035714Y10285714D01*
D10*
X-4083333Y10428571D02*
X-4035714Y10333333D01*
D10*
X-4130952Y10476190D02*
X-4083333Y10428571D01*
D10*
X-4273809Y10523810D02*
X-4130952Y10476190D01*
D10*
X-4416666Y10523810D02*
X-4273809Y10523810D01*
D10*
X-4559524Y10476190D02*
X-4416666Y10523810D01*
D10*
X-4607143Y10380952D02*
X-4559524Y10476190D01*
D10*
X-4607143Y10285714D02*
X-4607143Y10380952D01*
D10*
X-4559524Y10190476D02*
X-4607143Y10285714D01*
D10*
X-4416666Y10095238D02*
X-4559524Y10190476D01*
D10*
X-4273809Y10047619D02*
X-4416666Y10095238D01*
D10*
X-4511905Y10476190D02*
X-4416666Y10523810D01*
D10*
X-4559524Y10380952D02*
X-4511905Y10476190D01*
D10*
X-4559524Y10285714D02*
X-4559524Y10380952D01*
D10*
X-4511905Y10190476D02*
X-4559524Y10285714D01*
D10*
X-4416666Y10095238D02*
X-4511905Y10190476D01*
D10*
X-4273809Y10047619D02*
X-4178571Y10047619D01*
D10*
X-4416666Y10000000D02*
X-4273809Y10047619D01*
D10*
X-4464286Y9952381D02*
X-4416666Y10000000D01*
D10*
X-4511905Y9857143D02*
X-4464286Y9952381D01*
D10*
X-4511905Y9714286D02*
X-4511905Y9857143D01*
D10*
X-4464286Y9619048D02*
X-4511905Y9714286D01*
D10*
X-4416666Y9571429D02*
X-4464286Y9619048D01*
D10*
X-4273809Y9523810D02*
X-4416666Y9571429D01*
D10*
X-4083333Y9523810D02*
X-4273809Y9523810D01*
D10*
X-3940476Y9571429D02*
X-4083333Y9523810D01*
D10*
X-3892857Y9619048D02*
X-3940476Y9571429D01*
D10*
X-3845238Y9714286D02*
X-3892857Y9619048D01*
D10*
X-3845238Y9761905D02*
X-3845238Y9714286D01*
D10*
X-3892857Y9809524D02*
X-3845238Y9761905D01*
D10*
X-3940476Y9761905D02*
X-3892857Y9809524D01*
D10*
X-3892857Y9714286D02*
X-3940476Y9761905D01*
D10*
X-4369047Y10000000D02*
X-4273809Y10047619D01*
D10*
X-4416666Y9952381D02*
X-4369047Y10000000D01*
D10*
X-4464286Y9857143D02*
X-4416666Y9952381D01*
D10*
X-4464286Y9714286D02*
X-4464286Y9857143D01*
D10*
X-4416666Y9619048D02*
X-4464286Y9714286D01*
D10*
X-4369047Y9571429D02*
X-4416666Y9619048D01*
D10*
X-4273809Y9523810D02*
X-4369047Y9571429D01*
D10*
X-5178571Y10476190D02*
X-5321428Y10523810D01*
D10*
X-5083333Y10380952D02*
X-5178571Y10476190D01*
D10*
X-4988095Y10238095D02*
X-5083333Y10380952D01*
D10*
X-4940476Y10095238D02*
X-4988095Y10238095D01*
D10*
X-4892857Y9904762D02*
X-4940476Y10095238D01*
D10*
X-4892857Y9761905D02*
X-4892857Y9904762D01*
D10*
X-4940476Y9619048D02*
X-4892857Y9761905D01*
D10*
X-4988095Y9571429D02*
X-4940476Y9619048D01*
D10*
X-5083333Y9523810D02*
X-4988095Y9571429D01*
D10*
X-5178571Y9523810D02*
X-5083333Y9523810D01*
D10*
X-5321428Y9571429D02*
X-5178571Y9523810D01*
D10*
X-5416666Y9666667D02*
X-5321428Y9571429D01*
D10*
X-5511905Y9809524D02*
X-5416666Y9666667D01*
D10*
X-5559524Y9952381D02*
X-5511905Y9809524D01*
D10*
X-5607143Y10142857D02*
X-5559524Y9952381D01*
D10*
X-5607143Y10285714D02*
X-5607143Y10142857D01*
D10*
X-5559524Y10428571D02*
X-5607143Y10285714D01*
D10*
X-5511905Y10476190D02*
X-5559524Y10428571D01*
D10*
X-5416666Y10523810D02*
X-5511905Y10476190D01*
D10*
X-5321428Y10523810D02*
X-5416666Y10523810D01*
D10*
X-5226190Y10476190D02*
X-5321428Y10523810D01*
D10*
X-5130952Y10380952D02*
X-5226190Y10476190D01*
D10*
X-5035714Y10238095D02*
X-5130952Y10380952D01*
D10*
X-4988095Y10095238D02*
X-5035714Y10238095D01*
D10*
X-4940476Y9904762D02*
X-4988095Y10095238D01*
D10*
X-4940476Y9761905D02*
X-4940476Y9904762D01*
D10*
X-4988095Y9619048D02*
X-4940476Y9761905D01*
D10*
X-5083333Y9523810D02*
X-4988095Y9619048D01*
D10*
X-5273809Y9571429D02*
X-5178571Y9523810D01*
D10*
X-5369047Y9666667D02*
X-5273809Y9571429D01*
D10*
X-5464286Y9809524D02*
X-5369047Y9666667D01*
D10*
X-5511905Y9952381D02*
X-5464286Y9809524D01*
D10*
X-5559524Y10142857D02*
X-5511905Y9952381D01*
D10*
X-5559524Y10285714D02*
X-5559524Y10142857D01*
D10*
X-5511905Y10428571D02*
X-5559524Y10285714D01*
D10*
X-5416666Y10523810D02*
X-5511905Y10428571D01*
D10*
X-17985714Y-323809D02*
X-17176190Y-85714D01*
D10*
X-18080952Y-371428D02*
X-17985714Y-323809D01*
D10*
X-18128572Y-419047D02*
X-18080952Y-371428D01*
D10*
X-18176190Y-514285D02*
X-18128572Y-419047D01*
D10*
X-18176190Y-609523D02*
X-18176190Y-514285D01*
D10*
X-18128572Y-704761D02*
X-18176190Y-609523D01*
D10*
X-18033334Y-752380D02*
X-18128572Y-704761D01*
D10*
X-17938096Y-752380D02*
X-18033334Y-752380D01*
D10*
X-17890476Y-704761D02*
X-17938096Y-752380D01*
D10*
X-17938096Y-657142D02*
X-17890476Y-704761D01*
D10*
X-17985714Y-704761D02*
X-17938096Y-657142D01*
D10*
X-17985714Y-371428D02*
X-17176190Y-133333D01*
D10*
X-18080952Y-419047D02*
X-17985714Y-371428D01*
D10*
X-18176190Y-514285D02*
X-18080952Y-419047D01*
D10*
X-17176190Y57142D02*
X-17176190Y-276190D01*
D10*
X-18176190Y533333D02*
X-17223810Y819047D01*
D10*
X-18176190Y580952D02*
X-17176190Y866666D01*
D10*
X-17890476Y152380D02*
X-17176190Y866666D01*
D10*
X-17890476Y914285D02*
X-17890476Y152380D01*
D10*
X-11476190Y13700000D02*
X-10476190Y13985714D01*
D10*
X-11476190Y13747619D02*
X-10476190Y14033334D01*
D10*
X-10476190Y14366667D02*
X-10476190Y13842857D01*
D10*
X-10523810Y14509524D02*
X-10476190Y14366667D01*
D10*
X-10619048Y14557143D02*
X-10523810Y14509524D01*
D10*
X-10714286Y14557143D02*
X-10619048Y14557143D01*
D10*
X-10857143Y14509524D02*
X-10714286Y14557143D01*
D10*
X-10904762Y14461905D02*
X-10857143Y14509524D01*
D10*
X-10952381Y14319048D02*
X-10904762Y14461905D01*
D10*
X-10952381Y13890476D02*
X-10952381Y14319048D01*
D10*
X-10523810Y14461905D02*
X-10476190Y14366667D01*
D10*
X-10619048Y14509524D02*
X-10523810Y14461905D01*
D10*
X-10714286Y14509524D02*
X-10619048Y14509524D01*
D10*
X-10857143Y14461905D02*
X-10714286Y14509524D01*
D10*
X-10904762Y14414286D02*
X-10857143Y14461905D01*
D10*
X-10952381Y14319048D02*
X-10904762Y14414286D01*
D10*
X-11000000Y14223810D02*
X-10952381Y14128572D01*
D10*
X-11047619Y14271428D02*
X-11000000Y14223810D01*
D10*
X-11428571Y14319048D02*
X-11047619Y14271428D01*
D10*
X-11476190Y14366667D02*
X-11428571Y14319048D01*
D10*
X-11476190Y14461905D02*
X-11476190Y14366667D01*
D10*
X-11380952Y14509524D02*
X-11476190Y14461905D01*
D10*
X-11333333Y14509524D02*
X-11380952Y14509524D01*
D10*
X-11380952Y14366667D02*
X-11047619Y14271428D01*
D10*
X-11428571Y14414286D02*
X-11380952Y14366667D01*
D10*
X-11428571Y14461905D02*
X-11428571Y14414286D01*
D10*
X-11380952Y14509524D02*
X-11428571Y14461905D01*
D10*
X-11476190Y13890476D02*
X-11476190Y13557143D01*
D10*
X-10714286Y15080952D02*
X-10666667Y15033333D01*
D10*
X-10761905Y15033333D02*
X-10714286Y15080952D01*
D10*
X-10714286Y14985714D02*
X-10761905Y15033333D01*
D10*
X-10666667Y14985714D02*
X-10714286Y14985714D01*
D10*
X-10571429Y15033333D02*
X-10666667Y14985714D01*
D10*
X-10523810Y15080952D02*
X-10571429Y15033333D01*
D10*
X-10476190Y15223810D02*
X-10523810Y15080952D01*
D10*
X-10476190Y15366667D02*
X-10476190Y15223810D01*
D10*
X-10523810Y15509524D02*
X-10476190Y15366667D01*
D10*
X-10619048Y15557143D02*
X-10523810Y15509524D01*
D10*
X-10714286Y15557143D02*
X-10619048Y15557143D01*
D10*
X-10809524Y15509524D02*
X-10714286Y15557143D01*
D10*
X-10904762Y15414286D02*
X-10809524Y15509524D01*
D10*
X-11000000Y15271429D02*
X-10904762Y15414286D01*
D10*
X-11095238Y15080952D02*
X-11000000Y15271429D01*
D10*
X-11190476Y14938095D02*
X-11095238Y15080952D01*
D10*
X-11285714Y14842857D02*
X-11190476Y14938095D01*
D10*
X-11476190Y14747619D02*
X-11285714Y14842857D01*
D10*
X-10523810Y15461905D02*
X-10476190Y15366667D01*
D10*
X-10619048Y15509524D02*
X-10523810Y15461905D01*
D10*
X-10714286Y15509524D02*
X-10619048Y15509524D01*
D10*
X-10809524Y15461905D02*
X-10714286Y15509524D01*
D10*
X-10904762Y15366667D02*
X-10809524Y15461905D01*
D10*
X-11095238Y15080952D02*
X-10904762Y15366667D01*
D10*
X-11333333Y14842857D02*
X-11380952Y14795238D01*
D10*
X-11333333Y14938095D02*
X-11333333Y14842857D01*
D10*
X-11428571Y15176190D02*
X-11333333Y14938095D01*
D10*
X-11428571Y15319048D02*
X-11428571Y15176190D01*
D10*
X-11380952Y15414286D02*
X-11428571Y15319048D01*
D10*
X-11285714Y15461905D02*
X-11380952Y15414286D01*
D10*
X-11476190Y15176190D02*
X-11333333Y14938095D01*
D10*
X-11476190Y15319048D02*
X-11476190Y15176190D01*
D10*
X-11428571Y15414286D02*
X-11476190Y15319048D01*
D10*
X-11285714Y15461905D02*
X-11428571Y15414286D01*
D10*
X-11476190Y16033333D02*
X-10666667Y16271429D01*
D10*
X-11476190Y16080952D02*
X-10476190Y16366667D01*
D10*
X-10619048Y16223810D02*
X-10476190Y16366667D01*
D10*
X-10714286Y16080952D02*
X-10619048Y16223810D01*
D10*
X-10761905Y15985714D02*
X-10714286Y16080952D01*
D10*
X-10714286Y16128571D02*
X-10619048Y16319048D01*
D10*
X-10761905Y15985714D02*
X-10714286Y16128571D01*
D10*
X5750000Y53023808D02*
X5130952Y54023808D01*
D10*
X5083333Y53023808D02*
X5130952Y54023808D01*
D10*
X5130952Y53023808D02*
X5178571Y53928572D01*
D10*
X5130952Y53309524D02*
X5559524Y53309524D01*
D10*
X5559524Y53023808D02*
X5845238Y53023808D01*
D10*
X4988095Y53023808D02*
X5273809Y53023808D01*
D10*
X-18226190Y2440476D02*
X-17226190Y2726190D01*
D10*
X-18226190Y2488095D02*
X-17226190Y2773809D01*
D10*
X-17226190Y2916666D02*
X-17226190Y2583333D01*
D10*
X-18226190Y3011904D02*
X-18226190Y2297619D01*
D10*
X-17940476Y3107143D02*
X-18226190Y3011904D01*
D10*
X-18226190Y2964285D02*
X-17940476Y3107143D01*
D10*
X-18226190Y3583333D02*
X-17416666Y3821428D01*
D10*
X-18226190Y3630952D02*
X-17226190Y3916666D01*
D10*
X-17369048Y3773809D02*
X-17226190Y3916666D01*
D10*
X-17464286Y3630952D02*
X-17369048Y3773809D01*
D10*
X-17511904Y3535714D02*
X-17464286Y3630952D01*
D10*
X-17464286Y3678571D02*
X-17369048Y3869047D01*
D10*
X-17511904Y3535714D02*
X-17464286Y3678571D01*
D10*
X2345238Y4178571D02*
X2392857Y4178571D01*
D10*
X2297619Y4273809D02*
X2345238Y4178571D01*
D10*
X2345238Y3988095D02*
X2297619Y4273809D01*
D10*
X2345238Y4083333D02*
X2345238Y3988095D01*
D10*
X2392857Y4178571D02*
X2345238Y4083333D01*
D10*
X2440476Y4226190D02*
X2392857Y4178571D01*
D10*
X2535714Y4273809D02*
X2440476Y4226190D01*
D10*
X2678571Y4273809D02*
X2535714Y4273809D01*
D10*
X2821428Y4226190D02*
X2678571Y4273809D01*
D10*
X2916666Y4130952D02*
X2821428Y4226190D01*
D10*
X3011904Y3988095D02*
X2916666Y4130952D01*
D10*
X3059523Y3845238D02*
X3011904Y3988095D01*
D10*
X3107142Y3654762D02*
X3059523Y3845238D01*
D10*
X3107142Y3511904D02*
X3107142Y3654762D01*
D10*
X3059523Y3369047D02*
X3107142Y3511904D01*
D10*
X3011904Y3321428D02*
X3059523Y3369047D01*
D10*
X2869047Y3273809D02*
X3011904Y3321428D01*
D10*
X2726190Y3273809D02*
X2869047Y3273809D01*
D10*
X2630952Y3321428D02*
X2726190Y3273809D01*
D10*
X2535714Y3416666D02*
X2630952Y3321428D01*
D10*
X2488095Y3511904D02*
X2535714Y3416666D01*
D10*
X2773809Y4226190D02*
X2678571Y4273809D01*
D10*
X2869047Y4130952D02*
X2773809Y4226190D01*
D10*
X2964285Y3988095D02*
X2869047Y4130952D01*
D10*
X3011904Y3845238D02*
X2964285Y3988095D01*
D10*
X3059523Y3654762D02*
X3011904Y3845238D01*
D10*
X3059523Y3511904D02*
X3059523Y3654762D01*
D10*
X3011904Y3369047D02*
X3059523Y3511904D01*
D10*
X2964285Y3321428D02*
X3011904Y3369047D01*
D10*
X2869047Y3273809D02*
X2964285Y3321428D01*
D10*
X1916666Y3273809D02*
X1678571Y4083333D01*
D10*
X1869047Y3273809D02*
X1583333Y4273809D01*
D10*
X1726190Y4130952D02*
X1583333Y4273809D01*
D10*
X1869047Y4035714D02*
X1726190Y4130952D01*
D10*
X1964285Y3988095D02*
X1869047Y4035714D01*
D10*
X1821428Y4035714D02*
X1630952Y4130952D01*
D10*
X1964285Y3988095D02*
X1821428Y4035714D01*
D10*
X488095Y3845238D02*
X440476Y3940476D01*
D10*
X583333Y3750000D02*
X488095Y3845238D01*
D10*
X678571Y3702381D02*
X583333Y3750000D01*
D10*
X821428Y3702381D02*
X678571Y3702381D01*
D10*
X916666Y3750000D02*
X821428Y3702381D01*
D10*
X964285Y3797619D02*
X916666Y3750000D01*
D10*
X1011904Y3892857D02*
X964285Y3797619D01*
D10*
X1011904Y4035714D02*
X1011904Y3892857D01*
D10*
X964285Y4130952D02*
X1011904Y4035714D01*
D10*
X869047Y4226190D02*
X964285Y4130952D01*
D10*
X726190Y4273809D02*
X869047Y4226190D01*
D10*
X583333Y4273809D02*
X726190Y4273809D01*
D10*
X488095Y4226190D02*
X583333Y4273809D01*
D10*
X440476Y4178571D02*
X488095Y4226190D01*
D10*
X392857Y4083333D02*
X440476Y4178571D01*
D10*
X392857Y3892857D02*
X392857Y4083333D01*
D10*
X440476Y3702381D02*
X392857Y3892857D01*
D10*
X488095Y3559523D02*
X440476Y3702381D01*
D10*
X583333Y3416666D02*
X488095Y3559523D01*
D10*
X678571Y3321428D02*
X583333Y3416666D01*
D10*
X821428Y3273809D02*
X678571Y3321428D01*
D10*
X964285Y3273809D02*
X821428Y3273809D01*
D10*
X1059523Y3321428D02*
X964285Y3273809D01*
D10*
X1107142Y3416666D02*
X1059523Y3321428D01*
D10*
X1107142Y3464285D02*
X1107142Y3416666D01*
D10*
X1059523Y3511904D02*
X1107142Y3464285D01*
D10*
X1011904Y3464285D02*
X1059523Y3511904D01*
D10*
X1059523Y3416666D02*
X1011904Y3464285D01*
D10*
X964285Y3845238D02*
X916666Y3750000D01*
D10*
X964285Y4035714D02*
X964285Y3845238D01*
D10*
X916666Y4130952D02*
X964285Y4035714D01*
D10*
X821428Y4226190D02*
X916666Y4130952D01*
D10*
X726190Y4273809D02*
X821428Y4226190D01*
D10*
X440476Y4130952D02*
X488095Y4226190D01*
D10*
X440476Y3892857D02*
X440476Y4130952D01*
D10*
X488095Y3702381D02*
X440476Y3892857D01*
D10*
X535714Y3559523D02*
X488095Y3702381D01*
D10*
X630952Y3416666D02*
X535714Y3559523D01*
D10*
X726190Y3321428D02*
X630952Y3416666D01*
D10*
X821428Y3273809D02*
X726190Y3321428D01*
D10*
X-16351190Y59714284D02*
X-16589286Y60523808D01*
D10*
X-16303571Y59619048D02*
X-16351190Y59714284D01*
D10*
X-16255952Y59571428D02*
X-16303571Y59619048D01*
D10*
X-16160714Y59523808D02*
X-16255952Y59571428D01*
D10*
X-16065476Y59523808D02*
X-16160714Y59523808D01*
D10*
X-15970238Y59571428D02*
X-16065476Y59523808D01*
D10*
X-15922619Y59666668D02*
X-15970238Y59571428D01*
D10*
X-15922619Y59761904D02*
X-15922619Y59666668D01*
D10*
X-15970238Y59809524D02*
X-15922619Y59761904D01*
D10*
X-16017857Y59761904D02*
X-15970238Y59809524D01*
D10*
X-15970238Y59714284D02*
X-16017857Y59761904D01*
D10*
X-16303571Y59714284D02*
X-16541667Y60523808D01*
D10*
X-16255952Y59619048D02*
X-16303571Y59714284D01*
D10*
X-16160714Y59523808D02*
X-16255952Y59619048D01*
D10*
X-16732143Y60523808D02*
X-16398810Y60523808D01*
D10*
X-16922620Y60047620D02*
X-17160714Y60523808D01*
D10*
X-17636904Y60523808D02*
X-17160714Y60523808D01*
D10*
X-17398810Y60476192D02*
X-17160714Y60476192D01*
D10*
X-17636904Y60523808D02*
X-17398810Y60476192D01*
D10*
X-16970238Y60095240D02*
X-16922620Y60047620D01*
D10*
X-17113096Y60142856D02*
X-16970238Y60095240D01*
D10*
X-17255952Y60142856D02*
X-17113096Y60142856D01*
D10*
X-17398810Y60095240D02*
X-17255952Y60142856D01*
D10*
X-17446428Y60047620D02*
X-17398810Y60095240D01*
D10*
X-17494048Y59952380D02*
X-17446428Y60047620D01*
D10*
X-17494048Y59809524D02*
X-17494048Y59952380D01*
D10*
X-17446428Y59666668D02*
X-17494048Y59809524D01*
D10*
X-17351190Y59571428D02*
X-17446428Y59666668D01*
D10*
X-17208334Y59523808D02*
X-17351190Y59571428D01*
D10*
X-17065476Y59523808D02*
X-17208334Y59523808D01*
D10*
X-16922620Y59571428D02*
X-17065476Y59523808D01*
D10*
X-16875000Y59619048D02*
X-16922620Y59571428D01*
D10*
X-16827380Y59714284D02*
X-16875000Y59619048D01*
D10*
X-16827380Y59761904D02*
X-16827380Y59714284D01*
D10*
X-16875000Y59809524D02*
X-16827380Y59761904D01*
D10*
X-16922620Y59761904D02*
X-16875000Y59809524D01*
D10*
X-16875000Y59714284D02*
X-16922620Y59761904D01*
D10*
X-17351190Y60095240D02*
X-17255952Y60142856D01*
D10*
X-17398810Y60047620D02*
X-17351190Y60095240D01*
D10*
X-17446428Y59952380D02*
X-17398810Y60047620D01*
D10*
X-17446428Y59809524D02*
X-17446428Y59952380D01*
D10*
X-17398810Y59666668D02*
X-17446428Y59809524D01*
D10*
X-17303572Y59571428D02*
X-17398810Y59666668D01*
D10*
X-17208334Y59523808D02*
X-17303572Y59571428D01*
D10*
X2928571Y19404762D02*
X2928571Y19357142D01*
D10*
X3023809Y19452380D02*
X2928571Y19404762D01*
D10*
X2738095Y19404762D02*
X3023809Y19452380D01*
D10*
X2833333Y19404762D02*
X2738095Y19404762D01*
D10*
X2928571Y19357142D02*
X2833333Y19404762D01*
D10*
X2976190Y19309524D02*
X2928571Y19357142D01*
D10*
X3023809Y19214286D02*
X2976190Y19309524D01*
D10*
X3023809Y19071428D02*
X3023809Y19214286D01*
D10*
X2976190Y18928572D02*
X3023809Y19071428D01*
D10*
X2880952Y18833334D02*
X2976190Y18928572D01*
D10*
X2738095Y18738096D02*
X2880952Y18833334D01*
D10*
X2595238Y18690476D02*
X2738095Y18738096D01*
D10*
X2404762Y18642858D02*
X2595238Y18690476D01*
D10*
X2261904Y18642858D02*
X2404762Y18642858D01*
D10*
X2119047Y18690476D02*
X2261904Y18642858D01*
D10*
X2071428Y18738096D02*
X2119047Y18690476D01*
D10*
X2023809Y18880952D02*
X2071428Y18738096D01*
D10*
X2023809Y19023810D02*
X2023809Y18880952D01*
D10*
X2071428Y19119048D02*
X2023809Y19023810D01*
D10*
X2166666Y19214286D02*
X2071428Y19119048D01*
D10*
X2261904Y19261904D02*
X2166666Y19214286D01*
D10*
X2976190Y18976190D02*
X3023809Y19071428D01*
D10*
X2880952Y18880952D02*
X2976190Y18976190D01*
D10*
X2738095Y18785714D02*
X2880952Y18880952D01*
D10*
X2595238Y18738096D02*
X2738095Y18785714D01*
D10*
X2404762Y18690476D02*
X2595238Y18738096D01*
D10*
X2261904Y18690476D02*
X2404762Y18690476D01*
D10*
X2119047Y18738096D02*
X2261904Y18690476D01*
D10*
X2071428Y18785714D02*
X2119047Y18738096D01*
D10*
X2023809Y18880952D02*
X2071428Y18785714D01*
D10*
X2023809Y19833334D02*
X2833333Y20071428D01*
D10*
X2023809Y19880952D02*
X3023809Y20166666D01*
D10*
X2880952Y20023810D02*
X3023809Y20166666D01*
D10*
X2785714Y19880952D02*
X2880952Y20023810D01*
D10*
X2738095Y19785714D02*
X2785714Y19880952D01*
D10*
X2785714Y19928572D02*
X2880952Y20119048D01*
D10*
X2738095Y19785714D02*
X2785714Y19928572D01*
D10*
X2785714Y20880952D02*
X2833333Y20833334D01*
D10*
X2738095Y20833334D02*
X2785714Y20880952D01*
D10*
X2785714Y20785714D02*
X2738095Y20833334D01*
D10*
X2833333Y20785714D02*
X2785714Y20785714D01*
D10*
X2928571Y20833334D02*
X2833333Y20785714D01*
D10*
X2976190Y20880952D02*
X2928571Y20833334D01*
D10*
X3023809Y21023810D02*
X2976190Y20880952D01*
D10*
X3023809Y21166666D02*
X3023809Y21023810D01*
D10*
X2976190Y21309524D02*
X3023809Y21166666D01*
D10*
X2880952Y21357142D02*
X2976190Y21309524D01*
D10*
X2785714Y21357142D02*
X2880952Y21357142D01*
D10*
X2690476Y21309524D02*
X2785714Y21357142D01*
D10*
X2595238Y21214286D02*
X2690476Y21309524D01*
D10*
X2500000Y21071428D02*
X2595238Y21214286D01*
D10*
X2404762Y20880952D02*
X2500000Y21071428D01*
D10*
X2309523Y20738096D02*
X2404762Y20880952D01*
D10*
X2214285Y20642856D02*
X2309523Y20738096D01*
D10*
X2023809Y20547620D02*
X2214285Y20642856D01*
D10*
X2976190Y21261904D02*
X3023809Y21166666D01*
D10*
X2880952Y21309524D02*
X2976190Y21261904D01*
D10*
X2785714Y21309524D02*
X2880952Y21309524D01*
D10*
X2690476Y21261904D02*
X2785714Y21309524D01*
D10*
X2595238Y21166666D02*
X2690476Y21261904D01*
D10*
X2404762Y20880952D02*
X2595238Y21166666D01*
D10*
X2166666Y20642856D02*
X2119047Y20595238D01*
D10*
X2166666Y20738096D02*
X2166666Y20642856D01*
D10*
X2071428Y20976190D02*
X2166666Y20738096D01*
D10*
X2071428Y21119048D02*
X2071428Y20976190D01*
D10*
X2119047Y21214286D02*
X2071428Y21119048D01*
D10*
X2214285Y21261904D02*
X2119047Y21214286D01*
D10*
X2023809Y20976190D02*
X2166666Y20738096D01*
D10*
X2023809Y21119048D02*
X2023809Y20976190D01*
D10*
X2071428Y21214286D02*
X2023809Y21119048D01*
D10*
X2214285Y21261904D02*
X2071428Y21214286D01*
D10*
X-642857Y3023809D02*
X-928571Y4023809D01*
D10*
X-690476Y3023809D02*
X-976190Y4023809D01*
D10*
X-1119047Y4023809D02*
X-785714Y4023809D01*
D10*
X-1214285Y3023809D02*
X-500000Y3023809D01*
D10*
X-1309523Y3309523D02*
X-1214285Y3023809D01*
D10*
X-1166666Y3023809D02*
X-1309523Y3309523D01*
D10*
X-1833333Y3785714D02*
X-1785714Y3833333D01*
D10*
X-1785714Y3738095D02*
X-1833333Y3785714D01*
D10*
X-1738095Y3785714D02*
X-1785714Y3738095D01*
D10*
X-1738095Y3833333D02*
X-1738095Y3785714D01*
D10*
X-1785714Y3928571D02*
X-1738095Y3833333D01*
D10*
X-1833333Y3976190D02*
X-1785714Y3928571D01*
D10*
X-1976190Y4023809D02*
X-1833333Y3976190D01*
D10*
X-2119047Y4023809D02*
X-1976190Y4023809D01*
D10*
X-2261904Y3976190D02*
X-2119047Y4023809D01*
D10*
X-2309523Y3880952D02*
X-2261904Y3976190D01*
D10*
X-2309523Y3785714D02*
X-2309523Y3880952D01*
D10*
X-2261904Y3690476D02*
X-2309523Y3785714D01*
D10*
X-2166666Y3595238D02*
X-2261904Y3690476D01*
D10*
X-2023809Y3500000D02*
X-2166666Y3595238D01*
D10*
X-1833333Y3404762D02*
X-2023809Y3500000D01*
D10*
X-1690476Y3309523D02*
X-1833333Y3404762D01*
D10*
X-1595238Y3214285D02*
X-1690476Y3309523D01*
D10*
X-1500000Y3023809D02*
X-1595238Y3214285D01*
D10*
X-2214285Y3976190D02*
X-2119047Y4023809D01*
D10*
X-2261904Y3880952D02*
X-2214285Y3976190D01*
D10*
X-2261904Y3785714D02*
X-2261904Y3880952D01*
D10*
X-2214285Y3690476D02*
X-2261904Y3785714D01*
D10*
X-2119047Y3595238D02*
X-2214285Y3690476D01*
D10*
X-1833333Y3404762D02*
X-2119047Y3595238D01*
D10*
X-1595238Y3166666D02*
X-1547619Y3119047D01*
D10*
X-1690476Y3166666D02*
X-1595238Y3166666D01*
D10*
X-1928571Y3071428D02*
X-1690476Y3166666D01*
D10*
X-2071428Y3071428D02*
X-1928571Y3071428D01*
D10*
X-2166666Y3119047D02*
X-2071428Y3071428D01*
D10*
X-2214285Y3214285D02*
X-2166666Y3119047D01*
D10*
X-1928571Y3023809D02*
X-1690476Y3166666D01*
D10*
X-2071428Y3023809D02*
X-1928571Y3023809D01*
D10*
X-2166666Y3071428D02*
X-2071428Y3023809D01*
D10*
X-2214285Y3214285D02*
X-2166666Y3071428D01*
D10*
X6728551Y-645258D02*
X6728551Y-692877D01*
D10*
X6823789Y-597639D02*
X6728551Y-645258D01*
D10*
X6538075Y-645258D02*
X6823789Y-597639D01*
D10*
X6633313Y-645258D02*
X6538075Y-645258D01*
D10*
X6728551Y-692877D02*
X6633313Y-645258D01*
D10*
X6776170Y-740496D02*
X6728551Y-692877D01*
D10*
X6823789Y-835734D02*
X6776170Y-740496D01*
D10*
X6823789Y-978591D02*
X6823789Y-835734D01*
D10*
X6776170Y-1121448D02*
X6823789Y-978591D01*
D10*
X6680932Y-1216686D02*
X6776170Y-1121448D01*
D10*
X6538075Y-1311924D02*
X6680932Y-1216686D01*
D10*
X6395218Y-1359543D02*
X6538075Y-1311924D01*
D10*
X6204742Y-1407162D02*
X6395218Y-1359543D01*
D10*
X6061885Y-1407162D02*
X6204742Y-1407162D01*
D10*
X5919027Y-1359543D02*
X6061885Y-1407162D01*
D10*
X5871408Y-1311924D02*
X5919027Y-1359543D01*
D10*
X5823789Y-1169067D02*
X5871408Y-1311924D01*
D10*
X5823789Y-1026210D02*
X5823789Y-1169067D01*
D10*
X5871408Y-930972D02*
X5823789Y-1026210D01*
D10*
X5966646Y-835734D02*
X5871408Y-930972D01*
D10*
X6061885Y-788115D02*
X5966646Y-835734D01*
D10*
X6776170Y-1073829D02*
X6823789Y-978591D01*
D10*
X6680932Y-1169067D02*
X6776170Y-1073829D01*
D10*
X6538075Y-1264305D02*
X6680932Y-1169067D01*
D10*
X6395218Y-1311924D02*
X6538075Y-1264305D01*
D10*
X6204742Y-1359543D02*
X6395218Y-1311924D01*
D10*
X6061885Y-1359543D02*
X6204742Y-1359543D01*
D10*
X5919027Y-1311924D02*
X6061885Y-1359543D01*
D10*
X5871408Y-1264305D02*
X5919027Y-1311924D01*
D10*
X5823789Y-1169067D02*
X5871408Y-1264305D01*
D10*
X5823789Y-216686D02*
X6633313Y21408D01*
D10*
X5823789Y-169067D02*
X6823789Y116646D01*
D10*
X6680932Y-26210D02*
X6823789Y116646D01*
D10*
X6585694Y-169067D02*
X6680932Y-26210D01*
D10*
X6538075Y-264305D02*
X6585694Y-169067D01*
D10*
X6585694Y-121448D02*
X6680932Y69027D01*
D10*
X6538075Y-264305D02*
X6585694Y-121448D01*
D10*
X6776170Y830932D02*
X6823789Y973789D01*
D10*
X6728551Y783313D02*
X6776170Y830932D01*
D10*
X6633313Y735694D02*
X6728551Y783313D01*
D10*
X6490456Y735694D02*
X6633313Y735694D01*
D10*
X6395218Y783313D02*
X6490456Y735694D01*
D10*
X6347599Y878551D02*
X6395218Y783313D01*
D10*
X6347599Y1021408D02*
X6347599Y878551D01*
D10*
X6395218Y1211884D02*
X6347599Y1021408D01*
D10*
X6442837Y1259503D02*
X6395218Y1211884D01*
D10*
X6538075Y1307122D02*
X6442837Y1259503D01*
D10*
X6680932Y1307122D02*
X6538075Y1307122D01*
D10*
X6776170Y1259503D02*
X6680932Y1307122D01*
D10*
X6823789Y1116646D02*
X6776170Y1259503D01*
D10*
X6823789Y973789D02*
X6823789Y1116646D01*
D10*
X6776170Y878551D02*
X6823789Y973789D01*
D10*
X6728551Y830932D02*
X6776170Y878551D01*
D10*
X6633313Y783313D02*
X6728551Y830932D01*
D10*
X6490456Y783313D02*
X6633313Y783313D01*
D10*
X6395218Y830932D02*
X6490456Y783313D01*
D10*
X6347599Y878551D02*
X6395218Y830932D01*
D10*
X6395218Y1164265D02*
X6347599Y1021408D01*
D10*
X6442837Y1211884D02*
X6395218Y1164265D01*
D10*
X6538075Y1259503D02*
X6442837Y1211884D01*
D10*
X6680932Y1259503D02*
X6538075Y1259503D01*
D10*
X6776170Y1211884D02*
X6680932Y1259503D01*
D10*
X6823789Y1116646D02*
X6776170Y1211884D01*
D10*
X6299980Y688075D02*
X6347599Y878551D01*
D10*
X6204742Y592837D02*
X6299980Y688075D01*
D10*
X6109504Y545218D02*
X6204742Y592837D01*
D10*
X5966646Y545218D02*
X6109504Y545218D01*
D10*
X5871408Y592837D02*
X5966646Y545218D01*
D10*
X5823789Y735694D02*
X5871408Y592837D01*
D10*
X5823789Y926170D02*
X5823789Y735694D01*
D10*
X5871408Y1116646D02*
X5823789Y926170D01*
D10*
X5919027Y1164265D02*
X5871408Y1116646D01*
D10*
X6014265Y1211884D02*
X5919027Y1164265D01*
D10*
X6157123Y1211884D02*
X6014265Y1211884D01*
D10*
X6252361Y1164265D02*
X6157123Y1211884D01*
D10*
X6299980Y1116646D02*
X6252361Y1164265D01*
D10*
X6347599Y1021408D02*
X6299980Y1116646D01*
D10*
X6299980Y735694D02*
X6347599Y878551D01*
D10*
X6204742Y640456D02*
X6299980Y735694D01*
D10*
X6109504Y592837D02*
X6204742Y640456D01*
D10*
X5966646Y592837D02*
X6109504Y592837D01*
D10*
X5871408Y640456D02*
X5966646Y592837D01*
D10*
X5823789Y735694D02*
X5871408Y640456D01*
D10*
X5871408Y1069027D02*
X5823789Y926170D01*
D10*
X5919027Y1116646D02*
X5871408Y1069027D01*
D10*
X6014265Y1164265D02*
X5919027Y1116646D01*
D10*
X6204742Y1164265D02*
X6014265Y1164265D01*
D10*
X6299980Y1116646D02*
X6204742Y1164265D01*
D10*
X2773809Y30892858D02*
X3773809Y31178572D01*
D10*
X2773809Y30940476D02*
X3773809Y31226190D01*
D10*
X3107142Y31321428D02*
X3488095Y31416666D01*
D10*
X3773809Y31750000D02*
X3773809Y31035714D01*
D10*
X3488095Y31702380D02*
X3773809Y31750000D01*
D10*
X3773809Y31702380D02*
X3488095Y31702380D01*
D10*
X3297619Y31369048D02*
X3297619Y31083334D01*
D10*
X2773809Y31083334D02*
X2773809Y30750000D01*
D10*
X2773809Y31940476D02*
X3773809Y32226190D01*
D10*
X2773809Y31988096D02*
X3773809Y32273810D01*
D10*
X3773809Y32607142D02*
X3773809Y32083334D01*
D10*
X3726190Y32750000D02*
X3773809Y32607142D01*
D10*
X3630952Y32797620D02*
X3726190Y32750000D01*
D10*
X3535714Y32797620D02*
X3630952Y32797620D01*
D10*
X3392857Y32750000D02*
X3535714Y32797620D01*
D10*
X3345238Y32702380D02*
X3392857Y32750000D01*
D10*
X3297619Y32559524D02*
X3345238Y32702380D01*
D10*
X3726190Y32702380D02*
X3773809Y32607142D01*
D10*
X3630952Y32750000D02*
X3726190Y32702380D01*
D10*
X3535714Y32750000D02*
X3630952Y32750000D01*
D10*
X3392857Y32702380D02*
X3535714Y32750000D01*
D10*
X3345238Y32654762D02*
X3392857Y32702380D01*
D10*
X3297619Y32559524D02*
X3345238Y32654762D01*
D10*
X3297619Y32559524D02*
X3297619Y32130952D01*
D10*
X3250000Y32654762D02*
X3297619Y32559524D01*
D10*
X3154762Y32702380D02*
X3250000Y32654762D01*
D10*
X3059523Y32702380D02*
X3154762Y32702380D01*
D10*
X2916666Y32654762D02*
X3059523Y32702380D01*
D10*
X2821428Y32559524D02*
X2916666Y32654762D01*
D10*
X2773809Y32369048D02*
X2821428Y32559524D01*
D10*
X2773809Y31797620D02*
X2773809Y32369048D01*
D10*
X3250000Y32607142D02*
X3297619Y32559524D01*
D10*
X3154762Y32654762D02*
X3250000Y32607142D01*
D10*
X3059523Y32654762D02*
X3154762Y32654762D01*
D10*
X2916666Y32607142D02*
X3059523Y32654762D01*
D10*
X2821428Y32511904D02*
X2916666Y32607142D01*
D10*
X2773809Y32369048D02*
X2821428Y32511904D01*
D10*
X3535714Y33321428D02*
X3583333Y33273810D01*
D10*
X3488095Y33273810D02*
X3535714Y33321428D01*
D10*
X3535714Y33226190D02*
X3488095Y33273810D01*
D10*
X3583333Y33226190D02*
X3535714Y33226190D01*
D10*
X3678571Y33273810D02*
X3583333Y33226190D01*
D10*
X3726190Y33321428D02*
X3678571Y33273810D01*
D10*
X3773809Y33464286D02*
X3726190Y33321428D01*
D10*
X3773809Y33607144D02*
X3773809Y33464286D01*
D10*
X3726190Y33750000D02*
X3773809Y33607144D01*
D10*
X3630952Y33797620D02*
X3726190Y33750000D01*
D10*
X3535714Y33797620D02*
X3630952Y33797620D01*
D10*
X3440476Y33750000D02*
X3535714Y33797620D01*
D10*
X3345238Y33654760D02*
X3440476Y33750000D01*
D10*
X3250000Y33511904D02*
X3345238Y33654760D01*
D10*
X3154762Y33321428D02*
X3250000Y33511904D01*
D10*
X3059523Y33178572D02*
X3154762Y33321428D01*
D10*
X2964285Y33083334D02*
X3059523Y33178572D01*
D10*
X2773809Y32988096D02*
X2964285Y33083334D01*
D10*
X3726190Y33702380D02*
X3773809Y33607144D01*
D10*
X3630952Y33750000D02*
X3726190Y33702380D01*
D10*
X3535714Y33750000D02*
X3630952Y33750000D01*
D10*
X3440476Y33702380D02*
X3535714Y33750000D01*
D10*
X3345238Y33607144D02*
X3440476Y33702380D01*
D10*
X3154762Y33321428D02*
X3345238Y33607144D01*
D10*
X2916666Y33083334D02*
X2869047Y33035714D01*
D10*
X2916666Y33178572D02*
X2916666Y33083334D01*
D10*
X2821428Y33416666D02*
X2916666Y33178572D01*
D10*
X2821428Y33559524D02*
X2821428Y33416666D01*
D10*
X2869047Y33654760D02*
X2821428Y33559524D01*
D10*
X2964285Y33702380D02*
X2869047Y33654760D01*
D10*
X2773809Y33416666D02*
X2916666Y33178572D01*
D10*
X2773809Y33559524D02*
X2773809Y33416666D01*
D10*
X2821428Y33654760D02*
X2773809Y33559524D01*
D10*
X2964285Y33702380D02*
X2821428Y33654760D01*
D10*
X17023810Y4500000D02*
X18023810Y4785714D01*
D10*
X17023810Y4547619D02*
X18023810Y4833333D01*
D10*
X18023810Y5166667D02*
X18023810Y4642857D01*
D10*
X17976190Y5309524D02*
X18023810Y5166667D01*
D10*
X17880952Y5357143D02*
X17976190Y5309524D01*
D10*
X17785714Y5357143D02*
X17880952Y5357143D01*
D10*
X17642858Y5309524D02*
X17785714Y5357143D01*
D10*
X17595238Y5261905D02*
X17642858Y5309524D01*
D10*
X17547620Y5119048D02*
X17595238Y5261905D01*
D10*
X17547620Y4690476D02*
X17547620Y5119048D01*
D10*
X17976190Y5261905D02*
X18023810Y5166667D01*
D10*
X17880952Y5309524D02*
X17976190Y5261905D01*
D10*
X17785714Y5309524D02*
X17880952Y5309524D01*
D10*
X17642858Y5261905D02*
X17785714Y5309524D01*
D10*
X17595238Y5214286D02*
X17642858Y5261905D01*
D10*
X17547620Y5119048D02*
X17595238Y5214286D01*
D10*
X17500000Y5023809D02*
X17547620Y4928571D01*
D10*
X17452380Y5071428D02*
X17500000Y5023809D01*
D10*
X17071428Y5119048D02*
X17452380Y5071428D01*
D10*
X17023810Y5166667D02*
X17071428Y5119048D01*
D10*
X17023810Y5261905D02*
X17023810Y5166667D01*
D10*
X17119048Y5309524D02*
X17023810Y5261905D01*
D10*
X17166666Y5309524D02*
X17119048Y5309524D01*
D10*
X17119048Y5166667D02*
X17452380Y5071428D01*
D10*
X17071428Y5214286D02*
X17119048Y5166667D01*
D10*
X17071428Y5261905D02*
X17071428Y5214286D01*
D10*
X17119048Y5309524D02*
X17071428Y5261905D01*
D10*
X17023810Y4690476D02*
X17023810Y4357143D01*
D10*
X17023810Y5833333D02*
X17833334Y6071428D01*
D10*
X17023810Y5880952D02*
X18023810Y6166667D01*
D10*
X17880952Y6023809D02*
X18023810Y6166667D01*
D10*
X17785714Y5880952D02*
X17880952Y6023809D01*
D10*
X17738096Y5785714D02*
X17785714Y5880952D01*
D10*
X17785714Y5928571D02*
X17880952Y6119047D01*
D10*
X17738096Y5785714D02*
X17785714Y5928571D01*
D10*
X17833334Y7261905D02*
X17880952Y7309524D01*
D10*
X17785714Y7309524D02*
X17833334Y7261905D01*
D10*
X17833334Y7357143D02*
X17785714Y7309524D01*
D10*
X17880952Y7357143D02*
X17833334Y7357143D01*
D10*
X17976190Y7309524D02*
X17880952Y7357143D01*
D10*
X18023810Y7214285D02*
X17976190Y7309524D01*
D10*
X18023810Y7071428D02*
X18023810Y7214285D01*
D10*
X17976190Y6928571D02*
X18023810Y7071428D01*
D10*
X17880952Y6833333D02*
X17976190Y6928571D01*
D10*
X17738096Y6738095D02*
X17880952Y6833333D01*
D10*
X17595238Y6690476D02*
X17738096Y6738095D01*
D10*
X17404762Y6642857D02*
X17595238Y6690476D01*
D10*
X17214286Y6642857D02*
X17404762Y6642857D01*
D10*
X17119048Y6690476D02*
X17214286Y6642857D01*
D10*
X17071428Y6738095D02*
X17119048Y6690476D01*
D10*
X17023810Y6833333D02*
X17071428Y6738095D01*
D10*
X17023810Y6976190D02*
X17023810Y6833333D01*
D10*
X17071428Y7119047D02*
X17023810Y6976190D01*
D10*
X17166666Y7214285D02*
X17071428Y7119047D01*
D10*
X17261904Y7261905D02*
X17166666Y7214285D01*
D10*
X17404762Y7261905D02*
X17261904Y7261905D01*
D10*
X17500000Y7214285D02*
X17404762Y7261905D01*
D10*
X17547620Y7166666D02*
X17500000Y7214285D01*
D10*
X17595238Y7071428D02*
X17547620Y7166666D01*
D10*
X17595238Y6928571D02*
X17595238Y7071428D01*
D10*
X17547620Y6833333D02*
X17595238Y6928571D01*
D10*
X17452380Y6738095D02*
X17547620Y6833333D01*
D10*
X17357142Y6690476D02*
X17452380Y6738095D01*
D10*
X17976190Y6976190D02*
X18023810Y7071428D01*
D10*
X17880952Y6880952D02*
X17976190Y6976190D01*
D10*
X17738096Y6785714D02*
X17880952Y6880952D01*
D10*
X17595238Y6738095D02*
X17738096Y6785714D01*
D10*
X17404762Y6690476D02*
X17595238Y6738095D01*
D10*
X17166666Y6690476D02*
X17404762Y6690476D01*
D10*
X17071428Y6738095D02*
X17166666Y6690476D01*
D10*
X17071428Y7071428D02*
X17023810Y6976190D01*
D10*
X17166666Y7166666D02*
X17071428Y7071428D01*
D10*
X17261904Y7214285D02*
X17166666Y7166666D01*
D10*
X17452380Y7214285D02*
X17261904Y7214285D01*
D10*
X17547620Y7166666D02*
X17452380Y7214285D01*
D10*
X-8547619Y5000000D02*
X-8690476Y5523809D01*
D10*
X-8500000Y4809524D02*
X-8547619Y5000000D01*
D10*
X-8500000Y4666666D02*
X-8500000Y4809524D01*
D10*
X-8547619Y4571428D02*
X-8500000Y4666666D01*
D10*
X-8690476Y4523809D02*
X-8547619Y4571428D01*
D10*
X-8880952Y4523809D02*
X-8690476Y4523809D01*
D10*
X-9023810Y4571428D02*
X-8880952Y4523809D01*
D10*
X-9119048Y4666666D02*
X-9023810Y4571428D01*
D10*
X-9166667Y4809524D02*
X-9119048Y4666666D01*
D10*
X-9357143Y5523809D02*
X-9166667Y4809524D01*
D10*
X-8595238Y5000000D02*
X-8738095Y5523809D01*
D10*
X-8547619Y4809524D02*
X-8595238Y5000000D01*
D10*
X-8547619Y4666666D02*
X-8547619Y4809524D01*
D10*
X-8595238Y4571428D02*
X-8547619Y4666666D01*
D10*
X-8690476Y4523809D02*
X-8595238Y4571428D01*
D10*
X-8880952Y5523809D02*
X-8547619Y5523809D01*
D10*
X-9500000Y5523809D02*
X-9214286Y5523809D01*
D10*
X-9880952Y5285714D02*
X-9833333Y5333333D01*
D10*
X-9833333Y5238095D02*
X-9880952Y5285714D01*
D10*
X-9785714Y5285714D02*
X-9833333Y5238095D01*
D10*
X-9785714Y5333333D02*
X-9785714Y5285714D01*
D10*
X-9833333Y5428571D02*
X-9785714Y5333333D01*
D10*
X-9880952Y5476190D02*
X-9833333Y5428571D01*
D10*
X-10023810Y5523809D02*
X-9880952Y5476190D01*
D10*
X-10166667Y5523809D02*
X-10023810Y5523809D01*
D10*
X-10309524Y5476190D02*
X-10166667Y5523809D01*
D10*
X-10357143Y5380952D02*
X-10309524Y5476190D01*
D10*
X-10357143Y5285714D02*
X-10357143Y5380952D01*
D10*
X-10309524Y5190476D02*
X-10357143Y5285714D01*
D10*
X-10166667Y5095238D02*
X-10309524Y5190476D01*
D10*
X-10023810Y5047619D02*
X-10166667Y5095238D01*
D10*
X-10261905Y5476190D02*
X-10166667Y5523809D01*
D10*
X-10309524Y5380952D02*
X-10261905Y5476190D01*
D10*
X-10309524Y5285714D02*
X-10309524Y5380952D01*
D10*
X-10261905Y5190476D02*
X-10309524Y5285714D01*
D10*
X-10166667Y5095238D02*
X-10261905Y5190476D01*
D10*
X-10023810Y5047619D02*
X-9928571Y5047619D01*
D10*
X-10166667Y5000000D02*
X-10023810Y5047619D01*
D10*
X-10214286Y4952381D02*
X-10166667Y5000000D01*
D10*
X-10261905Y4857143D02*
X-10214286Y4952381D01*
D10*
X-10261905Y4714285D02*
X-10261905Y4857143D01*
D10*
X-10214286Y4619047D02*
X-10261905Y4714285D01*
D10*
X-10166667Y4571428D02*
X-10214286Y4619047D01*
D10*
X-10023810Y4523809D02*
X-10166667Y4571428D01*
D10*
X-9833333Y4523809D02*
X-10023810Y4523809D01*
D10*
X-9690476Y4571428D02*
X-9833333Y4523809D01*
D10*
X-9642857Y4619047D02*
X-9690476Y4571428D01*
D10*
X-9595238Y4714285D02*
X-9642857Y4619047D01*
D10*
X-9595238Y4761905D02*
X-9595238Y4714285D01*
D10*
X-9642857Y4809524D02*
X-9595238Y4761905D01*
D10*
X-9690476Y4761905D02*
X-9642857Y4809524D01*
D10*
X-9642857Y4714285D02*
X-9690476Y4761905D01*
D10*
X-10119048Y5000000D02*
X-10023810Y5047619D01*
D10*
X-10166667Y4952381D02*
X-10119048Y5000000D01*
D10*
X-10214286Y4857143D02*
X-10166667Y4952381D01*
D10*
X-10214286Y4714285D02*
X-10214286Y4857143D01*
D10*
X-10166667Y4619047D02*
X-10214286Y4714285D01*
D10*
X-10119048Y4571428D02*
X-10166667Y4619047D01*
D10*
X-10023810Y4523809D02*
X-10119048Y4571428D01*
D10*
X-5692857Y8773810D02*
X-5978571Y9773810D01*
D10*
X-5740476Y8773810D02*
X-6026190Y9773810D01*
D10*
X-6359524Y9773810D02*
X-5835714Y9773810D01*
D10*
X-6502381Y9726190D02*
X-6359524Y9773810D01*
D10*
X-6550000Y9630952D02*
X-6502381Y9726190D01*
D10*
X-6550000Y9535714D02*
X-6550000Y9630952D01*
D10*
X-6502381Y9392857D02*
X-6550000Y9535714D01*
D10*
X-6454762Y9345238D02*
X-6502381Y9392857D01*
D10*
X-6311905Y9297619D02*
X-6454762Y9345238D01*
D10*
X-5883333Y9297619D02*
X-6311905Y9297619D01*
D10*
X-6454762Y9726190D02*
X-6359524Y9773810D01*
D10*
X-6502381Y9630952D02*
X-6454762Y9726190D01*
D10*
X-6502381Y9535714D02*
X-6502381Y9630952D01*
D10*
X-6454762Y9392857D02*
X-6502381Y9535714D01*
D10*
X-6407143Y9345238D02*
X-6454762Y9392857D01*
D10*
X-6311905Y9297619D02*
X-6407143Y9345238D01*
D10*
X-6216666Y9250000D02*
X-6121428Y9297619D01*
D10*
X-6264285Y9202381D02*
X-6216666Y9250000D01*
D10*
X-6311905Y8821429D02*
X-6264285Y9202381D01*
D10*
X-6359524Y8773810D02*
X-6311905Y8821429D01*
D10*
X-6454762Y8773810D02*
X-6359524Y8773810D01*
D10*
X-6502381Y8869048D02*
X-6454762Y8773810D01*
D10*
X-6502381Y8916667D02*
X-6502381Y8869048D01*
D10*
X-6359524Y8869048D02*
X-6264285Y9202381D01*
D10*
X-6407143Y8821429D02*
X-6359524Y8869048D01*
D10*
X-6454762Y8821429D02*
X-6407143Y8821429D01*
D10*
X-6502381Y8869048D02*
X-6454762Y8821429D01*
D10*
X-5883333Y8773810D02*
X-5550000Y8773810D01*
D10*
X-7026190Y8773810D02*
X-7264286Y9583333D01*
D10*
X-7073809Y8773810D02*
X-7359524Y9773810D01*
D10*
X-7216666Y9630952D02*
X-7359524Y9773810D01*
D10*
X-7073809Y9535714D02*
X-7216666Y9630952D01*
D10*
X-6978571Y9488095D02*
X-7073809Y9535714D01*
D10*
X-7121428Y9535714D02*
X-7311905Y9630952D01*
D10*
X-6978571Y9488095D02*
X-7121428Y9535714D01*
D10*
X-8073809Y9535714D02*
X-8026190Y9583333D01*
D10*
X-8026190Y9488095D02*
X-8073809Y9535714D01*
D10*
X-7978571Y9535714D02*
X-8026190Y9488095D01*
D10*
X-7978571Y9583333D02*
X-7978571Y9535714D01*
D10*
X-8026190Y9678571D02*
X-7978571Y9583333D01*
D10*
X-8073809Y9726190D02*
X-8026190Y9678571D01*
D10*
X-8216666Y9773810D02*
X-8073809Y9726190D01*
D10*
X-8359524Y9773810D02*
X-8216666Y9773810D01*
D10*
X-8502381Y9726190D02*
X-8359524Y9773810D01*
D10*
X-8550000Y9630952D02*
X-8502381Y9726190D01*
D10*
X-8550000Y9535714D02*
X-8550000Y9630952D01*
D10*
X-8502381Y9440476D02*
X-8550000Y9535714D01*
D10*
X-8359524Y9345238D02*
X-8502381Y9440476D01*
D10*
X-8216666Y9297619D02*
X-8359524Y9345238D01*
D10*
X-8454762Y9726190D02*
X-8359524Y9773810D01*
D10*
X-8502381Y9630952D02*
X-8454762Y9726190D01*
D10*
X-8502381Y9535714D02*
X-8502381Y9630952D01*
D10*
X-8454762Y9440476D02*
X-8502381Y9535714D01*
D10*
X-8359524Y9345238D02*
X-8454762Y9440476D01*
D10*
X-8216666Y9297619D02*
X-8121428Y9297619D01*
D10*
X-8359524Y9250000D02*
X-8216666Y9297619D01*
D10*
X-8407143Y9202381D02*
X-8359524Y9250000D01*
D10*
X-8454762Y9107143D02*
X-8407143Y9202381D01*
D10*
X-8454762Y8964286D02*
X-8454762Y9107143D01*
D10*
X-8407143Y8869048D02*
X-8454762Y8964286D01*
D10*
X-8359524Y8821429D02*
X-8407143Y8869048D01*
D10*
X-8216666Y8773810D02*
X-8359524Y8821429D01*
D10*
X-8026190Y8773810D02*
X-8216666Y8773810D01*
D10*
X-7883333Y8821429D02*
X-8026190Y8773810D01*
D10*
X-7835714Y8869048D02*
X-7883333Y8821429D01*
D10*
X-7788095Y8964286D02*
X-7835714Y8869048D01*
D10*
X-7788095Y9011905D02*
X-7788095Y8964286D01*
D10*
X-7835714Y9059524D02*
X-7788095Y9011905D01*
D10*
X-7883333Y9011905D02*
X-7835714Y9059524D01*
D10*
X-7835714Y8964286D02*
X-7883333Y9011905D01*
D10*
X-8311905Y9250000D02*
X-8216666Y9297619D01*
D10*
X-8359524Y9202381D02*
X-8311905Y9250000D01*
D10*
X-8407143Y9107143D02*
X-8359524Y9202381D01*
D10*
X-8407143Y8964286D02*
X-8407143Y9107143D01*
D10*
X-8359524Y8869048D02*
X-8407143Y8964286D01*
D10*
X-8311905Y8821429D02*
X-8359524Y8869048D01*
D10*
X-8216666Y8773810D02*
X-8311905Y8821429D01*
D10*
X-12119048Y28964286D02*
X-12357143Y29773810D01*
D10*
X-12071429Y28869048D02*
X-12119048Y28964286D01*
D10*
X-12023810Y28821428D02*
X-12071429Y28869048D01*
D10*
X-11928572Y28773810D02*
X-12023810Y28821428D01*
D10*
X-11833333Y28773810D02*
X-11928572Y28773810D01*
D10*
X-11738095Y28821428D02*
X-11833333Y28773810D01*
D10*
X-11690476Y28916666D02*
X-11738095Y28821428D01*
D10*
X-11690476Y29011904D02*
X-11690476Y28916666D01*
D10*
X-11738095Y29059524D02*
X-11690476Y29011904D01*
D10*
X-11785714Y29011904D02*
X-11738095Y29059524D01*
D10*
X-11738095Y28964286D02*
X-11785714Y29011904D01*
D10*
X-12071429Y28964286D02*
X-12309524Y29773810D01*
D10*
X-12023810Y28869048D02*
X-12071429Y28964286D01*
D10*
X-11928572Y28773810D02*
X-12023810Y28869048D01*
D10*
X-12500000Y29773810D02*
X-12166667Y29773810D01*
D10*
X-12880952Y29535714D02*
X-12833333Y29583334D01*
D10*
X-12833333Y29488096D02*
X-12880952Y29535714D01*
D10*
X-12785714Y29535714D02*
X-12833333Y29488096D01*
D10*
X-12785714Y29583334D02*
X-12785714Y29535714D01*
D10*
X-12833333Y29678572D02*
X-12785714Y29583334D01*
D10*
X-12880952Y29726190D02*
X-12833333Y29678572D01*
D10*
X-13023810Y29773810D02*
X-12880952Y29726190D01*
D10*
X-13166667Y29773810D02*
X-13023810Y29773810D01*
D10*
X-13309524Y29726190D02*
X-13166667Y29773810D01*
D10*
X-13357143Y29630952D02*
X-13309524Y29726190D01*
D10*
X-13357143Y29535714D02*
X-13357143Y29630952D01*
D10*
X-13309524Y29440476D02*
X-13357143Y29535714D01*
D10*
X-13166667Y29345238D02*
X-13309524Y29440476D01*
D10*
X-13023810Y29297620D02*
X-13166667Y29345238D01*
D10*
X-13261905Y29726190D02*
X-13166667Y29773810D01*
D10*
X-13309524Y29630952D02*
X-13261905Y29726190D01*
D10*
X-13309524Y29535714D02*
X-13309524Y29630952D01*
D10*
X-13261905Y29440476D02*
X-13309524Y29535714D01*
D10*
X-13166667Y29345238D02*
X-13261905Y29440476D01*
D10*
X-13023810Y29297620D02*
X-12928571Y29297620D01*
D10*
X-13166667Y29250000D02*
X-13023810Y29297620D01*
D10*
X-13214286Y29202380D02*
X-13166667Y29250000D01*
D10*
X-13261905Y29107142D02*
X-13214286Y29202380D01*
D10*
X-13261905Y28964286D02*
X-13261905Y29107142D01*
D10*
X-13214286Y28869048D02*
X-13261905Y28964286D01*
D10*
X-13166667Y28821428D02*
X-13214286Y28869048D01*
D10*
X-13023810Y28773810D02*
X-13166667Y28821428D01*
D10*
X-12833333Y28773810D02*
X-13023810Y28773810D01*
D10*
X-12690476Y28821428D02*
X-12833333Y28773810D01*
D10*
X-12642857Y28869048D02*
X-12690476Y28821428D01*
D10*
X-12595238Y28964286D02*
X-12642857Y28869048D01*
D10*
X-12595238Y29011904D02*
X-12595238Y28964286D01*
D10*
X-12642857Y29059524D02*
X-12595238Y29011904D01*
D10*
X-12690476Y29011904D02*
X-12642857Y29059524D01*
D10*
X-12642857Y28964286D02*
X-12690476Y29011904D01*
D10*
X-13119048Y29250000D02*
X-13023810Y29297620D01*
D10*
X-13166667Y29202380D02*
X-13119048Y29250000D01*
D10*
X-13214286Y29107142D02*
X-13166667Y29202380D01*
D10*
X-13214286Y28964286D02*
X-13214286Y29107142D01*
D10*
X-13166667Y28869048D02*
X-13214286Y28964286D01*
D10*
X-13119048Y28821428D02*
X-13166667Y28869048D01*
D10*
X-13023810Y28773810D02*
X-13119048Y28821428D01*
D10*
X-16750000Y17488096D02*
X-16226190Y17630952D01*
D10*
X-16940476Y17440476D02*
X-16750000Y17488096D01*
D10*
X-17083334Y17440476D02*
X-16940476Y17440476D01*
D10*
X-17178572Y17488096D02*
X-17083334Y17440476D01*
D10*
X-17226190Y17630952D02*
X-17178572Y17488096D01*
D10*
X-17226190Y17821428D02*
X-17226190Y17630952D01*
D10*
X-17178572Y17964286D02*
X-17226190Y17821428D01*
D10*
X-17083334Y18059524D02*
X-17178572Y17964286D01*
D10*
X-16940476Y18107142D02*
X-17083334Y18059524D01*
D10*
X-16226190Y18297620D02*
X-16940476Y18107142D01*
D10*
X-16750000Y17535714D02*
X-16226190Y17678572D01*
D10*
X-16940476Y17488096D02*
X-16750000Y17535714D01*
D10*
X-17083334Y17488096D02*
X-16940476Y17488096D01*
D10*
X-17178572Y17535714D02*
X-17083334Y17488096D01*
D10*
X-17226190Y17630952D02*
X-17178572Y17535714D01*
D10*
X-16226190Y17821428D02*
X-16226190Y17488096D01*
D10*
X-16226190Y18440476D02*
X-16226190Y18154762D01*
D10*
X-16273810Y18821428D02*
X-16226190Y18964286D01*
D10*
X-16321429Y18773810D02*
X-16273810Y18821428D01*
D10*
X-16416667Y18726190D02*
X-16321429Y18773810D01*
D10*
X-16559524Y18726190D02*
X-16416667Y18726190D01*
D10*
X-16654762Y18773810D02*
X-16559524Y18726190D01*
D10*
X-16702381Y18869048D02*
X-16654762Y18773810D01*
D10*
X-16702381Y19011904D02*
X-16702381Y18869048D01*
D10*
X-16654762Y19202380D02*
X-16702381Y19011904D01*
D10*
X-16607143Y19250000D02*
X-16654762Y19202380D01*
D10*
X-16511905Y19297620D02*
X-16607143Y19250000D01*
D10*
X-16369048Y19297620D02*
X-16511905Y19297620D01*
D10*
X-16273810Y19250000D02*
X-16369048Y19297620D01*
D10*
X-16226190Y19107142D02*
X-16273810Y19250000D01*
D10*
X-16226190Y18964286D02*
X-16226190Y19107142D01*
D10*
X-16273810Y18869048D02*
X-16226190Y18964286D01*
D10*
X-16321429Y18821428D02*
X-16273810Y18869048D01*
D10*
X-16416667Y18773810D02*
X-16321429Y18821428D01*
D10*
X-16559524Y18773810D02*
X-16416667Y18773810D01*
D10*
X-16654762Y18821428D02*
X-16559524Y18773810D01*
D10*
X-16702381Y18869048D02*
X-16654762Y18821428D01*
D10*
X-16654762Y19154762D02*
X-16702381Y19011904D01*
D10*
X-16607143Y19202380D02*
X-16654762Y19154762D01*
D10*
X-16511905Y19250000D02*
X-16607143Y19202380D01*
D10*
X-16369048Y19250000D02*
X-16511905Y19250000D01*
D10*
X-16273810Y19202380D02*
X-16369048Y19250000D01*
D10*
X-16226190Y19107142D02*
X-16273810Y19202380D01*
D10*
X-16750000Y18678572D02*
X-16702381Y18869048D01*
D10*
X-16845238Y18583334D02*
X-16750000Y18678572D01*
D10*
X-16940476Y18535714D02*
X-16845238Y18583334D01*
D10*
X-17083334Y18535714D02*
X-16940476Y18535714D01*
D10*
X-17178572Y18583334D02*
X-17083334Y18535714D01*
D10*
X-17226190Y18726190D02*
X-17178572Y18583334D01*
D10*
X-17226190Y18916666D02*
X-17226190Y18726190D01*
D10*
X-17178572Y19107142D02*
X-17226190Y18916666D01*
D10*
X-17130952Y19154762D02*
X-17178572Y19107142D01*
D10*
X-17035714Y19202380D02*
X-17130952Y19154762D01*
D10*
X-16892858Y19202380D02*
X-17035714Y19202380D01*
D10*
X-16797620Y19154762D02*
X-16892858Y19202380D01*
D10*
X-16750000Y19107142D02*
X-16797620Y19154762D01*
D10*
X-16702381Y19011904D02*
X-16750000Y19107142D01*
D10*
X-16750000Y18726190D02*
X-16702381Y18869048D01*
D10*
X-16845238Y18630952D02*
X-16750000Y18726190D01*
D10*
X-16940476Y18583334D02*
X-16845238Y18630952D01*
D10*
X-17083334Y18583334D02*
X-16940476Y18583334D01*
D10*
X-17178572Y18630952D02*
X-17083334Y18583334D01*
D10*
X-17226190Y18726190D02*
X-17178572Y18630952D01*
D10*
X-17178572Y19059524D02*
X-17226190Y18916666D01*
D10*
X-17130952Y19107142D02*
X-17178572Y19059524D01*
D10*
X-17035714Y19154762D02*
X-17130952Y19107142D01*
D10*
X-16845238Y19154762D02*
X-17035714Y19154762D01*
D10*
X-16750000Y19107142D02*
X-16845238Y19154762D01*
D10*
X5773809Y58964284D02*
X5535714Y59773808D01*
D10*
X5821428Y58869048D02*
X5773809Y58964284D01*
D10*
X5869047Y58821428D02*
X5821428Y58869048D01*
D10*
X5964285Y58773808D02*
X5869047Y58821428D01*
D10*
X6059524Y58773808D02*
X5964285Y58773808D01*
D10*
X6154762Y58821428D02*
X6059524Y58773808D01*
D10*
X6202381Y58916668D02*
X6154762Y58821428D01*
D10*
X6202381Y59011904D02*
X6202381Y58916668D01*
D10*
X6154762Y59059524D02*
X6202381Y59011904D01*
D10*
X6107143Y59011904D02*
X6154762Y59059524D01*
D10*
X6154762Y58964284D02*
X6107143Y59011904D01*
D10*
X5821428Y58964284D02*
X5583333Y59773808D01*
D10*
X5869047Y58869048D02*
X5821428Y58964284D01*
D10*
X5964285Y58773808D02*
X5869047Y58869048D01*
D10*
X5392857Y59773808D02*
X5726190Y59773808D01*
D10*
X4630952Y59345240D02*
X4583333Y59440476D01*
D10*
X4726190Y59250000D02*
X4630952Y59345240D01*
D10*
X4821428Y59202380D02*
X4726190Y59250000D01*
D10*
X4964286Y59202380D02*
X4821428Y59202380D01*
D10*
X5059524Y59250000D02*
X4964286Y59202380D01*
D10*
X5107143Y59297620D02*
X5059524Y59250000D01*
D10*
X5154762Y59392856D02*
X5107143Y59297620D01*
D10*
X5154762Y59535716D02*
X5154762Y59392856D01*
D10*
X5107143Y59630952D02*
X5154762Y59535716D01*
D10*
X5011905Y59726192D02*
X5107143Y59630952D01*
D10*
X4869047Y59773808D02*
X5011905Y59726192D01*
D10*
X4726190Y59773808D02*
X4869047Y59773808D01*
D10*
X4630952Y59726192D02*
X4726190Y59773808D01*
D10*
X4583333Y59678572D02*
X4630952Y59726192D01*
D10*
X4535714Y59583332D02*
X4583333Y59678572D01*
D10*
X4535714Y59392856D02*
X4535714Y59583332D01*
D10*
X4583333Y59202380D02*
X4535714Y59392856D01*
D10*
X4630952Y59059524D02*
X4583333Y59202380D01*
D10*
X4726190Y58916668D02*
X4630952Y59059524D01*
D10*
X4821428Y58821428D02*
X4726190Y58916668D01*
D10*
X4964286Y58773808D02*
X4821428Y58821428D01*
D10*
X5107143Y58773808D02*
X4964286Y58773808D01*
D10*
X5202381Y58821428D02*
X5107143Y58773808D01*
D10*
X5250000Y58916668D02*
X5202381Y58821428D01*
D10*
X5250000Y58964284D02*
X5250000Y58916668D01*
D10*
X5202381Y59011904D02*
X5250000Y58964284D01*
D10*
X5154762Y58964284D02*
X5202381Y59011904D01*
D10*
X5202381Y58916668D02*
X5154762Y58964284D01*
D10*
X5107143Y59345240D02*
X5059524Y59250000D01*
D10*
X5107143Y59535716D02*
X5107143Y59345240D01*
D10*
X5059524Y59630952D02*
X5107143Y59535716D01*
D10*
X4964286Y59726192D02*
X5059524Y59630952D01*
D10*
X4869047Y59773808D02*
X4964286Y59726192D01*
D10*
X4583333Y59630952D02*
X4630952Y59726192D01*
D10*
X4583333Y59392856D02*
X4583333Y59630952D01*
D10*
X4630952Y59202380D02*
X4583333Y59392856D01*
D10*
X4678571Y59059524D02*
X4630952Y59202380D01*
D10*
X4773809Y58916668D02*
X4678571Y59059524D01*
D10*
X4869047Y58821428D02*
X4773809Y58916668D01*
D10*
X4964286Y58773808D02*
X4869047Y58821428D01*
D10*
X15380952Y53214284D02*
X15142857Y54023808D01*
D10*
X15428571Y53119048D02*
X15380952Y53214284D01*
D10*
X15476190Y53071428D02*
X15428571Y53119048D01*
D10*
X15571428Y53023808D02*
X15476190Y53071428D01*
D10*
X15666667Y53023808D02*
X15571428Y53023808D01*
D10*
X15761905Y53071428D02*
X15666667Y53023808D01*
D10*
X15809524Y53166668D02*
X15761905Y53071428D01*
D10*
X15809524Y53261904D02*
X15809524Y53166668D01*
D10*
X15761905Y53309524D02*
X15809524Y53261904D01*
D10*
X15714286Y53261904D02*
X15761905Y53309524D01*
D10*
X15761905Y53214284D02*
X15714286Y53261904D01*
D10*
X15428571Y53214284D02*
X15190476Y54023808D01*
D10*
X15476190Y53119048D02*
X15428571Y53214284D01*
D10*
X15571428Y53023808D02*
X15476190Y53119048D01*
D10*
X15000000Y54023808D02*
X15333333Y54023808D01*
D10*
X14238095Y53833332D02*
X14190476Y53880952D01*
D10*
X14190476Y53785716D02*
X14238095Y53833332D01*
D10*
X14142857Y53833332D02*
X14190476Y53785716D01*
D10*
X14142857Y53880952D02*
X14142857Y53833332D01*
D10*
X14190476Y53976192D02*
X14142857Y53880952D01*
D10*
X14285714Y54023808D02*
X14190476Y53976192D01*
D10*
X14428571Y54023808D02*
X14285714Y54023808D01*
D10*
X14571429Y53976192D02*
X14428571Y54023808D01*
D10*
X14666667Y53880952D02*
X14571429Y53976192D01*
D10*
X14761905Y53738096D02*
X14666667Y53880952D01*
D10*
X14809524Y53595240D02*
X14761905Y53738096D01*
D10*
X14857143Y53404760D02*
X14809524Y53595240D01*
D10*
X14857143Y53214284D02*
X14857143Y53404760D01*
D10*
X14809524Y53119048D02*
X14857143Y53214284D01*
D10*
X14761905Y53071428D02*
X14809524Y53119048D01*
D10*
X14666667Y53023808D02*
X14761905Y53071428D01*
D10*
X14523810Y53023808D02*
X14666667Y53023808D01*
D10*
X14380952Y53071428D02*
X14523810Y53023808D01*
D10*
X14285714Y53166668D02*
X14380952Y53071428D01*
D10*
X14238095Y53261904D02*
X14285714Y53166668D01*
D10*
X14238095Y53404760D02*
X14238095Y53261904D01*
D10*
X14285714Y53500000D02*
X14238095Y53404760D01*
D10*
X14333333Y53547620D02*
X14285714Y53500000D01*
D10*
X14428571Y53595240D02*
X14333333Y53547620D01*
D10*
X14571429Y53595240D02*
X14428571Y53595240D01*
D10*
X14666667Y53547620D02*
X14571429Y53595240D01*
D10*
X14761905Y53452380D02*
X14666667Y53547620D01*
D10*
X14809524Y53357144D02*
X14761905Y53452380D01*
D10*
X14523810Y53976192D02*
X14428571Y54023808D01*
D10*
X14619048Y53880952D02*
X14523810Y53976192D01*
D10*
X14714286Y53738096D02*
X14619048Y53880952D01*
D10*
X14761905Y53595240D02*
X14714286Y53738096D01*
D10*
X14809524Y53404760D02*
X14761905Y53595240D01*
D10*
X14809524Y53166668D02*
X14809524Y53404760D01*
D10*
X14761905Y53071428D02*
X14809524Y53166668D01*
D10*
X14428571Y53071428D02*
X14523810Y53023808D01*
D10*
X14333333Y53166668D02*
X14428571Y53071428D01*
D10*
X14285714Y53261904D02*
X14333333Y53166668D01*
D10*
X14285714Y53452380D02*
X14285714Y53261904D01*
D10*
X14333333Y53547620D02*
X14285714Y53452380D01*
D10*
X13964286Y2476190D02*
X14773810Y2714285D01*
D10*
X13869048Y2428571D02*
X13964286Y2476190D01*
D10*
X13821429Y2380952D02*
X13869048Y2428571D01*
D10*
X13773810Y2285714D02*
X13821429Y2380952D01*
D10*
X13773810Y2190476D02*
X13773810Y2285714D01*
D10*
X13821429Y2095238D02*
X13773810Y2190476D01*
D10*
X13916667Y2047619D02*
X13821429Y2095238D01*
D10*
X14011905Y2047619D02*
X13916667Y2047619D01*
D10*
X14059524Y2095238D02*
X14011905Y2047619D01*
D10*
X14011905Y2142857D02*
X14059524Y2095238D01*
D10*
X13964286Y2095238D02*
X14011905Y2142857D01*
D10*
X13964286Y2428571D02*
X14773810Y2666666D01*
D10*
X13869048Y2380952D02*
X13964286Y2428571D01*
D10*
X13773810Y2285714D02*
X13869048Y2380952D01*
D10*
X14773810Y2857143D02*
X14773810Y2523809D01*
D10*
X14726190Y3238095D02*
X14773810Y3380952D01*
D10*
X14678571Y3190476D02*
X14726190Y3238095D01*
D10*
X14583333Y3142857D02*
X14678571Y3190476D01*
D10*
X14440476Y3142857D02*
X14583333Y3142857D01*
D10*
X14345238Y3190476D02*
X14440476Y3142857D01*
D10*
X14297619Y3285714D02*
X14345238Y3190476D01*
D10*
X14297619Y3428571D02*
X14297619Y3285714D01*
D10*
X14345238Y3619047D02*
X14297619Y3428571D01*
D10*
X14392857Y3666666D02*
X14345238Y3619047D01*
D10*
X14488095Y3714285D02*
X14392857Y3666666D01*
D10*
X14630952Y3714285D02*
X14488095Y3714285D01*
D10*
X14726190Y3666666D02*
X14630952Y3714285D01*
D10*
X14773810Y3523809D02*
X14726190Y3666666D01*
D10*
X14773810Y3380952D02*
X14773810Y3523809D01*
D10*
X14726190Y3285714D02*
X14773810Y3380952D01*
D10*
X14678571Y3238095D02*
X14726190Y3285714D01*
D10*
X14583333Y3190476D02*
X14678571Y3238095D01*
D10*
X14440476Y3190476D02*
X14583333Y3190476D01*
D10*
X14345238Y3238095D02*
X14440476Y3190476D01*
D10*
X14297619Y3285714D02*
X14345238Y3238095D01*
D10*
X14345238Y3571428D02*
X14297619Y3428571D01*
D10*
X14392857Y3619047D02*
X14345238Y3571428D01*
D10*
X14488095Y3666666D02*
X14392857Y3619047D01*
D10*
X14630952Y3666666D02*
X14488095Y3666666D01*
D10*
X14726190Y3619047D02*
X14630952Y3666666D01*
D10*
X14773810Y3523809D02*
X14726190Y3619047D01*
D10*
X14250000Y3095238D02*
X14297619Y3285714D01*
D10*
X14154762Y3000000D02*
X14250000Y3095238D01*
D10*
X14059524Y2952381D02*
X14154762Y3000000D01*
D10*
X13916667Y2952381D02*
X14059524Y2952381D01*
D10*
X13821429Y3000000D02*
X13916667Y2952381D01*
D10*
X13773810Y3142857D02*
X13821429Y3000000D01*
D10*
X13773810Y3333333D02*
X13773810Y3142857D01*
D10*
X13821429Y3523809D02*
X13773810Y3333333D01*
D10*
X13869048Y3571428D02*
X13821429Y3523809D01*
D10*
X13964286Y3619047D02*
X13869048Y3571428D01*
D10*
X14107143Y3619047D02*
X13964286Y3619047D01*
D10*
X14202381Y3571428D02*
X14107143Y3619047D01*
D10*
X14250000Y3523809D02*
X14202381Y3571428D01*
D10*
X14297619Y3428571D02*
X14250000Y3523809D01*
D10*
X14250000Y3142857D02*
X14297619Y3285714D01*
D10*
X14154762Y3047619D02*
X14250000Y3142857D01*
D10*
X14059524Y3000000D02*
X14154762Y3047619D01*
D10*
X13916667Y3000000D02*
X14059524Y3000000D01*
D10*
X13821429Y3047619D02*
X13916667Y3000000D01*
D10*
X13773810Y3142857D02*
X13821429Y3047619D01*
D10*
X13821429Y3476190D02*
X13773810Y3333333D01*
D10*
X13869048Y3523809D02*
X13821429Y3476190D01*
D10*
X13964286Y3571428D02*
X13869048Y3523809D01*
D10*
X14154762Y3571428D02*
X13964286Y3571428D01*
D10*
X14250000Y3523809D02*
X14154762Y3571428D01*
D10*
X5702381Y2250000D02*
X5559524Y2773809D01*
D10*
X5750000Y2059523D02*
X5702381Y2250000D01*
D10*
X5750000Y1916666D02*
X5750000Y2059523D01*
D10*
X5702381Y1821428D02*
X5750000Y1916666D01*
D10*
X5559524Y1773809D02*
X5702381Y1821428D01*
D10*
X5369047Y1773809D02*
X5559524Y1773809D01*
D10*
X5226190Y1821428D02*
X5369047Y1773809D01*
D10*
X5130952Y1916666D02*
X5226190Y1821428D01*
D10*
X5083333Y2059523D02*
X5130952Y1916666D01*
D10*
X4892857Y2773809D02*
X5083333Y2059523D01*
D10*
X5654762Y2250000D02*
X5511905Y2773809D01*
D10*
X5702381Y2059523D02*
X5654762Y2250000D01*
D10*
X5702381Y1916666D02*
X5702381Y2059523D01*
D10*
X5654762Y1821428D02*
X5702381Y1916666D01*
D10*
X5559524Y1773809D02*
X5654762Y1821428D01*
D10*
X5369047Y2773809D02*
X5702381Y2773809D01*
D10*
X4750000Y2773809D02*
X5035714Y2773809D01*
D10*
X4559524Y2297619D02*
X4321428Y2773809D01*
D10*
X3845238Y2773809D02*
X4321428Y2773809D01*
D10*
X4083333Y2726190D02*
X4321428Y2726190D01*
D10*
X3845238Y2773809D02*
X4083333Y2726190D01*
D10*
X4511905Y2345238D02*
X4559524Y2297619D01*
D10*
X4369047Y2392857D02*
X4511905Y2345238D01*
D10*
X4226190Y2392857D02*
X4369047Y2392857D01*
D10*
X4083333Y2345238D02*
X4226190Y2392857D01*
D10*
X4035714Y2297619D02*
X4083333Y2345238D01*
D10*
X3988095Y2202381D02*
X4035714Y2297619D01*
D10*
X3988095Y2059523D02*
X3988095Y2202381D01*
D10*
X4035714Y1916666D02*
X3988095Y2059523D01*
D10*
X4130952Y1821428D02*
X4035714Y1916666D01*
D10*
X4273809Y1773809D02*
X4130952Y1821428D01*
D10*
X4416666Y1773809D02*
X4273809Y1773809D01*
D10*
X4559524Y1821428D02*
X4416666Y1773809D01*
D10*
X4607143Y1869047D02*
X4559524Y1821428D01*
D10*
X4654762Y1964285D02*
X4607143Y1869047D01*
D10*
X4654762Y2011904D02*
X4654762Y1964285D01*
D10*
X4607143Y2059523D02*
X4654762Y2011904D01*
D10*
X4559524Y2011904D02*
X4607143Y2059523D01*
D10*
X4607143Y1964285D02*
X4559524Y2011904D01*
D10*
X4130952Y2345238D02*
X4226190Y2392857D01*
D10*
X4083333Y2297619D02*
X4130952Y2345238D01*
D10*
X4035714Y2202381D02*
X4083333Y2297619D01*
D10*
X4035714Y2059523D02*
X4035714Y2202381D01*
D10*
X4083333Y1916666D02*
X4035714Y2059523D01*
D10*
X4178571Y1821428D02*
X4083333Y1916666D01*
D10*
X4273809Y1773809D02*
X4178571Y1821428D01*
D10*
X3607142Y60273808D02*
X3321428Y61273808D01*
D10*
X3559523Y60273808D02*
X3273809Y61273808D01*
D10*
X3464285Y60654760D02*
X2654762Y61273808D01*
D10*
X2940476Y60273808D02*
X3130952Y60845240D01*
D10*
X2988095Y60273808D02*
X3178571Y60845240D01*
D10*
X3130952Y61273808D02*
X3464285Y61273808D01*
D10*
X2559524Y61273808D02*
X2845238Y61273808D01*
D10*
X3416666Y60273808D02*
X3750000Y60273808D01*
D10*
X2845238Y60273808D02*
X3130952Y60273808D01*
D10*
X-319466Y9350000D02*
X-319466Y8750000D01*
D10*
X-1819466Y9350000D02*
X-1819466Y8750000D01*
D10*
X-5050000Y16200000D02*
X-5550000Y16200000D01*
D10*
X-9450000Y16200000D02*
X-9450000Y15700000D01*
D10*
X-5050000Y15700000D02*
X-5050000Y16200000D01*
D10*
X-5550000Y11800000D02*
X-5050000Y11800000D01*
D10*
X-9450000Y11800000D02*
X-8950000Y11800000D01*
D10*
X-5050000Y11800000D02*
X-5050000Y12300000D01*
D10*
X-8950000Y16200000D02*
X-9450000Y16200000D01*
D10*
X-3400000Y-2000000D02*
X-3400000Y4300000D01*
D10*
X-16600000Y-2000000D02*
X-16600000Y4300000D01*
D10*
X-3400000Y4300000D02*
X-5900000Y4300000D01*
D10*
X-16600000Y4300000D02*
X-14100000Y4300000D01*
D10*
X2000000Y56100000D02*
X2000000Y58100000D01*
D10*
X6500000Y55350000D02*
X6500000Y58100000D01*
D10*
X-16303006Y7680856D02*
X-13903006Y7680856D01*
D10*
X-15503006Y10880856D02*
X-13903006Y10880856D01*
D10*
X6775000Y11290000D02*
X6775000Y15490000D01*
D10*
X11475000Y-1810000D02*
X8675000Y-1810000D01*
D10*
X13375000Y15490000D02*
X13375000Y11290000D01*
D10*
X6775000Y15490000D02*
X13375000Y15490000D01*
D10*
X11475000Y1390000D02*
X11475000Y-1810000D01*
D10*
X8675000Y-1810000D02*
X8675000Y1390000D01*
D10*
X2800000Y5550000D02*
X1200000Y5550000D01*
D10*
X3800000Y8950000D02*
X1200000Y8950000D01*
D10*
X-8650000Y6150000D02*
X-8650000Y8550000D01*
D10*
X-11850000Y6950000D02*
X-11850000Y8550000D01*
D10*
X-12825000Y28300000D02*
X-12825000Y27000000D01*
D10*
X-12825000Y20200000D02*
X-11525000Y20200000D01*
D10*
X-2525000Y20200000D02*
X-2725000Y20200000D01*
D10*
X-1425000Y27000000D02*
X-1425000Y28300000D01*
D10*
X-12825000Y21500000D02*
X-12825000Y20200000D01*
D10*
X-1425000Y21300000D02*
X-2525000Y20200000D01*
D10*
X-1425000Y21300000D02*
X-1425000Y21500000D01*
D10*
X-11525000Y28300000D02*
X-12825000Y28300000D01*
D10*
X-1425000Y28300000D02*
X-2725000Y28300000D01*
D10*
X5249980Y299980D02*
X5249980Y-300020D01*
D10*
X3749980Y299980D02*
X3749980Y-300020D01*
D10*
X-3000020Y-250020D02*
X-3000020Y1749980D01*
D10*
X-20Y-250020D02*
X-20Y1749980D01*
D10*
X1000000Y12050000D02*
X3000000Y12050000D01*
D10*
X1000000Y9050000D02*
X3000000Y9050000D01*
D10*
X-13400000Y17100000D02*
X-15800000Y17100000D01*
D10*
X-14200000Y13900000D02*
X-15800000Y13900000D01*
D10*
X1049980Y1149980D02*
X2449980Y1149980D01*
D10*
X649980Y-1150020D02*
X2449980Y-1150020D01*
D10*
X1275000Y17000000D02*
X1275000Y59200000D01*
D10*
X-15525000Y17000000D02*
X-14250000Y17000000D01*
D10*
X1275000Y17000000D02*
X0Y17000000D01*
D10*
X-15525000Y59200000D02*
X-15525000Y17000000D01*
D10*
X1449980Y2999980D02*
X2049980Y2999980D01*
D10*
X1449980Y1499980D02*
X2049980Y1499980D01*
D10*
X2050000Y16250000D02*
X2050000Y16950000D01*
D10*
X2050000Y16950000D02*
X1350000Y16950000D01*
D10*
X-850000Y16950000D02*
X-1550000Y16950000D01*
D10*
X-1550000Y12550000D02*
X-950000Y12550000D01*
D10*
X-1550000Y16950000D02*
X-1550000Y16250000D01*
D10*
X2050000Y12550000D02*
X2050000Y13250000D01*
D10*
X1350000Y12550000D02*
X2050000Y12550000D01*
D10*
X-14500000Y4500000D02*
X-16500000Y4500000D01*
D10*
X-14500000Y7500000D02*
X-16500000Y7500000D01*
D10*
X13375000Y37430000D02*
X6775000Y37430000D01*
D10*
X6775000Y39930000D02*
X6000000Y39930000D01*
D10*
X6775000Y37430000D02*
X6775000Y41630000D01*
D10*
X14250000Y39930000D02*
X13375000Y39930000D01*
D10*
X8675000Y57230000D02*
X11475000Y57230000D01*
D12*
X17250000Y10040000D02*
X14250000Y10040000D01*
D10*
X8675000Y54030000D02*
X8675000Y57230000D01*
D10*
X13375000Y41630000D02*
X13375000Y37430000D01*
D12*
X15750000Y47130000D02*
X15750000Y50130000D01*
D10*
X11475000Y57230000D02*
X11475000Y54030000D01*
D12*
X17250000Y48630000D02*
X14250000Y48630000D01*
G75*
M02*
