%FSLAX46Y46*%
%MOMM*%
%AMPS40*
4,1,4,
0.975000,-0.975000,
2.525000,-0.975000,
2.525000,-2.525000,
0.975000,-2.525000,
0.975000,-0.975000,
0
*
4,1,4,
-2.525000,2.525000,
-0.975000,2.525000,
-0.975000,0.975000,
-2.525000,0.975000,
-2.525000,2.525000,
0
*
4,1,4,
-2.525000,-0.975000,
-0.975000,-0.975000,
-0.975000,-2.525000,
-2.525000,-2.525000,
-2.525000,-0.975000,
0
*
4,1,4,
-0.775000,2.525000,
0.775000,2.525000,
0.775000,0.975000,
-0.775000,0.975000,
-0.775000,2.525000,
0
*
21,1,1.550000,1.550000,0.000000,0.000000,270.000000*
4,1,4,
0.975000,2.525000,
2.525000,2.525000,
2.525000,0.975000,
0.975000,0.975000,
0.975000,2.525000,
0
*
4,1,4,
-0.775000,-0.975000,
0.775000,-0.975000,
0.775000,-2.525000,
-0.775000,-2.525000,
-0.775000,-0.975000,
0
*
4,1,4,
-2.525000,0.775000,
-0.975000,0.775000,
-0.975000,-0.775000,
-2.525000,-0.775000,
-2.525000,0.775000,
0
*
4,1,4,
0.975000,0.775000,
2.525000,0.775000,
2.525000,-0.775000,
0.975000,-0.775000,
0.975000,0.775000,
0
*
%
%ADD40PS40*%
%AMPS26*
21,1,0.300000,0.800000,0.000000,0.000000,0.000000*
%
%ADD26PS26*%
%AMPS15*
21,1,1.000000,1.600000,0.000000,0.000000,0.000000*
%
%ADD15PS15*%
%AMPS14*
21,1,1.000000,1.600000,0.000000,0.000000,180.000000*
%
%ADD14PS14*%
%AMPS24*
21,1,0.510000,0.400000,0.000000,0.000000,0.000000*
%
%ADD24PS24*%
%AMPS29*
21,1,0.900000,0.550000,0.000000,0.000000,180.000000*
%
%ADD29PS29*%
%AMPS17*
21,1,0.230000,0.700000,0.000000,0.000000,0.000000*
%
%ADD17PS17*%
%AMPS16*
21,1,0.230000,0.700000,0.000000,0.000000,180.000000*
%
%ADD16PS16*%
%AMPS11*
21,1,0.300000,0.450000,0.000000,0.000000,90.000000*
%
%ADD11PS11*%
%AMPS10*
21,1,0.300000,0.450000,0.000000,0.000000,270.000000*
%
%ADD10PS10*%
%AMPS18*
21,1,0.900000,1.500000,0.000000,0.000000,90.000000*
%
%ADD18PS18*%
%AMPS27*
21,1,0.400000,0.800000,0.000000,0.000000,0.000000*
%
%ADD27PS27*%
%AMPS32*
21,1,1.000000,1.250000,0.000000,0.000000,0.000000*
%
%ADD32PS32*%
%AMPS28*
21,1,1.000000,1.250000,0.000000,0.000000,90.000000*
%
%ADD28PS28*%
%AMPS31*
21,1,1.000000,1.250000,0.000000,0.000000,270.000000*
%
%ADD31PS31*%
%AMPS33*
21,1,0.500000,0.400000,0.000000,0.000000,90.000000*
%
%ADD33PS33*%
%AMPS34*
21,1,0.500000,0.750000,0.000000,0.000000,90.000000*
%
%ADD34PS34*%
%AMPS20*
21,1,0.800000,0.750000,0.000000,0.000000,0.000000*
%
%ADD20PS20*%
%AMPS19*
21,1,0.800000,0.750000,0.000000,0.000000,90.000000*
%
%ADD19PS19*%
%AMPS21*
21,1,0.800000,0.750000,0.000000,0.000000,180.000000*
%
%ADD21PS21*%
%AMPS25*
21,1,0.800000,0.750000,0.000000,0.000000,270.000000*
%
%ADD25PS25*%
%AMPS30*
21,1,0.250000,0.650000,0.000000,0.000000,270.000000*
%
%ADD30PS30*%
%AMPS37*
21,1,0.300000,0.550000,0.000000,0.000000,0.000000*
%
%ADD37PS37*%
%AMPS36*
21,1,0.300000,0.550000,0.000000,0.000000,90.000000*
%
%ADD36PS36*%
%AMPS39*
21,1,0.300000,0.550000,0.000000,0.000000,180.000000*
%
%ADD39PS39*%
%AMPS38*
21,1,0.300000,0.550000,0.000000,0.000000,270.000000*
%
%ADD38PS38*%
%AMPS35*
21,1,1.800000,1.800000,0.000000,0.000000,90.000000*
%
%ADD35PS35*%
%AMPS23*
21,1,0.500000,0.900000,0.000000,0.000000,0.000000*
%
%ADD23PS23*%
%AMPS12*
21,1,0.500000,0.900000,0.000000,0.000000,90.000000*
%
%ADD12PS12*%
%AMPS13*
21,1,0.500000,0.900000,0.000000,0.000000,180.000000*
%
%ADD13PS13*%
%AMPS22*
21,1,0.500000,0.900000,0.000000,0.000000,270.000000*
%
%ADD22PS22*%
G01*
G01*
%LPD*%
G75*
D10*
X-2425000Y3000000D03*
D11*
X-1075000Y3000000D03*
D11*
X-1075000Y3500000D03*
D11*
X-1075000Y4000000D03*
D10*
X-2425000Y4000000D03*
D12*
X17000000Y35500000D03*
D12*
X17000000Y37000000D03*
D13*
X12500000Y6000000D03*
D13*
X11000000Y6000000D03*
D14*
X-9100000Y32700000D03*
D15*
X-12900000Y26300000D03*
D15*
X-9100000Y26300000D03*
D14*
X-12900000Y32700000D03*
D16*
X17050000Y5300000D03*
D16*
X16250000Y5300000D03*
D17*
X16250000Y3200000D03*
D17*
X17050000Y3200000D03*
D17*
X15850000Y3200000D03*
D17*
X15450000Y3200000D03*
D16*
X15850000Y5300000D03*
D17*
X16650000Y3200000D03*
D16*
X16650000Y5300000D03*
D18*
X16250000Y4250000D03*
D16*
X15450000Y5300000D03*
D19*
X14250000Y3500000D03*
D19*
X14250000Y2000000D03*
D20*
X-9250000Y12750000D03*
D20*
X-10750000Y12750000D03*
D12*
X15750000Y11250000D03*
D12*
X15750000Y12750000D03*
D21*
X9500000Y42750000D03*
D21*
X11000000Y42750000D03*
D22*
X6000000Y12750000D03*
D22*
X6000000Y11250000D03*
D14*
X-1800000Y32700000D03*
D15*
X-5600000Y26300000D03*
D15*
X-1800000Y26300000D03*
D14*
X-5600000Y32700000D03*
D23*
X11000000Y7500000D03*
D23*
X12500000Y7500000D03*
D20*
X-5500000Y23250000D03*
D20*
X-7000000Y23250000D03*
D12*
X9900000Y8439998D03*
D12*
X9900000Y9939998D03*
D19*
X-5000000Y14750000D03*
D19*
X-5000000Y13250000D03*
D12*
X14750000Y35500000D03*
D12*
X14750000Y37000000D03*
D22*
X15150000Y750000D03*
D22*
X15150000Y-750000D03*
D12*
X3500000Y47750000D03*
D12*
X3500000Y49250000D03*
D24*
X11250000Y9689998D03*
D24*
X11250000Y8689998D03*
D24*
X12550000Y9189998D03*
D25*
X14250000Y5000000D03*
D25*
X14250000Y6500000D03*
D22*
X-15750000Y5250000D03*
D22*
X-15750000Y3750000D03*
D21*
X11000000Y1000000D03*
D21*
X12500000Y1000000D03*
D22*
X4500000Y12750000D03*
D22*
X4500000Y11250000D03*
D23*
X-15500000Y2500000D03*
D23*
X-14000000Y2500000D03*
D19*
X-1000000Y15250000D03*
D19*
X-1000000Y13750000D03*
D25*
X16500000Y22000000D03*
D25*
X16500000Y23500000D03*
D26*
X3250000Y45430000D03*
D26*
X1750000Y45430000D03*
D26*
X1250000Y45430000D03*
D26*
X-3250000Y45430000D03*
D26*
X7250000Y45430000D03*
D26*
X4750000Y45430000D03*
D26*
X-1250000Y45430000D03*
D26*
X5250000Y45430000D03*
D26*
X2250000Y45430000D03*
D26*
X-2750000Y45430000D03*
D26*
X4250000Y45430000D03*
D26*
X5750000Y45430000D03*
D26*
X750000Y45430000D03*
D26*
X-750000Y45430000D03*
D26*
X-4750000Y45430000D03*
D26*
X250000Y45430000D03*
D26*
X-250000Y45430000D03*
D26*
X-6750000Y45430000D03*
D27*
X-8250000Y42930000D03*
D26*
X6250000Y45430000D03*
D26*
X3750000Y45430000D03*
D26*
X-6250000Y45430000D03*
D26*
X-3750000Y45430000D03*
D26*
X-1750000Y45430000D03*
D26*
X-5750000Y45430000D03*
D26*
X-5250000Y45430000D03*
D27*
X8250000Y42930000D03*
D26*
X6750000Y45430000D03*
D26*
X-7250000Y45430000D03*
D26*
X2750000Y45430000D03*
D26*
X-4250000Y45430000D03*
D26*
X-2250000Y45430000D03*
D28*
X7000008Y48000056D03*
D28*
X7000008Y50000056D03*
D12*
X14250000Y9250000D03*
D12*
X14250000Y10750000D03*
D23*
X-12000000Y45000000D03*
D23*
X-10500000Y45000000D03*
D19*
X-6625000Y13741494D03*
D19*
X-6625000Y12241494D03*
D23*
X-10000000Y16250000D03*
D23*
X-8500000Y16250000D03*
D14*
X5600000Y32700000D03*
D15*
X1800000Y26300000D03*
D15*
X5600000Y26300000D03*
D14*
X1800000Y32700000D03*
D21*
X14250000Y14250000D03*
D21*
X15750000Y14250000D03*
D29*
X15175000Y47175000D03*
D30*
X13150000Y44750000D03*
D30*
X13150000Y45250000D03*
D30*
X13150000Y44250000D03*
D30*
X13150000Y43750000D03*
D30*
X13150000Y46250000D03*
D29*
X15175000Y42825000D03*
D30*
X13150000Y45750000D03*
D19*
X-7875000Y13741494D03*
D19*
X-7875000Y12241494D03*
D25*
X-8250000Y-250000D03*
D25*
X-8250000Y1250000D03*
D28*
X-14999992Y9000056D03*
D28*
X-14999992Y11000056D03*
D25*
X-9483746Y1593422D03*
D25*
X-9483746Y3093422D03*
D31*
X949992Y9199944D03*
D31*
X949992Y7199944D03*
D22*
X16650000Y750000D03*
D22*
X16650000Y-750000D03*
D22*
X9750000Y4250000D03*
D22*
X9750000Y2750000D03*
D28*
X5250008Y48000056D03*
D28*
X5250008Y50000056D03*
D14*
X12900000Y32700000D03*
D15*
X9100000Y26300000D03*
D15*
X12900000Y26300000D03*
D14*
X9100000Y32700000D03*
D20*
X-5500000Y24500000D03*
D20*
X-7000000Y24500000D03*
D32*
X-10749944Y6749992D03*
D32*
X-8749944Y6749992D03*
D23*
X-5750000Y2500000D03*
D23*
X-4250000Y2500000D03*
D12*
X-9500000Y13750000D03*
D12*
X-9500000Y15250000D03*
D12*
X500000Y13750000D03*
D12*
X500000Y15250000D03*
D33*
X11925000Y2150000D03*
D33*
X12525000Y4850000D03*
D33*
X12525000Y2150000D03*
D34*
X11150001Y2150000D03*
D33*
X11925000Y4850000D03*
D35*
X11750000Y3500000D03*
D34*
X11150001Y4850000D03*
D36*
X15125000Y19250000D03*
D37*
X12500000Y16125000D03*
D38*
X8375000Y19750000D03*
D39*
X13500000Y22875000D03*
D39*
X14000000Y22875000D03*
D36*
X15125000Y17750000D03*
D39*
X11000000Y22875000D03*
D38*
X8375000Y17750000D03*
D40*
X11750000Y19500000D03*
D38*
X8375000Y16750000D03*
D38*
X8375000Y20250000D03*
D36*
X15125000Y19750000D03*
D39*
X11500000Y22875000D03*
D39*
X12500000Y22875000D03*
D36*
X15125000Y18250000D03*
D37*
X14000000Y16125000D03*
D36*
X15125000Y21750000D03*
D39*
X10000000Y22875000D03*
D36*
X15125000Y20750000D03*
D38*
X8375000Y18250000D03*
D38*
X8375000Y18750000D03*
D36*
X15125000Y22250000D03*
D39*
X12000000Y22875000D03*
D38*
X8375000Y22250000D03*
D36*
X15125000Y20250000D03*
D36*
X15125000Y21250000D03*
D37*
X11500000Y16125000D03*
D36*
X15125000Y16750000D03*
D38*
X8375000Y21250000D03*
D37*
X11000000Y16125000D03*
D37*
X10500000Y16125000D03*
D37*
X13500000Y16125000D03*
D37*
X9000000Y16125000D03*
D39*
X13000000Y22875000D03*
D37*
X14500000Y16125000D03*
D39*
X9000000Y22875000D03*
D37*
X12000000Y16125000D03*
D37*
X10000000Y16125000D03*
D37*
X13000000Y16125000D03*
D36*
X15125000Y18750000D03*
D38*
X8375000Y19250000D03*
D38*
X8375000Y17250000D03*
D39*
X14500000Y22875000D03*
D37*
X9500000Y16125000D03*
D39*
X9500000Y22875000D03*
D38*
X8375000Y20750000D03*
D39*
X10500000Y22875000D03*
D38*
X8375000Y21750000D03*
D36*
X15125000Y17250000D03*
D20*
X6000000Y16250000D03*
D20*
X4500000Y16250000D03*
D21*
X-6750000Y48000000D03*
D21*
X-5250000Y48000000D03*
M02*
