M48
FMAT,2
METRIC,TZ
T5C0.350
T1C0.650
T4C0.950
T3C1.050
T2C1.550
%
G90
G05
M71
T5
X-11.500Y5.000
X11.250Y24.500
X16.000Y9.250
X10.750Y25.250
X-3.750Y10.000
X2.500Y22.000
X16.250Y18.000
X3.000Y35.500
X-12.000Y20.000
X-3.500Y5.750
X4.250Y27.250
X2.000Y37.500
X14.000Y-1.500
X8.500Y1.500
X15.900Y-0.750
X15.750Y15.000
X-5.250Y16.000
X-3.750Y14.500
X-8.000Y7.500
X-12.500Y4.500
X-12.500Y7.250
X-4.000Y21.750
X0.631Y0.518
X8.500Y0.500
X-10.750Y13.500
X-15.000Y17.000
X-11.250Y14.250
X4.000Y38.500
X-2.250Y4.500
X-5.000Y5.750
X14.250Y12.500
X-5.000Y8.000
X5.500Y19.750
X-2.250Y15.000
X-11.250Y8.000
X11.000Y35.500
X2.000Y58.750
X4.250Y28.500
X-3.250Y4.750
X-8.500Y18.750
X15.750Y7.250
X-10.750Y15.000
X7.250Y22.750
X4.131Y-1.482
X-5.500Y5.000
X3.250Y22.500
X-7.250Y11.466
X9.750Y24.750
X4.500Y24.750
X5.750Y44.000
X-4.500Y10.500
X6.250Y42.000
X6.250Y10.000
X-12.750Y12.000
X15.750Y13.250
X2.750Y13.750
X15.125Y4.250
X2.500Y21.000
X1.000Y8.750
X-14.500Y15.500
X6.000Y21.500
X-7.250Y14.750
X-16.250Y7.000
X16.250Y31.750
X16.625Y4.250
X4.725Y9.106
X-16.750Y3.000
X-10.500Y21.750
X16.000Y28.250
X15.250Y23.500
X0.750Y5.250
X-10.500Y17.500
X5.250Y41.000
X-8.000Y23.250
X14.250Y11.500
X-13.500Y9.000
X-10.520Y26.480
X2.500Y6.350
X-14.453Y12.031
X12.250Y28.000
X-7.250Y16.500
X7.500Y28.000
X1.250Y6.350
X1.750Y48.500
X14.000Y1.000
X3.800Y55.450
X-10.000Y15.500
X2.881Y0.500
X8.750Y24.750
X15.517Y33.767
X1.500Y34.750
X7.750Y36.250
X-6.500Y4.750
X6.030Y3.250
X15.250Y15.750
X3.250Y23.500
X3.850Y7.300
X0.000Y-1.000
X3.750Y3.250
X16.420Y20.000
X2.000Y35.500
X16.250Y21.000
X-5.500Y22.250
X7.250Y35.250
X3.500Y16.250
X16.500Y32.750
X15.750Y27.250
X-8.750Y21.750
X-15.250Y12.750
X-2.250Y13.750
X-7.500Y4.500
X-3.525Y2.500
X-6.058Y18.652
X-2.750Y9.750
X-13.453Y11.031
X1.750Y17.500
X1.250Y7.300
X5.500Y24.750
X-3.500Y18.750
X15.875Y4.250
X11.000Y27.000
X6.750Y22.000
X-2.500Y28.000
X-4.750Y0.500
X3.750Y24.250
T1
X-7.110Y2.430
X-12.890Y2.430
T4
X-11.920Y17.900
X0.000Y22.500
X0.000Y32.200
X0.000Y27.500
X-7.120Y17.900
X-2.320Y17.900
X-14.250Y32.200
X-14.250Y22.500
X-14.250Y27.500
T3
X0.000Y40.000
X0.000Y50.000
X-14.250Y25.000
X-3.170Y35.000
X0.000Y30.000
X-14.250Y35.000
X-8.570Y35.000
X-5.670Y55.000
X0.000Y20.000
X-14.250Y45.000
X-14.250Y55.000
T2
X-11.920Y24.100
X-2.320Y24.100
M30
