%FSLAX46Y46*%
%MOMM*%
%ADD10C,0.150000*%
%ADD11C,0.250000*%
G01*
G01*
%LPD*%
D10*
X16288095Y1850000D02*
X16430952Y2373809D01*
D10*
X16240476Y1659523D02*
X16288095Y1850000D01*
D10*
X16240476Y1516666D02*
X16240476Y1659523D01*
D10*
X16288095Y1421428D02*
X16240476Y1516666D01*
D10*
X16430952Y1373809D02*
X16288095Y1421428D01*
D10*
X16621429Y1373809D02*
X16430952Y1373809D01*
D10*
X16764286Y1421428D02*
X16621429Y1373809D01*
D10*
X16859524Y1516666D02*
X16764286Y1421428D01*
D10*
X16907142Y1659523D02*
X16859524Y1516666D01*
D10*
X17097620Y2373809D02*
X16907142Y1659523D01*
D10*
X16335714Y1850000D02*
X16478571Y2373809D01*
D10*
X16288095Y1659523D02*
X16335714Y1850000D01*
D10*
X16288095Y1516666D02*
X16288095Y1659523D01*
D10*
X16335714Y1421428D02*
X16288095Y1516666D01*
D10*
X16430952Y1373809D02*
X16335714Y1421428D01*
D10*
X16621429Y2373809D02*
X16288095Y2373809D01*
D10*
X17240476Y2373809D02*
X16954762Y2373809D01*
D10*
X17716666Y1373809D02*
X18002380Y2326190D01*
D10*
X17764286Y1373809D02*
X18050000Y2373809D01*
D10*
X17335714Y1659523D02*
X18050000Y2373809D01*
D10*
X18097620Y1659523D02*
X17335714Y1659523D01*
D10*
X4754762Y18078572D02*
X4707143Y18078572D01*
D10*
X4802381Y18173810D02*
X4754762Y18078572D01*
D10*
X4754762Y17888096D02*
X4802381Y18173810D01*
D10*
X4754762Y17983334D02*
X4754762Y17888096D01*
D10*
X4707143Y18078572D02*
X4754762Y17983334D01*
D10*
X4659524Y18126190D02*
X4707143Y18078572D01*
D10*
X4564285Y18173810D02*
X4659524Y18126190D01*
D10*
X4421428Y18173810D02*
X4564285Y18173810D01*
D10*
X4278571Y18126190D02*
X4421428Y18173810D01*
D10*
X4183333Y18030952D02*
X4278571Y18126190D01*
D10*
X4088095Y17888096D02*
X4183333Y18030952D01*
D10*
X4040476Y17745238D02*
X4088095Y17888096D01*
D10*
X3992857Y17554762D02*
X4040476Y17745238D01*
D10*
X3992857Y17411904D02*
X3992857Y17554762D01*
D10*
X4040476Y17269048D02*
X3992857Y17411904D01*
D10*
X4088095Y17221428D02*
X4040476Y17269048D01*
D10*
X4230952Y17173810D02*
X4088095Y17221428D01*
D10*
X4373809Y17173810D02*
X4230952Y17173810D01*
D10*
X4469047Y17221428D02*
X4373809Y17173810D01*
D10*
X4564285Y17316666D02*
X4469047Y17221428D01*
D10*
X4611905Y17411904D02*
X4564285Y17316666D01*
D10*
X4326190Y18126190D02*
X4421428Y18173810D01*
D10*
X4230952Y18030952D02*
X4326190Y18126190D01*
D10*
X4135714Y17888096D02*
X4230952Y18030952D01*
D10*
X4088095Y17745238D02*
X4135714Y17888096D01*
D10*
X4040476Y17554762D02*
X4088095Y17745238D01*
D10*
X4040476Y17411904D02*
X4040476Y17554762D01*
D10*
X4088095Y17269048D02*
X4040476Y17411904D01*
D10*
X4135714Y17221428D02*
X4088095Y17269048D01*
D10*
X4230952Y17173810D02*
X4135714Y17221428D01*
D10*
X5230952Y18126190D02*
X5373809Y18173810D01*
D10*
X5183333Y18078572D02*
X5230952Y18126190D01*
D10*
X5135714Y17983334D02*
X5183333Y18078572D01*
D10*
X5135714Y17840476D02*
X5135714Y17983334D01*
D10*
X5183333Y17745238D02*
X5135714Y17840476D01*
D10*
X5278571Y17697620D02*
X5183333Y17745238D01*
D10*
X5421428Y17697620D02*
X5278571Y17697620D01*
D10*
X5611905Y17745238D02*
X5421428Y17697620D01*
D10*
X5659524Y17792858D02*
X5611905Y17745238D01*
D10*
X5707143Y17888096D02*
X5659524Y17792858D01*
D10*
X5707143Y18030952D02*
X5707143Y17888096D01*
D10*
X5659524Y18126190D02*
X5707143Y18030952D01*
D10*
X5516666Y18173810D02*
X5659524Y18126190D01*
D10*
X5373809Y18173810D02*
X5516666Y18173810D01*
D10*
X5278571Y18126190D02*
X5373809Y18173810D01*
D10*
X5230952Y18078572D02*
X5278571Y18126190D01*
D10*
X5183333Y17983334D02*
X5230952Y18078572D01*
D10*
X5183333Y17840476D02*
X5183333Y17983334D01*
D10*
X5230952Y17745238D02*
X5183333Y17840476D01*
D10*
X5278571Y17697620D02*
X5230952Y17745238D01*
D10*
X5564286Y17745238D02*
X5421428Y17697620D01*
D10*
X5611905Y17792858D02*
X5564286Y17745238D01*
D10*
X5659524Y17888096D02*
X5611905Y17792858D01*
D10*
X5659524Y18030952D02*
X5659524Y17888096D01*
D10*
X5611905Y18126190D02*
X5659524Y18030952D01*
D10*
X5516666Y18173810D02*
X5611905Y18126190D01*
D10*
X5088095Y17650000D02*
X5278571Y17697620D01*
D10*
X4992857Y17554762D02*
X5088095Y17650000D01*
D10*
X4945238Y17459524D02*
X4992857Y17554762D01*
D10*
X4945238Y17316666D02*
X4945238Y17459524D01*
D10*
X4992857Y17221428D02*
X4945238Y17316666D01*
D10*
X5135714Y17173810D02*
X4992857Y17221428D01*
D10*
X5326190Y17173810D02*
X5135714Y17173810D01*
D10*
X5516666Y17221428D02*
X5326190Y17173810D01*
D10*
X5564286Y17269048D02*
X5516666Y17221428D01*
D10*
X5611905Y17364286D02*
X5564286Y17269048D01*
D10*
X5611905Y17507142D02*
X5611905Y17364286D01*
D10*
X5564286Y17602380D02*
X5611905Y17507142D01*
D10*
X5516666Y17650000D02*
X5564286Y17602380D01*
D10*
X5421428Y17697620D02*
X5516666Y17650000D01*
D10*
X5135714Y17650000D02*
X5278571Y17697620D01*
D10*
X5040476Y17554762D02*
X5135714Y17650000D01*
D10*
X4992857Y17459524D02*
X5040476Y17554762D01*
D10*
X4992857Y17316666D02*
X4992857Y17459524D01*
D10*
X5040476Y17221428D02*
X4992857Y17316666D01*
D10*
X5135714Y17173810D02*
X5040476Y17221428D01*
D10*
X5469047Y17221428D02*
X5326190Y17173810D01*
D10*
X5516666Y17269048D02*
X5469047Y17221428D01*
D10*
X5564286Y17364286D02*
X5516666Y17269048D01*
D10*
X5564286Y17554762D02*
X5564286Y17364286D01*
D10*
X5516666Y17650000D02*
X5564286Y17554762D01*
D10*
X-11095238Y11678571D02*
X-11142857Y11678571D01*
D10*
X-11047619Y11773810D02*
X-11095238Y11678571D01*
D10*
X-11095238Y11488095D02*
X-11047619Y11773810D01*
D10*
X-11095238Y11583333D02*
X-11095238Y11488095D01*
D10*
X-11142857Y11678571D02*
X-11095238Y11583333D01*
D10*
X-11190476Y11726190D02*
X-11142857Y11678571D01*
D10*
X-11285714Y11773810D02*
X-11190476Y11726190D01*
D10*
X-11428572Y11773810D02*
X-11285714Y11773810D01*
D10*
X-11571428Y11726190D02*
X-11428572Y11773810D01*
D10*
X-11666666Y11630952D02*
X-11571428Y11726190D01*
D10*
X-11761905Y11488095D02*
X-11666666Y11630952D01*
D10*
X-11809524Y11345238D02*
X-11761905Y11488095D01*
D10*
X-11857143Y11154762D02*
X-11809524Y11345238D01*
D10*
X-11857143Y11011905D02*
X-11857143Y11154762D01*
D10*
X-11809524Y10869048D02*
X-11857143Y11011905D01*
D10*
X-11761905Y10821429D02*
X-11809524Y10869048D01*
D10*
X-11619048Y10773810D02*
X-11761905Y10821429D01*
D10*
X-11476190Y10773810D02*
X-11619048Y10773810D01*
D10*
X-11380952Y10821429D02*
X-11476190Y10773810D01*
D10*
X-11285714Y10916667D02*
X-11380952Y10821429D01*
D10*
X-11238095Y11011905D02*
X-11285714Y10916667D01*
D10*
X-11523810Y11726190D02*
X-11428572Y11773810D01*
D10*
X-11619048Y11630952D02*
X-11523810Y11726190D01*
D10*
X-11714286Y11488095D02*
X-11619048Y11630952D01*
D10*
X-11761905Y11345238D02*
X-11714286Y11488095D01*
D10*
X-11809524Y11154762D02*
X-11761905Y11345238D01*
D10*
X-11809524Y11011905D02*
X-11809524Y11154762D01*
D10*
X-11761905Y10869048D02*
X-11809524Y11011905D01*
D10*
X-11714286Y10821429D02*
X-11761905Y10869048D01*
D10*
X-11619048Y10773810D02*
X-11714286Y10821429D01*
D10*
X-10619048Y11535714D02*
X-10666667Y11583333D01*
D10*
X-10666667Y11488095D02*
X-10619048Y11535714D01*
D10*
X-10714286Y11535714D02*
X-10666667Y11488095D01*
D10*
X-10714286Y11583333D02*
X-10714286Y11535714D01*
D10*
X-10666667Y11678571D02*
X-10714286Y11583333D01*
D10*
X-10619048Y11726190D02*
X-10666667Y11678571D01*
D10*
X-10476190Y11773810D02*
X-10619048Y11726190D01*
D10*
X-10333333Y11773810D02*
X-10476190Y11773810D01*
D10*
X-10190476Y11726190D02*
X-10333333Y11773810D01*
D10*
X-10142857Y11630952D02*
X-10190476Y11726190D01*
D10*
X-10142857Y11535714D02*
X-10142857Y11630952D01*
D10*
X-10190476Y11440476D02*
X-10142857Y11535714D01*
D10*
X-10285714Y11345238D02*
X-10190476Y11440476D01*
D10*
X-10428571Y11250000D02*
X-10285714Y11345238D01*
D10*
X-10619048Y11154762D02*
X-10428571Y11250000D01*
D10*
X-10761905Y11059524D02*
X-10619048Y11154762D01*
D10*
X-10857143Y10964286D02*
X-10761905Y11059524D01*
D10*
X-10952381Y10773810D02*
X-10857143Y10964286D01*
D10*
X-10238095Y11726190D02*
X-10333333Y11773810D01*
D10*
X-10190476Y11630952D02*
X-10238095Y11726190D01*
D10*
X-10190476Y11535714D02*
X-10190476Y11630952D01*
D10*
X-10238095Y11440476D02*
X-10190476Y11535714D01*
D10*
X-10333333Y11345238D02*
X-10238095Y11440476D01*
D10*
X-10619048Y11154762D02*
X-10333333Y11345238D01*
D10*
X-10857143Y10916667D02*
X-10904762Y10869048D01*
D10*
X-10761905Y10916667D02*
X-10857143Y10916667D01*
D10*
X-10523810Y10821429D02*
X-10761905Y10916667D01*
D10*
X-10380952Y10821429D02*
X-10523810Y10821429D01*
D10*
X-10285714Y10869048D02*
X-10380952Y10821429D01*
D10*
X-10238095Y10964286D02*
X-10285714Y10869048D01*
D10*
X-10523810Y10773810D02*
X-10761905Y10916667D01*
D10*
X-10380952Y10773810D02*
X-10523810Y10773810D01*
D10*
X-10285714Y10821429D02*
X-10380952Y10773810D01*
D10*
X-10238095Y10964286D02*
X-10285714Y10821429D01*
D10*
X-9523810Y10773810D02*
X-9238095Y11726190D01*
D10*
X-9476190Y10773810D02*
X-9190476Y11773810D01*
D10*
X-9904762Y11059524D02*
X-9190476Y11773810D01*
D10*
X-9142857Y11059524D02*
X-9904762Y11059524D01*
D11*
X3035714Y60047620D02*
X3607143Y62047620D01*
D11*
X3130952Y60047620D02*
X3702381Y62047620D01*
D11*
X4273809Y60047620D02*
X4845238Y62047620D01*
D11*
X4369047Y60047620D02*
X4940476Y62047620D01*
D11*
X3988095Y62047620D02*
X3321428Y62047620D01*
D11*
X5226190Y62047620D02*
X4559524Y62047620D01*
D11*
X4559524Y61095240D02*
X3416666Y61095240D01*
D11*
X3416666Y60047620D02*
X2750000Y60047620D01*
D11*
X4654762Y60047620D02*
X3988095Y60047620D01*
D11*
X5416666Y61190476D02*
X5321428Y61000000D01*
D11*
X5607143Y61380952D02*
X5416666Y61190476D01*
D11*
X5892857Y61380952D02*
X5607143Y61380952D01*
D11*
X5988095Y61285716D02*
X5892857Y61380952D01*
D11*
X5988095Y61000000D02*
X5988095Y61285716D01*
D11*
X5797619Y60428572D02*
X5988095Y61000000D01*
D11*
X5797619Y60238096D02*
X5797619Y60428572D01*
D11*
X5988095Y60047620D02*
X5797619Y60238096D01*
D11*
X5892857Y61285716D02*
X5797619Y61380952D01*
D11*
X5892857Y61000000D02*
X5892857Y61285716D01*
D11*
X5702381Y60428572D02*
X5892857Y61000000D01*
D11*
X5702381Y60238096D02*
X5702381Y60428572D01*
D11*
X5797619Y60142856D02*
X5702381Y60238096D01*
D11*
X5988095Y60047620D02*
X5797619Y60142856D01*
D11*
X6178571Y60047620D02*
X5988095Y60047620D01*
D11*
X6369047Y60142856D02*
X6178571Y60047620D01*
D11*
X6559524Y60333332D02*
X6369047Y60142856D01*
D11*
X6750000Y60714284D02*
X6559524Y60333332D01*
D11*
X6750000Y60714284D02*
X6940476Y61380952D01*
D11*
X6654762Y60333332D02*
X6750000Y60714284D01*
D11*
X6654762Y60142856D02*
X6654762Y60333332D01*
D11*
X6750000Y60047620D02*
X6654762Y60142856D01*
D11*
X7035714Y60047620D02*
X6750000Y60047620D01*
D11*
X7226190Y60238096D02*
X7035714Y60047620D01*
D11*
X7321428Y60428572D02*
X7226190Y60238096D01*
D11*
X6845238Y60714284D02*
X7035714Y61380952D01*
D11*
X6750000Y60333332D02*
X6845238Y60714284D01*
D11*
X6750000Y60142856D02*
X6750000Y60333332D01*
D11*
X6845238Y60047620D02*
X6750000Y60142856D01*
D11*
X7797619Y60809524D02*
X8178571Y62047620D01*
D11*
X7797619Y60523808D02*
X7797619Y60809524D01*
D11*
X7892857Y60238096D02*
X7797619Y60523808D01*
D11*
X7988095Y60142856D02*
X7892857Y60238096D01*
D11*
X7892857Y60809524D02*
X8273809Y62047620D01*
D11*
X7988095Y61095240D02*
X7892857Y60809524D01*
D11*
X8178571Y61285716D02*
X7988095Y61095240D01*
D11*
X8369047Y61380952D02*
X8178571Y61285716D01*
D11*
X8559524Y61380952D02*
X8369047Y61380952D01*
D11*
X8750000Y61285716D02*
X8559524Y61380952D01*
D11*
X8845238Y61190476D02*
X8750000Y61285716D01*
D11*
X8940476Y61000000D02*
X8845238Y61190476D01*
D11*
X8940476Y60714284D02*
X8940476Y61000000D01*
D11*
X8845238Y60428572D02*
X8940476Y60714284D01*
D11*
X8654762Y60142856D02*
X8845238Y60428572D01*
D11*
X8369047Y60047620D02*
X8654762Y60142856D01*
D11*
X8178571Y60047620D02*
X8369047Y60047620D01*
D11*
X7988095Y60142856D02*
X8178571Y60047620D01*
D11*
X7892857Y60428572D02*
X7988095Y60142856D01*
D11*
X7892857Y60809524D02*
X7892857Y60428572D01*
D11*
X8845238Y61095240D02*
X8750000Y61285716D01*
D11*
X8845238Y60714284D02*
X8845238Y61095240D01*
D11*
X8750000Y60428572D02*
X8845238Y60714284D01*
D11*
X8559524Y60142856D02*
X8750000Y60428572D01*
D11*
X8369047Y60047620D02*
X8559524Y60142856D01*
D11*
X8273809Y62047620D02*
X7892857Y62047620D01*
D11*
X9607143Y60809524D02*
X9988095Y62047620D01*
D11*
X9607143Y60523808D02*
X9607143Y60809524D01*
D11*
X9702381Y60238096D02*
X9607143Y60523808D01*
D11*
X9797619Y60142856D02*
X9702381Y60238096D01*
D11*
X9702381Y60809524D02*
X10083333Y62047620D01*
D11*
X9797619Y61095240D02*
X9702381Y60809524D01*
D11*
X9988095Y61285716D02*
X9797619Y61095240D01*
D11*
X10178572Y61380952D02*
X9988095Y61285716D01*
D11*
X10369048Y61380952D02*
X10178572Y61380952D01*
D11*
X10559524Y61285716D02*
X10369048Y61380952D01*
D11*
X10654762Y61190476D02*
X10559524Y61285716D01*
D11*
X10750000Y61000000D02*
X10654762Y61190476D01*
D11*
X10750000Y60714284D02*
X10750000Y61000000D01*
D11*
X10654762Y60428572D02*
X10750000Y60714284D01*
D11*
X10464286Y60142856D02*
X10654762Y60428572D01*
D11*
X10178572Y60047620D02*
X10464286Y60142856D01*
D11*
X9988095Y60047620D02*
X10178572Y60047620D01*
D11*
X9797619Y60142856D02*
X9988095Y60047620D01*
D11*
X9702381Y60428572D02*
X9797619Y60142856D01*
D11*
X9702381Y60809524D02*
X9702381Y60428572D01*
D11*
X10654762Y61095240D02*
X10559524Y61285716D01*
D11*
X10654762Y60714284D02*
X10654762Y61095240D01*
D11*
X10559524Y60428572D02*
X10654762Y60714284D01*
D11*
X10369048Y60142856D02*
X10559524Y60428572D01*
D11*
X10178572Y60047620D02*
X10369048Y60142856D01*
D11*
X10083333Y62047620D02*
X9702381Y62047620D01*
D11*
X11416667Y60714284D02*
X11797619Y62047620D01*
D11*
X11321428Y60333332D02*
X11416667Y60714284D01*
D11*
X11321428Y60142856D02*
X11321428Y60333332D01*
D11*
X11416667Y60047620D02*
X11321428Y60142856D01*
D11*
X11702381Y60047620D02*
X11416667Y60047620D01*
D11*
X11892857Y60238096D02*
X11702381Y60047620D01*
D11*
X11988095Y60428572D02*
X11892857Y60238096D01*
D11*
X11511905Y60714284D02*
X11892857Y62047620D01*
D11*
X11416667Y60333332D02*
X11511905Y60714284D01*
D11*
X11416667Y60142856D02*
X11416667Y60333332D01*
D11*
X11511905Y60047620D02*
X11416667Y60142856D01*
D11*
X11892857Y62047620D02*
X11511905Y62047620D01*
D11*
X12940476Y60619048D02*
X12559524Y60523808D01*
D11*
X13226190Y60714284D02*
X12940476Y60619048D01*
D11*
X13511905Y60904760D02*
X13226190Y60714284D01*
D11*
X13607143Y61095240D02*
X13511905Y60904760D01*
D11*
X13511905Y61285716D02*
X13607143Y61095240D01*
D11*
X13321428Y61380952D02*
X13511905Y61285716D01*
D11*
X13035714Y61380952D02*
X13321428Y61380952D01*
D11*
X12750000Y61285716D02*
X13035714Y61380952D01*
D11*
X12559524Y61000000D02*
X12750000Y61285716D01*
D11*
X12464286Y60714284D02*
X12559524Y61000000D01*
D11*
X12464286Y60428572D02*
X12464286Y60714284D01*
D11*
X12559524Y60238096D02*
X12464286Y60428572D01*
D11*
X12654762Y60142856D02*
X12559524Y60238096D01*
D11*
X12845238Y60047620D02*
X12654762Y60142856D01*
D11*
X13035714Y60047620D02*
X12845238Y60047620D01*
D11*
X13321428Y60142856D02*
X13035714Y60047620D01*
D11*
X13511905Y60333332D02*
X13321428Y60142856D01*
D11*
X12845238Y61285716D02*
X13035714Y61380952D01*
D11*
X12654762Y61000000D02*
X12845238Y61285716D01*
D11*
X12559524Y60714284D02*
X12654762Y61000000D01*
D11*
X12559524Y60333332D02*
X12559524Y60714284D01*
D11*
X12654762Y60142856D02*
X12559524Y60333332D01*
D11*
X3035714Y57097620D02*
X3607143Y59097620D01*
D11*
X3130952Y57097620D02*
X3702381Y59097620D01*
D11*
X3988095Y59097620D02*
X3321428Y59097620D01*
D11*
X4178571Y57097620D02*
X2750000Y57097620D01*
D11*
X4369047Y57669048D02*
X4178571Y57097620D01*
D11*
X4083333Y57097620D02*
X4369047Y57669048D01*
D11*
X4845238Y58240476D02*
X4750000Y58050000D01*
D11*
X5035714Y58430952D02*
X4845238Y58240476D01*
D11*
X5321428Y58430952D02*
X5035714Y58430952D01*
D11*
X5416666Y58335716D02*
X5321428Y58430952D01*
D11*
X5416666Y58050000D02*
X5416666Y58335716D01*
D11*
X5226190Y57478572D02*
X5416666Y58050000D01*
D11*
X5226190Y57288096D02*
X5226190Y57478572D01*
D11*
X5416666Y57097620D02*
X5226190Y57288096D01*
D11*
X5321428Y58335716D02*
X5226190Y58430952D01*
D11*
X5321428Y58050000D02*
X5321428Y58335716D01*
D11*
X5130952Y57478572D02*
X5321428Y58050000D01*
D11*
X5130952Y57288096D02*
X5130952Y57478572D01*
D11*
X5226190Y57192856D02*
X5130952Y57288096D01*
D11*
X5416666Y57097620D02*
X5226190Y57192856D01*
D11*
X5607143Y57097620D02*
X5416666Y57097620D01*
D11*
X5797619Y57192856D02*
X5607143Y57097620D01*
D11*
X5988095Y57383332D02*
X5797619Y57192856D01*
D11*
X6178571Y57764284D02*
X5988095Y57383332D01*
D11*
X6178571Y57764284D02*
X6369047Y58430952D01*
D11*
X6083333Y57383332D02*
X6178571Y57764284D01*
D11*
X6083333Y57192856D02*
X6083333Y57383332D01*
D11*
X6178571Y57097620D02*
X6083333Y57192856D01*
D11*
X6464286Y57097620D02*
X6178571Y57097620D01*
D11*
X6654762Y57288096D02*
X6464286Y57097620D01*
D11*
X6750000Y57478572D02*
X6654762Y57288096D01*
D11*
X6273809Y57764284D02*
X6464286Y58430952D01*
D11*
X6178571Y57383332D02*
X6273809Y57764284D01*
D11*
X6178571Y57192856D02*
X6178571Y57383332D01*
D11*
X6273809Y57097620D02*
X6178571Y57192856D01*
D11*
X7035714Y57097620D02*
X7607143Y59097620D01*
D11*
X7130952Y57097620D02*
X7702381Y59097620D01*
D11*
X8273809Y58240476D02*
X8369047Y58335716D01*
D11*
X8369047Y58145240D02*
X8273809Y58240476D01*
D11*
X8464286Y58240476D02*
X8369047Y58145240D01*
D11*
X8464286Y58335716D02*
X8464286Y58240476D01*
D11*
X8369047Y58430952D02*
X8464286Y58335716D01*
D11*
X8273809Y58430952D02*
X8369047Y58430952D01*
D11*
X8083333Y58335716D02*
X8273809Y58430952D01*
D11*
X7702381Y57954760D02*
X8083333Y58335716D01*
D11*
X7511904Y57859524D02*
X7702381Y57954760D01*
D11*
X7321428Y57859524D02*
X7511904Y57859524D01*
D11*
X7702381Y57764284D02*
X7511904Y57859524D01*
D11*
X7892857Y57192856D02*
X7702381Y57764284D01*
D11*
X7988095Y57097620D02*
X7892857Y57192856D01*
D11*
X7607143Y57764284D02*
X7511904Y57859524D01*
D11*
X7797619Y57192856D02*
X7607143Y57764284D01*
D11*
X7892857Y57097620D02*
X7797619Y57192856D01*
D11*
X8083333Y57097620D02*
X7892857Y57097620D01*
D11*
X8273809Y57192856D02*
X8083333Y57097620D01*
D11*
X8464286Y57478572D02*
X8273809Y57192856D01*
D11*
X7702381Y59097620D02*
X7321428Y59097620D01*
D11*
X10083333Y57764284D02*
X10273810Y58430952D01*
D11*
X9988095Y57383332D02*
X10083333Y57764284D01*
D11*
X9988095Y57192856D02*
X9988095Y57383332D01*
D11*
X10083333Y57097620D02*
X9988095Y57192856D01*
D11*
X10369048Y57097620D02*
X10083333Y57097620D01*
D11*
X10559524Y57288096D02*
X10369048Y57097620D01*
D11*
X10654762Y57478572D02*
X10559524Y57288096D01*
D11*
X10178572Y57764284D02*
X10369048Y58430952D01*
D11*
X10083333Y57383332D02*
X10178572Y57764284D01*
D11*
X10083333Y57192856D02*
X10083333Y57383332D01*
D11*
X10178572Y57097620D02*
X10083333Y57192856D01*
D11*
X10083333Y58050000D02*
X10083333Y57764284D01*
D11*
X9988095Y58335716D02*
X10083333Y58050000D01*
D11*
X9797619Y58430952D02*
X9988095Y58335716D01*
D11*
X9607143Y58430952D02*
X9797619Y58430952D01*
D11*
X9321428Y58335716D02*
X9607143Y58430952D01*
D11*
X9130952Y58050000D02*
X9321428Y58335716D01*
D11*
X9035714Y57764284D02*
X9130952Y58050000D01*
D11*
X9035714Y57478572D02*
X9035714Y57764284D01*
D11*
X9130952Y57288096D02*
X9035714Y57478572D01*
D11*
X9226190Y57192856D02*
X9130952Y57288096D01*
D11*
X9416666Y57097620D02*
X9226190Y57192856D01*
D11*
X9607143Y57097620D02*
X9416666Y57097620D01*
D11*
X9797619Y57192856D02*
X9607143Y57097620D01*
D11*
X9988095Y57478572D02*
X9797619Y57192856D01*
D11*
X10083333Y57764284D02*
X9988095Y57478572D01*
D11*
X9416666Y58335716D02*
X9607143Y58430952D01*
D11*
X9226190Y58050000D02*
X9416666Y58335716D01*
D11*
X9130952Y57764284D02*
X9226190Y58050000D01*
D11*
X9130952Y57383332D02*
X9130952Y57764284D01*
D11*
X9226190Y57192856D02*
X9130952Y57383332D01*
D11*
X12083333Y58145240D02*
X12083333Y58240476D01*
D11*
X12178571Y58145240D02*
X12083333Y58145240D01*
D11*
X12178571Y58240476D02*
X12178571Y58145240D01*
D11*
X12083333Y58335716D02*
X12178571Y58240476D01*
D11*
X11797619Y58430952D02*
X12083333Y58335716D01*
D11*
X11511905Y58430952D02*
X11797619Y58430952D01*
D11*
X11226190Y58335716D02*
X11511905Y58430952D01*
D11*
X11130952Y58240476D02*
X11226190Y58335716D01*
D11*
X11130952Y58050000D02*
X11130952Y58240476D01*
D11*
X11226190Y57954760D02*
X11130952Y58050000D01*
D11*
X11892857Y57573808D02*
X11226190Y57954760D01*
D11*
X11988095Y57478572D02*
X11892857Y57573808D01*
D11*
X11226190Y58050000D02*
X11130952Y58145240D01*
D11*
X11892857Y57669048D02*
X11226190Y58050000D01*
D11*
X11988095Y57573808D02*
X11892857Y57669048D01*
D11*
X11988095Y57288096D02*
X11988095Y57573808D01*
D11*
X11892857Y57192856D02*
X11988095Y57288096D01*
D11*
X11607143Y57097620D02*
X11892857Y57192856D01*
D11*
X11321428Y57097620D02*
X11607143Y57097620D01*
D11*
X11035714Y57192856D02*
X11321428Y57097620D01*
D11*
X10940476Y57288096D02*
X11035714Y57192856D01*
D11*
X10940476Y57383332D02*
X10940476Y57288096D01*
D11*
X11035714Y57383332D02*
X10940476Y57383332D01*
D11*
X11035714Y57288096D02*
X11035714Y57383332D01*
D11*
X13416666Y57097620D02*
X13988095Y59097620D01*
D11*
X13511905Y57097620D02*
X14083333Y59097620D01*
D11*
X13702381Y57859524D02*
X15321428Y59097620D01*
D11*
X14750000Y57097620D02*
X14369047Y58240476D01*
D11*
X14654762Y57097620D02*
X14273809Y58240476D01*
D11*
X14369047Y59097620D02*
X13702381Y59097620D01*
D11*
X15511905Y59097620D02*
X14940476Y59097620D01*
D11*
X13797619Y57097620D02*
X13130952Y57097620D01*
D11*
X14940476Y57097620D02*
X14369047Y57097620D01*
D11*
X15702381Y57192856D02*
X15797619Y57288096D01*
D11*
X15797619Y57097620D02*
X15702381Y57192856D01*
D11*
X15892857Y57192856D02*
X15797619Y57097620D01*
D11*
X15797619Y57288096D02*
X15892857Y57192856D01*
D11*
X3511904Y55671428D02*
X3416666Y55766668D01*
D11*
X3416666Y55576192D02*
X3511904Y55671428D01*
D11*
X3321428Y55671428D02*
X3416666Y55576192D01*
D11*
X3321428Y55766668D02*
X3321428Y55671428D01*
D11*
X3416666Y55957144D02*
X3321428Y55766668D01*
D11*
X3511904Y56052380D02*
X3416666Y55957144D01*
D11*
X3797619Y56147620D02*
X3511904Y56052380D01*
D11*
X4083333Y56147620D02*
X3797619Y56147620D01*
D11*
X4369047Y56052380D02*
X4083333Y56147620D01*
D11*
X4464286Y55861904D02*
X4369047Y56052380D01*
D11*
X4464286Y55671428D02*
X4464286Y55861904D01*
D11*
X4369047Y55480952D02*
X4464286Y55671428D01*
D11*
X4178571Y55290476D02*
X4369047Y55480952D01*
D11*
X3892857Y55100000D02*
X4178571Y55290476D01*
D11*
X3511904Y54909524D02*
X3892857Y55100000D01*
D11*
X3226190Y54719048D02*
X3511904Y54909524D01*
D11*
X3035714Y54528572D02*
X3226190Y54719048D01*
D11*
X2845238Y54147620D02*
X3035714Y54528572D01*
D11*
X4273809Y56052380D02*
X4083333Y56147620D01*
D11*
X4369047Y55861904D02*
X4273809Y56052380D01*
D11*
X4369047Y55671428D02*
X4369047Y55861904D01*
D11*
X4273809Y55480952D02*
X4369047Y55671428D01*
D11*
X4083333Y55290476D02*
X4273809Y55480952D01*
D11*
X3511904Y54909524D02*
X4083333Y55290476D01*
D11*
X3035714Y54433332D02*
X2940476Y54338096D01*
D11*
X3226190Y54433332D02*
X3035714Y54433332D01*
D11*
X3702381Y54242856D02*
X3226190Y54433332D01*
D11*
X3988095Y54242856D02*
X3702381Y54242856D01*
D11*
X4178571Y54338096D02*
X3988095Y54242856D01*
D11*
X4273809Y54528572D02*
X4178571Y54338096D01*
D11*
X3702381Y54147620D02*
X3226190Y54433332D01*
D11*
X3988095Y54147620D02*
X3702381Y54147620D01*
D11*
X4178571Y54242856D02*
X3988095Y54147620D01*
D11*
X4273809Y54528572D02*
X4178571Y54242856D01*
D11*
X5607143Y56052380D02*
X5892857Y56147620D01*
D11*
X5416666Y55861904D02*
X5607143Y56052380D01*
D11*
X5226190Y55576192D02*
X5416666Y55861904D01*
D11*
X5130952Y55290476D02*
X5226190Y55576192D01*
D11*
X5035714Y54909524D02*
X5130952Y55290476D01*
D11*
X5035714Y54623808D02*
X5035714Y54909524D01*
D11*
X5130952Y54338096D02*
X5035714Y54623808D01*
D11*
X5226190Y54242856D02*
X5130952Y54338096D01*
D11*
X5416666Y54147620D02*
X5226190Y54242856D01*
D11*
X5607143Y54147620D02*
X5416666Y54147620D01*
D11*
X5892857Y54242856D02*
X5607143Y54147620D01*
D11*
X6083333Y54433332D02*
X5892857Y54242856D01*
D11*
X6273809Y54719048D02*
X6083333Y54433332D01*
D11*
X6369047Y55004760D02*
X6273809Y54719048D01*
D11*
X6464286Y55385716D02*
X6369047Y55004760D01*
D11*
X6464286Y55671428D02*
X6464286Y55385716D01*
D11*
X6369047Y55957144D02*
X6464286Y55671428D01*
D11*
X6273809Y56052380D02*
X6369047Y55957144D01*
D11*
X6083333Y56147620D02*
X6273809Y56052380D01*
D11*
X5892857Y56147620D02*
X6083333Y56147620D01*
D11*
X5702381Y56052380D02*
X5892857Y56147620D01*
D11*
X5511905Y55861904D02*
X5702381Y56052380D01*
D11*
X5321428Y55576192D02*
X5511905Y55861904D01*
D11*
X5226190Y55290476D02*
X5321428Y55576192D01*
D11*
X5130952Y54909524D02*
X5226190Y55290476D01*
D11*
X5130952Y54623808D02*
X5130952Y54909524D01*
D11*
X5226190Y54338096D02*
X5130952Y54623808D01*
D11*
X5416666Y54147620D02*
X5226190Y54338096D01*
D11*
X5797619Y54242856D02*
X5607143Y54147620D01*
D11*
X5988095Y54433332D02*
X5797619Y54242856D01*
D11*
X6178571Y54719048D02*
X5988095Y54433332D01*
D11*
X6273809Y55004760D02*
X6178571Y54719048D01*
D11*
X6369047Y55385716D02*
X6273809Y55004760D01*
D11*
X6369047Y55671428D02*
X6369047Y55385716D01*
D11*
X6273809Y55957144D02*
X6369047Y55671428D01*
D11*
X6083333Y56147620D02*
X6273809Y55957144D01*
D11*
X7511904Y55671428D02*
X7416666Y55766668D01*
D11*
X7416666Y55576192D02*
X7511904Y55671428D01*
D11*
X7321428Y55671428D02*
X7416666Y55576192D01*
D11*
X7321428Y55766668D02*
X7321428Y55671428D01*
D11*
X7416666Y55957144D02*
X7321428Y55766668D01*
D11*
X7511904Y56052380D02*
X7416666Y55957144D01*
D11*
X7797619Y56147620D02*
X7511904Y56052380D01*
D11*
X8083333Y56147620D02*
X7797619Y56147620D01*
D11*
X8369047Y56052380D02*
X8083333Y56147620D01*
D11*
X8464286Y55861904D02*
X8369047Y56052380D01*
D11*
X8464286Y55671428D02*
X8464286Y55861904D01*
D11*
X8369047Y55480952D02*
X8464286Y55671428D01*
D11*
X8178571Y55290476D02*
X8369047Y55480952D01*
D11*
X7892857Y55100000D02*
X8178571Y55290476D01*
D11*
X7511904Y54909524D02*
X7892857Y55100000D01*
D11*
X7226190Y54719048D02*
X7511904Y54909524D01*
D11*
X7035714Y54528572D02*
X7226190Y54719048D01*
D11*
X6845238Y54147620D02*
X7035714Y54528572D01*
D11*
X8273809Y56052380D02*
X8083333Y56147620D01*
D11*
X8369047Y55861904D02*
X8273809Y56052380D01*
D11*
X8369047Y55671428D02*
X8369047Y55861904D01*
D11*
X8273809Y55480952D02*
X8369047Y55671428D01*
D11*
X8083333Y55290476D02*
X8273809Y55480952D01*
D11*
X7511904Y54909524D02*
X8083333Y55290476D01*
D11*
X7035714Y54433332D02*
X6940476Y54338096D01*
D11*
X7226190Y54433332D02*
X7035714Y54433332D01*
D11*
X7702381Y54242856D02*
X7226190Y54433332D01*
D11*
X7988095Y54242856D02*
X7702381Y54242856D01*
D11*
X8178571Y54338096D02*
X7988095Y54242856D01*
D11*
X8273809Y54528572D02*
X8178571Y54338096D01*
D11*
X7702381Y54147620D02*
X7226190Y54433332D01*
D11*
X7988095Y54147620D02*
X7702381Y54147620D01*
D11*
X8178571Y54242856D02*
X7988095Y54147620D01*
D11*
X8273809Y54528572D02*
X8178571Y54242856D01*
D11*
X9607143Y56052380D02*
X9892857Y56147620D01*
D11*
X9416666Y55861904D02*
X9607143Y56052380D01*
D11*
X9226190Y55576192D02*
X9416666Y55861904D01*
D11*
X9130952Y55290476D02*
X9226190Y55576192D01*
D11*
X9035714Y54909524D02*
X9130952Y55290476D01*
D11*
X9035714Y54623808D02*
X9035714Y54909524D01*
D11*
X9130952Y54338096D02*
X9035714Y54623808D01*
D11*
X9226190Y54242856D02*
X9130952Y54338096D01*
D11*
X9416666Y54147620D02*
X9226190Y54242856D01*
D11*
X9607143Y54147620D02*
X9416666Y54147620D01*
D11*
X9892857Y54242856D02*
X9607143Y54147620D01*
D11*
X10083333Y54433332D02*
X9892857Y54242856D01*
D11*
X10273810Y54719048D02*
X10083333Y54433332D01*
D11*
X10369048Y55004760D02*
X10273810Y54719048D01*
D11*
X10464286Y55385716D02*
X10369048Y55004760D01*
D11*
X10464286Y55671428D02*
X10464286Y55385716D01*
D11*
X10369048Y55957144D02*
X10464286Y55671428D01*
D11*
X10273810Y56052380D02*
X10369048Y55957144D01*
D11*
X10083333Y56147620D02*
X10273810Y56052380D01*
D11*
X9892857Y56147620D02*
X10083333Y56147620D01*
D11*
X9702381Y56052380D02*
X9892857Y56147620D01*
D11*
X9511904Y55861904D02*
X9702381Y56052380D01*
D11*
X9321428Y55576192D02*
X9511904Y55861904D01*
D11*
X9226190Y55290476D02*
X9321428Y55576192D01*
D11*
X9130952Y54909524D02*
X9226190Y55290476D01*
D11*
X9130952Y54623808D02*
X9130952Y54909524D01*
D11*
X9226190Y54338096D02*
X9130952Y54623808D01*
D11*
X9416666Y54147620D02*
X9226190Y54338096D01*
D11*
X9797619Y54242856D02*
X9607143Y54147620D01*
D11*
X9988095Y54433332D02*
X9797619Y54242856D01*
D11*
X10178572Y54719048D02*
X9988095Y54433332D01*
D11*
X10273810Y55004760D02*
X10178572Y54719048D01*
D11*
X10369048Y55385716D02*
X10273810Y55004760D01*
D11*
X10369048Y55671428D02*
X10369048Y55385716D01*
D11*
X10273810Y55957144D02*
X10369048Y55671428D01*
D11*
X10083333Y56147620D02*
X10273810Y55957144D01*
D10*
X12595238Y54095240D02*
X12547619Y54000000D01*
D10*
X12690476Y54190476D02*
X12595238Y54095240D01*
D10*
X12833333Y54190476D02*
X12690476Y54190476D01*
D10*
X12880952Y54142856D02*
X12833333Y54190476D01*
D10*
X12880952Y54047620D02*
X12880952Y54142856D01*
D10*
X12833333Y53857144D02*
X12880952Y54047620D01*
D10*
X12738095Y53523808D02*
X12833333Y53857144D01*
D10*
X12833333Y54142856D02*
X12785714Y54190476D01*
D10*
X12833333Y54047620D02*
X12833333Y54142856D01*
D10*
X12785714Y53857144D02*
X12833333Y54047620D01*
D10*
X12690476Y53523808D02*
X12785714Y53857144D01*
D10*
X12928571Y54047620D02*
X12833333Y53857144D01*
D10*
X13023810Y54142856D02*
X12928571Y54047620D01*
D10*
X13119048Y54190476D02*
X13023810Y54142856D01*
D10*
X13214286Y54190476D02*
X13119048Y54190476D01*
D10*
X13261905Y54142856D02*
X13214286Y54190476D01*
D10*
X13261905Y54095240D02*
X13261905Y54142856D01*
D10*
X13214286Y54047620D02*
X13261905Y54095240D01*
D10*
X13166667Y54095240D02*
X13214286Y54047620D01*
D10*
X13214286Y54142856D02*
X13166667Y54095240D01*
D10*
X13690476Y53809524D02*
X13500000Y53761904D01*
D10*
X13833333Y53857144D02*
X13690476Y53809524D01*
D10*
X13976190Y53952380D02*
X13833333Y53857144D01*
D10*
X14023810Y54047620D02*
X13976190Y53952380D01*
D10*
X13976190Y54142856D02*
X14023810Y54047620D01*
D10*
X13880952Y54190476D02*
X13976190Y54142856D01*
D10*
X13738095Y54190476D02*
X13880952Y54190476D01*
D10*
X13595238Y54142856D02*
X13738095Y54190476D01*
D10*
X13500000Y54000000D02*
X13595238Y54142856D01*
D10*
X13452381Y53857144D02*
X13500000Y54000000D01*
D10*
X13452381Y53714284D02*
X13452381Y53857144D01*
D10*
X13500000Y53619048D02*
X13452381Y53714284D01*
D10*
X13547619Y53571428D02*
X13500000Y53619048D01*
D10*
X13642857Y53523808D02*
X13547619Y53571428D01*
D10*
X13738095Y53523808D02*
X13642857Y53523808D01*
D10*
X13880952Y53571428D02*
X13738095Y53523808D01*
D10*
X13976190Y53666668D02*
X13880952Y53571428D01*
D10*
X13642857Y54142856D02*
X13738095Y54190476D01*
D10*
X13547619Y54000000D02*
X13642857Y54142856D01*
D10*
X13500000Y53857144D02*
X13547619Y54000000D01*
D10*
X13500000Y53666668D02*
X13500000Y53857144D01*
D10*
X13547619Y53571428D02*
X13500000Y53666668D01*
D10*
X14261905Y54095240D02*
X14214286Y54000000D01*
D10*
X14357143Y54190476D02*
X14261905Y54095240D01*
D10*
X14500000Y54190476D02*
X14357143Y54190476D01*
D10*
X14547619Y54142856D02*
X14500000Y54190476D01*
D10*
X14547619Y54000000D02*
X14547619Y54142856D01*
D10*
X14452381Y53714284D02*
X14547619Y54000000D01*
D10*
X14452381Y53619048D02*
X14452381Y53714284D01*
D10*
X14547619Y53523808D02*
X14452381Y53619048D01*
D10*
X14500000Y54142856D02*
X14452381Y54190476D01*
D10*
X14500000Y54000000D02*
X14500000Y54142856D01*
D10*
X14404762Y53714284D02*
X14500000Y54000000D01*
D10*
X14404762Y53619048D02*
X14404762Y53714284D01*
D10*
X14452381Y53571428D02*
X14404762Y53619048D01*
D10*
X14547619Y53523808D02*
X14452381Y53571428D01*
D10*
X14595238Y53523808D02*
X14547619Y53523808D01*
D10*
X14738095Y53571428D02*
X14595238Y53523808D01*
D10*
X14833333Y53666668D02*
X14738095Y53571428D01*
D10*
X14928572Y53809524D02*
X14833333Y53666668D01*
D10*
X14976190Y54000000D02*
X14928572Y53809524D01*
D10*
X14976190Y54190476D02*
X14976190Y54000000D01*
D10*
X14928572Y54190476D02*
X14976190Y54190476D01*
D10*
X14976190Y54095240D02*
X14928572Y54190476D01*
D10*
X15500000Y54285716D02*
X15452381Y54333332D01*
D10*
X15452381Y54238096D02*
X15500000Y54285716D01*
D10*
X15404762Y54285716D02*
X15452381Y54238096D01*
D10*
X15404762Y54333332D02*
X15404762Y54285716D01*
D10*
X15452381Y54428572D02*
X15404762Y54333332D01*
D10*
X15500000Y54476192D02*
X15452381Y54428572D01*
D10*
X15642857Y54523808D02*
X15500000Y54476192D01*
D10*
X15785714Y54523808D02*
X15642857Y54523808D01*
D10*
X15928572Y54476192D02*
X15785714Y54523808D01*
D10*
X15976190Y54380952D02*
X15928572Y54476192D01*
D10*
X15976190Y54285716D02*
X15976190Y54380952D01*
D10*
X15928572Y54190476D02*
X15976190Y54285716D01*
D10*
X15785714Y54095240D02*
X15928572Y54190476D01*
D10*
X15642857Y54047620D02*
X15785714Y54095240D01*
D10*
X15880952Y54476192D02*
X15785714Y54523808D01*
D10*
X15928572Y54380952D02*
X15880952Y54476192D01*
D10*
X15928572Y54285716D02*
X15928572Y54380952D01*
D10*
X15880952Y54190476D02*
X15928572Y54285716D01*
D10*
X15785714Y54095240D02*
X15880952Y54190476D01*
D10*
X15642857Y54047620D02*
X15547619Y54047620D01*
D10*
X15785714Y54000000D02*
X15642857Y54047620D01*
D10*
X15833333Y53952380D02*
X15785714Y54000000D01*
D10*
X15880952Y53857144D02*
X15833333Y53952380D01*
D10*
X15880952Y53714284D02*
X15880952Y53857144D01*
D10*
X15833333Y53619048D02*
X15880952Y53714284D01*
D10*
X15785714Y53571428D02*
X15833333Y53619048D01*
D10*
X15642857Y53523808D02*
X15785714Y53571428D01*
D10*
X15452381Y53523808D02*
X15642857Y53523808D01*
D10*
X15309524Y53571428D02*
X15452381Y53523808D01*
D10*
X15261905Y53619048D02*
X15309524Y53571428D01*
D10*
X15214286Y53714284D02*
X15261905Y53619048D01*
D10*
X15214286Y53761904D02*
X15214286Y53714284D01*
D10*
X15261905Y53809524D02*
X15214286Y53761904D01*
D10*
X15309524Y53761904D02*
X15261905Y53809524D01*
D10*
X15261905Y53714284D02*
X15309524Y53761904D01*
D10*
X15738095Y54000000D02*
X15642857Y54047620D01*
D10*
X15785714Y53952380D02*
X15738095Y54000000D01*
D10*
X15833333Y53857144D02*
X15785714Y53952380D01*
D10*
X15833333Y53714284D02*
X15833333Y53857144D01*
D10*
X15785714Y53619048D02*
X15833333Y53714284D01*
D10*
X15738095Y53571428D02*
X15785714Y53619048D01*
D10*
X15642857Y53523808D02*
X15738095Y53571428D01*
D10*
X8054762Y1528571D02*
X8007143Y1528571D01*
D10*
X8102381Y1623809D02*
X8054762Y1528571D01*
D10*
X8054762Y1338095D02*
X8102381Y1623809D01*
D10*
X8054762Y1433333D02*
X8054762Y1338095D01*
D10*
X8007143Y1528571D02*
X8054762Y1433333D01*
D10*
X7959524Y1576190D02*
X8007143Y1528571D01*
D10*
X7864286Y1623809D02*
X7959524Y1576190D01*
D10*
X7721428Y1623809D02*
X7864286Y1623809D01*
D10*
X7578571Y1576190D02*
X7721428Y1623809D01*
D10*
X7483333Y1480952D02*
X7578571Y1576190D01*
D10*
X7388095Y1338095D02*
X7483333Y1480952D01*
D10*
X7340476Y1195238D02*
X7388095Y1338095D01*
D10*
X7292857Y1004761D02*
X7340476Y1195238D01*
D10*
X7292857Y861904D02*
X7292857Y1004761D01*
D10*
X7340476Y719047D02*
X7292857Y861904D01*
D10*
X7388095Y671428D02*
X7340476Y719047D01*
D10*
X7530952Y623809D02*
X7388095Y671428D01*
D10*
X7673809Y623809D02*
X7530952Y623809D01*
D10*
X7769048Y671428D02*
X7673809Y623809D01*
D10*
X7864286Y766666D02*
X7769048Y671428D01*
D10*
X7911905Y861904D02*
X7864286Y766666D01*
D10*
X7626190Y1576190D02*
X7721428Y1623809D01*
D10*
X7530952Y1480952D02*
X7626190Y1576190D01*
D10*
X7435714Y1338095D02*
X7530952Y1480952D01*
D10*
X7388095Y1195238D02*
X7435714Y1338095D01*
D10*
X7340476Y1004761D02*
X7388095Y1195238D01*
D10*
X7340476Y861904D02*
X7340476Y1004761D01*
D10*
X7388095Y719047D02*
X7340476Y861904D01*
D10*
X7435714Y671428D02*
X7388095Y719047D01*
D10*
X7530952Y623809D02*
X7435714Y671428D01*
D10*
X8483333Y623809D02*
X8721429Y1433333D01*
D10*
X8530952Y623809D02*
X8816667Y1623809D01*
D10*
X8673810Y1480952D02*
X8816667Y1623809D01*
D10*
X8530952Y1385714D02*
X8673810Y1480952D01*
D10*
X8435714Y1338095D02*
X8530952Y1385714D01*
D10*
X8578572Y1385714D02*
X8769048Y1480952D01*
D10*
X8435714Y1338095D02*
X8578572Y1385714D01*
D10*
X9530952Y1385714D02*
X9483333Y1433333D01*
D10*
X9483333Y1338095D02*
X9530952Y1385714D01*
D10*
X9435714Y1385714D02*
X9483333Y1338095D01*
D10*
X9435714Y1433333D02*
X9435714Y1385714D01*
D10*
X9483333Y1528571D02*
X9435714Y1433333D01*
D10*
X9530952Y1576190D02*
X9483333Y1528571D01*
D10*
X9673810Y1623809D02*
X9530952Y1576190D01*
D10*
X9816667Y1623809D02*
X9673810Y1623809D01*
D10*
X9959524Y1576190D02*
X9816667Y1623809D01*
D10*
X10007143Y1480952D02*
X9959524Y1576190D01*
D10*
X10007143Y1385714D02*
X10007143Y1480952D01*
D10*
X9959524Y1290476D02*
X10007143Y1385714D01*
D10*
X9816667Y1195238D02*
X9959524Y1290476D01*
D10*
X9673810Y1147619D02*
X9816667Y1195238D01*
D10*
X9911905Y1576190D02*
X9816667Y1623809D01*
D10*
X9959524Y1480952D02*
X9911905Y1576190D01*
D10*
X9959524Y1385714D02*
X9959524Y1480952D01*
D10*
X9911905Y1290476D02*
X9959524Y1385714D01*
D10*
X9816667Y1195238D02*
X9911905Y1290476D01*
D10*
X9673810Y1147619D02*
X9578571Y1147619D01*
D10*
X9816667Y1100000D02*
X9673810Y1147619D01*
D10*
X9864286Y1052381D02*
X9816667Y1100000D01*
D10*
X9911905Y957142D02*
X9864286Y1052381D01*
D10*
X9911905Y814285D02*
X9911905Y957142D01*
D10*
X9864286Y719047D02*
X9911905Y814285D01*
D10*
X9816667Y671428D02*
X9864286Y719047D01*
D10*
X9673810Y623809D02*
X9816667Y671428D01*
D10*
X9483333Y623809D02*
X9673810Y623809D01*
D10*
X9340476Y671428D02*
X9483333Y623809D01*
D10*
X9292857Y719047D02*
X9340476Y671428D01*
D10*
X9245238Y814285D02*
X9292857Y719047D01*
D10*
X9245238Y861904D02*
X9245238Y814285D01*
D10*
X9292857Y909523D02*
X9245238Y861904D01*
D10*
X9340476Y861904D02*
X9292857Y909523D01*
D10*
X9292857Y814285D02*
X9340476Y861904D01*
D10*
X9769048Y1100000D02*
X9673810Y1147619D01*
D10*
X9816667Y1052381D02*
X9769048Y1100000D01*
D10*
X9864286Y957142D02*
X9816667Y1052381D01*
D10*
X9864286Y814285D02*
X9864286Y957142D01*
D10*
X9816667Y719047D02*
X9864286Y814285D01*
D10*
X9769048Y671428D02*
X9816667Y719047D01*
D10*
X9673810Y623809D02*
X9769048Y671428D01*
D10*
X2221428Y7804762D02*
X2221428Y7757143D01*
D10*
X2126190Y7852381D02*
X2221428Y7804762D01*
D10*
X2411904Y7804762D02*
X2126190Y7852381D01*
D10*
X2316666Y7804762D02*
X2411904Y7804762D01*
D10*
X2221428Y7757143D02*
X2316666Y7804762D01*
D10*
X2173809Y7709524D02*
X2221428Y7757143D01*
D10*
X2126190Y7614286D02*
X2173809Y7709524D01*
D10*
X2126190Y7471428D02*
X2126190Y7614286D01*
D10*
X2173809Y7328571D02*
X2126190Y7471428D01*
D10*
X2269047Y7233333D02*
X2173809Y7328571D01*
D10*
X2411904Y7138095D02*
X2269047Y7233333D01*
D10*
X2554762Y7090476D02*
X2411904Y7138095D01*
D10*
X2745238Y7042857D02*
X2554762Y7090476D01*
D10*
X2888095Y7042857D02*
X2745238Y7042857D01*
D10*
X3030952Y7090476D02*
X2888095Y7042857D01*
D10*
X3078571Y7138095D02*
X3030952Y7090476D01*
D10*
X3126190Y7280952D02*
X3078571Y7138095D01*
D10*
X3126190Y7423809D02*
X3126190Y7280952D01*
D10*
X3078571Y7519048D02*
X3126190Y7423809D01*
D10*
X2983333Y7614286D02*
X3078571Y7519048D01*
D10*
X2888095Y7661905D02*
X2983333Y7614286D01*
D10*
X2173809Y7376190D02*
X2126190Y7471428D01*
D10*
X2269047Y7280952D02*
X2173809Y7376190D01*
D10*
X2411904Y7185714D02*
X2269047Y7280952D01*
D10*
X2554762Y7138095D02*
X2411904Y7185714D01*
D10*
X2745238Y7090476D02*
X2554762Y7138095D01*
D10*
X2888095Y7090476D02*
X2745238Y7090476D01*
D10*
X3030952Y7138095D02*
X2888095Y7090476D01*
D10*
X3078571Y7185714D02*
X3030952Y7138095D01*
D10*
X3126190Y7280952D02*
X3078571Y7185714D01*
D10*
X2364285Y8280952D02*
X2316666Y8233333D01*
D10*
X2411904Y8233333D02*
X2364285Y8280952D01*
D10*
X2364285Y8185714D02*
X2411904Y8233333D01*
D10*
X2316666Y8185714D02*
X2364285Y8185714D01*
D10*
X2221428Y8233333D02*
X2316666Y8185714D01*
D10*
X2173809Y8280952D02*
X2221428Y8233333D01*
D10*
X2126190Y8423810D02*
X2173809Y8280952D01*
D10*
X2126190Y8566667D02*
X2126190Y8423810D01*
D10*
X2173809Y8709524D02*
X2126190Y8566667D01*
D10*
X2269047Y8757143D02*
X2173809Y8709524D01*
D10*
X2364285Y8757143D02*
X2269047Y8757143D01*
D10*
X2459523Y8709524D02*
X2364285Y8757143D01*
D10*
X2554762Y8614286D02*
X2459523Y8709524D01*
D10*
X2650000Y8471429D02*
X2554762Y8614286D01*
D10*
X2745238Y8280952D02*
X2650000Y8471429D01*
D10*
X2840476Y8138095D02*
X2745238Y8280952D01*
D10*
X2935714Y8042857D02*
X2840476Y8138095D01*
D10*
X3126190Y7947619D02*
X2935714Y8042857D01*
D10*
X2173809Y8661905D02*
X2126190Y8566667D01*
D10*
X2269047Y8709524D02*
X2173809Y8661905D01*
D10*
X2364285Y8709524D02*
X2269047Y8709524D01*
D10*
X2459523Y8661905D02*
X2364285Y8709524D01*
D10*
X2554762Y8566667D02*
X2459523Y8661905D01*
D10*
X2745238Y8280952D02*
X2554762Y8566667D01*
D10*
X2983333Y8042857D02*
X3030952Y7995238D01*
D10*
X2983333Y8138095D02*
X2983333Y8042857D01*
D10*
X3078571Y8376190D02*
X2983333Y8138095D01*
D10*
X3078571Y8519048D02*
X3078571Y8376190D01*
D10*
X3030952Y8614286D02*
X3078571Y8519048D01*
D10*
X2935714Y8661905D02*
X3030952Y8614286D01*
D10*
X3126190Y8376190D02*
X2983333Y8138095D01*
D10*
X3126190Y8519048D02*
X3126190Y8376190D01*
D10*
X3078571Y8614286D02*
X3126190Y8519048D01*
D10*
X2935714Y8661905D02*
X3078571Y8614286D01*
D10*
X2364285Y9280952D02*
X2316666Y9233333D01*
D10*
X2411904Y9233333D02*
X2364285Y9280952D01*
D10*
X2364285Y9185714D02*
X2411904Y9233333D01*
D10*
X2316666Y9185714D02*
X2364285Y9185714D01*
D10*
X2221428Y9233333D02*
X2316666Y9185714D01*
D10*
X2173809Y9280952D02*
X2221428Y9233333D01*
D10*
X2126190Y9423810D02*
X2173809Y9280952D01*
D10*
X2126190Y9566667D02*
X2126190Y9423810D01*
D10*
X2173809Y9709524D02*
X2126190Y9566667D01*
D10*
X2269047Y9757143D02*
X2173809Y9709524D01*
D10*
X2364285Y9757143D02*
X2269047Y9757143D01*
D10*
X2459523Y9709524D02*
X2364285Y9757143D01*
D10*
X2554762Y9614286D02*
X2459523Y9709524D01*
D10*
X2650000Y9471429D02*
X2554762Y9614286D01*
D10*
X2745238Y9280952D02*
X2650000Y9471429D01*
D10*
X2840476Y9138095D02*
X2745238Y9280952D01*
D10*
X2935714Y9042857D02*
X2840476Y9138095D01*
D10*
X3126190Y8947619D02*
X2935714Y9042857D01*
D10*
X2173809Y9661905D02*
X2126190Y9566667D01*
D10*
X2269047Y9709524D02*
X2173809Y9661905D01*
D10*
X2364285Y9709524D02*
X2269047Y9709524D01*
D10*
X2459523Y9661905D02*
X2364285Y9709524D01*
D10*
X2554762Y9566667D02*
X2459523Y9661905D01*
D10*
X2745238Y9280952D02*
X2554762Y9566667D01*
D10*
X2983333Y9042857D02*
X3030952Y8995238D01*
D10*
X2983333Y9138095D02*
X2983333Y9042857D01*
D10*
X3078571Y9376190D02*
X2983333Y9138095D01*
D10*
X3078571Y9519048D02*
X3078571Y9376190D01*
D10*
X3030952Y9614286D02*
X3078571Y9519048D01*
D10*
X2935714Y9661905D02*
X3030952Y9614286D01*
D10*
X3126190Y9376190D02*
X2983333Y9138095D01*
D10*
X3126190Y9519048D02*
X3126190Y9376190D01*
D10*
X3078571Y9614286D02*
X3126190Y9519048D01*
D10*
X2935714Y9661905D02*
X3078571Y9614286D01*
D10*
X-7178571Y154761D02*
X-7178571Y107142D01*
D10*
X-7273809Y202381D02*
X-7178571Y154761D01*
D10*
X-6988095Y154761D02*
X-7273809Y202381D01*
D10*
X-7083333Y154761D02*
X-6988095Y154761D01*
D10*
X-7178571Y107142D02*
X-7083333Y154761D01*
D10*
X-7226190Y59523D02*
X-7178571Y107142D01*
D10*
X-7273809Y-35714D02*
X-7226190Y59523D01*
D10*
X-7273809Y-178571D02*
X-7273809Y-35714D01*
D10*
X-7226190Y-321428D02*
X-7273809Y-178571D01*
D10*
X-7130952Y-416666D02*
X-7226190Y-321428D01*
D10*
X-6988095Y-511904D02*
X-7130952Y-416666D01*
D10*
X-6845238Y-559523D02*
X-6988095Y-511904D01*
D10*
X-6654762Y-607142D02*
X-6845238Y-559523D01*
D10*
X-6511905Y-607142D02*
X-6654762Y-607142D01*
D10*
X-6369047Y-559523D02*
X-6511905Y-607142D01*
D10*
X-6321428Y-511904D02*
X-6369047Y-559523D01*
D10*
X-6273809Y-369047D02*
X-6321428Y-511904D01*
D10*
X-6273809Y-226190D02*
X-6273809Y-369047D01*
D10*
X-6321428Y-130952D02*
X-6273809Y-226190D01*
D10*
X-6416666Y-35714D02*
X-6321428Y-130952D01*
D10*
X-6511905Y11904D02*
X-6416666Y-35714D01*
D10*
X-7226190Y-273809D02*
X-7273809Y-178571D01*
D10*
X-7130952Y-369047D02*
X-7226190Y-273809D01*
D10*
X-6988095Y-464285D02*
X-7130952Y-369047D01*
D10*
X-6845238Y-511904D02*
X-6988095Y-464285D01*
D10*
X-6654762Y-559523D02*
X-6845238Y-511904D01*
D10*
X-6511905Y-559523D02*
X-6654762Y-559523D01*
D10*
X-6369047Y-511904D02*
X-6511905Y-559523D01*
D10*
X-6321428Y-464285D02*
X-6369047Y-511904D01*
D10*
X-6273809Y-369047D02*
X-6321428Y-464285D01*
D10*
X-6273809Y583333D02*
X-7083333Y821428D01*
D10*
X-6273809Y630952D02*
X-7273809Y916666D01*
D10*
X-7130952Y773809D02*
X-7273809Y916666D01*
D10*
X-7035714Y630952D02*
X-7130952Y773809D01*
D10*
X-6988095Y535714D02*
X-7035714Y630952D01*
D10*
X-7035714Y678571D02*
X-7130952Y869047D01*
D10*
X-6988095Y535714D02*
X-7035714Y678571D01*
D10*
X8876190Y8132855D02*
X7876190Y8418569D01*
D10*
X8876190Y8180474D02*
X7876190Y8466188D01*
D10*
X7876190Y8799522D02*
X7876190Y8275712D01*
D10*
X7923809Y8942379D02*
X7876190Y8799522D01*
D10*
X8019047Y8989998D02*
X7923809Y8942379D01*
D10*
X8114285Y8989998D02*
X8019047Y8989998D01*
D10*
X8257143Y8942379D02*
X8114285Y8989998D01*
D10*
X8304762Y8894760D02*
X8257143Y8942379D01*
D10*
X8352381Y8751903D02*
X8304762Y8894760D01*
D10*
X8352381Y8323331D02*
X8352381Y8751903D01*
D10*
X7923809Y8894760D02*
X7876190Y8799522D01*
D10*
X8019047Y8942379D02*
X7923809Y8894760D01*
D10*
X8114285Y8942379D02*
X8019047Y8942379D01*
D10*
X8257143Y8894760D02*
X8114285Y8942379D01*
D10*
X8304762Y8847141D02*
X8257143Y8894760D01*
D10*
X8352381Y8751903D02*
X8304762Y8847141D01*
D10*
X8400000Y8656665D02*
X8352381Y8561427D01*
D10*
X8447619Y8704284D02*
X8400000Y8656665D01*
D10*
X8828571Y8751903D02*
X8447619Y8704284D01*
D10*
X8876190Y8799522D02*
X8828571Y8751903D01*
D10*
X8876190Y8894760D02*
X8876190Y8799522D01*
D10*
X8780952Y8942379D02*
X8876190Y8894760D01*
D10*
X8733333Y8942379D02*
X8780952Y8942379D01*
D10*
X8780952Y8799522D02*
X8447619Y8704284D01*
D10*
X8828571Y8847141D02*
X8780952Y8799522D01*
D10*
X8828571Y8894760D02*
X8828571Y8847141D01*
D10*
X8780952Y8942379D02*
X8828571Y8894760D01*
D10*
X8876190Y8323331D02*
X8876190Y7989998D01*
D10*
X8066666Y9894760D02*
X8019047Y9942379D01*
D10*
X8114285Y9942379D02*
X8066666Y9894760D01*
D10*
X8066666Y9989998D02*
X8114285Y9942379D01*
D10*
X8019047Y9989998D02*
X8066666Y9989998D01*
D10*
X7923809Y9942379D02*
X8019047Y9989998D01*
D10*
X7876190Y9847141D02*
X7923809Y9942379D01*
D10*
X7876190Y9704284D02*
X7876190Y9847141D01*
D10*
X7923809Y9561426D02*
X7876190Y9704284D01*
D10*
X8019047Y9466188D02*
X7923809Y9561426D01*
D10*
X8161905Y9370950D02*
X8019047Y9466188D01*
D10*
X8304762Y9323331D02*
X8161905Y9370950D01*
D10*
X8495238Y9275712D02*
X8304762Y9323331D01*
D10*
X8685714Y9275712D02*
X8495238Y9275712D01*
D10*
X8780952Y9323331D02*
X8685714Y9275712D01*
D10*
X8828571Y9370950D02*
X8780952Y9323331D01*
D10*
X8876190Y9466188D02*
X8828571Y9370950D01*
D10*
X8876190Y9609046D02*
X8876190Y9466188D01*
D10*
X8828571Y9751903D02*
X8876190Y9609046D01*
D10*
X8733333Y9847141D02*
X8828571Y9751903D01*
D10*
X8638095Y9894760D02*
X8733333Y9847141D01*
D10*
X8495238Y9894760D02*
X8638095Y9894760D01*
D10*
X8400000Y9847141D02*
X8495238Y9894760D01*
D10*
X8352381Y9799522D02*
X8400000Y9847141D01*
D10*
X8304762Y9704284D02*
X8352381Y9799522D01*
D10*
X8304762Y9561426D02*
X8304762Y9704284D01*
D10*
X8352381Y9466188D02*
X8304762Y9561426D01*
D10*
X8447619Y9370950D02*
X8352381Y9466188D01*
D10*
X8542857Y9323331D02*
X8447619Y9370950D01*
D10*
X7923809Y9609046D02*
X7876190Y9704284D01*
D10*
X8019047Y9513808D02*
X7923809Y9609046D01*
D10*
X8161905Y9418569D02*
X8019047Y9513808D01*
D10*
X8304762Y9370950D02*
X8161905Y9418569D01*
D10*
X8495238Y9323331D02*
X8304762Y9370950D01*
D10*
X8733333Y9323331D02*
X8495238Y9323331D01*
D10*
X8828571Y9370950D02*
X8733333Y9323331D01*
D10*
X8828571Y9704284D02*
X8876190Y9609046D01*
D10*
X8733333Y9799522D02*
X8828571Y9704284D01*
D10*
X8638095Y9847141D02*
X8733333Y9799522D01*
D10*
X8447619Y9847141D02*
X8638095Y9847141D01*
D10*
X8352381Y9799522D02*
X8447619Y9847141D01*
D10*
X-11047619Y33428572D02*
X-11095238Y33428572D01*
D10*
X-11000000Y33523810D02*
X-11047619Y33428572D01*
D10*
X-11047619Y33238096D02*
X-11000000Y33523810D01*
D10*
X-11047619Y33333334D02*
X-11047619Y33238096D01*
D10*
X-11095238Y33428572D02*
X-11047619Y33333334D01*
D10*
X-11142857Y33476190D02*
X-11095238Y33428572D01*
D10*
X-11285714Y33523810D02*
X-11142857Y33476190D01*
D10*
X-11476190Y33523810D02*
X-11285714Y33523810D01*
D10*
X-11619048Y33476190D02*
X-11476190Y33523810D01*
D10*
X-11714286Y33380952D02*
X-11619048Y33476190D01*
D10*
X-11714286Y33285714D02*
X-11714286Y33380952D01*
D10*
X-11666667Y33190476D02*
X-11714286Y33285714D01*
D10*
X-11619048Y33142858D02*
X-11666667Y33190476D01*
D10*
X-11285714Y32952380D02*
X-11619048Y33142858D01*
D10*
X-11190476Y32857142D02*
X-11285714Y32952380D01*
D10*
X-11619048Y33190476D02*
X-11714286Y33285714D01*
D10*
X-11285714Y33000000D02*
X-11619048Y33190476D01*
D10*
X-11238095Y32952380D02*
X-11285714Y33000000D01*
D10*
X-11190476Y32857142D02*
X-11238095Y32952380D01*
D10*
X-11190476Y32714286D02*
X-11190476Y32857142D01*
D10*
X-11238095Y32619048D02*
X-11190476Y32714286D01*
D10*
X-11285714Y32571428D02*
X-11238095Y32619048D01*
D10*
X-11428571Y32523810D02*
X-11285714Y32571428D01*
D10*
X-11619048Y32523810D02*
X-11428571Y32523810D01*
D10*
X-11761905Y32571428D02*
X-11619048Y32523810D01*
D10*
X-11809524Y32619048D02*
X-11761905Y32571428D01*
D10*
X-11857143Y32714286D02*
X-11809524Y32619048D01*
D10*
X-11857143Y32809524D02*
X-11857143Y32714286D01*
D10*
X-11904762Y32523810D02*
X-11857143Y32809524D01*
D10*
X-11857143Y32619048D02*
X-11904762Y32523810D01*
D10*
X-11809524Y32619048D02*
X-11857143Y32619048D01*
D10*
X-10571429Y32523810D02*
X-10333333Y33333334D01*
D10*
X-10523810Y32523810D02*
X-10238095Y33523810D01*
D10*
X-10380952Y33380952D02*
X-10238095Y33523810D01*
D10*
X-10523810Y33285714D02*
X-10380952Y33380952D01*
D10*
X-10619048Y33238096D02*
X-10523810Y33285714D01*
D10*
X-10476190Y33285714D02*
X-10285714Y33380952D01*
D10*
X-10619048Y33238096D02*
X-10476190Y33285714D01*
D10*
X7000000Y11523810D02*
X7285714Y12523810D01*
D10*
X7047619Y11523810D02*
X7333333Y12523810D01*
D10*
X7666667Y12523810D02*
X7142857Y12523810D01*
D10*
X7809524Y12476190D02*
X7666667Y12523810D01*
D10*
X7857143Y12380952D02*
X7809524Y12476190D01*
D10*
X7857143Y12285714D02*
X7857143Y12380952D01*
D10*
X7809524Y12142857D02*
X7857143Y12285714D01*
D10*
X7761905Y12095238D02*
X7809524Y12142857D01*
D10*
X7619048Y12047619D02*
X7761905Y12095238D01*
D10*
X7190476Y12047619D02*
X7619048Y12047619D01*
D10*
X7761905Y12476190D02*
X7666667Y12523810D01*
D10*
X7809524Y12380952D02*
X7761905Y12476190D01*
D10*
X7809524Y12285714D02*
X7809524Y12380952D01*
D10*
X7761905Y12142857D02*
X7809524Y12285714D01*
D10*
X7714286Y12095238D02*
X7761905Y12142857D01*
D10*
X7619048Y12047619D02*
X7714286Y12095238D01*
D10*
X7523809Y12000000D02*
X7428571Y12047619D01*
D10*
X7571428Y11952381D02*
X7523809Y12000000D01*
D10*
X7619048Y11571429D02*
X7571428Y11952381D01*
D10*
X7666667Y11523810D02*
X7619048Y11571429D01*
D10*
X7761905Y11523810D02*
X7666667Y11523810D01*
D10*
X7809524Y11619048D02*
X7761905Y11523810D01*
D10*
X7809524Y11666667D02*
X7809524Y11619048D01*
D10*
X7666667Y11619048D02*
X7571428Y11952381D01*
D10*
X7714286Y11571429D02*
X7666667Y11619048D01*
D10*
X7761905Y11571429D02*
X7714286Y11571429D01*
D10*
X7809524Y11619048D02*
X7761905Y11571429D01*
D10*
X7190476Y11523810D02*
X6857143Y11523810D01*
D10*
X8380952Y12285714D02*
X8333333Y12333333D01*
D10*
X8333333Y12238095D02*
X8380952Y12285714D01*
D10*
X8285714Y12285714D02*
X8333333Y12238095D01*
D10*
X8285714Y12333333D02*
X8285714Y12285714D01*
D10*
X8333333Y12428571D02*
X8285714Y12333333D01*
D10*
X8380952Y12476190D02*
X8333333Y12428571D01*
D10*
X8523810Y12523810D02*
X8380952Y12476190D01*
D10*
X8666667Y12523810D02*
X8523810Y12523810D01*
D10*
X8809524Y12476190D02*
X8666667Y12523810D01*
D10*
X8857143Y12380952D02*
X8809524Y12476190D01*
D10*
X8857143Y12285714D02*
X8857143Y12380952D01*
D10*
X8809524Y12190476D02*
X8857143Y12285714D01*
D10*
X8714286Y12095238D02*
X8809524Y12190476D01*
D10*
X8571429Y12000000D02*
X8714286Y12095238D01*
D10*
X8380952Y11904762D02*
X8571429Y12000000D01*
D10*
X8238095Y11809524D02*
X8380952Y11904762D01*
D10*
X8142857Y11714286D02*
X8238095Y11809524D01*
D10*
X8047619Y11523810D02*
X8142857Y11714286D01*
D10*
X8761905Y12476190D02*
X8666667Y12523810D01*
D10*
X8809524Y12380952D02*
X8761905Y12476190D01*
D10*
X8809524Y12285714D02*
X8809524Y12380952D01*
D10*
X8761905Y12190476D02*
X8809524Y12285714D01*
D10*
X8666667Y12095238D02*
X8761905Y12190476D01*
D10*
X8380952Y11904762D02*
X8666667Y12095238D01*
D10*
X8142857Y11666667D02*
X8095238Y11619048D01*
D10*
X8238095Y11666667D02*
X8142857Y11666667D01*
D10*
X8476190Y11571429D02*
X8238095Y11666667D01*
D10*
X8619048Y11571429D02*
X8476190Y11571429D01*
D10*
X8714286Y11619048D02*
X8619048Y11571429D01*
D10*
X8761905Y11714286D02*
X8714286Y11619048D01*
D10*
X8476190Y11523810D02*
X8238095Y11666667D01*
D10*
X8619048Y11523810D02*
X8476190Y11523810D01*
D10*
X8714286Y11571429D02*
X8619048Y11523810D01*
D10*
X8761905Y11714286D02*
X8714286Y11571429D01*
D10*
X9380952Y12285714D02*
X9333333Y12333333D01*
D10*
X9333333Y12238095D02*
X9380952Y12285714D01*
D10*
X9285714Y12285714D02*
X9333333Y12238095D01*
D10*
X9285714Y12333333D02*
X9285714Y12285714D01*
D10*
X9333333Y12428571D02*
X9285714Y12333333D01*
D10*
X9380952Y12476190D02*
X9333333Y12428571D01*
D10*
X9523810Y12523810D02*
X9380952Y12476190D01*
D10*
X9666667Y12523810D02*
X9523810Y12523810D01*
D10*
X9809524Y12476190D02*
X9666667Y12523810D01*
D10*
X9857143Y12380952D02*
X9809524Y12476190D01*
D10*
X9857143Y12285714D02*
X9857143Y12380952D01*
D10*
X9809524Y12190476D02*
X9857143Y12285714D01*
D10*
X9714286Y12095238D02*
X9809524Y12190476D01*
D10*
X9571429Y12000000D02*
X9714286Y12095238D01*
D10*
X9380952Y11904762D02*
X9571429Y12000000D01*
D10*
X9238095Y11809524D02*
X9380952Y11904762D01*
D10*
X9142857Y11714286D02*
X9238095Y11809524D01*
D10*
X9047619Y11523810D02*
X9142857Y11714286D01*
D10*
X9761905Y12476190D02*
X9666667Y12523810D01*
D10*
X9809524Y12380952D02*
X9761905Y12476190D01*
D10*
X9809524Y12285714D02*
X9809524Y12380952D01*
D10*
X9761905Y12190476D02*
X9809524Y12285714D01*
D10*
X9666667Y12095238D02*
X9761905Y12190476D01*
D10*
X9380952Y11904762D02*
X9666667Y12095238D01*
D10*
X9142857Y11666667D02*
X9095238Y11619048D01*
D10*
X9238095Y11666667D02*
X9142857Y11666667D01*
D10*
X9476190Y11571429D02*
X9238095Y11666667D01*
D10*
X9619048Y11571429D02*
X9476190Y11571429D01*
D10*
X9714286Y11619048D02*
X9619048Y11571429D01*
D10*
X9761905Y11714286D02*
X9714286Y11619048D01*
D10*
X9476190Y11523810D02*
X9238095Y11666667D01*
D10*
X9619048Y11523810D02*
X9476190Y11523810D01*
D10*
X9714286Y11571429D02*
X9619048Y11523810D01*
D10*
X9761905Y11714286D02*
X9714286Y11571429D01*
D10*
X-9595238Y23678572D02*
X-9642857Y23678572D01*
D10*
X-9547619Y23773810D02*
X-9595238Y23678572D01*
D10*
X-9595238Y23488096D02*
X-9547619Y23773810D01*
D10*
X-9595238Y23583334D02*
X-9595238Y23488096D01*
D10*
X-9642857Y23678572D02*
X-9595238Y23583334D01*
D10*
X-9690476Y23726190D02*
X-9642857Y23678572D01*
D10*
X-9785714Y23773810D02*
X-9690476Y23726190D01*
D10*
X-9928571Y23773810D02*
X-9785714Y23773810D01*
D10*
X-10071428Y23726190D02*
X-9928571Y23773810D01*
D10*
X-10166667Y23630952D02*
X-10071428Y23726190D01*
D10*
X-10261905Y23488096D02*
X-10166667Y23630952D01*
D10*
X-10309524Y23345238D02*
X-10261905Y23488096D01*
D10*
X-10357143Y23154762D02*
X-10309524Y23345238D01*
D10*
X-10357143Y23011904D02*
X-10357143Y23154762D01*
D10*
X-10309524Y22869048D02*
X-10357143Y23011904D01*
D10*
X-10261905Y22821428D02*
X-10309524Y22869048D01*
D10*
X-10119048Y22773810D02*
X-10261905Y22821428D01*
D10*
X-9976190Y22773810D02*
X-10119048Y22773810D01*
D10*
X-9880952Y22821428D02*
X-9976190Y22773810D01*
D10*
X-9785714Y22916666D02*
X-9880952Y22821428D01*
D10*
X-9738095Y23011904D02*
X-9785714Y22916666D01*
D10*
X-10023810Y23726190D02*
X-9928571Y23773810D01*
D10*
X-10119048Y23630952D02*
X-10023810Y23726190D01*
D10*
X-10214286Y23488096D02*
X-10119048Y23630952D01*
D10*
X-10261905Y23345238D02*
X-10214286Y23488096D01*
D10*
X-10309524Y23154762D02*
X-10261905Y23345238D01*
D10*
X-10309524Y23011904D02*
X-10309524Y23154762D01*
D10*
X-10261905Y22869048D02*
X-10309524Y23011904D01*
D10*
X-10214286Y22821428D02*
X-10261905Y22869048D01*
D10*
X-10119048Y22773810D02*
X-10214286Y22821428D01*
D10*
X-9119048Y23535714D02*
X-9166667Y23583334D01*
D10*
X-9166667Y23488096D02*
X-9119048Y23535714D01*
D10*
X-9214286Y23535714D02*
X-9166667Y23488096D01*
D10*
X-9214286Y23583334D02*
X-9214286Y23535714D01*
D10*
X-9166667Y23678572D02*
X-9214286Y23583334D01*
D10*
X-9119048Y23726190D02*
X-9166667Y23678572D01*
D10*
X-8976190Y23773810D02*
X-9119048Y23726190D01*
D10*
X-8833333Y23773810D02*
X-8976190Y23773810D01*
D10*
X-8690476Y23726190D02*
X-8833333Y23773810D01*
D10*
X-8642857Y23630952D02*
X-8690476Y23726190D01*
D10*
X-8642857Y23535714D02*
X-8642857Y23630952D01*
D10*
X-8690476Y23440476D02*
X-8642857Y23535714D01*
D10*
X-8833333Y23345238D02*
X-8690476Y23440476D01*
D10*
X-8976190Y23297620D02*
X-8833333Y23345238D01*
D10*
X-8738095Y23726190D02*
X-8833333Y23773810D01*
D10*
X-8690476Y23630952D02*
X-8738095Y23726190D01*
D10*
X-8690476Y23535714D02*
X-8690476Y23630952D01*
D10*
X-8738095Y23440476D02*
X-8690476Y23535714D01*
D10*
X-8833333Y23345238D02*
X-8738095Y23440476D01*
D10*
X-8976190Y23297620D02*
X-9071429Y23297620D01*
D10*
X-8833333Y23250000D02*
X-8976190Y23297620D01*
D10*
X-8785714Y23202380D02*
X-8833333Y23250000D01*
D10*
X-8738095Y23107142D02*
X-8785714Y23202380D01*
D10*
X-8738095Y22964286D02*
X-8738095Y23107142D01*
D10*
X-8785714Y22869048D02*
X-8738095Y22964286D01*
D10*
X-8833333Y22821428D02*
X-8785714Y22869048D01*
D10*
X-8976190Y22773810D02*
X-8833333Y22821428D01*
D10*
X-9166667Y22773810D02*
X-8976190Y22773810D01*
D10*
X-9309524Y22821428D02*
X-9166667Y22773810D01*
D10*
X-9357143Y22869048D02*
X-9309524Y22821428D01*
D10*
X-9404762Y22964286D02*
X-9357143Y22869048D01*
D10*
X-9404762Y23011904D02*
X-9404762Y22964286D01*
D10*
X-9357143Y23059524D02*
X-9404762Y23011904D01*
D10*
X-9309524Y23011904D02*
X-9357143Y23059524D01*
D10*
X-9357143Y22964286D02*
X-9309524Y23011904D01*
D10*
X-8880952Y23250000D02*
X-8976190Y23297620D01*
D10*
X-8833333Y23202380D02*
X-8880952Y23250000D01*
D10*
X-8785714Y23107142D02*
X-8833333Y23202380D01*
D10*
X-8785714Y22964286D02*
X-8785714Y23107142D01*
D10*
X-8833333Y22869048D02*
X-8785714Y22964286D01*
D10*
X-8880952Y22821428D02*
X-8833333Y22869048D01*
D10*
X-8976190Y22773810D02*
X-8880952Y22821428D01*
D10*
X6571428Y51904760D02*
X6571428Y51857144D01*
D10*
X6476190Y51952380D02*
X6571428Y51904760D01*
D10*
X6761905Y51904760D02*
X6476190Y51952380D01*
D10*
X6666666Y51904760D02*
X6761905Y51904760D01*
D10*
X6571428Y51857144D02*
X6666666Y51904760D01*
D10*
X6523809Y51809524D02*
X6571428Y51857144D01*
D10*
X6476190Y51714284D02*
X6523809Y51809524D01*
D10*
X6476190Y51571428D02*
X6476190Y51714284D01*
D10*
X6523809Y51428572D02*
X6476190Y51571428D01*
D10*
X6619047Y51333332D02*
X6523809Y51428572D01*
D10*
X6761905Y51238096D02*
X6619047Y51333332D01*
D10*
X6904762Y51190476D02*
X6761905Y51238096D01*
D10*
X7095238Y51142856D02*
X6904762Y51190476D01*
D10*
X7238095Y51142856D02*
X7095238Y51142856D01*
D10*
X7380952Y51190476D02*
X7238095Y51142856D01*
D10*
X7428571Y51238096D02*
X7380952Y51190476D01*
D10*
X7476190Y51380952D02*
X7428571Y51238096D01*
D10*
X7476190Y51523808D02*
X7476190Y51380952D01*
D10*
X7428571Y51619048D02*
X7476190Y51523808D01*
D10*
X7333333Y51714284D02*
X7428571Y51619048D01*
D10*
X7238095Y51761904D02*
X7333333Y51714284D01*
D10*
X6523809Y51476192D02*
X6476190Y51571428D01*
D10*
X6619047Y51380952D02*
X6523809Y51476192D01*
D10*
X6761905Y51285716D02*
X6619047Y51380952D01*
D10*
X6904762Y51238096D02*
X6761905Y51285716D01*
D10*
X7095238Y51190476D02*
X6904762Y51238096D01*
D10*
X7238095Y51190476D02*
X7095238Y51190476D01*
D10*
X7380952Y51238096D02*
X7238095Y51190476D01*
D10*
X7428571Y51285716D02*
X7380952Y51238096D01*
D10*
X7476190Y51380952D02*
X7428571Y51285716D01*
D10*
X6952381Y52190476D02*
X6476190Y52428572D01*
D10*
X6476190Y52904760D02*
X6476190Y52428572D01*
D10*
X6523809Y52666668D02*
X6523809Y52428572D01*
D10*
X6476190Y52904760D02*
X6523809Y52666668D01*
D10*
X6904762Y52238096D02*
X6952381Y52190476D01*
D10*
X6857143Y52380952D02*
X6904762Y52238096D01*
D10*
X6857143Y52523808D02*
X6857143Y52380952D01*
D10*
X6904762Y52666668D02*
X6857143Y52523808D01*
D10*
X6952381Y52714284D02*
X6904762Y52666668D01*
D10*
X7047619Y52761904D02*
X6952381Y52714284D01*
D10*
X7190476Y52761904D02*
X7047619Y52761904D01*
D10*
X7333333Y52714284D02*
X7190476Y52761904D01*
D10*
X7428571Y52619048D02*
X7333333Y52714284D01*
D10*
X7476190Y52476192D02*
X7428571Y52619048D01*
D10*
X7476190Y52333332D02*
X7476190Y52476192D01*
D10*
X7428571Y52190476D02*
X7476190Y52333332D01*
D10*
X7380952Y52142856D02*
X7428571Y52190476D01*
D10*
X7285714Y52095240D02*
X7380952Y52142856D01*
D10*
X7238095Y52095240D02*
X7285714Y52095240D01*
D10*
X7190476Y52142856D02*
X7238095Y52095240D01*
D10*
X7238095Y52190476D02*
X7190476Y52142856D01*
D10*
X7285714Y52142856D02*
X7238095Y52190476D01*
D10*
X6904762Y52619048D02*
X6857143Y52523808D01*
D10*
X6952381Y52666668D02*
X6904762Y52619048D01*
D10*
X7047619Y52714284D02*
X6952381Y52666668D01*
D10*
X7190476Y52714284D02*
X7047619Y52714284D01*
D10*
X7333333Y52666668D02*
X7190476Y52714284D01*
D10*
X7428571Y52571428D02*
X7333333Y52666668D01*
D10*
X7476190Y52476192D02*
X7428571Y52571428D01*
D10*
X-12307143Y46023808D02*
X-12021429Y47023808D01*
D10*
X-12259524Y46023808D02*
X-11973810Y47023808D01*
D10*
X-11640476Y47023808D02*
X-12164286Y47023808D01*
D10*
X-11497619Y46976192D02*
X-11640476Y47023808D01*
D10*
X-11450000Y46880952D02*
X-11497619Y46976192D01*
D10*
X-11450000Y46785716D02*
X-11450000Y46880952D01*
D10*
X-11497619Y46642856D02*
X-11450000Y46785716D01*
D10*
X-11545238Y46595240D02*
X-11497619Y46642856D01*
D10*
X-11688095Y46547620D02*
X-11545238Y46595240D01*
D10*
X-12116667Y46547620D02*
X-11688095Y46547620D01*
D10*
X-11545238Y46976192D02*
X-11640476Y47023808D01*
D10*
X-11497619Y46880952D02*
X-11545238Y46976192D01*
D10*
X-11497619Y46785716D02*
X-11497619Y46880952D01*
D10*
X-11545238Y46642856D02*
X-11497619Y46785716D01*
D10*
X-11592857Y46595240D02*
X-11545238Y46642856D01*
D10*
X-11688095Y46547620D02*
X-11592857Y46595240D01*
D10*
X-11783333Y46500000D02*
X-11878571Y46547620D01*
D10*
X-11735714Y46452380D02*
X-11783333Y46500000D01*
D10*
X-11688095Y46071428D02*
X-11735714Y46452380D01*
D10*
X-11640476Y46023808D02*
X-11688095Y46071428D01*
D10*
X-11545238Y46023808D02*
X-11640476Y46023808D01*
D10*
X-11497619Y46119048D02*
X-11545238Y46023808D01*
D10*
X-11497619Y46166668D02*
X-11497619Y46119048D01*
D10*
X-11640476Y46119048D02*
X-11735714Y46452380D01*
D10*
X-11592857Y46071428D02*
X-11640476Y46119048D01*
D10*
X-11545238Y46071428D02*
X-11592857Y46071428D01*
D10*
X-11497619Y46119048D02*
X-11545238Y46071428D01*
D10*
X-12116667Y46023808D02*
X-12450000Y46023808D01*
D10*
X-10973810Y46023808D02*
X-10735714Y46833332D01*
D10*
X-10926190Y46023808D02*
X-10640476Y47023808D01*
D10*
X-10783333Y46880952D02*
X-10640476Y47023808D01*
D10*
X-10926190Y46785716D02*
X-10783333Y46880952D01*
D10*
X-11021429Y46738096D02*
X-10926190Y46785716D01*
D10*
X-10878572Y46785716D02*
X-10688095Y46880952D01*
D10*
X-11021429Y46738096D02*
X-10878572Y46785716D01*
D10*
X-9878572Y46976192D02*
X-9735714Y47023808D01*
D10*
X-9973810Y46880952D02*
X-9878572Y46976192D01*
D10*
X-10069048Y46738096D02*
X-9973810Y46880952D01*
D10*
X-10116667Y46595240D02*
X-10069048Y46738096D01*
D10*
X-10164286Y46404760D02*
X-10116667Y46595240D01*
D10*
X-10164286Y46261904D02*
X-10164286Y46404760D01*
D10*
X-10116667Y46119048D02*
X-10164286Y46261904D01*
D10*
X-10069048Y46071428D02*
X-10116667Y46119048D01*
D10*
X-9973810Y46023808D02*
X-10069048Y46071428D01*
D10*
X-9878572Y46023808D02*
X-9973810Y46023808D01*
D10*
X-9735714Y46071428D02*
X-9878572Y46023808D01*
D10*
X-9640476Y46166668D02*
X-9735714Y46071428D01*
D10*
X-9545238Y46309524D02*
X-9640476Y46166668D01*
D10*
X-9497619Y46452380D02*
X-9545238Y46309524D01*
D10*
X-9450000Y46642856D02*
X-9497619Y46452380D01*
D10*
X-9450000Y46785716D02*
X-9450000Y46642856D01*
D10*
X-9497619Y46928572D02*
X-9450000Y46785716D01*
D10*
X-9545238Y46976192D02*
X-9497619Y46928572D01*
D10*
X-9640476Y47023808D02*
X-9545238Y46976192D01*
D10*
X-9735714Y47023808D02*
X-9640476Y47023808D01*
D10*
X-9830952Y46976192D02*
X-9735714Y47023808D01*
D10*
X-9926190Y46880952D02*
X-9830952Y46976192D01*
D10*
X-10021428Y46738096D02*
X-9926190Y46880952D01*
D10*
X-10069048Y46595240D02*
X-10021428Y46738096D01*
D10*
X-10116667Y46404760D02*
X-10069048Y46595240D01*
D10*
X-10116667Y46261904D02*
X-10116667Y46404760D01*
D10*
X-10069048Y46119048D02*
X-10116667Y46261904D01*
D10*
X-9973810Y46023808D02*
X-10069048Y46119048D01*
D10*
X-9783334Y46071428D02*
X-9878572Y46023808D01*
D10*
X-9688095Y46166668D02*
X-9783334Y46071428D01*
D10*
X-9592857Y46309524D02*
X-9688095Y46166668D01*
D10*
X-9545238Y46452380D02*
X-9592857Y46309524D01*
D10*
X-9497619Y46642856D02*
X-9545238Y46452380D01*
D10*
X-9497619Y46785716D02*
X-9497619Y46642856D01*
D10*
X-9545238Y46928572D02*
X-9497619Y46785716D01*
D10*
X-9640476Y47023808D02*
X-9545238Y46928572D01*
D10*
X-17128572Y9204762D02*
X-17128572Y9157143D01*
D10*
X-17223810Y9252381D02*
X-17128572Y9204762D01*
D10*
X-16938096Y9204762D02*
X-17223810Y9252381D01*
D10*
X-17033334Y9204762D02*
X-16938096Y9204762D01*
D10*
X-17128572Y9157143D02*
X-17033334Y9204762D01*
D10*
X-17176190Y9109524D02*
X-17128572Y9157143D01*
D10*
X-17223810Y9014286D02*
X-17176190Y9109524D01*
D10*
X-17223810Y8871429D02*
X-17223810Y9014286D01*
D10*
X-17176190Y8728571D02*
X-17223810Y8871429D01*
D10*
X-17080952Y8633333D02*
X-17176190Y8728571D01*
D10*
X-16938096Y8538095D02*
X-17080952Y8633333D01*
D10*
X-16795238Y8490476D02*
X-16938096Y8538095D01*
D10*
X-16604762Y8442857D02*
X-16795238Y8490476D01*
D10*
X-16461905Y8442857D02*
X-16604762Y8442857D01*
D10*
X-16319048Y8490476D02*
X-16461905Y8442857D01*
D10*
X-16271429Y8538095D02*
X-16319048Y8490476D01*
D10*
X-16223810Y8680952D02*
X-16271429Y8538095D01*
D10*
X-16223810Y8823810D02*
X-16223810Y8680952D01*
D10*
X-16271429Y8919048D02*
X-16223810Y8823810D01*
D10*
X-16366667Y9014286D02*
X-16271429Y8919048D01*
D10*
X-16461905Y9061905D02*
X-16366667Y9014286D01*
D10*
X-17176190Y8776190D02*
X-17223810Y8871429D01*
D10*
X-17080952Y8680952D02*
X-17176190Y8776190D01*
D10*
X-16938096Y8585714D02*
X-17080952Y8680952D01*
D10*
X-16795238Y8538095D02*
X-16938096Y8585714D01*
D10*
X-16604762Y8490476D02*
X-16795238Y8538095D01*
D10*
X-16461905Y8490476D02*
X-16604762Y8490476D01*
D10*
X-16319048Y8538095D02*
X-16461905Y8490476D01*
D10*
X-16271429Y8585714D02*
X-16319048Y8538095D01*
D10*
X-16223810Y8680952D02*
X-16271429Y8585714D01*
D10*
X-16223810Y9633333D02*
X-17033334Y9871428D01*
D10*
X-16223810Y9680952D02*
X-17223810Y9966667D01*
D10*
X-17080952Y9823810D02*
X-17223810Y9966667D01*
D10*
X-16985714Y9680952D02*
X-17080952Y9823810D01*
D10*
X-16938096Y9585714D02*
X-16985714Y9680952D01*
D10*
X-16985714Y9728571D02*
X-17080952Y9919048D01*
D10*
X-16938096Y9585714D02*
X-16985714Y9728571D01*
D10*
X-16747619Y10490476D02*
X-17223810Y10728572D01*
D10*
X-17223810Y11204762D02*
X-17223810Y10728572D01*
D10*
X-17176190Y10966666D02*
X-17176190Y10728572D01*
D10*
X-17223810Y11204762D02*
X-17176190Y10966666D01*
D10*
X-16795238Y10538095D02*
X-16747619Y10490476D01*
D10*
X-16842858Y10680952D02*
X-16795238Y10538095D01*
D10*
X-16842858Y10823810D02*
X-16842858Y10680952D01*
D10*
X-16795238Y10966666D02*
X-16842858Y10823810D01*
D10*
X-16747619Y11014286D02*
X-16795238Y10966666D01*
D10*
X-16652381Y11061905D02*
X-16747619Y11014286D01*
D10*
X-16509524Y11061905D02*
X-16652381Y11061905D01*
D10*
X-16366667Y11014286D02*
X-16509524Y11061905D01*
D10*
X-16271429Y10919048D02*
X-16366667Y11014286D01*
D10*
X-16223810Y10776190D02*
X-16271429Y10919048D01*
D10*
X-16223810Y10633333D02*
X-16223810Y10776190D01*
D10*
X-16271429Y10490476D02*
X-16223810Y10633333D01*
D10*
X-16319048Y10442857D02*
X-16271429Y10490476D01*
D10*
X-16414286Y10395238D02*
X-16319048Y10442857D01*
D10*
X-16461905Y10395238D02*
X-16414286Y10395238D01*
D10*
X-16509524Y10442857D02*
X-16461905Y10395238D01*
D10*
X-16461905Y10490476D02*
X-16509524Y10442857D01*
D10*
X-16414286Y10442857D02*
X-16461905Y10490476D01*
D10*
X-16795238Y10919048D02*
X-16842858Y10823810D01*
D10*
X-16747619Y10966666D02*
X-16795238Y10919048D01*
D10*
X-16652381Y11014286D02*
X-16747619Y10966666D01*
D10*
X-16509524Y11014286D02*
X-16652381Y11014286D01*
D10*
X-16366667Y10966666D02*
X-16509524Y11014286D01*
D10*
X-16271429Y10871428D02*
X-16366667Y10966666D01*
D10*
X-16223810Y10776190D02*
X-16271429Y10871428D01*
D10*
X8047619Y5250000D02*
X8190476Y5773809D01*
D10*
X8000000Y5059524D02*
X8047619Y5250000D01*
D10*
X8000000Y4916666D02*
X8000000Y5059524D01*
D10*
X8047619Y4821428D02*
X8000000Y4916666D01*
D10*
X8190476Y4773809D02*
X8047619Y4821428D01*
D10*
X8380952Y4773809D02*
X8190476Y4773809D01*
D10*
X8523810Y4821428D02*
X8380952Y4773809D01*
D10*
X8619048Y4916666D02*
X8523810Y4821428D01*
D10*
X8666667Y5059524D02*
X8619048Y4916666D01*
D10*
X8857143Y5773809D02*
X8666667Y5059524D01*
D10*
X8095238Y5250000D02*
X8238095Y5773809D01*
D10*
X8047619Y5059524D02*
X8095238Y5250000D01*
D10*
X8047619Y4916666D02*
X8047619Y5059524D01*
D10*
X8095238Y4821428D02*
X8047619Y4916666D01*
D10*
X8190476Y4773809D02*
X8095238Y4821428D01*
D10*
X8380952Y5773809D02*
X8047619Y5773809D01*
D10*
X9000000Y5773809D02*
X8714286Y5773809D01*
D10*
X9380952Y5535714D02*
X9333333Y5583333D01*
D10*
X9333333Y5488095D02*
X9380952Y5535714D01*
D10*
X9285714Y5535714D02*
X9333333Y5488095D01*
D10*
X9285714Y5583333D02*
X9285714Y5535714D01*
D10*
X9333333Y5678571D02*
X9285714Y5583333D01*
D10*
X9380952Y5726190D02*
X9333333Y5678571D01*
D10*
X9523810Y5773809D02*
X9380952Y5726190D01*
D10*
X9666667Y5773809D02*
X9523810Y5773809D01*
D10*
X9809524Y5726190D02*
X9666667Y5773809D01*
D10*
X9857143Y5630952D02*
X9809524Y5726190D01*
D10*
X9857143Y5535714D02*
X9857143Y5630952D01*
D10*
X9809524Y5440476D02*
X9857143Y5535714D01*
D10*
X9714286Y5345238D02*
X9809524Y5440476D01*
D10*
X9571429Y5250000D02*
X9714286Y5345238D01*
D10*
X9380952Y5154762D02*
X9571429Y5250000D01*
D10*
X9238095Y5059524D02*
X9380952Y5154762D01*
D10*
X9142857Y4964285D02*
X9238095Y5059524D01*
D10*
X9047619Y4773809D02*
X9142857Y4964285D01*
D10*
X9761905Y5726190D02*
X9666667Y5773809D01*
D10*
X9809524Y5630952D02*
X9761905Y5726190D01*
D10*
X9809524Y5535714D02*
X9809524Y5630952D01*
D10*
X9761905Y5440476D02*
X9809524Y5535714D01*
D10*
X9666667Y5345238D02*
X9761905Y5440476D01*
D10*
X9380952Y5154762D02*
X9666667Y5345238D01*
D10*
X9142857Y4916666D02*
X9095238Y4869047D01*
D10*
X9238095Y4916666D02*
X9142857Y4916666D01*
D10*
X9476190Y4821428D02*
X9238095Y4916666D01*
D10*
X9619048Y4821428D02*
X9476190Y4821428D01*
D10*
X9714286Y4869047D02*
X9619048Y4821428D01*
D10*
X9761905Y4964285D02*
X9714286Y4869047D01*
D10*
X9476190Y4773809D02*
X9238095Y4916666D01*
D10*
X9619048Y4773809D02*
X9476190Y4773809D01*
D10*
X9714286Y4821428D02*
X9619048Y4773809D01*
D10*
X9761905Y4964285D02*
X9714286Y4821428D01*
D10*
X-13500000Y13823810D02*
X-13214286Y14823810D01*
D10*
X-13452381Y13823810D02*
X-13166666Y14823810D01*
D10*
X-12833333Y14823810D02*
X-13357143Y14823810D01*
D10*
X-12690476Y14776190D02*
X-12833333Y14823810D01*
D10*
X-12642857Y14680952D02*
X-12690476Y14776190D01*
D10*
X-12642857Y14585714D02*
X-12642857Y14680952D01*
D10*
X-12690476Y14442857D02*
X-12642857Y14585714D01*
D10*
X-12738095Y14395238D02*
X-12690476Y14442857D01*
D10*
X-12880952Y14347619D02*
X-12738095Y14395238D01*
D10*
X-13309524Y14347619D02*
X-12880952Y14347619D01*
D10*
X-12738095Y14776190D02*
X-12833333Y14823810D01*
D10*
X-12690476Y14680952D02*
X-12738095Y14776190D01*
D10*
X-12690476Y14585714D02*
X-12690476Y14680952D01*
D10*
X-12738095Y14442857D02*
X-12690476Y14585714D01*
D10*
X-12785714Y14395238D02*
X-12738095Y14442857D01*
D10*
X-12880952Y14347619D02*
X-12785714Y14395238D01*
D10*
X-12976190Y14300000D02*
X-13071428Y14347619D01*
D10*
X-12928572Y14252381D02*
X-12976190Y14300000D01*
D10*
X-12880952Y13871429D02*
X-12928572Y14252381D01*
D10*
X-12833333Y13823810D02*
X-12880952Y13871429D01*
D10*
X-12738095Y13823810D02*
X-12833333Y13823810D01*
D10*
X-12690476Y13919048D02*
X-12738095Y13823810D01*
D10*
X-12690476Y13966667D02*
X-12690476Y13919048D01*
D10*
X-12833333Y13919048D02*
X-12928572Y14252381D01*
D10*
X-12785714Y13871429D02*
X-12833333Y13919048D01*
D10*
X-12738095Y13871429D02*
X-12785714Y13871429D01*
D10*
X-12690476Y13919048D02*
X-12738095Y13871429D01*
D10*
X-13309524Y13823810D02*
X-13642857Y13823810D01*
D10*
X-12119048Y14585714D02*
X-12166667Y14633333D01*
D10*
X-12166667Y14538095D02*
X-12119048Y14585714D01*
D10*
X-12214286Y14585714D02*
X-12166667Y14538095D01*
D10*
X-12214286Y14633333D02*
X-12214286Y14585714D01*
D10*
X-12166667Y14728571D02*
X-12214286Y14633333D01*
D10*
X-12119048Y14776190D02*
X-12166667Y14728571D01*
D10*
X-11976190Y14823810D02*
X-12119048Y14776190D01*
D10*
X-11833333Y14823810D02*
X-11976190Y14823810D01*
D10*
X-11690476Y14776190D02*
X-11833333Y14823810D01*
D10*
X-11642857Y14680952D02*
X-11690476Y14776190D01*
D10*
X-11642857Y14585714D02*
X-11642857Y14680952D01*
D10*
X-11690476Y14490476D02*
X-11642857Y14585714D01*
D10*
X-11785714Y14395238D02*
X-11690476Y14490476D01*
D10*
X-11928571Y14300000D02*
X-11785714Y14395238D01*
D10*
X-12119048Y14204762D02*
X-11928571Y14300000D01*
D10*
X-12261905Y14109524D02*
X-12119048Y14204762D01*
D10*
X-12357143Y14014286D02*
X-12261905Y14109524D01*
D10*
X-12452381Y13823810D02*
X-12357143Y14014286D01*
D10*
X-11738095Y14776190D02*
X-11833333Y14823810D01*
D10*
X-11690476Y14680952D02*
X-11738095Y14776190D01*
D10*
X-11690476Y14585714D02*
X-11690476Y14680952D01*
D10*
X-11738095Y14490476D02*
X-11690476Y14585714D01*
D10*
X-11833333Y14395238D02*
X-11738095Y14490476D01*
D10*
X-12119048Y14204762D02*
X-11833333Y14395238D01*
D10*
X-12357143Y13966667D02*
X-12404762Y13919048D01*
D10*
X-12261905Y13966667D02*
X-12357143Y13966667D01*
D10*
X-12023810Y13871429D02*
X-12261905Y13966667D01*
D10*
X-11880952Y13871429D02*
X-12023810Y13871429D01*
D10*
X-11785714Y13919048D02*
X-11880952Y13871429D01*
D10*
X-11738095Y14014286D02*
X-11785714Y13919048D01*
D10*
X-12023810Y13823810D02*
X-12261905Y13966667D01*
D10*
X-11880952Y13823810D02*
X-12023810Y13823810D01*
D10*
X-11785714Y13871429D02*
X-11880952Y13823810D01*
D10*
X-11738095Y14014286D02*
X-11785714Y13871429D01*
D10*
X-10738095Y14633333D02*
X-10690476Y14680952D01*
D10*
X-10690476Y14585714D02*
X-10738095Y14633333D01*
D10*
X-10642857Y14633333D02*
X-10690476Y14585714D01*
D10*
X-10642857Y14680952D02*
X-10642857Y14633333D01*
D10*
X-10690476Y14776190D02*
X-10642857Y14680952D01*
D10*
X-10785714Y14823810D02*
X-10690476Y14776190D01*
D10*
X-10928571Y14823810D02*
X-10785714Y14823810D01*
D10*
X-11071429Y14776190D02*
X-10928571Y14823810D01*
D10*
X-11166667Y14680952D02*
X-11071429Y14776190D01*
D10*
X-11261905Y14538095D02*
X-11166667Y14680952D01*
D10*
X-11309524Y14395238D02*
X-11261905Y14538095D01*
D10*
X-11357143Y14204762D02*
X-11309524Y14395238D01*
D10*
X-11357143Y14014286D02*
X-11357143Y14204762D01*
D10*
X-11309524Y13919048D02*
X-11357143Y14014286D01*
D10*
X-11261905Y13871429D02*
X-11309524Y13919048D01*
D10*
X-11166667Y13823810D02*
X-11261905Y13871429D01*
D10*
X-11023810Y13823810D02*
X-11166667Y13823810D01*
D10*
X-10880952Y13871429D02*
X-11023810Y13823810D01*
D10*
X-10785714Y13966667D02*
X-10880952Y13871429D01*
D10*
X-10738095Y14061905D02*
X-10785714Y13966667D01*
D10*
X-10738095Y14204762D02*
X-10738095Y14061905D01*
D10*
X-10785714Y14300000D02*
X-10738095Y14204762D01*
D10*
X-10833333Y14347619D02*
X-10785714Y14300000D01*
D10*
X-10928571Y14395238D02*
X-10833333Y14347619D01*
D10*
X-11071429Y14395238D02*
X-10928571Y14395238D01*
D10*
X-11166667Y14347619D02*
X-11071429Y14395238D01*
D10*
X-11261905Y14252381D02*
X-11166667Y14347619D01*
D10*
X-11309524Y14157143D02*
X-11261905Y14252381D01*
D10*
X-11023810Y14776190D02*
X-10928571Y14823810D01*
D10*
X-11119048Y14680952D02*
X-11023810Y14776190D01*
D10*
X-11214286Y14538095D02*
X-11119048Y14680952D01*
D10*
X-11261905Y14395238D02*
X-11214286Y14538095D01*
D10*
X-11309524Y14204762D02*
X-11261905Y14395238D01*
D10*
X-11309524Y13966667D02*
X-11309524Y14204762D01*
D10*
X-11261905Y13871429D02*
X-11309524Y13966667D01*
D10*
X-10928571Y13871429D02*
X-11023810Y13823810D01*
D10*
X-10833333Y13966667D02*
X-10928571Y13871429D01*
D10*
X-10785714Y14061905D02*
X-10833333Y13966667D01*
D10*
X-10785714Y14252381D02*
X-10785714Y14061905D01*
D10*
X-10833333Y14347619D02*
X-10785714Y14252381D01*
D10*
X12547619Y24250000D02*
X12690476Y24773810D01*
D10*
X12500000Y24059524D02*
X12547619Y24250000D01*
D10*
X12500000Y23916666D02*
X12500000Y24059524D01*
D10*
X12547619Y23821428D02*
X12500000Y23916666D01*
D10*
X12690476Y23773810D02*
X12547619Y23821428D01*
D10*
X12880952Y23773810D02*
X12690476Y23773810D01*
D10*
X13023810Y23821428D02*
X12880952Y23773810D01*
D10*
X13119048Y23916666D02*
X13023810Y23821428D01*
D10*
X13166667Y24059524D02*
X13119048Y23916666D01*
D10*
X13357143Y24773810D02*
X13166667Y24059524D01*
D10*
X12595238Y24250000D02*
X12738095Y24773810D01*
D10*
X12547619Y24059524D02*
X12595238Y24250000D01*
D10*
X12547619Y23916666D02*
X12547619Y24059524D01*
D10*
X12595238Y23821428D02*
X12547619Y23916666D01*
D10*
X12690476Y23773810D02*
X12595238Y23821428D01*
D10*
X12880952Y24773810D02*
X12547619Y24773810D01*
D10*
X13500000Y24773810D02*
X13214286Y24773810D01*
D10*
X13833333Y23773810D02*
X14071429Y24583334D01*
D10*
X13880952Y23773810D02*
X14166667Y24773810D01*
D10*
X14023810Y24630952D02*
X14166667Y24773810D01*
D10*
X13880952Y24535714D02*
X14023810Y24630952D01*
D10*
X13785714Y24488096D02*
X13880952Y24535714D01*
D10*
X13928571Y24535714D02*
X14119048Y24630952D01*
D10*
X13785714Y24488096D02*
X13928571Y24535714D01*
D10*
X-10807143Y17273810D02*
X-10521429Y18273810D01*
D10*
X-10759524Y17273810D02*
X-10473810Y18273810D01*
D10*
X-10140476Y18273810D02*
X-10664286Y18273810D01*
D10*
X-9997619Y18226190D02*
X-10140476Y18273810D01*
D10*
X-9950000Y18130952D02*
X-9997619Y18226190D01*
D10*
X-9950000Y18035714D02*
X-9950000Y18130952D01*
D10*
X-9997619Y17892858D02*
X-9950000Y18035714D01*
D10*
X-10045238Y17845238D02*
X-9997619Y17892858D01*
D10*
X-10188095Y17797620D02*
X-10045238Y17845238D01*
D10*
X-10616667Y17797620D02*
X-10188095Y17797620D01*
D10*
X-10045238Y18226190D02*
X-10140476Y18273810D01*
D10*
X-9997619Y18130952D02*
X-10045238Y18226190D01*
D10*
X-9997619Y18035714D02*
X-9997619Y18130952D01*
D10*
X-10045238Y17892858D02*
X-9997619Y18035714D01*
D10*
X-10092857Y17845238D02*
X-10045238Y17892858D01*
D10*
X-10188095Y17797620D02*
X-10092857Y17845238D01*
D10*
X-10283333Y17750000D02*
X-10378571Y17797620D01*
D10*
X-10235714Y17702380D02*
X-10283333Y17750000D01*
D10*
X-10188095Y17321428D02*
X-10235714Y17702380D01*
D10*
X-10140476Y17273810D02*
X-10188095Y17321428D01*
D10*
X-10045238Y17273810D02*
X-10140476Y17273810D01*
D10*
X-9997619Y17369048D02*
X-10045238Y17273810D01*
D10*
X-9997619Y17416666D02*
X-9997619Y17369048D01*
D10*
X-10140476Y17369048D02*
X-10235714Y17702380D01*
D10*
X-10092857Y17321428D02*
X-10140476Y17369048D01*
D10*
X-10045238Y17321428D02*
X-10092857Y17321428D01*
D10*
X-9997619Y17369048D02*
X-10045238Y17321428D01*
D10*
X-10616667Y17273810D02*
X-10950000Y17273810D01*
D10*
X-9426190Y18035714D02*
X-9473810Y18083334D01*
D10*
X-9473810Y17988096D02*
X-9426190Y18035714D01*
D10*
X-9521429Y18035714D02*
X-9473810Y17988096D01*
D10*
X-9521429Y18083334D02*
X-9521429Y18035714D01*
D10*
X-9473810Y18178572D02*
X-9521429Y18083334D01*
D10*
X-9426190Y18226190D02*
X-9473810Y18178572D01*
D10*
X-9283333Y18273810D02*
X-9426190Y18226190D01*
D10*
X-9140476Y18273810D02*
X-9283333Y18273810D01*
D10*
X-8997619Y18226190D02*
X-9140476Y18273810D01*
D10*
X-8950000Y18130952D02*
X-8997619Y18226190D01*
D10*
X-8950000Y18035714D02*
X-8950000Y18130952D01*
D10*
X-8997619Y17940476D02*
X-8950000Y18035714D01*
D10*
X-9092857Y17845238D02*
X-8997619Y17940476D01*
D10*
X-9235714Y17750000D02*
X-9092857Y17845238D01*
D10*
X-9426190Y17654762D02*
X-9235714Y17750000D01*
D10*
X-9569048Y17559524D02*
X-9426190Y17654762D01*
D10*
X-9664286Y17464286D02*
X-9569048Y17559524D01*
D10*
X-9759524Y17273810D02*
X-9664286Y17464286D01*
D10*
X-9045238Y18226190D02*
X-9140476Y18273810D01*
D10*
X-8997619Y18130952D02*
X-9045238Y18226190D01*
D10*
X-8997619Y18035714D02*
X-8997619Y18130952D01*
D10*
X-9045238Y17940476D02*
X-8997619Y18035714D01*
D10*
X-9140476Y17845238D02*
X-9045238Y17940476D01*
D10*
X-9426190Y17654762D02*
X-9140476Y17845238D01*
D10*
X-9664286Y17416666D02*
X-9711905Y17369048D01*
D10*
X-9569048Y17416666D02*
X-9664286Y17416666D01*
D10*
X-9330952Y17321428D02*
X-9569048Y17416666D01*
D10*
X-9188095Y17321428D02*
X-9330952Y17321428D01*
D10*
X-9092857Y17369048D02*
X-9188095Y17321428D01*
D10*
X-9045238Y17464286D02*
X-9092857Y17369048D01*
D10*
X-9330952Y17273810D02*
X-9569048Y17416666D01*
D10*
X-9188095Y17273810D02*
X-9330952Y17273810D01*
D10*
X-9092857Y17321428D02*
X-9188095Y17273810D01*
D10*
X-9045238Y17464286D02*
X-9092857Y17321428D01*
D10*
X-8616667Y17988096D02*
X-8521428Y18273810D01*
D10*
X-7950000Y18130952D02*
X-7902381Y18273810D01*
D10*
X-8045238Y17988096D02*
X-7950000Y18130952D01*
D10*
X-8283333Y17702380D02*
X-8045238Y17988096D01*
D10*
X-8378571Y17559524D02*
X-8283333Y17702380D01*
D10*
X-8426190Y17464286D02*
X-8378571Y17559524D01*
D10*
X-8473810Y17273810D02*
X-8426190Y17464286D01*
D10*
X-8330952Y17702380D02*
X-8045238Y17988096D01*
D10*
X-8426190Y17559524D02*
X-8330952Y17702380D01*
D10*
X-8473810Y17464286D02*
X-8426190Y17559524D01*
D10*
X-8521428Y17273810D02*
X-8473810Y17464286D01*
D10*
X-8426190Y18273810D02*
X-8569048Y18130952D01*
D10*
X-8330952Y18273810D02*
X-8426190Y18273810D01*
D10*
X-8092857Y18130952D02*
X-8330952Y18273810D01*
D10*
X-8426190Y18226190D02*
X-8521428Y18178572D01*
D10*
X-8330952Y18226190D02*
X-8426190Y18226190D01*
D10*
X-8092857Y18130952D02*
X-8330952Y18226190D01*
D10*
X-7997619Y18130952D02*
X-8092857Y18130952D01*
D10*
X-7950000Y18178572D02*
X-7997619Y18130952D01*
D10*
X-7902381Y18273810D02*
X-7950000Y18178572D01*
D10*
X-10523810Y702381D02*
X-11523810Y988095D01*
D10*
X-10523810Y750000D02*
X-11523810Y1035714D01*
D10*
X-10857143Y1130952D02*
X-11238095Y1226190D01*
D10*
X-11523810Y1559523D02*
X-11523810Y845238D01*
D10*
X-11238095Y1511904D02*
X-11523810Y1559523D01*
D10*
X-11523810Y1511904D02*
X-11238095Y1511904D01*
D10*
X-11047619Y1178571D02*
X-11047619Y892857D01*
D10*
X-10523810Y892857D02*
X-10523810Y559523D01*
D10*
X-10523810Y1750000D02*
X-11523810Y2035714D01*
D10*
X-10523810Y1797619D02*
X-11523810Y2083333D01*
D10*
X-11523810Y2416666D02*
X-11523810Y1892857D01*
D10*
X-11476190Y2559524D02*
X-11523810Y2416666D01*
D10*
X-11380952Y2607143D02*
X-11476190Y2559524D01*
D10*
X-11285714Y2607143D02*
X-11380952Y2607143D01*
D10*
X-11142857Y2559524D02*
X-11285714Y2607143D01*
D10*
X-11095238Y2511904D02*
X-11142857Y2559524D01*
D10*
X-11047619Y2369047D02*
X-11095238Y2511904D01*
D10*
X-11476190Y2511904D02*
X-11523810Y2416666D01*
D10*
X-11380952Y2559524D02*
X-11476190Y2511904D01*
D10*
X-11285714Y2559524D02*
X-11380952Y2559524D01*
D10*
X-11142857Y2511904D02*
X-11285714Y2559524D01*
D10*
X-11095238Y2464285D02*
X-11142857Y2511904D01*
D10*
X-11047619Y2369047D02*
X-11095238Y2464285D01*
D10*
X-11047619Y2369047D02*
X-11047619Y1940476D01*
D10*
X-11000000Y2464285D02*
X-11047619Y2369047D01*
D10*
X-10904762Y2511904D02*
X-11000000Y2464285D01*
D10*
X-10809524Y2511904D02*
X-10904762Y2511904D01*
D10*
X-10666667Y2464285D02*
X-10809524Y2511904D01*
D10*
X-10571429Y2369047D02*
X-10666667Y2464285D01*
D10*
X-10523810Y2178571D02*
X-10571429Y2369047D01*
D10*
X-10523810Y1607143D02*
X-10523810Y2178571D01*
D10*
X-11000000Y2416666D02*
X-11047619Y2369047D01*
D10*
X-10904762Y2464285D02*
X-11000000Y2416666D01*
D10*
X-10809524Y2464285D02*
X-10904762Y2464285D01*
D10*
X-10666667Y2416666D02*
X-10809524Y2464285D01*
D10*
X-10571429Y2321428D02*
X-10666667Y2416666D01*
D10*
X-10523810Y2178571D02*
X-10571429Y2321428D01*
D10*
X-10523810Y3083333D02*
X-11333333Y3321428D01*
D10*
X-10523810Y3130952D02*
X-11523810Y3416666D01*
D10*
X-11380952Y3273809D02*
X-11523810Y3416666D01*
D10*
X-11285714Y3130952D02*
X-11380952Y3273809D01*
D10*
X-11238095Y3035714D02*
X-11285714Y3130952D01*
D10*
X-11285714Y3178571D02*
X-11380952Y3369047D01*
D10*
X-11238095Y3035714D02*
X-11285714Y3178571D01*
D10*
X11528571Y11566188D02*
X11671429Y11613808D01*
D10*
X11433333Y11470950D02*
X11528571Y11566188D01*
D10*
X11338095Y11328093D02*
X11433333Y11470950D01*
D10*
X11290476Y11185236D02*
X11338095Y11328093D01*
D10*
X11242857Y10994760D02*
X11290476Y11185236D01*
D10*
X11242857Y10851903D02*
X11242857Y10994760D01*
D10*
X11290476Y10709046D02*
X11242857Y10851903D01*
D10*
X11338095Y10661427D02*
X11290476Y10709046D01*
D10*
X11433333Y10613808D02*
X11338095Y10661427D01*
D10*
X11576190Y10613808D02*
X11433333Y10613808D01*
D10*
X11719048Y10661427D02*
X11576190Y10613808D01*
D10*
X11814286Y10756665D02*
X11719048Y10661427D01*
D10*
X11909524Y10899522D02*
X11814286Y10756665D01*
D10*
X11957143Y11042379D02*
X11909524Y10899522D01*
D10*
X12004762Y11232855D02*
X11957143Y11042379D01*
D10*
X12004762Y11375712D02*
X12004762Y11232855D01*
D10*
X11957143Y11518569D02*
X12004762Y11375712D01*
D10*
X11909524Y11566188D02*
X11957143Y11518569D01*
D10*
X11814286Y11613808D02*
X11909524Y11566188D01*
D10*
X11671429Y11613808D02*
X11814286Y11613808D01*
D10*
X11576190Y11566188D02*
X11671429Y11613808D01*
D10*
X11480952Y11470950D02*
X11576190Y11566188D01*
D10*
X11385714Y11328093D02*
X11480952Y11470950D01*
D10*
X11338095Y11185236D02*
X11385714Y11328093D01*
D10*
X11290476Y10994760D02*
X11338095Y11185236D01*
D10*
X11290476Y10851903D02*
X11290476Y10994760D01*
D10*
X11338095Y10709046D02*
X11290476Y10851903D01*
D10*
X11433333Y10613808D02*
X11338095Y10709046D01*
D10*
X11671429Y10661427D02*
X11576190Y10613808D01*
D10*
X11766667Y10756665D02*
X11671429Y10661427D01*
D10*
X11861905Y10899522D02*
X11766667Y10756665D01*
D10*
X11909524Y11042379D02*
X11861905Y10899522D01*
D10*
X11957143Y11232855D02*
X11909524Y11042379D01*
D10*
X11957143Y11375712D02*
X11957143Y11232855D01*
D10*
X11909524Y11518569D02*
X11957143Y11375712D01*
D10*
X11814286Y11613808D02*
X11909524Y11518569D01*
D10*
X11338095Y10756665D02*
X11338095Y10709046D01*
D10*
X11385714Y10851903D02*
X11338095Y10756665D01*
D10*
X11480952Y10899522D02*
X11385714Y10851903D01*
D10*
X11528571Y10899522D02*
X11480952Y10899522D01*
D10*
X11623810Y10851903D02*
X11528571Y10899522D01*
D10*
X11671429Y10756665D02*
X11623810Y10851903D01*
D10*
X11671429Y10423331D02*
X11671429Y10756665D01*
D10*
X11719048Y10375712D02*
X11671429Y10423331D01*
D10*
X11814286Y10375712D02*
X11719048Y10375712D01*
D10*
X11861905Y10470950D02*
X11814286Y10375712D01*
D10*
X11861905Y10518569D02*
X11861905Y10470950D01*
D10*
X11719048Y10470950D02*
X11671429Y10756665D01*
D10*
X11766667Y10423331D02*
X11719048Y10470950D01*
D10*
X11814286Y10423331D02*
X11766667Y10423331D01*
D10*
X11861905Y10470950D02*
X11814286Y10423331D01*
D10*
X12480952Y10613808D02*
X12719048Y11423331D01*
D10*
X12528571Y10613808D02*
X12814286Y11613808D01*
D10*
X12671428Y11470950D02*
X12814286Y11613808D01*
D10*
X12528571Y11375712D02*
X12671428Y11470950D01*
D10*
X12433333Y11328093D02*
X12528571Y11375712D01*
D10*
X12576190Y11375712D02*
X12766667Y11470950D01*
D10*
X12433333Y11328093D02*
X12576190Y11375712D01*
D10*
X-15607143Y523809D02*
X-15321429Y1523809D01*
D10*
X-15559524Y523809D02*
X-15273810Y1523809D01*
D10*
X-14940476Y1523809D02*
X-15464286Y1523809D01*
D10*
X-14797619Y1476190D02*
X-14940476Y1523809D01*
D10*
X-14750000Y1380952D02*
X-14797619Y1476190D01*
D10*
X-14750000Y1285714D02*
X-14750000Y1380952D01*
D10*
X-14797619Y1142857D02*
X-14750000Y1285714D01*
D10*
X-14845238Y1095238D02*
X-14797619Y1142857D01*
D10*
X-14988095Y1047619D02*
X-14845238Y1095238D01*
D10*
X-15416667Y1047619D02*
X-14988095Y1047619D01*
D10*
X-14845238Y1476190D02*
X-14940476Y1523809D01*
D10*
X-14797619Y1380952D02*
X-14845238Y1476190D01*
D10*
X-14797619Y1285714D02*
X-14797619Y1380952D01*
D10*
X-14845238Y1142857D02*
X-14797619Y1285714D01*
D10*
X-14892857Y1095238D02*
X-14845238Y1142857D01*
D10*
X-14988095Y1047619D02*
X-14892857Y1095238D01*
D10*
X-15083333Y1000000D02*
X-15178571Y1047619D01*
D10*
X-15035714Y952380D02*
X-15083333Y1000000D01*
D10*
X-14988095Y571428D02*
X-15035714Y952380D01*
D10*
X-14940476Y523809D02*
X-14988095Y571428D01*
D10*
X-14845238Y523809D02*
X-14940476Y523809D01*
D10*
X-14797619Y619047D02*
X-14845238Y523809D01*
D10*
X-14797619Y666666D02*
X-14797619Y619047D01*
D10*
X-14940476Y619047D02*
X-15035714Y952380D01*
D10*
X-14892857Y571428D02*
X-14940476Y619047D01*
D10*
X-14845238Y571428D02*
X-14892857Y571428D01*
D10*
X-14797619Y619047D02*
X-14845238Y571428D01*
D10*
X-15416667Y523809D02*
X-15750000Y523809D01*
D10*
X-14226190Y1285714D02*
X-14273810Y1333333D01*
D10*
X-14273810Y1238095D02*
X-14226190Y1285714D01*
D10*
X-14321429Y1285714D02*
X-14273810Y1238095D01*
D10*
X-14321429Y1333333D02*
X-14321429Y1285714D01*
D10*
X-14273810Y1428571D02*
X-14321429Y1333333D01*
D10*
X-14226190Y1476190D02*
X-14273810Y1428571D01*
D10*
X-14083333Y1523809D02*
X-14226190Y1476190D01*
D10*
X-13940476Y1523809D02*
X-14083333Y1523809D01*
D10*
X-13797619Y1476190D02*
X-13940476Y1523809D01*
D10*
X-13750000Y1380952D02*
X-13797619Y1476190D01*
D10*
X-13750000Y1285714D02*
X-13750000Y1380952D01*
D10*
X-13797619Y1190476D02*
X-13750000Y1285714D01*
D10*
X-13940476Y1095238D02*
X-13797619Y1190476D01*
D10*
X-14083333Y1047619D02*
X-13940476Y1095238D01*
D10*
X-13845238Y1476190D02*
X-13940476Y1523809D01*
D10*
X-13797619Y1380952D02*
X-13845238Y1476190D01*
D10*
X-13797619Y1285714D02*
X-13797619Y1380952D01*
D10*
X-13845238Y1190476D02*
X-13797619Y1285714D01*
D10*
X-13940476Y1095238D02*
X-13845238Y1190476D01*
D10*
X-14083333Y1047619D02*
X-14178572Y1047619D01*
D10*
X-13940476Y1000000D02*
X-14083333Y1047619D01*
D10*
X-13892857Y952380D02*
X-13940476Y1000000D01*
D10*
X-13845238Y857142D02*
X-13892857Y952380D01*
D10*
X-13845238Y714285D02*
X-13845238Y857142D01*
D10*
X-13892857Y619047D02*
X-13845238Y714285D01*
D10*
X-13940476Y571428D02*
X-13892857Y619047D01*
D10*
X-14083333Y523809D02*
X-13940476Y571428D01*
D10*
X-14273810Y523809D02*
X-14083333Y523809D01*
D10*
X-14416667Y571428D02*
X-14273810Y523809D01*
D10*
X-14464286Y619047D02*
X-14416667Y571428D01*
D10*
X-14511905Y714285D02*
X-14464286Y619047D01*
D10*
X-14511905Y761904D02*
X-14511905Y714285D01*
D10*
X-14464286Y809523D02*
X-14511905Y761904D01*
D10*
X-14416667Y761904D02*
X-14464286Y809523D01*
D10*
X-14464286Y714285D02*
X-14416667Y761904D01*
D10*
X-13988095Y1000000D02*
X-14083333Y1047619D01*
D10*
X-13940476Y952380D02*
X-13988095Y1000000D01*
D10*
X-13892857Y857142D02*
X-13940476Y952380D01*
D10*
X-13892857Y714285D02*
X-13892857Y857142D01*
D10*
X-13940476Y619047D02*
X-13892857Y714285D01*
D10*
X-13988095Y571428D02*
X-13940476Y619047D01*
D10*
X-14083333Y523809D02*
X-13988095Y571428D01*
D10*
X-7053571Y15279762D02*
X-7053571Y15232143D01*
D10*
X-7148809Y15327381D02*
X-7053571Y15279762D01*
D10*
X-6863095Y15279762D02*
X-7148809Y15327381D01*
D10*
X-6958333Y15279762D02*
X-6863095Y15279762D01*
D10*
X-7053571Y15232143D02*
X-6958333Y15279762D01*
D10*
X-7101190Y15184524D02*
X-7053571Y15232143D01*
D10*
X-7148809Y15089286D02*
X-7101190Y15184524D01*
D10*
X-7148809Y14946429D02*
X-7148809Y15089286D01*
D10*
X-7101190Y14803571D02*
X-7148809Y14946429D01*
D10*
X-7005952Y14708333D02*
X-7101190Y14803571D01*
D10*
X-6863095Y14613095D02*
X-7005952Y14708333D01*
D10*
X-6720238Y14565476D02*
X-6863095Y14613095D01*
D10*
X-6529762Y14517857D02*
X-6720238Y14565476D01*
D10*
X-6386905Y14517857D02*
X-6529762Y14517857D01*
D10*
X-6244047Y14565476D02*
X-6386905Y14517857D01*
D10*
X-6196428Y14613095D02*
X-6244047Y14565476D01*
D10*
X-6148809Y14755952D02*
X-6196428Y14613095D01*
D10*
X-6148809Y14898810D02*
X-6148809Y14755952D01*
D10*
X-6196428Y14994048D02*
X-6148809Y14898810D01*
D10*
X-6291666Y15089286D02*
X-6196428Y14994048D01*
D10*
X-6386905Y15136905D02*
X-6291666Y15089286D01*
D10*
X-7101190Y14851190D02*
X-7148809Y14946429D01*
D10*
X-7005952Y14755952D02*
X-7101190Y14851190D01*
D10*
X-6863095Y14660714D02*
X-7005952Y14755952D01*
D10*
X-6720238Y14613095D02*
X-6863095Y14660714D01*
D10*
X-6529762Y14565476D02*
X-6720238Y14613095D01*
D10*
X-6386905Y14565476D02*
X-6529762Y14565476D01*
D10*
X-6244047Y14613095D02*
X-6386905Y14565476D01*
D10*
X-6196428Y14660714D02*
X-6244047Y14613095D01*
D10*
X-6148809Y14755952D02*
X-6196428Y14660714D01*
D10*
X-6910714Y15755952D02*
X-6958333Y15708333D01*
D10*
X-6863095Y15708333D02*
X-6910714Y15755952D01*
D10*
X-6910714Y15660714D02*
X-6863095Y15708333D01*
D10*
X-6958333Y15660714D02*
X-6910714Y15660714D01*
D10*
X-7053571Y15708333D02*
X-6958333Y15660714D01*
D10*
X-7101190Y15755952D02*
X-7053571Y15708333D01*
D10*
X-7148809Y15898810D02*
X-7101190Y15755952D01*
D10*
X-7148809Y16041667D02*
X-7148809Y15898810D01*
D10*
X-7101190Y16184524D02*
X-7148809Y16041667D01*
D10*
X-7005952Y16232143D02*
X-7101190Y16184524D01*
D10*
X-6910714Y16232143D02*
X-7005952Y16232143D01*
D10*
X-6815476Y16184524D02*
X-6910714Y16232143D01*
D10*
X-6720238Y16089286D02*
X-6815476Y16184524D01*
D10*
X-6625000Y15946428D02*
X-6720238Y16089286D01*
D10*
X-6529762Y15755952D02*
X-6625000Y15946428D01*
D10*
X-6434524Y15613095D02*
X-6529762Y15755952D01*
D10*
X-6339285Y15517857D02*
X-6434524Y15613095D01*
D10*
X-6148809Y15422619D02*
X-6339285Y15517857D01*
D10*
X-7101190Y16136905D02*
X-7148809Y16041667D01*
D10*
X-7005952Y16184524D02*
X-7101190Y16136905D01*
D10*
X-6910714Y16184524D02*
X-7005952Y16184524D01*
D10*
X-6815476Y16136905D02*
X-6910714Y16184524D01*
D10*
X-6720238Y16041667D02*
X-6815476Y16136905D01*
D10*
X-6529762Y15755952D02*
X-6720238Y16041667D01*
D10*
X-6291666Y15517857D02*
X-6244047Y15470238D01*
D10*
X-6291666Y15613095D02*
X-6291666Y15517857D01*
D10*
X-6196428Y15851190D02*
X-6291666Y15613095D01*
D10*
X-6196428Y15994048D02*
X-6196428Y15851190D01*
D10*
X-6244047Y16089286D02*
X-6196428Y15994048D01*
D10*
X-6339285Y16136905D02*
X-6244047Y16089286D01*
D10*
X-6148809Y15851190D02*
X-6291666Y15613095D01*
D10*
X-6148809Y15994048D02*
X-6148809Y15851190D01*
D10*
X-6196428Y16089286D02*
X-6148809Y15994048D01*
D10*
X-6339285Y16136905D02*
X-6196428Y16089286D01*
D10*
X-6958333Y17136904D02*
X-7005952Y17184524D01*
D10*
X-6910714Y17184524D02*
X-6958333Y17136904D01*
D10*
X-6958333Y17232142D02*
X-6910714Y17184524D01*
D10*
X-7005952Y17232142D02*
X-6958333Y17232142D01*
D10*
X-7101190Y17184524D02*
X-7005952Y17232142D01*
D10*
X-7148809Y17089286D02*
X-7101190Y17184524D01*
D10*
X-7148809Y16946428D02*
X-7148809Y17089286D01*
D10*
X-7101190Y16803572D02*
X-7148809Y16946428D01*
D10*
X-7005952Y16708333D02*
X-7101190Y16803572D01*
D10*
X-6863095Y16613095D02*
X-7005952Y16708333D01*
D10*
X-6720238Y16565476D02*
X-6863095Y16613095D01*
D10*
X-6529762Y16517857D02*
X-6720238Y16565476D01*
D10*
X-6339285Y16517857D02*
X-6529762Y16517857D01*
D10*
X-6244047Y16565476D02*
X-6339285Y16517857D01*
D10*
X-6196428Y16613095D02*
X-6244047Y16565476D01*
D10*
X-6148809Y16708333D02*
X-6196428Y16613095D01*
D10*
X-6148809Y16851190D02*
X-6148809Y16708333D01*
D10*
X-6196428Y16994048D02*
X-6148809Y16851190D01*
D10*
X-6291666Y17089286D02*
X-6196428Y16994048D01*
D10*
X-6386905Y17136904D02*
X-6291666Y17089286D01*
D10*
X-6529762Y17136904D02*
X-6386905Y17136904D01*
D10*
X-6625000Y17089286D02*
X-6529762Y17136904D01*
D10*
X-6672619Y17041666D02*
X-6625000Y17089286D01*
D10*
X-6720238Y16946428D02*
X-6672619Y17041666D01*
D10*
X-6720238Y16803572D02*
X-6720238Y16946428D01*
D10*
X-6672619Y16708333D02*
X-6720238Y16803572D01*
D10*
X-6577381Y16613095D02*
X-6672619Y16708333D01*
D10*
X-6482143Y16565476D02*
X-6577381Y16613095D01*
D10*
X-7101190Y16851190D02*
X-7148809Y16946428D01*
D10*
X-7005952Y16755952D02*
X-7101190Y16851190D01*
D10*
X-6863095Y16660714D02*
X-7005952Y16755952D01*
D10*
X-6720238Y16613095D02*
X-6863095Y16660714D01*
D10*
X-6529762Y16565476D02*
X-6720238Y16613095D01*
D10*
X-6291666Y16565476D02*
X-6529762Y16565476D01*
D10*
X-6196428Y16613095D02*
X-6291666Y16565476D01*
D10*
X-6196428Y16946428D02*
X-6148809Y16851190D01*
D10*
X-6291666Y17041666D02*
X-6196428Y16946428D01*
D10*
X-6386905Y17089286D02*
X-6291666Y17041666D01*
D10*
X-6577381Y17089286D02*
X-6386905Y17089286D01*
D10*
X-6672619Y17041666D02*
X-6577381Y17089286D01*
D10*
X17726190Y10892857D02*
X16726190Y11178571D01*
D10*
X17726190Y10940476D02*
X16726190Y11226190D01*
D10*
X16726190Y11559524D02*
X16726190Y11035714D01*
D10*
X16773810Y11702381D02*
X16726190Y11559524D01*
D10*
X16869048Y11750000D02*
X16773810Y11702381D01*
D10*
X16964286Y11750000D02*
X16869048Y11750000D01*
D10*
X17107142Y11702381D02*
X16964286Y11750000D01*
D10*
X17154762Y11654762D02*
X17107142Y11702381D01*
D10*
X17202380Y11511905D02*
X17154762Y11654762D01*
D10*
X17202380Y11083333D02*
X17202380Y11511905D01*
D10*
X16773810Y11654762D02*
X16726190Y11559524D01*
D10*
X16869048Y11702381D02*
X16773810Y11654762D01*
D10*
X16964286Y11702381D02*
X16869048Y11702381D01*
D10*
X17107142Y11654762D02*
X16964286Y11702381D01*
D10*
X17154762Y11607143D02*
X17107142Y11654762D01*
D10*
X17202380Y11511905D02*
X17154762Y11607143D01*
D10*
X17250000Y11416667D02*
X17202380Y11321429D01*
D10*
X17297620Y11464286D02*
X17250000Y11416667D01*
D10*
X17678572Y11511905D02*
X17297620Y11464286D01*
D10*
X17726190Y11559524D02*
X17678572Y11511905D01*
D10*
X17726190Y11654762D02*
X17726190Y11559524D01*
D10*
X17630952Y11702381D02*
X17726190Y11654762D01*
D10*
X17583334Y11702381D02*
X17630952Y11702381D01*
D10*
X17630952Y11559524D02*
X17297620Y11464286D01*
D10*
X17678572Y11607143D02*
X17630952Y11559524D01*
D10*
X17678572Y11654762D02*
X17678572Y11607143D01*
D10*
X17630952Y11702381D02*
X17678572Y11654762D01*
D10*
X17726190Y11083333D02*
X17726190Y10750000D01*
D10*
X16773810Y12273810D02*
X16726190Y12416667D01*
D10*
X16821428Y12226190D02*
X16773810Y12273810D01*
D10*
X16916666Y12178571D02*
X16821428Y12226190D01*
D10*
X17059524Y12178571D02*
X16916666Y12178571D01*
D10*
X17154762Y12226190D02*
X17059524Y12178571D01*
D10*
X17202380Y12321428D02*
X17154762Y12226190D01*
D10*
X17202380Y12464286D02*
X17202380Y12321428D01*
D10*
X17154762Y12654762D02*
X17202380Y12464286D01*
D10*
X17107142Y12702381D02*
X17154762Y12654762D01*
D10*
X17011904Y12750000D02*
X17107142Y12702381D01*
D10*
X16869048Y12750000D02*
X17011904Y12750000D01*
D10*
X16773810Y12702381D02*
X16869048Y12750000D01*
D10*
X16726190Y12559524D02*
X16773810Y12702381D01*
D10*
X16726190Y12416667D02*
X16726190Y12559524D01*
D10*
X16773810Y12321428D02*
X16726190Y12416667D01*
D10*
X16821428Y12273810D02*
X16773810Y12321428D01*
D10*
X16916666Y12226190D02*
X16821428Y12273810D01*
D10*
X17059524Y12226190D02*
X16916666Y12226190D01*
D10*
X17154762Y12273810D02*
X17059524Y12226190D01*
D10*
X17202380Y12321428D02*
X17154762Y12273810D01*
D10*
X17154762Y12607143D02*
X17202380Y12464286D01*
D10*
X17107142Y12654762D02*
X17154762Y12607143D01*
D10*
X17011904Y12702381D02*
X17107142Y12654762D01*
D10*
X16869048Y12702381D02*
X17011904Y12702381D01*
D10*
X16773810Y12654762D02*
X16869048Y12702381D01*
D10*
X16726190Y12559524D02*
X16773810Y12654762D01*
D10*
X17250000Y12130952D02*
X17202380Y12321428D01*
D10*
X17345238Y12035714D02*
X17250000Y12130952D01*
D10*
X17440476Y11988095D02*
X17345238Y12035714D01*
D10*
X17583334Y11988095D02*
X17440476Y11988095D01*
D10*
X17678572Y12035714D02*
X17583334Y11988095D01*
D10*
X17726190Y12178571D02*
X17678572Y12035714D01*
D10*
X17726190Y12369048D02*
X17726190Y12178571D01*
D10*
X17678572Y12559524D02*
X17726190Y12369048D01*
D10*
X17630952Y12607143D02*
X17678572Y12559524D01*
D10*
X17535714Y12654762D02*
X17630952Y12607143D01*
D10*
X17392858Y12654762D02*
X17535714Y12654762D01*
D10*
X17297620Y12607143D02*
X17392858Y12654762D01*
D10*
X17250000Y12559524D02*
X17297620Y12607143D01*
D10*
X17202380Y12464286D02*
X17250000Y12559524D01*
D10*
X17250000Y12178571D02*
X17202380Y12321428D01*
D10*
X17345238Y12083333D02*
X17250000Y12178571D01*
D10*
X17440476Y12035714D02*
X17345238Y12083333D01*
D10*
X17583334Y12035714D02*
X17440476Y12035714D01*
D10*
X17678572Y12083333D02*
X17583334Y12035714D01*
D10*
X17726190Y12178571D02*
X17678572Y12083333D01*
D10*
X17678572Y12511905D02*
X17726190Y12369048D01*
D10*
X17630952Y12559524D02*
X17678572Y12511905D01*
D10*
X17535714Y12607143D02*
X17630952Y12559524D01*
D10*
X17345238Y12607143D02*
X17535714Y12607143D01*
D10*
X17250000Y12559524D02*
X17345238Y12607143D01*
D10*
X4821428Y51904760D02*
X4821428Y51857144D01*
D10*
X4726190Y51952380D02*
X4821428Y51904760D01*
D10*
X5011905Y51904760D02*
X4726190Y51952380D01*
D10*
X4916666Y51904760D02*
X5011905Y51904760D01*
D10*
X4821428Y51857144D02*
X4916666Y51904760D01*
D10*
X4773809Y51809524D02*
X4821428Y51857144D01*
D10*
X4726190Y51714284D02*
X4773809Y51809524D01*
D10*
X4726190Y51571428D02*
X4726190Y51714284D01*
D10*
X4773809Y51428572D02*
X4726190Y51571428D01*
D10*
X4869047Y51333332D02*
X4773809Y51428572D01*
D10*
X5011905Y51238096D02*
X4869047Y51333332D01*
D10*
X5154762Y51190476D02*
X5011905Y51238096D01*
D10*
X5345238Y51142856D02*
X5154762Y51190476D01*
D10*
X5488095Y51142856D02*
X5345238Y51142856D01*
D10*
X5630952Y51190476D02*
X5488095Y51142856D01*
D10*
X5678571Y51238096D02*
X5630952Y51190476D01*
D10*
X5726190Y51380952D02*
X5678571Y51238096D01*
D10*
X5726190Y51523808D02*
X5726190Y51380952D01*
D10*
X5678571Y51619048D02*
X5726190Y51523808D01*
D10*
X5583333Y51714284D02*
X5678571Y51619048D01*
D10*
X5488095Y51761904D02*
X5583333Y51714284D01*
D10*
X4773809Y51476192D02*
X4726190Y51571428D01*
D10*
X4869047Y51380952D02*
X4773809Y51476192D01*
D10*
X5011905Y51285716D02*
X4869047Y51380952D01*
D10*
X5154762Y51238096D02*
X5011905Y51285716D01*
D10*
X5345238Y51190476D02*
X5154762Y51238096D01*
D10*
X5488095Y51190476D02*
X5345238Y51190476D01*
D10*
X5630952Y51238096D02*
X5488095Y51190476D01*
D10*
X5678571Y51285716D02*
X5630952Y51238096D01*
D10*
X5726190Y51380952D02*
X5678571Y51285716D01*
D10*
X4916666Y52761904D02*
X4869047Y52809524D01*
D10*
X4964285Y52809524D02*
X4916666Y52761904D01*
D10*
X4916666Y52857144D02*
X4964285Y52809524D01*
D10*
X4869047Y52857144D02*
X4916666Y52857144D01*
D10*
X4773809Y52809524D02*
X4869047Y52857144D01*
D10*
X4726190Y52714284D02*
X4773809Y52809524D01*
D10*
X4726190Y52571428D02*
X4726190Y52714284D01*
D10*
X4773809Y52428572D02*
X4726190Y52571428D01*
D10*
X4869047Y52333332D02*
X4773809Y52428572D01*
D10*
X5011905Y52238096D02*
X4869047Y52333332D01*
D10*
X5154762Y52190476D02*
X5011905Y52238096D01*
D10*
X5345238Y52142856D02*
X5154762Y52190476D01*
D10*
X5535714Y52142856D02*
X5345238Y52142856D01*
D10*
X5630952Y52190476D02*
X5535714Y52142856D01*
D10*
X5678571Y52238096D02*
X5630952Y52190476D01*
D10*
X5726190Y52333332D02*
X5678571Y52238096D01*
D10*
X5726190Y52476192D02*
X5726190Y52333332D01*
D10*
X5678571Y52619048D02*
X5726190Y52476192D01*
D10*
X5583333Y52714284D02*
X5678571Y52619048D01*
D10*
X5488095Y52761904D02*
X5583333Y52714284D01*
D10*
X5345238Y52761904D02*
X5488095Y52761904D01*
D10*
X5250000Y52714284D02*
X5345238Y52761904D01*
D10*
X5202381Y52666668D02*
X5250000Y52714284D01*
D10*
X5154762Y52571428D02*
X5202381Y52666668D01*
D10*
X5154762Y52428572D02*
X5154762Y52571428D01*
D10*
X5202381Y52333332D02*
X5154762Y52428572D01*
D10*
X5297619Y52238096D02*
X5202381Y52333332D01*
D10*
X5392857Y52190476D02*
X5297619Y52238096D01*
D10*
X4773809Y52476192D02*
X4726190Y52571428D01*
D10*
X4869047Y52380952D02*
X4773809Y52476192D01*
D10*
X5011905Y52285716D02*
X4869047Y52380952D01*
D10*
X5154762Y52238096D02*
X5011905Y52285716D01*
D10*
X5345238Y52190476D02*
X5154762Y52238096D01*
D10*
X5583333Y52190476D02*
X5345238Y52190476D01*
D10*
X5678571Y52238096D02*
X5583333Y52190476D01*
D10*
X5678571Y52571428D02*
X5726190Y52476192D01*
D10*
X5583333Y52666668D02*
X5678571Y52571428D01*
D10*
X5488095Y52714284D02*
X5583333Y52666668D01*
D10*
X5297619Y52714284D02*
X5488095Y52714284D01*
D10*
X5202381Y52666668D02*
X5297619Y52714284D01*
D10*
X6000000Y3023809D02*
X6285714Y4023809D01*
D10*
X6047619Y3023809D02*
X6333333Y4023809D01*
D10*
X6666667Y4023809D02*
X6142857Y4023809D01*
D10*
X6809524Y3976190D02*
X6666667Y4023809D01*
D10*
X6857143Y3880952D02*
X6809524Y3976190D01*
D10*
X6857143Y3785714D02*
X6857143Y3880952D01*
D10*
X6809524Y3642857D02*
X6857143Y3785714D01*
D10*
X6761905Y3595238D02*
X6809524Y3642857D01*
D10*
X6619048Y3547619D02*
X6761905Y3595238D01*
D10*
X6190476Y3547619D02*
X6619048Y3547619D01*
D10*
X6761905Y3976190D02*
X6666667Y4023809D01*
D10*
X6809524Y3880952D02*
X6761905Y3976190D01*
D10*
X6809524Y3785714D02*
X6809524Y3880952D01*
D10*
X6761905Y3642857D02*
X6809524Y3785714D01*
D10*
X6714286Y3595238D02*
X6761905Y3642857D01*
D10*
X6619048Y3547619D02*
X6714286Y3595238D01*
D10*
X6523809Y3500000D02*
X6428571Y3547619D01*
D10*
X6571428Y3452381D02*
X6523809Y3500000D01*
D10*
X6619048Y3071428D02*
X6571428Y3452381D01*
D10*
X6666667Y3023809D02*
X6619048Y3071428D01*
D10*
X6761905Y3023809D02*
X6666667Y3023809D01*
D10*
X6809524Y3119047D02*
X6761905Y3023809D01*
D10*
X6809524Y3166666D02*
X6809524Y3119047D01*
D10*
X6666667Y3119047D02*
X6571428Y3452381D01*
D10*
X6714286Y3071428D02*
X6666667Y3119047D01*
D10*
X6761905Y3071428D02*
X6714286Y3071428D01*
D10*
X6809524Y3119047D02*
X6761905Y3071428D01*
D10*
X6190476Y3023809D02*
X5857143Y3023809D01*
D10*
X7333333Y3023809D02*
X7571428Y3833333D01*
D10*
X7380952Y3023809D02*
X7666667Y4023809D01*
D10*
X7523809Y3880952D02*
X7666667Y4023809D01*
D10*
X7380952Y3785714D02*
X7523809Y3880952D01*
D10*
X7285714Y3738095D02*
X7380952Y3785714D01*
D10*
X7428571Y3785714D02*
X7619047Y3880952D01*
D10*
X7285714Y3738095D02*
X7428571Y3785714D01*
D10*
X8380952Y3785714D02*
X8333333Y3833333D01*
D10*
X8333333Y3738095D02*
X8380952Y3785714D01*
D10*
X8285714Y3785714D02*
X8333333Y3738095D01*
D10*
X8285714Y3833333D02*
X8285714Y3785714D01*
D10*
X8333333Y3928571D02*
X8285714Y3833333D01*
D10*
X8380952Y3976190D02*
X8333333Y3928571D01*
D10*
X8523810Y4023809D02*
X8380952Y3976190D01*
D10*
X8666667Y4023809D02*
X8523810Y4023809D01*
D10*
X8809524Y3976190D02*
X8666667Y4023809D01*
D10*
X8857143Y3880952D02*
X8809524Y3976190D01*
D10*
X8857143Y3785714D02*
X8857143Y3880952D01*
D10*
X8809524Y3690476D02*
X8857143Y3785714D01*
D10*
X8714286Y3595238D02*
X8809524Y3690476D01*
D10*
X8571429Y3500000D02*
X8714286Y3595238D01*
D10*
X8380952Y3404762D02*
X8571429Y3500000D01*
D10*
X8238095Y3309523D02*
X8380952Y3404762D01*
D10*
X8142857Y3214285D02*
X8238095Y3309523D01*
D10*
X8047619Y3023809D02*
X8142857Y3214285D01*
D10*
X8761905Y3976190D02*
X8666667Y4023809D01*
D10*
X8809524Y3880952D02*
X8761905Y3976190D01*
D10*
X8809524Y3785714D02*
X8809524Y3880952D01*
D10*
X8761905Y3690476D02*
X8809524Y3785714D01*
D10*
X8666667Y3595238D02*
X8761905Y3690476D01*
D10*
X8380952Y3404762D02*
X8666667Y3595238D01*
D10*
X8142857Y3166666D02*
X8095238Y3119047D01*
D10*
X8238095Y3166666D02*
X8142857Y3166666D01*
D10*
X8476190Y3071428D02*
X8238095Y3166666D01*
D10*
X8619048Y3071428D02*
X8476190Y3071428D01*
D10*
X8714286Y3119047D02*
X8619048Y3071428D01*
D10*
X8761905Y3214285D02*
X8714286Y3119047D01*
D10*
X8476190Y3023809D02*
X8238095Y3166666D01*
D10*
X8619048Y3023809D02*
X8476190Y3023809D01*
D10*
X8714286Y3071428D02*
X8619048Y3023809D01*
D10*
X8761905Y3214285D02*
X8714286Y3071428D01*
D10*
X976190Y16142857D02*
X-23809Y16428571D01*
D10*
X976190Y16190476D02*
X-23809Y16476190D01*
D10*
X-23809Y16809524D02*
X-23809Y16285714D01*
D10*
X23809Y16952380D02*
X-23809Y16809524D01*
D10*
X119047Y17000000D02*
X23809Y16952380D01*
D10*
X214285Y17000000D02*
X119047Y17000000D01*
D10*
X357142Y16952380D02*
X214285Y17000000D01*
D10*
X404761Y16904762D02*
X357142Y16952380D01*
D10*
X452380Y16761905D02*
X404761Y16904762D01*
D10*
X452380Y16333333D02*
X452380Y16761905D01*
D10*
X23809Y16904762D02*
X-23809Y16809524D01*
D10*
X119047Y16952380D02*
X23809Y16904762D01*
D10*
X214285Y16952380D02*
X119047Y16952380D01*
D10*
X357142Y16904762D02*
X214285Y16952380D01*
D10*
X404761Y16857142D02*
X357142Y16904762D01*
D10*
X452380Y16761905D02*
X404761Y16857142D01*
D10*
X500000Y16666667D02*
X452380Y16571429D01*
D10*
X547619Y16714286D02*
X500000Y16666667D01*
D10*
X928571Y16761905D02*
X547619Y16714286D01*
D10*
X976190Y16809524D02*
X928571Y16761905D01*
D10*
X976190Y16904762D02*
X976190Y16809524D01*
D10*
X880952Y16952380D02*
X976190Y16904762D01*
D10*
X833333Y16952380D02*
X880952Y16952380D01*
D10*
X880952Y16809524D02*
X547619Y16714286D01*
D10*
X928571Y16857142D02*
X880952Y16809524D01*
D10*
X928571Y16904762D02*
X928571Y16857142D01*
D10*
X880952Y16952380D02*
X928571Y16904762D01*
D10*
X976190Y16333333D02*
X976190Y16000000D01*
D10*
X214285Y17523810D02*
X166666Y17476190D01*
D10*
X261904Y17476190D02*
X214285Y17523810D01*
D10*
X214285Y17428572D02*
X261904Y17476190D01*
D10*
X166666Y17428572D02*
X214285Y17428572D01*
D10*
X71428Y17476190D02*
X166666Y17428572D01*
D10*
X23809Y17523810D02*
X71428Y17476190D01*
D10*
X-23809Y17666666D02*
X23809Y17523810D01*
D10*
X-23809Y17809524D02*
X-23809Y17666666D01*
D10*
X23809Y17952380D02*
X-23809Y17809524D01*
D10*
X119047Y18000000D02*
X23809Y17952380D01*
D10*
X214285Y18000000D02*
X119047Y18000000D01*
D10*
X309523Y17952380D02*
X214285Y18000000D01*
D10*
X404761Y17857142D02*
X309523Y17952380D01*
D10*
X500000Y17714286D02*
X404761Y17857142D01*
D10*
X595238Y17523810D02*
X500000Y17714286D01*
D10*
X690476Y17380952D02*
X595238Y17523810D01*
D10*
X785714Y17285714D02*
X690476Y17380952D01*
D10*
X976190Y17190476D02*
X785714Y17285714D01*
D10*
X23809Y17904762D02*
X-23809Y17809524D01*
D10*
X119047Y17952380D02*
X23809Y17904762D01*
D10*
X214285Y17952380D02*
X119047Y17952380D01*
D10*
X309523Y17904762D02*
X214285Y17952380D01*
D10*
X404761Y17809524D02*
X309523Y17904762D01*
D10*
X595238Y17523810D02*
X404761Y17809524D01*
D10*
X833333Y17285714D02*
X880952Y17238096D01*
D10*
X833333Y17380952D02*
X833333Y17285714D01*
D10*
X928571Y17619048D02*
X833333Y17380952D01*
D10*
X928571Y17761904D02*
X928571Y17619048D01*
D10*
X880952Y17857142D02*
X928571Y17761904D01*
D10*
X785714Y17904762D02*
X880952Y17857142D01*
D10*
X976190Y17619048D02*
X833333Y17380952D01*
D10*
X976190Y17761904D02*
X976190Y17619048D01*
D10*
X928571Y17857142D02*
X976190Y17761904D01*
D10*
X785714Y17904762D02*
X928571Y17857142D01*
D10*
X976190Y18619048D02*
X23809Y18904762D01*
D10*
X976190Y18666666D02*
X-23809Y18952380D01*
D10*
X690476Y18238096D02*
X-23809Y18952380D01*
D10*
X690476Y19000000D02*
X690476Y18238096D01*
D10*
X-8595238Y48428572D02*
X-8642857Y48428572D01*
D10*
X-8547619Y48523808D02*
X-8595238Y48428572D01*
D10*
X-8595238Y48238096D02*
X-8547619Y48523808D01*
D10*
X-8595238Y48333332D02*
X-8595238Y48238096D01*
D10*
X-8642857Y48428572D02*
X-8595238Y48333332D01*
D10*
X-8690476Y48476192D02*
X-8642857Y48428572D01*
D10*
X-8785714Y48523808D02*
X-8690476Y48476192D01*
D10*
X-8928571Y48523808D02*
X-8785714Y48523808D01*
D10*
X-9071428Y48476192D02*
X-8928571Y48523808D01*
D10*
X-9166667Y48380952D02*
X-9071428Y48476192D01*
D10*
X-9261905Y48238096D02*
X-9166667Y48380952D01*
D10*
X-9309524Y48095240D02*
X-9261905Y48238096D01*
D10*
X-9357143Y47904760D02*
X-9309524Y48095240D01*
D10*
X-9357143Y47761904D02*
X-9357143Y47904760D01*
D10*
X-9309524Y47619048D02*
X-9357143Y47761904D01*
D10*
X-9261905Y47571428D02*
X-9309524Y47619048D01*
D10*
X-9119048Y47523808D02*
X-9261905Y47571428D01*
D10*
X-8976190Y47523808D02*
X-9119048Y47523808D01*
D10*
X-8880952Y47571428D02*
X-8976190Y47523808D01*
D10*
X-8785714Y47666668D02*
X-8880952Y47571428D01*
D10*
X-8738095Y47761904D02*
X-8785714Y47666668D01*
D10*
X-9023810Y48476192D02*
X-8928571Y48523808D01*
D10*
X-9119048Y48380952D02*
X-9023810Y48476192D01*
D10*
X-9214286Y48238096D02*
X-9119048Y48380952D01*
D10*
X-9261905Y48095240D02*
X-9214286Y48238096D01*
D10*
X-9309524Y47904760D02*
X-9261905Y48095240D01*
D10*
X-9309524Y47761904D02*
X-9309524Y47904760D01*
D10*
X-9261905Y47619048D02*
X-9309524Y47761904D01*
D10*
X-9214286Y47571428D02*
X-9261905Y47619048D01*
D10*
X-9119048Y47523808D02*
X-9214286Y47571428D01*
D10*
X-8119047Y48285716D02*
X-8166666Y48333332D01*
D10*
X-8166666Y48238096D02*
X-8119047Y48285716D01*
D10*
X-8214285Y48285716D02*
X-8166666Y48238096D01*
D10*
X-8214285Y48333332D02*
X-8214285Y48285716D01*
D10*
X-8166666Y48428572D02*
X-8214285Y48333332D01*
D10*
X-8119047Y48476192D02*
X-8166666Y48428572D01*
D10*
X-7976190Y48523808D02*
X-8119047Y48476192D01*
D10*
X-7833333Y48523808D02*
X-7976190Y48523808D01*
D10*
X-7690476Y48476192D02*
X-7833333Y48523808D01*
D10*
X-7642857Y48380952D02*
X-7690476Y48476192D01*
D10*
X-7642857Y48285716D02*
X-7642857Y48380952D01*
D10*
X-7690476Y48190476D02*
X-7642857Y48285716D01*
D10*
X-7785714Y48095240D02*
X-7690476Y48190476D01*
D10*
X-7928571Y48000000D02*
X-7785714Y48095240D01*
D10*
X-8119047Y47904760D02*
X-7928571Y48000000D01*
D10*
X-8261905Y47809524D02*
X-8119047Y47904760D01*
D10*
X-8357143Y47714284D02*
X-8261905Y47809524D01*
D10*
X-8452381Y47523808D02*
X-8357143Y47714284D01*
D10*
X-7738095Y48476192D02*
X-7833333Y48523808D01*
D10*
X-7690476Y48380952D02*
X-7738095Y48476192D01*
D10*
X-7690476Y48285716D02*
X-7690476Y48380952D01*
D10*
X-7738095Y48190476D02*
X-7690476Y48285716D01*
D10*
X-7833333Y48095240D02*
X-7738095Y48190476D01*
D10*
X-8119047Y47904760D02*
X-7833333Y48095240D01*
D10*
X-8357143Y47666668D02*
X-8404762Y47619048D01*
D10*
X-8261905Y47666668D02*
X-8357143Y47666668D01*
D10*
X-8023809Y47571428D02*
X-8261905Y47666668D01*
D10*
X-7880952Y47571428D02*
X-8023809Y47571428D01*
D10*
X-7785714Y47619048D02*
X-7880952Y47571428D01*
D10*
X-7738095Y47714284D02*
X-7785714Y47619048D01*
D10*
X-8023809Y47523808D02*
X-8261905Y47666668D01*
D10*
X-7880952Y47523808D02*
X-8023809Y47523808D01*
D10*
X-7785714Y47571428D02*
X-7880952Y47523808D01*
D10*
X-7738095Y47714284D02*
X-7785714Y47571428D01*
D10*
X15904762Y6928571D02*
X15857143Y6928571D01*
D10*
X15952381Y7023809D02*
X15904762Y6928571D01*
D10*
X15904762Y6738095D02*
X15952381Y7023809D01*
D10*
X15904762Y6833333D02*
X15904762Y6738095D01*
D10*
X15857143Y6928571D02*
X15904762Y6833333D01*
D10*
X15809524Y6976190D02*
X15857143Y6928571D01*
D10*
X15714286Y7023809D02*
X15809524Y6976190D01*
D10*
X15571429Y7023809D02*
X15714286Y7023809D01*
D10*
X15428571Y6976190D02*
X15571429Y7023809D01*
D10*
X15333333Y6880952D02*
X15428571Y6976190D01*
D10*
X15238095Y6738095D02*
X15333333Y6880952D01*
D10*
X15190476Y6595238D02*
X15238095Y6738095D01*
D10*
X15142857Y6404762D02*
X15190476Y6595238D01*
D10*
X15142857Y6261905D02*
X15142857Y6404762D01*
D10*
X15190476Y6119047D02*
X15142857Y6261905D01*
D10*
X15238095Y6071428D02*
X15190476Y6119047D01*
D10*
X15380952Y6023809D02*
X15238095Y6071428D01*
D10*
X15523810Y6023809D02*
X15380952Y6023809D01*
D10*
X15619048Y6071428D02*
X15523810Y6023809D01*
D10*
X15714286Y6166666D02*
X15619048Y6071428D01*
D10*
X15761905Y6261905D02*
X15714286Y6166666D01*
D10*
X15476190Y6976190D02*
X15571429Y7023809D01*
D10*
X15380952Y6880952D02*
X15476190Y6976190D01*
D10*
X15285714Y6738095D02*
X15380952Y6880952D01*
D10*
X15238095Y6595238D02*
X15285714Y6738095D01*
D10*
X15190476Y6404762D02*
X15238095Y6595238D01*
D10*
X15190476Y6261905D02*
X15190476Y6404762D01*
D10*
X15238095Y6119047D02*
X15190476Y6261905D01*
D10*
X15285714Y6071428D02*
X15238095Y6119047D01*
D10*
X15380952Y6023809D02*
X15285714Y6071428D01*
D10*
X16333333Y6023809D02*
X16571428Y6833333D01*
D10*
X16380952Y6023809D02*
X16666667Y7023809D01*
D10*
X16523810Y6880952D02*
X16666667Y7023809D01*
D10*
X16380952Y6785714D02*
X16523810Y6880952D01*
D10*
X16285714Y6738095D02*
X16380952Y6785714D01*
D10*
X16428571Y6785714D02*
X16619048Y6880952D01*
D10*
X16285714Y6738095D02*
X16428571Y6785714D01*
D10*
X17190476Y6738095D02*
X17285714Y7023809D01*
D10*
X17857142Y6880952D02*
X17904762Y7023809D01*
D10*
X17761904Y6738095D02*
X17857142Y6880952D01*
D10*
X17523810Y6452381D02*
X17761904Y6738095D01*
D10*
X17428572Y6309524D02*
X17523810Y6452381D01*
D10*
X17380952Y6214285D02*
X17428572Y6309524D01*
D10*
X17333334Y6023809D02*
X17380952Y6214285D01*
D10*
X17476190Y6452381D02*
X17761904Y6738095D01*
D10*
X17380952Y6309524D02*
X17476190Y6452381D01*
D10*
X17333334Y6214285D02*
X17380952Y6309524D01*
D10*
X17285714Y6023809D02*
X17333334Y6214285D01*
D10*
X17380952Y7023809D02*
X17238096Y6880952D01*
D10*
X17476190Y7023809D02*
X17380952Y7023809D01*
D10*
X17714286Y6880952D02*
X17476190Y7023809D01*
D10*
X17380952Y6976190D02*
X17285714Y6928571D01*
D10*
X17476190Y6976190D02*
X17380952Y6976190D01*
D10*
X17714286Y6880952D02*
X17476190Y6976190D01*
D10*
X17809524Y6880952D02*
X17714286Y6880952D01*
D10*
X17857142Y6928571D02*
X17809524Y6880952D01*
D10*
X17904762Y7023809D02*
X17857142Y6928571D01*
D10*
X-3797619Y33428572D02*
X-3845238Y33428572D01*
D10*
X-3750000Y33523810D02*
X-3797619Y33428572D01*
D10*
X-3797619Y33238096D02*
X-3750000Y33523810D01*
D10*
X-3797619Y33333334D02*
X-3797619Y33238096D01*
D10*
X-3845238Y33428572D02*
X-3797619Y33333334D01*
D10*
X-3892857Y33476190D02*
X-3845238Y33428572D01*
D10*
X-4035714Y33523810D02*
X-3892857Y33476190D01*
D10*
X-4226190Y33523810D02*
X-4035714Y33523810D01*
D10*
X-4369047Y33476190D02*
X-4226190Y33523810D01*
D10*
X-4464285Y33380952D02*
X-4369047Y33476190D01*
D10*
X-4464285Y33285714D02*
X-4464285Y33380952D01*
D10*
X-4416666Y33190476D02*
X-4464285Y33285714D01*
D10*
X-4369047Y33142858D02*
X-4416666Y33190476D01*
D10*
X-4035714Y32952380D02*
X-4369047Y33142858D01*
D10*
X-3940476Y32857142D02*
X-4035714Y32952380D01*
D10*
X-4369047Y33190476D02*
X-4464285Y33285714D01*
D10*
X-4035714Y33000000D02*
X-4369047Y33190476D01*
D10*
X-3988095Y32952380D02*
X-4035714Y33000000D01*
D10*
X-3940476Y32857142D02*
X-3988095Y32952380D01*
D10*
X-3940476Y32714286D02*
X-3940476Y32857142D01*
D10*
X-3988095Y32619048D02*
X-3940476Y32714286D01*
D10*
X-4035714Y32571428D02*
X-3988095Y32619048D01*
D10*
X-4178571Y32523810D02*
X-4035714Y32571428D01*
D10*
X-4369047Y32523810D02*
X-4178571Y32523810D01*
D10*
X-4511905Y32571428D02*
X-4369047Y32523810D01*
D10*
X-4559524Y32619048D02*
X-4511905Y32571428D01*
D10*
X-4607143Y32714286D02*
X-4559524Y32619048D01*
D10*
X-4607143Y32809524D02*
X-4607143Y32714286D01*
D10*
X-4654762Y32523810D02*
X-4607143Y32809524D01*
D10*
X-4607143Y32619048D02*
X-4654762Y32523810D01*
D10*
X-4559524Y32619048D02*
X-4607143Y32619048D01*
D10*
X-3273809Y33285714D02*
X-3321428Y33333334D01*
D10*
X-3321428Y33238096D02*
X-3273809Y33285714D01*
D10*
X-3369047Y33285714D02*
X-3321428Y33238096D01*
D10*
X-3369047Y33333334D02*
X-3369047Y33285714D01*
D10*
X-3321428Y33428572D02*
X-3369047Y33333334D01*
D10*
X-3273809Y33476190D02*
X-3321428Y33428572D01*
D10*
X-3130952Y33523810D02*
X-3273809Y33476190D01*
D10*
X-2988095Y33523810D02*
X-3130952Y33523810D01*
D10*
X-2845238Y33476190D02*
X-2988095Y33523810D01*
D10*
X-2797619Y33380952D02*
X-2845238Y33476190D01*
D10*
X-2797619Y33285714D02*
X-2797619Y33380952D01*
D10*
X-2845238Y33190476D02*
X-2797619Y33285714D01*
D10*
X-2940476Y33095238D02*
X-2845238Y33190476D01*
D10*
X-3083333Y33000000D02*
X-2940476Y33095238D01*
D10*
X-3273809Y32904762D02*
X-3083333Y33000000D01*
D10*
X-3416666Y32809524D02*
X-3273809Y32904762D01*
D10*
X-3511904Y32714286D02*
X-3416666Y32809524D01*
D10*
X-3607143Y32523810D02*
X-3511904Y32714286D01*
D10*
X-2892857Y33476190D02*
X-2988095Y33523810D01*
D10*
X-2845238Y33380952D02*
X-2892857Y33476190D01*
D10*
X-2845238Y33285714D02*
X-2845238Y33380952D01*
D10*
X-2892857Y33190476D02*
X-2845238Y33285714D01*
D10*
X-2988095Y33095238D02*
X-2892857Y33190476D01*
D10*
X-3273809Y32904762D02*
X-2988095Y33095238D01*
D10*
X-3511904Y32666666D02*
X-3559524Y32619048D01*
D10*
X-3416666Y32666666D02*
X-3511904Y32666666D01*
D10*
X-3178571Y32571428D02*
X-3416666Y32666666D01*
D10*
X-3035714Y32571428D02*
X-3178571Y32571428D01*
D10*
X-2940476Y32619048D02*
X-3035714Y32571428D01*
D10*
X-2892857Y32714286D02*
X-2940476Y32619048D01*
D10*
X-3178571Y32523810D02*
X-3416666Y32666666D01*
D10*
X-3035714Y32523810D02*
X-3178571Y32523810D01*
D10*
X-2940476Y32571428D02*
X-3035714Y32523810D01*
D10*
X-2892857Y32714286D02*
X-2940476Y32571428D01*
D10*
X-9314286Y42556192D02*
X-10123810Y42794284D01*
D10*
X-9219048Y42508572D02*
X-9314286Y42556192D01*
D10*
X-9171429Y42460952D02*
X-9219048Y42508572D01*
D10*
X-9123810Y42365716D02*
X-9171429Y42460952D01*
D10*
X-9123810Y42270476D02*
X-9123810Y42365716D01*
D10*
X-9171429Y42175240D02*
X-9123810Y42270476D01*
D10*
X-9266667Y42127620D02*
X-9171429Y42175240D01*
D10*
X-9361905Y42127620D02*
X-9266667Y42127620D01*
D10*
X-9409524Y42175240D02*
X-9361905Y42127620D01*
D10*
X-9361905Y42222856D02*
X-9409524Y42175240D01*
D10*
X-9314286Y42175240D02*
X-9361905Y42222856D01*
D10*
X-9314286Y42508572D02*
X-10123810Y42746668D01*
D10*
X-9219048Y42460952D02*
X-9314286Y42508572D01*
D10*
X-9123810Y42365716D02*
X-9219048Y42460952D01*
D10*
X-10123810Y42937144D02*
X-10123810Y42603808D01*
D10*
X-9885714Y43318096D02*
X-9933333Y43270476D01*
D10*
X-9838095Y43270476D02*
X-9885714Y43318096D01*
D10*
X-9885714Y43222856D02*
X-9838095Y43270476D01*
D10*
X-9933333Y43222856D02*
X-9885714Y43222856D01*
D10*
X-10028571Y43270476D02*
X-9933333Y43222856D01*
D10*
X-10076190Y43318096D02*
X-10028571Y43270476D01*
D10*
X-10123810Y43460952D02*
X-10076190Y43318096D01*
D10*
X-10123810Y43603808D02*
X-10123810Y43460952D01*
D10*
X-10076190Y43746668D02*
X-10123810Y43603808D01*
D10*
X-9980952Y43794284D02*
X-10076190Y43746668D01*
D10*
X-9885714Y43794284D02*
X-9980952Y43794284D01*
D10*
X-9790476Y43746668D02*
X-9885714Y43794284D01*
D10*
X-9695238Y43651428D02*
X-9790476Y43746668D01*
D10*
X-9600000Y43508572D02*
X-9695238Y43651428D01*
D10*
X-9504762Y43318096D02*
X-9600000Y43508572D01*
D10*
X-9409524Y43175240D02*
X-9504762Y43318096D01*
D10*
X-9314286Y43080000D02*
X-9409524Y43175240D01*
D10*
X-9123810Y42984760D02*
X-9314286Y43080000D01*
D10*
X-10076190Y43699048D02*
X-10123810Y43603808D01*
D10*
X-9980952Y43746668D02*
X-10076190Y43699048D01*
D10*
X-9885714Y43746668D02*
X-9980952Y43746668D01*
D10*
X-9790476Y43699048D02*
X-9885714Y43746668D01*
D10*
X-9695238Y43603808D02*
X-9790476Y43699048D01*
D10*
X-9504762Y43318096D02*
X-9695238Y43603808D01*
D10*
X-9266667Y43080000D02*
X-9219048Y43032380D01*
D10*
X-9266667Y43175240D02*
X-9266667Y43080000D01*
D10*
X-9171429Y43413332D02*
X-9266667Y43175240D01*
D10*
X-9171429Y43556192D02*
X-9171429Y43413332D01*
D10*
X-9219048Y43651428D02*
X-9171429Y43556192D01*
D10*
X-9314286Y43699048D02*
X-9219048Y43651428D01*
D10*
X-9123810Y43413332D02*
X-9266667Y43175240D01*
D10*
X-9123810Y43556192D02*
X-9123810Y43413332D01*
D10*
X-9171429Y43651428D02*
X-9123810Y43556192D01*
D10*
X-9314286Y43699048D02*
X-9171429Y43651428D01*
D10*
X750000Y11523810D02*
X1035714Y12523810D01*
D10*
X797619Y11523810D02*
X1083333Y12523810D01*
D10*
X1416666Y12523810D02*
X892857Y12523810D01*
D10*
X1559523Y12476190D02*
X1416666Y12523810D01*
D10*
X1607143Y12380952D02*
X1559523Y12476190D01*
D10*
X1607143Y12285714D02*
X1607143Y12380952D01*
D10*
X1559523Y12142857D02*
X1607143Y12285714D01*
D10*
X1511904Y12095238D02*
X1559523Y12142857D01*
D10*
X1369047Y12047619D02*
X1511904Y12095238D01*
D10*
X940476Y12047619D02*
X1369047Y12047619D01*
D10*
X1511904Y12476190D02*
X1416666Y12523810D01*
D10*
X1559523Y12380952D02*
X1511904Y12476190D01*
D10*
X1559523Y12285714D02*
X1559523Y12380952D01*
D10*
X1511904Y12142857D02*
X1559523Y12285714D01*
D10*
X1464285Y12095238D02*
X1511904Y12142857D01*
D10*
X1369047Y12047619D02*
X1464285Y12095238D01*
D10*
X1273809Y12000000D02*
X1178571Y12047619D01*
D10*
X1321428Y11952381D02*
X1273809Y12000000D01*
D10*
X1369047Y11571429D02*
X1321428Y11952381D01*
D10*
X1416666Y11523810D02*
X1369047Y11571429D01*
D10*
X1511904Y11523810D02*
X1416666Y11523810D01*
D10*
X1559523Y11619048D02*
X1511904Y11523810D01*
D10*
X1559523Y11666667D02*
X1559523Y11619048D01*
D10*
X1416666Y11619048D02*
X1321428Y11952381D01*
D10*
X1464285Y11571429D02*
X1416666Y11619048D01*
D10*
X1511904Y11571429D02*
X1464285Y11571429D01*
D10*
X1559523Y11619048D02*
X1511904Y11571429D01*
D10*
X940476Y11523810D02*
X607143Y11523810D01*
D10*
X2083333Y11523810D02*
X2321428Y12333333D01*
D10*
X2130952Y11523810D02*
X2416666Y12523810D01*
D10*
X2273809Y12380952D02*
X2416666Y12523810D01*
D10*
X2130952Y12285714D02*
X2273809Y12380952D01*
D10*
X2035714Y12238095D02*
X2130952Y12285714D01*
D10*
X2178571Y12285714D02*
X2369047Y12380952D01*
D10*
X2035714Y12238095D02*
X2178571Y12285714D01*
D10*
X3511904Y12095238D02*
X3559523Y12190476D01*
D10*
X3416666Y12000000D02*
X3511904Y12095238D01*
D10*
X3321428Y11952381D02*
X3416666Y12000000D01*
D10*
X3178571Y11952381D02*
X3321428Y11952381D01*
D10*
X3083333Y12000000D02*
X3178571Y11952381D01*
D10*
X3035714Y12047619D02*
X3083333Y12000000D01*
D10*
X2988095Y12142857D02*
X3035714Y12047619D01*
D10*
X2988095Y12285714D02*
X2988095Y12142857D01*
D10*
X3035714Y12380952D02*
X2988095Y12285714D01*
D10*
X3130952Y12476190D02*
X3035714Y12380952D01*
D10*
X3273809Y12523810D02*
X3130952Y12476190D01*
D10*
X3416666Y12523810D02*
X3273809Y12523810D01*
D10*
X3511904Y12476190D02*
X3416666Y12523810D01*
D10*
X3559523Y12428571D02*
X3511904Y12476190D01*
D10*
X3607142Y12333333D02*
X3559523Y12428571D01*
D10*
X3607142Y12142857D02*
X3607142Y12333333D01*
D10*
X3559523Y11952381D02*
X3607142Y12142857D01*
D10*
X3511904Y11809524D02*
X3559523Y11952381D01*
D10*
X3416666Y11666667D02*
X3511904Y11809524D01*
D10*
X3321428Y11571429D02*
X3416666Y11666667D01*
D10*
X3178571Y11523810D02*
X3321428Y11571429D01*
D10*
X3035714Y11523810D02*
X3178571Y11523810D01*
D10*
X2940476Y11571429D02*
X3035714Y11523810D01*
D10*
X2892857Y11666667D02*
X2940476Y11571429D01*
D10*
X2892857Y11714286D02*
X2892857Y11666667D01*
D10*
X2940476Y11761905D02*
X2892857Y11714286D01*
D10*
X2988095Y11714286D02*
X2940476Y11761905D01*
D10*
X2940476Y11666667D02*
X2988095Y11714286D01*
D10*
X3035714Y12095238D02*
X3083333Y12000000D01*
D10*
X3035714Y12285714D02*
X3035714Y12095238D01*
D10*
X3083333Y12380952D02*
X3035714Y12285714D01*
D10*
X3178571Y12476190D02*
X3083333Y12380952D01*
D10*
X3273809Y12523810D02*
X3178571Y12476190D01*
D10*
X3559523Y12380952D02*
X3511904Y12476190D01*
D10*
X3559523Y12142857D02*
X3559523Y12380952D01*
D10*
X3511904Y11952381D02*
X3559523Y12142857D01*
D10*
X3464285Y11809524D02*
X3511904Y11952381D01*
D10*
X3369047Y11666667D02*
X3464285Y11809524D01*
D10*
X3273809Y11571429D02*
X3369047Y11666667D01*
D10*
X3178571Y11523810D02*
X3273809Y11571429D01*
D10*
X-4178571Y13404762D02*
X-4178571Y13357143D01*
D10*
X-4273809Y13452381D02*
X-4178571Y13404762D01*
D10*
X-3988095Y13404762D02*
X-4273809Y13452381D01*
D10*
X-4083333Y13404762D02*
X-3988095Y13404762D01*
D10*
X-4178571Y13357143D02*
X-4083333Y13404762D01*
D10*
X-4226190Y13309524D02*
X-4178571Y13357143D01*
D10*
X-4273809Y13214286D02*
X-4226190Y13309524D01*
D10*
X-4273809Y13071429D02*
X-4273809Y13214286D01*
D10*
X-4226190Y12928571D02*
X-4273809Y13071429D01*
D10*
X-4130952Y12833333D02*
X-4226190Y12928571D01*
D10*
X-3988095Y12738095D02*
X-4130952Y12833333D01*
D10*
X-3845238Y12690476D02*
X-3988095Y12738095D01*
D10*
X-3654762Y12642857D02*
X-3845238Y12690476D01*
D10*
X-3511904Y12642857D02*
X-3654762Y12642857D01*
D10*
X-3369047Y12690476D02*
X-3511904Y12642857D01*
D10*
X-3321428Y12738095D02*
X-3369047Y12690476D01*
D10*
X-3273809Y12880952D02*
X-3321428Y12738095D01*
D10*
X-3273809Y13023810D02*
X-3273809Y12880952D01*
D10*
X-3321428Y13119048D02*
X-3273809Y13023810D01*
D10*
X-3416666Y13214286D02*
X-3321428Y13119048D01*
D10*
X-3511904Y13261905D02*
X-3416666Y13214286D01*
D10*
X-4226190Y12976190D02*
X-4273809Y13071429D01*
D10*
X-4130952Y12880952D02*
X-4226190Y12976190D01*
D10*
X-3988095Y12785714D02*
X-4130952Y12880952D01*
D10*
X-3845238Y12738095D02*
X-3988095Y12785714D01*
D10*
X-3654762Y12690476D02*
X-3845238Y12738095D01*
D10*
X-3511904Y12690476D02*
X-3654762Y12690476D01*
D10*
X-3369047Y12738095D02*
X-3511904Y12690476D01*
D10*
X-3321428Y12785714D02*
X-3369047Y12738095D01*
D10*
X-3273809Y12880952D02*
X-3321428Y12785714D01*
D10*
X-4035714Y13880952D02*
X-4083333Y13833333D01*
D10*
X-3988095Y13833333D02*
X-4035714Y13880952D01*
D10*
X-4035714Y13785714D02*
X-3988095Y13833333D01*
D10*
X-4083333Y13785714D02*
X-4035714Y13785714D01*
D10*
X-4178571Y13833333D02*
X-4083333Y13785714D01*
D10*
X-4226190Y13880952D02*
X-4178571Y13833333D01*
D10*
X-4273809Y14023810D02*
X-4226190Y13880952D01*
D10*
X-4273809Y14166667D02*
X-4273809Y14023810D01*
D10*
X-4226190Y14309524D02*
X-4273809Y14166667D01*
D10*
X-4130952Y14357143D02*
X-4226190Y14309524D01*
D10*
X-4035714Y14357143D02*
X-4130952Y14357143D01*
D10*
X-3940476Y14309524D02*
X-4035714Y14357143D01*
D10*
X-3845238Y14214286D02*
X-3940476Y14309524D01*
D10*
X-3750000Y14071428D02*
X-3845238Y14214286D01*
D10*
X-3654762Y13880952D02*
X-3750000Y14071428D01*
D10*
X-3559523Y13738095D02*
X-3654762Y13880952D01*
D10*
X-3464285Y13642857D02*
X-3559523Y13738095D01*
D10*
X-3273809Y13547619D02*
X-3464285Y13642857D01*
D10*
X-4226190Y14261905D02*
X-4273809Y14166667D01*
D10*
X-4130952Y14309524D02*
X-4226190Y14261905D01*
D10*
X-4035714Y14309524D02*
X-4130952Y14309524D01*
D10*
X-3940476Y14261905D02*
X-4035714Y14309524D01*
D10*
X-3845238Y14166667D02*
X-3940476Y14261905D01*
D10*
X-3654762Y13880952D02*
X-3845238Y14166667D01*
D10*
X-3416666Y13642857D02*
X-3369047Y13595238D01*
D10*
X-3416666Y13738095D02*
X-3416666Y13642857D01*
D10*
X-3321428Y13976190D02*
X-3416666Y13738095D01*
D10*
X-3321428Y14119048D02*
X-3321428Y13976190D01*
D10*
X-3369047Y14214286D02*
X-3321428Y14119048D01*
D10*
X-3464285Y14261905D02*
X-3369047Y14214286D01*
D10*
X-3273809Y13976190D02*
X-3416666Y13738095D01*
D10*
X-3273809Y14119048D02*
X-3273809Y13976190D01*
D10*
X-3321428Y14214286D02*
X-3273809Y14119048D01*
D10*
X-3464285Y14261905D02*
X-3321428Y14214286D01*
D10*
X-3797619Y14690476D02*
X-4273809Y14928572D01*
D10*
X-4273809Y15404762D02*
X-4273809Y14928572D01*
D10*
X-4226190Y15166666D02*
X-4226190Y14928572D01*
D10*
X-4273809Y15404762D02*
X-4226190Y15166666D01*
D10*
X-3845238Y14738095D02*
X-3797619Y14690476D01*
D10*
X-3892857Y14880952D02*
X-3845238Y14738095D01*
D10*
X-3892857Y15023810D02*
X-3892857Y14880952D01*
D10*
X-3845238Y15166666D02*
X-3892857Y15023810D01*
D10*
X-3797619Y15214286D02*
X-3845238Y15166666D01*
D10*
X-3702381Y15261905D02*
X-3797619Y15214286D01*
D10*
X-3559523Y15261905D02*
X-3702381Y15261905D01*
D10*
X-3416666Y15214286D02*
X-3559523Y15261905D01*
D10*
X-3321428Y15119048D02*
X-3416666Y15214286D01*
D10*
X-3273809Y14976190D02*
X-3321428Y15119048D01*
D10*
X-3273809Y14833333D02*
X-3273809Y14976190D01*
D10*
X-3321428Y14690476D02*
X-3273809Y14833333D01*
D10*
X-3369047Y14642857D02*
X-3321428Y14690476D01*
D10*
X-3464285Y14595238D02*
X-3369047Y14642857D01*
D10*
X-3511904Y14595238D02*
X-3464285Y14595238D01*
D10*
X-3559523Y14642857D02*
X-3511904Y14595238D01*
D10*
X-3511904Y14690476D02*
X-3559523Y14642857D01*
D10*
X-3464285Y14642857D02*
X-3511904Y14690476D01*
D10*
X-3845238Y15119048D02*
X-3892857Y15023810D01*
D10*
X-3797619Y15166666D02*
X-3845238Y15119048D01*
D10*
X-3702381Y15214286D02*
X-3797619Y15166666D01*
D10*
X-3559523Y15214286D02*
X-3702381Y15214286D01*
D10*
X-3416666Y15166666D02*
X-3559523Y15214286D01*
D10*
X-3321428Y15071428D02*
X-3416666Y15166666D01*
D10*
X-3273809Y14976190D02*
X-3321428Y15071428D01*
D10*
X14569048Y40914284D02*
X14807143Y41723808D01*
D10*
X14521429Y40819048D02*
X14569048Y40914284D01*
D10*
X14473810Y40771428D02*
X14521429Y40819048D01*
D10*
X14378572Y40723808D02*
X14473810Y40771428D01*
D10*
X14283333Y40723808D02*
X14378572Y40723808D01*
D10*
X14188095Y40771428D02*
X14283333Y40723808D01*
D10*
X14140476Y40866668D02*
X14188095Y40771428D01*
D10*
X14140476Y40961904D02*
X14140476Y40866668D01*
D10*
X14188095Y41009524D02*
X14140476Y40961904D01*
D10*
X14235714Y40961904D02*
X14188095Y41009524D01*
D10*
X14188095Y40914284D02*
X14235714Y40961904D01*
D10*
X14521429Y40914284D02*
X14759524Y41723808D01*
D10*
X14473810Y40819048D02*
X14521429Y40914284D01*
D10*
X14378572Y40723808D02*
X14473810Y40819048D01*
D10*
X14950000Y41723808D02*
X14616667Y41723808D01*
D10*
X15283333Y40723808D02*
X15521429Y41533332D01*
D10*
X15330952Y40723808D02*
X15616667Y41723808D01*
D10*
X15473810Y41580952D02*
X15616667Y41723808D01*
D10*
X15330952Y41485716D02*
X15473810Y41580952D01*
D10*
X15235714Y41438096D02*
X15330952Y41485716D01*
D10*
X15378571Y41485716D02*
X15569048Y41580952D01*
D10*
X15235714Y41438096D02*
X15378571Y41485716D01*
D10*
X-7595238Y10928571D02*
X-7642857Y10928571D01*
D10*
X-7547619Y11023810D02*
X-7595238Y10928571D01*
D10*
X-7595238Y10738095D02*
X-7547619Y11023810D01*
D10*
X-7595238Y10833333D02*
X-7595238Y10738095D01*
D10*
X-7642857Y10928571D02*
X-7595238Y10833333D01*
D10*
X-7690476Y10976190D02*
X-7642857Y10928571D01*
D10*
X-7785714Y11023810D02*
X-7690476Y10976190D01*
D10*
X-7928571Y11023810D02*
X-7785714Y11023810D01*
D10*
X-8071428Y10976190D02*
X-7928571Y11023810D01*
D10*
X-8166666Y10880952D02*
X-8071428Y10976190D01*
D10*
X-8261905Y10738095D02*
X-8166666Y10880952D01*
D10*
X-8309524Y10595238D02*
X-8261905Y10738095D01*
D10*
X-8357143Y10404762D02*
X-8309524Y10595238D01*
D10*
X-8357143Y10261905D02*
X-8357143Y10404762D01*
D10*
X-8309524Y10119048D02*
X-8357143Y10261905D01*
D10*
X-8261905Y10071429D02*
X-8309524Y10119048D01*
D10*
X-8119047Y10023810D02*
X-8261905Y10071429D01*
D10*
X-7976190Y10023810D02*
X-8119047Y10023810D01*
D10*
X-7880952Y10071429D02*
X-7976190Y10023810D01*
D10*
X-7785714Y10166667D02*
X-7880952Y10071429D01*
D10*
X-7738095Y10261905D02*
X-7785714Y10166667D01*
D10*
X-8023809Y10976190D02*
X-7928571Y11023810D01*
D10*
X-8119047Y10880952D02*
X-8023809Y10976190D01*
D10*
X-8214285Y10738095D02*
X-8119047Y10880952D01*
D10*
X-8261905Y10595238D02*
X-8214285Y10738095D01*
D10*
X-8309524Y10404762D02*
X-8261905Y10595238D01*
D10*
X-8309524Y10261905D02*
X-8309524Y10404762D01*
D10*
X-8261905Y10119048D02*
X-8309524Y10261905D01*
D10*
X-8214285Y10071429D02*
X-8261905Y10119048D01*
D10*
X-8119047Y10023810D02*
X-8214285Y10071429D01*
D10*
X-7119047Y10785714D02*
X-7166667Y10833333D01*
D10*
X-7166667Y10738095D02*
X-7119047Y10785714D01*
D10*
X-7214286Y10785714D02*
X-7166667Y10738095D01*
D10*
X-7214286Y10833333D02*
X-7214286Y10785714D01*
D10*
X-7166667Y10928571D02*
X-7214286Y10833333D01*
D10*
X-7119047Y10976190D02*
X-7166667Y10928571D01*
D10*
X-6976190Y11023810D02*
X-7119047Y10976190D01*
D10*
X-6833333Y11023810D02*
X-6976190Y11023810D01*
D10*
X-6690476Y10976190D02*
X-6833333Y11023810D01*
D10*
X-6642857Y10880952D02*
X-6690476Y10976190D01*
D10*
X-6642857Y10785714D02*
X-6642857Y10880952D01*
D10*
X-6690476Y10690476D02*
X-6642857Y10785714D01*
D10*
X-6785714Y10595238D02*
X-6690476Y10690476D01*
D10*
X-6928571Y10500000D02*
X-6785714Y10595238D01*
D10*
X-7119047Y10404762D02*
X-6928571Y10500000D01*
D10*
X-7261905Y10309524D02*
X-7119047Y10404762D01*
D10*
X-7357143Y10214286D02*
X-7261905Y10309524D01*
D10*
X-7452381Y10023810D02*
X-7357143Y10214286D01*
D10*
X-6738095Y10976190D02*
X-6833333Y11023810D01*
D10*
X-6690476Y10880952D02*
X-6738095Y10976190D01*
D10*
X-6690476Y10785714D02*
X-6690476Y10880952D01*
D10*
X-6738095Y10690476D02*
X-6690476Y10785714D01*
D10*
X-6833333Y10595238D02*
X-6738095Y10690476D01*
D10*
X-7119047Y10404762D02*
X-6833333Y10595238D01*
D10*
X-7357143Y10166667D02*
X-7404762Y10119048D01*
D10*
X-7261905Y10166667D02*
X-7357143Y10166667D01*
D10*
X-7023809Y10071429D02*
X-7261905Y10166667D01*
D10*
X-6880952Y10071429D02*
X-7023809Y10071429D01*
D10*
X-6785714Y10119048D02*
X-6880952Y10071429D01*
D10*
X-6738095Y10214286D02*
X-6785714Y10119048D01*
D10*
X-7023809Y10023810D02*
X-7261905Y10166667D01*
D10*
X-6880952Y10023810D02*
X-7023809Y10023810D01*
D10*
X-6785714Y10071429D02*
X-6880952Y10023810D01*
D10*
X-6738095Y10214286D02*
X-6785714Y10071429D01*
D10*
X-6309524Y10738095D02*
X-6214286Y11023810D01*
D10*
X-5642857Y10880952D02*
X-5595238Y11023810D01*
D10*
X-5738095Y10738095D02*
X-5642857Y10880952D01*
D10*
X-5976190Y10452381D02*
X-5738095Y10738095D01*
D10*
X-6071428Y10309524D02*
X-5976190Y10452381D01*
D10*
X-6119048Y10214286D02*
X-6071428Y10309524D01*
D10*
X-6166667Y10023810D02*
X-6119048Y10214286D01*
D10*
X-6023809Y10452381D02*
X-5738095Y10738095D01*
D10*
X-6119048Y10309524D02*
X-6023809Y10452381D01*
D10*
X-6166667Y10214286D02*
X-6119048Y10309524D01*
D10*
X-6214286Y10023810D02*
X-6166667Y10214286D01*
D10*
X-6119048Y11023810D02*
X-6261905Y10880952D01*
D10*
X-6023809Y11023810D02*
X-6119048Y11023810D01*
D10*
X-5785714Y10880952D02*
X-6023809Y11023810D01*
D10*
X-6119048Y10976190D02*
X-6214286Y10928571D01*
D10*
X-6023809Y10976190D02*
X-6119048Y10976190D01*
D10*
X-5785714Y10880952D02*
X-6023809Y10976190D01*
D10*
X-5690476Y10880952D02*
X-5785714Y10880952D01*
D10*
X-5642857Y10928571D02*
X-5690476Y10880952D01*
D10*
X-5595238Y11023810D02*
X-5642857Y10928571D01*
D10*
X-10545238Y8878571D02*
X-10592857Y8878571D01*
D10*
X-10497619Y8973810D02*
X-10545238Y8878571D01*
D10*
X-10545238Y8688095D02*
X-10497619Y8973810D01*
D10*
X-10545238Y8783333D02*
X-10545238Y8688095D01*
D10*
X-10592857Y8878571D02*
X-10545238Y8783333D01*
D10*
X-10640476Y8926190D02*
X-10592857Y8878571D01*
D10*
X-10735714Y8973810D02*
X-10640476Y8926190D01*
D10*
X-10878571Y8973810D02*
X-10735714Y8973810D01*
D10*
X-11021429Y8926190D02*
X-10878571Y8973810D01*
D10*
X-11116667Y8830952D02*
X-11021429Y8926190D01*
D10*
X-11211905Y8688095D02*
X-11116667Y8830952D01*
D10*
X-11259524Y8545238D02*
X-11211905Y8688095D01*
D10*
X-11307143Y8354762D02*
X-11259524Y8545238D01*
D10*
X-11307143Y8211905D02*
X-11307143Y8354762D01*
D10*
X-11259524Y8069047D02*
X-11307143Y8211905D01*
D10*
X-11211905Y8021428D02*
X-11259524Y8069047D01*
D10*
X-11069048Y7973809D02*
X-11211905Y8021428D01*
D10*
X-10926190Y7973809D02*
X-11069048Y7973809D01*
D10*
X-10830952Y8021428D02*
X-10926190Y7973809D01*
D10*
X-10735714Y8116666D02*
X-10830952Y8021428D01*
D10*
X-10688095Y8211905D02*
X-10735714Y8116666D01*
D10*
X-10973810Y8926190D02*
X-10878571Y8973810D01*
D10*
X-11069048Y8830952D02*
X-10973810Y8926190D01*
D10*
X-11164286Y8688095D02*
X-11069048Y8830952D01*
D10*
X-11211905Y8545238D02*
X-11164286Y8688095D01*
D10*
X-11259524Y8354762D02*
X-11211905Y8545238D01*
D10*
X-11259524Y8211905D02*
X-11259524Y8354762D01*
D10*
X-11211905Y8069047D02*
X-11259524Y8211905D01*
D10*
X-11164286Y8021428D02*
X-11211905Y8069047D01*
D10*
X-11069048Y7973809D02*
X-11164286Y8021428D01*
D10*
X-10116667Y7973809D02*
X-9878572Y8783333D01*
D10*
X-10069048Y7973809D02*
X-9783333Y8973810D01*
D10*
X-9926190Y8830952D02*
X-9783333Y8973810D01*
D10*
X-10069048Y8735714D02*
X-9926190Y8830952D01*
D10*
X-10164286Y8688095D02*
X-10069048Y8735714D01*
D10*
X-10021429Y8735714D02*
X-9830952Y8830952D01*
D10*
X-10164286Y8688095D02*
X-10021429Y8735714D01*
D10*
X-8973810Y7973809D02*
X-8688095Y8926190D01*
D10*
X-8926190Y7973809D02*
X-8640476Y8973810D01*
D10*
X-9354762Y8259524D02*
X-8640476Y8973810D01*
D10*
X-8592857Y8259524D02*
X-9354762Y8259524D01*
D10*
X-16773810Y3642857D02*
X-17773810Y3928571D01*
D10*
X-16773810Y3690476D02*
X-17773810Y3976190D01*
D10*
X-17773810Y4309524D02*
X-17773810Y3785714D01*
D10*
X-17726190Y4452381D02*
X-17773810Y4309524D01*
D10*
X-17630952Y4500000D02*
X-17726190Y4452381D01*
D10*
X-17535714Y4500000D02*
X-17630952Y4500000D01*
D10*
X-17392858Y4452381D02*
X-17535714Y4500000D01*
D10*
X-17345238Y4404762D02*
X-17392858Y4452381D01*
D10*
X-17297620Y4261905D02*
X-17345238Y4404762D01*
D10*
X-17297620Y3833333D02*
X-17297620Y4261905D01*
D10*
X-17726190Y4404762D02*
X-17773810Y4309524D01*
D10*
X-17630952Y4452381D02*
X-17726190Y4404762D01*
D10*
X-17535714Y4452381D02*
X-17630952Y4452381D01*
D10*
X-17392858Y4404762D02*
X-17535714Y4452381D01*
D10*
X-17345238Y4357143D02*
X-17392858Y4404762D01*
D10*
X-17297620Y4261905D02*
X-17345238Y4357143D01*
D10*
X-17250000Y4166666D02*
X-17297620Y4071428D01*
D10*
X-17202380Y4214285D02*
X-17250000Y4166666D01*
D10*
X-16821428Y4261905D02*
X-17202380Y4214285D01*
D10*
X-16773810Y4309524D02*
X-16821428Y4261905D01*
D10*
X-16773810Y4404762D02*
X-16773810Y4309524D01*
D10*
X-16869048Y4452381D02*
X-16773810Y4404762D01*
D10*
X-16916666Y4452381D02*
X-16869048Y4452381D01*
D10*
X-16869048Y4309524D02*
X-17202380Y4214285D01*
D10*
X-16821428Y4357143D02*
X-16869048Y4309524D01*
D10*
X-16821428Y4404762D02*
X-16821428Y4357143D01*
D10*
X-16869048Y4452381D02*
X-16821428Y4404762D01*
D10*
X-16773810Y3833333D02*
X-16773810Y3500000D01*
D10*
X-16773810Y4976190D02*
X-17583334Y5214286D01*
D10*
X-16773810Y5023809D02*
X-17773810Y5309524D01*
D10*
X-17630952Y5166666D02*
X-17773810Y5309524D01*
D10*
X-17535714Y5023809D02*
X-17630952Y5166666D01*
D10*
X-17488096Y4928571D02*
X-17535714Y5023809D01*
D10*
X-17535714Y5071428D02*
X-17630952Y5261905D01*
D10*
X-17488096Y4928571D02*
X-17535714Y5071428D01*
D10*
X-16773810Y6119047D02*
X-17726190Y6404762D01*
D10*
X-16773810Y6166666D02*
X-17773810Y6452381D01*
D10*
X-17059524Y5738095D02*
X-17773810Y6452381D01*
D10*
X-17059524Y6500000D02*
X-17059524Y5738095D01*
D10*
X-1428571Y16904762D02*
X-1428571Y16857142D01*
D10*
X-1523809Y16952380D02*
X-1428571Y16904762D01*
D10*
X-1238095Y16904762D02*
X-1523809Y16952380D01*
D10*
X-1333333Y16904762D02*
X-1238095Y16904762D01*
D10*
X-1428571Y16857142D02*
X-1333333Y16904762D01*
D10*
X-1476190Y16809524D02*
X-1428571Y16857142D01*
D10*
X-1523809Y16714286D02*
X-1476190Y16809524D01*
D10*
X-1523809Y16571429D02*
X-1523809Y16714286D01*
D10*
X-1476190Y16428571D02*
X-1523809Y16571429D01*
D10*
X-1380952Y16333333D02*
X-1476190Y16428571D01*
D10*
X-1238095Y16238095D02*
X-1380952Y16333333D01*
D10*
X-1095238Y16190476D02*
X-1238095Y16238095D01*
D10*
X-904761Y16142857D02*
X-1095238Y16190476D01*
D10*
X-761904Y16142857D02*
X-904761Y16142857D01*
D10*
X-619047Y16190476D02*
X-761904Y16142857D01*
D10*
X-571428Y16238095D02*
X-619047Y16190476D01*
D10*
X-523809Y16380952D02*
X-571428Y16238095D01*
D10*
X-523809Y16523810D02*
X-523809Y16380952D01*
D10*
X-571428Y16619048D02*
X-523809Y16523810D01*
D10*
X-666666Y16714286D02*
X-571428Y16619048D01*
D10*
X-761904Y16761905D02*
X-666666Y16714286D01*
D10*
X-1476190Y16476190D02*
X-1523809Y16571429D01*
D10*
X-1380952Y16380952D02*
X-1476190Y16476190D01*
D10*
X-1238095Y16285714D02*
X-1380952Y16380952D01*
D10*
X-1095238Y16238095D02*
X-1238095Y16285714D01*
D10*
X-904761Y16190476D02*
X-1095238Y16238095D01*
D10*
X-761904Y16190476D02*
X-904761Y16190476D01*
D10*
X-619047Y16238095D02*
X-761904Y16190476D01*
D10*
X-571428Y16285714D02*
X-619047Y16238095D01*
D10*
X-523809Y16380952D02*
X-571428Y16285714D01*
D10*
X-1285714Y17380952D02*
X-1333333Y17333334D01*
D10*
X-1238095Y17333334D02*
X-1285714Y17380952D01*
D10*
X-1285714Y17285714D02*
X-1238095Y17333334D01*
D10*
X-1333333Y17285714D02*
X-1285714Y17285714D01*
D10*
X-1428571Y17333334D02*
X-1333333Y17285714D01*
D10*
X-1476190Y17380952D02*
X-1428571Y17333334D01*
D10*
X-1523809Y17523810D02*
X-1476190Y17380952D01*
D10*
X-1523809Y17666666D02*
X-1523809Y17523810D01*
D10*
X-1476190Y17809524D02*
X-1523809Y17666666D01*
D10*
X-1380952Y17857142D02*
X-1476190Y17809524D01*
D10*
X-1285714Y17857142D02*
X-1380952Y17857142D01*
D10*
X-1190476Y17809524D02*
X-1285714Y17857142D01*
D10*
X-1095238Y17714286D02*
X-1190476Y17809524D01*
D10*
X-1000000Y17571428D02*
X-1095238Y17714286D01*
D10*
X-904761Y17380952D02*
X-1000000Y17571428D01*
D10*
X-809523Y17238096D02*
X-904761Y17380952D01*
D10*
X-714285Y17142858D02*
X-809523Y17238096D01*
D10*
X-523809Y17047620D02*
X-714285Y17142858D01*
D10*
X-1476190Y17761904D02*
X-1523809Y17666666D01*
D10*
X-1380952Y17809524D02*
X-1476190Y17761904D01*
D10*
X-1285714Y17809524D02*
X-1380952Y17809524D01*
D10*
X-1190476Y17761904D02*
X-1285714Y17809524D01*
D10*
X-1095238Y17666666D02*
X-1190476Y17761904D01*
D10*
X-904761Y17380952D02*
X-1095238Y17666666D01*
D10*
X-666666Y17142858D02*
X-619047Y17095238D01*
D10*
X-666666Y17238096D02*
X-666666Y17142858D01*
D10*
X-571428Y17476190D02*
X-666666Y17238096D01*
D10*
X-571428Y17619048D02*
X-571428Y17476190D01*
D10*
X-619047Y17714286D02*
X-571428Y17619048D01*
D10*
X-714285Y17761904D02*
X-619047Y17714286D01*
D10*
X-523809Y17476190D02*
X-666666Y17238096D01*
D10*
X-523809Y17619048D02*
X-523809Y17476190D01*
D10*
X-571428Y17714286D02*
X-523809Y17619048D01*
D10*
X-714285Y17761904D02*
X-571428Y17714286D01*
D10*
X-1476190Y18380952D02*
X-1523809Y18523810D01*
D10*
X-1428571Y18333334D02*
X-1476190Y18380952D01*
D10*
X-1333333Y18285714D02*
X-1428571Y18333334D01*
D10*
X-1190476Y18285714D02*
X-1333333Y18285714D01*
D10*
X-1095238Y18333334D02*
X-1190476Y18285714D01*
D10*
X-1047619Y18428572D02*
X-1095238Y18333334D01*
D10*
X-1047619Y18571428D02*
X-1047619Y18428572D01*
D10*
X-1095238Y18761904D02*
X-1047619Y18571428D01*
D10*
X-1142857Y18809524D02*
X-1095238Y18761904D01*
D10*
X-1238095Y18857142D02*
X-1142857Y18809524D01*
D10*
X-1380952Y18857142D02*
X-1238095Y18857142D01*
D10*
X-1476190Y18809524D02*
X-1380952Y18857142D01*
D10*
X-1523809Y18666666D02*
X-1476190Y18809524D01*
D10*
X-1523809Y18523810D02*
X-1523809Y18666666D01*
D10*
X-1476190Y18428572D02*
X-1523809Y18523810D01*
D10*
X-1428571Y18380952D02*
X-1476190Y18428572D01*
D10*
X-1333333Y18333334D02*
X-1428571Y18380952D01*
D10*
X-1190476Y18333334D02*
X-1333333Y18333334D01*
D10*
X-1095238Y18380952D02*
X-1190476Y18333334D01*
D10*
X-1047619Y18428572D02*
X-1095238Y18380952D01*
D10*
X-1095238Y18714286D02*
X-1047619Y18571428D01*
D10*
X-1142857Y18761904D02*
X-1095238Y18714286D01*
D10*
X-1238095Y18809524D02*
X-1142857Y18761904D01*
D10*
X-1380952Y18809524D02*
X-1238095Y18809524D01*
D10*
X-1476190Y18761904D02*
X-1380952Y18809524D01*
D10*
X-1523809Y18666666D02*
X-1476190Y18761904D01*
D10*
X-1000000Y18238096D02*
X-1047619Y18428572D01*
D10*
X-904761Y18142856D02*
X-1000000Y18238096D01*
D10*
X-809523Y18095238D02*
X-904761Y18142856D01*
D10*
X-666666Y18095238D02*
X-809523Y18095238D01*
D10*
X-571428Y18142856D02*
X-666666Y18095238D01*
D10*
X-523809Y18285714D02*
X-571428Y18142856D01*
D10*
X-523809Y18476190D02*
X-523809Y18285714D01*
D10*
X-571428Y18666666D02*
X-523809Y18476190D01*
D10*
X-619047Y18714286D02*
X-571428Y18666666D01*
D10*
X-714285Y18761904D02*
X-619047Y18714286D01*
D10*
X-857142Y18761904D02*
X-714285Y18761904D01*
D10*
X-952380Y18714286D02*
X-857142Y18761904D01*
D10*
X-1000000Y18666666D02*
X-952380Y18714286D01*
D10*
X-1047619Y18571428D02*
X-1000000Y18666666D01*
D10*
X-1000000Y18285714D02*
X-1047619Y18428572D01*
D10*
X-904761Y18190476D02*
X-1000000Y18285714D01*
D10*
X-809523Y18142856D02*
X-904761Y18190476D01*
D10*
X-666666Y18142856D02*
X-809523Y18142856D01*
D10*
X-571428Y18190476D02*
X-666666Y18142856D01*
D10*
X-523809Y18285714D02*
X-571428Y18190476D01*
D10*
X-571428Y18619048D02*
X-523809Y18476190D01*
D10*
X-619047Y18666666D02*
X-571428Y18619048D01*
D10*
X-714285Y18714286D02*
X-619047Y18666666D01*
D10*
X-904761Y18714286D02*
X-714285Y18714286D01*
D10*
X-1000000Y18666666D02*
X-904761Y18714286D01*
D10*
X-2902381Y1023809D02*
X-2616666Y2023809D01*
D10*
X-2854762Y1023809D02*
X-2569047Y2023809D01*
D10*
X-2330952Y2023809D02*
X-2759523Y2023809D01*
D10*
X-2188095Y1976190D02*
X-2330952Y2023809D01*
D10*
X-2140476Y1928571D02*
X-2188095Y1976190D01*
D10*
X-2092857Y1785714D02*
X-2140476Y1928571D01*
D10*
X-2092857Y1595238D02*
X-2092857Y1785714D01*
D10*
X-2140476Y1404761D02*
X-2092857Y1595238D01*
D10*
X-2235714Y1214285D02*
X-2140476Y1404761D01*
D10*
X-2330952Y1119047D02*
X-2235714Y1214285D01*
D10*
X-2426190Y1071428D02*
X-2330952Y1119047D01*
D10*
X-2616666Y1023809D02*
X-2426190Y1071428D01*
D10*
X-3045238Y1023809D02*
X-2616666Y1023809D01*
D10*
X-2235714Y1976190D02*
X-2330952Y2023809D01*
D10*
X-2188095Y1928571D02*
X-2235714Y1976190D01*
D10*
X-2140476Y1785714D02*
X-2188095Y1928571D01*
D10*
X-2140476Y1595238D02*
X-2140476Y1785714D01*
D10*
X-2188095Y1404761D02*
X-2140476Y1595238D01*
D10*
X-2283333Y1214285D02*
X-2188095Y1404761D01*
D10*
X-2378571Y1119047D02*
X-2283333Y1214285D01*
D10*
X-2473809Y1071428D02*
X-2378571Y1119047D01*
D10*
X-2616666Y1023809D02*
X-2473809Y1071428D01*
D10*
X-1616666Y1023809D02*
X-1378571Y1833333D01*
D10*
X-1569047Y1023809D02*
X-1283333Y2023809D01*
D10*
X-1426190Y1880952D02*
X-1283333Y2023809D01*
D10*
X-1569047Y1785714D02*
X-1426190Y1880952D01*
D10*
X-1664285Y1738095D02*
X-1569047Y1785714D01*
D10*
X-1521428Y1785714D02*
X-1330952Y1880952D01*
D10*
X-1664285Y1738095D02*
X-1521428Y1785714D01*
D10*
X-9595238Y24928572D02*
X-9642857Y24928572D01*
D10*
X-9547619Y25023810D02*
X-9595238Y24928572D01*
D10*
X-9595238Y24738096D02*
X-9547619Y25023810D01*
D10*
X-9595238Y24833334D02*
X-9595238Y24738096D01*
D10*
X-9642857Y24928572D02*
X-9595238Y24833334D01*
D10*
X-9690476Y24976190D02*
X-9642857Y24928572D01*
D10*
X-9785714Y25023810D02*
X-9690476Y24976190D01*
D10*
X-9928571Y25023810D02*
X-9785714Y25023810D01*
D10*
X-10071428Y24976190D02*
X-9928571Y25023810D01*
D10*
X-10166667Y24880952D02*
X-10071428Y24976190D01*
D10*
X-10261905Y24738096D02*
X-10166667Y24880952D01*
D10*
X-10309524Y24595238D02*
X-10261905Y24738096D01*
D10*
X-10357143Y24404762D02*
X-10309524Y24595238D01*
D10*
X-10357143Y24261904D02*
X-10357143Y24404762D01*
D10*
X-10309524Y24119048D02*
X-10357143Y24261904D01*
D10*
X-10261905Y24071428D02*
X-10309524Y24119048D01*
D10*
X-10119048Y24023810D02*
X-10261905Y24071428D01*
D10*
X-9976190Y24023810D02*
X-10119048Y24023810D01*
D10*
X-9880952Y24071428D02*
X-9976190Y24023810D01*
D10*
X-9785714Y24166666D02*
X-9880952Y24071428D01*
D10*
X-9738095Y24261904D02*
X-9785714Y24166666D01*
D10*
X-10023810Y24976190D02*
X-9928571Y25023810D01*
D10*
X-10119048Y24880952D02*
X-10023810Y24976190D01*
D10*
X-10214286Y24738096D02*
X-10119048Y24880952D01*
D10*
X-10261905Y24595238D02*
X-10214286Y24738096D01*
D10*
X-10309524Y24404762D02*
X-10261905Y24595238D01*
D10*
X-10309524Y24261904D02*
X-10309524Y24404762D01*
D10*
X-10261905Y24119048D02*
X-10309524Y24261904D01*
D10*
X-10214286Y24071428D02*
X-10261905Y24119048D01*
D10*
X-10119048Y24023810D02*
X-10214286Y24071428D01*
D10*
X-9023810Y24023810D02*
X-8738095Y24976190D01*
D10*
X-8976190Y24023810D02*
X-8690476Y25023810D01*
D10*
X-9404762Y24309524D02*
X-8690476Y25023810D01*
D10*
X-8642857Y24309524D02*
X-9404762Y24309524D01*
D10*
X3702381Y33428572D02*
X3654762Y33428572D01*
D10*
X3750000Y33523810D02*
X3702381Y33428572D01*
D10*
X3702381Y33238096D02*
X3750000Y33523810D01*
D10*
X3702381Y33333334D02*
X3702381Y33238096D01*
D10*
X3654762Y33428572D02*
X3702381Y33333334D01*
D10*
X3607143Y33476190D02*
X3654762Y33428572D01*
D10*
X3464285Y33523810D02*
X3607143Y33476190D01*
D10*
X3273809Y33523810D02*
X3464285Y33523810D01*
D10*
X3130952Y33476190D02*
X3273809Y33523810D01*
D10*
X3035714Y33380952D02*
X3130952Y33476190D01*
D10*
X3035714Y33285714D02*
X3035714Y33380952D01*
D10*
X3083333Y33190476D02*
X3035714Y33285714D01*
D10*
X3130952Y33142858D02*
X3083333Y33190476D01*
D10*
X3464285Y32952380D02*
X3130952Y33142858D01*
D10*
X3559523Y32857142D02*
X3464285Y32952380D01*
D10*
X3130952Y33190476D02*
X3035714Y33285714D01*
D10*
X3464285Y33000000D02*
X3130952Y33190476D01*
D10*
X3511904Y32952380D02*
X3464285Y33000000D01*
D10*
X3559523Y32857142D02*
X3511904Y32952380D01*
D10*
X3559523Y32714286D02*
X3559523Y32857142D01*
D10*
X3511904Y32619048D02*
X3559523Y32714286D01*
D10*
X3464285Y32571428D02*
X3511904Y32619048D01*
D10*
X3321428Y32523810D02*
X3464285Y32571428D01*
D10*
X3130952Y32523810D02*
X3321428Y32523810D01*
D10*
X2988095Y32571428D02*
X3130952Y32523810D01*
D10*
X2940476Y32619048D02*
X2988095Y32571428D01*
D10*
X2892857Y32714286D02*
X2940476Y32619048D01*
D10*
X2892857Y32809524D02*
X2892857Y32714286D01*
D10*
X2845238Y32523810D02*
X2892857Y32809524D01*
D10*
X2892857Y32619048D02*
X2845238Y32523810D01*
D10*
X2940476Y32619048D02*
X2892857Y32619048D01*
D10*
X4226190Y33285714D02*
X4178571Y33333334D01*
D10*
X4178571Y33238096D02*
X4226190Y33285714D01*
D10*
X4130952Y33285714D02*
X4178571Y33238096D01*
D10*
X4130952Y33333334D02*
X4130952Y33285714D01*
D10*
X4178571Y33428572D02*
X4130952Y33333334D01*
D10*
X4226190Y33476190D02*
X4178571Y33428572D01*
D10*
X4369047Y33523810D02*
X4226190Y33476190D01*
D10*
X4511905Y33523810D02*
X4369047Y33523810D01*
D10*
X4654762Y33476190D02*
X4511905Y33523810D01*
D10*
X4702381Y33380952D02*
X4654762Y33476190D01*
D10*
X4702381Y33285714D02*
X4702381Y33380952D01*
D10*
X4654762Y33190476D02*
X4702381Y33285714D01*
D10*
X4511905Y33095238D02*
X4654762Y33190476D01*
D10*
X4369047Y33047620D02*
X4511905Y33095238D01*
D10*
X4607143Y33476190D02*
X4511905Y33523810D01*
D10*
X4654762Y33380952D02*
X4607143Y33476190D01*
D10*
X4654762Y33285714D02*
X4654762Y33380952D01*
D10*
X4607143Y33190476D02*
X4654762Y33285714D01*
D10*
X4511905Y33095238D02*
X4607143Y33190476D01*
D10*
X4369047Y33047620D02*
X4273809Y33047620D01*
D10*
X4511905Y33000000D02*
X4369047Y33047620D01*
D10*
X4559524Y32952380D02*
X4511905Y33000000D01*
D10*
X4607143Y32857142D02*
X4559524Y32952380D01*
D10*
X4607143Y32714286D02*
X4607143Y32857142D01*
D10*
X4559524Y32619048D02*
X4607143Y32714286D01*
D10*
X4511905Y32571428D02*
X4559524Y32619048D01*
D10*
X4369047Y32523810D02*
X4511905Y32571428D01*
D10*
X4178571Y32523810D02*
X4369047Y32523810D01*
D10*
X4035714Y32571428D02*
X4178571Y32523810D01*
D10*
X3988095Y32619048D02*
X4035714Y32571428D01*
D10*
X3940476Y32714286D02*
X3988095Y32619048D01*
D10*
X3940476Y32761904D02*
X3940476Y32714286D01*
D10*
X3988095Y32809524D02*
X3940476Y32761904D01*
D10*
X4035714Y32761904D02*
X3988095Y32809524D01*
D10*
X3988095Y32714286D02*
X4035714Y32761904D01*
D10*
X4464286Y33000000D02*
X4369047Y33047620D01*
D10*
X4511905Y32952380D02*
X4464286Y33000000D01*
D10*
X4559524Y32857142D02*
X4511905Y32952380D01*
D10*
X4559524Y32714286D02*
X4559524Y32857142D01*
D10*
X4511905Y32619048D02*
X4559524Y32714286D01*
D10*
X4464286Y32571428D02*
X4511905Y32619048D01*
D10*
X4369047Y32523810D02*
X4464286Y32571428D01*
D10*
X11000056Y-726246D02*
X11285770Y273753D01*
D10*
X11047675Y-726246D02*
X11333390Y273753D01*
D10*
X11666723Y273753D02*
X11142913Y273753D01*
D10*
X11809580Y226134D02*
X11666723Y273753D01*
D10*
X11857199Y130896D02*
X11809580Y226134D01*
D10*
X11857199Y35658D02*
X11857199Y130896D01*
D10*
X11809580Y-107198D02*
X11857199Y35658D01*
D10*
X11761961Y-154817D02*
X11809580Y-107198D01*
D10*
X11619104Y-202436D02*
X11761961Y-154817D01*
D10*
X11190532Y-202436D02*
X11619104Y-202436D01*
D10*
X11761961Y226134D02*
X11666723Y273753D01*
D10*
X11809580Y130896D02*
X11761961Y226134D01*
D10*
X11809580Y35658D02*
X11809580Y130896D01*
D10*
X11761961Y-107198D02*
X11809580Y35658D01*
D10*
X11714342Y-154817D02*
X11761961Y-107198D01*
D10*
X11619104Y-202436D02*
X11714342Y-154817D01*
D10*
X11523866Y-250056D02*
X11428628Y-202436D01*
D10*
X11571484Y-297675D02*
X11523866Y-250056D01*
D10*
X11619104Y-678627D02*
X11571484Y-297675D01*
D10*
X11666723Y-726246D02*
X11619104Y-678627D01*
D10*
X11761961Y-726246D02*
X11666723Y-726246D01*
D10*
X11809580Y-631008D02*
X11761961Y-726246D01*
D10*
X11809580Y-583389D02*
X11809580Y-631008D01*
D10*
X11666723Y-631008D02*
X11571484Y-297675D01*
D10*
X11714342Y-678627D02*
X11666723Y-631008D01*
D10*
X11761961Y-678627D02*
X11714342Y-678627D01*
D10*
X11809580Y-631008D02*
X11761961Y-678627D01*
D10*
X11190532Y-726246D02*
X10857199Y-726246D01*
D10*
X12333389Y-726246D02*
X12571485Y83277D01*
D10*
X12381008Y-726246D02*
X12666723Y273753D01*
D10*
X12523866Y130896D02*
X12666723Y273753D01*
D10*
X12381008Y35658D02*
X12523866Y130896D01*
D10*
X12285770Y-11960D02*
X12381008Y35658D01*
D10*
X12428628Y35658D02*
X12619104Y130896D01*
D10*
X12285770Y-11960D02*
X12428628Y35658D01*
D10*
X13190532Y-11960D02*
X13285770Y273753D01*
D10*
X13857199Y130896D02*
X13904818Y273753D01*
D10*
X13761961Y-11960D02*
X13857199Y130896D01*
D10*
X13523866Y-297675D02*
X13761961Y-11960D01*
D10*
X13428627Y-440532D02*
X13523866Y-297675D01*
D10*
X13381008Y-535770D02*
X13428627Y-440532D01*
D10*
X13333389Y-726246D02*
X13381008Y-535770D01*
D10*
X13476246Y-297675D02*
X13761961Y-11960D01*
D10*
X13381008Y-440532D02*
X13476246Y-297675D01*
D10*
X13333389Y-535770D02*
X13381008Y-440532D01*
D10*
X13285770Y-726246D02*
X13333389Y-535770D01*
D10*
X13381008Y273753D02*
X13238151Y130896D01*
D10*
X13476246Y273753D02*
X13381008Y273753D01*
D10*
X13714342Y130896D02*
X13476246Y273753D01*
D10*
X13381008Y226134D02*
X13285770Y178515D01*
D10*
X13476246Y226134D02*
X13381008Y226134D01*
D10*
X13714342Y130896D02*
X13476246Y226134D01*
D10*
X13809580Y130896D02*
X13714342Y130896D01*
D10*
X13857199Y178515D02*
X13809580Y130896D01*
D10*
X13904818Y273753D02*
X13857199Y178515D01*
D10*
X9554762Y41778572D02*
X9507143Y41778572D01*
D10*
X9602381Y41873808D02*
X9554762Y41778572D01*
D10*
X9554762Y41588096D02*
X9602381Y41873808D01*
D10*
X9554762Y41683332D02*
X9554762Y41588096D01*
D10*
X9507143Y41778572D02*
X9554762Y41683332D01*
D10*
X9459524Y41826192D02*
X9507143Y41778572D01*
D10*
X9364286Y41873808D02*
X9459524Y41826192D01*
D10*
X9221428Y41873808D02*
X9364286Y41873808D01*
D10*
X9078572Y41826192D02*
X9221428Y41873808D01*
D10*
X8983334Y41730952D02*
X9078572Y41826192D01*
D10*
X8888095Y41588096D02*
X8983334Y41730952D01*
D10*
X8840476Y41445240D02*
X8888095Y41588096D01*
D10*
X8792857Y41254760D02*
X8840476Y41445240D01*
D10*
X8792857Y41111904D02*
X8792857Y41254760D01*
D10*
X8840476Y40969048D02*
X8792857Y41111904D01*
D10*
X8888095Y40921428D02*
X8840476Y40969048D01*
D10*
X9030952Y40873808D02*
X8888095Y40921428D01*
D10*
X9173810Y40873808D02*
X9030952Y40873808D01*
D10*
X9269048Y40921428D02*
X9173810Y40873808D01*
D10*
X9364286Y41016668D02*
X9269048Y40921428D01*
D10*
X9411905Y41111904D02*
X9364286Y41016668D01*
D10*
X9126190Y41826192D02*
X9221428Y41873808D01*
D10*
X9030952Y41730952D02*
X9126190Y41826192D01*
D10*
X8935714Y41588096D02*
X9030952Y41730952D01*
D10*
X8888095Y41445240D02*
X8935714Y41588096D01*
D10*
X8840476Y41254760D02*
X8888095Y41445240D01*
D10*
X8840476Y41111904D02*
X8840476Y41254760D01*
D10*
X8888095Y40969048D02*
X8840476Y41111904D01*
D10*
X8935714Y40921428D02*
X8888095Y40969048D01*
D10*
X9030952Y40873808D02*
X8935714Y40921428D01*
D10*
X9983333Y40873808D02*
X10221429Y41683332D01*
D10*
X10030952Y40873808D02*
X10316667Y41873808D01*
D10*
X10173810Y41730952D02*
X10316667Y41873808D01*
D10*
X10030952Y41635716D02*
X10173810Y41730952D01*
D10*
X9935714Y41588096D02*
X10030952Y41635716D01*
D10*
X10078572Y41635716D02*
X10269048Y41730952D01*
D10*
X9935714Y41588096D02*
X10078572Y41635716D01*
D10*
X10983333Y40873808D02*
X11221429Y41683332D01*
D10*
X11030952Y40873808D02*
X11316667Y41873808D01*
D10*
X11173810Y41730952D02*
X11316667Y41873808D01*
D10*
X11030952Y41635716D02*
X11173810Y41730952D01*
D10*
X10935714Y41588096D02*
X11030952Y41635716D01*
D10*
X11078571Y41635716D02*
X11269048Y41730952D01*
D10*
X10935714Y41588096D02*
X11078571Y41635716D01*
D10*
X15392857Y9523810D02*
X15678571Y10523810D01*
D10*
X15440476Y9523810D02*
X15726190Y10523810D01*
D10*
X16059524Y10523810D02*
X15535714Y10523810D01*
D10*
X16202381Y10476190D02*
X16059524Y10523810D01*
D10*
X16250000Y10380952D02*
X16202381Y10476190D01*
D10*
X16250000Y10285714D02*
X16250000Y10380952D01*
D10*
X16202381Y10142857D02*
X16250000Y10285714D01*
D10*
X16154762Y10095238D02*
X16202381Y10142857D01*
D10*
X16011905Y10047619D02*
X16154762Y10095238D01*
D10*
X15583333Y10047619D02*
X16011905Y10047619D01*
D10*
X16154762Y10476190D02*
X16059524Y10523810D01*
D10*
X16202381Y10380952D02*
X16154762Y10476190D01*
D10*
X16202381Y10285714D02*
X16202381Y10380952D01*
D10*
X16154762Y10142857D02*
X16202381Y10285714D01*
D10*
X16107143Y10095238D02*
X16154762Y10142857D01*
D10*
X16011905Y10047619D02*
X16107143Y10095238D01*
D10*
X15916667Y10000000D02*
X15821429Y10047619D01*
D10*
X15964286Y9952381D02*
X15916667Y10000000D01*
D10*
X16011905Y9571429D02*
X15964286Y9952381D01*
D10*
X16059524Y9523810D02*
X16011905Y9571429D01*
D10*
X16154762Y9523810D02*
X16059524Y9523810D01*
D10*
X16202381Y9619048D02*
X16154762Y9523810D01*
D10*
X16202381Y9666667D02*
X16202381Y9619048D01*
D10*
X16059524Y9619048D02*
X15964286Y9952381D01*
D10*
X16107143Y9571429D02*
X16059524Y9619048D01*
D10*
X16154762Y9571429D02*
X16107143Y9571429D01*
D10*
X16202381Y9619048D02*
X16154762Y9571429D01*
D10*
X15583333Y9523810D02*
X15250000Y9523810D01*
D10*
X16583333Y10238095D02*
X16678571Y10523810D01*
D10*
X17250000Y10380952D02*
X17297620Y10523810D01*
D10*
X17154762Y10238095D02*
X17250000Y10380952D01*
D10*
X16916666Y9952381D02*
X17154762Y10238095D01*
D10*
X16821428Y9809524D02*
X16916666Y9952381D01*
D10*
X16773810Y9714286D02*
X16821428Y9809524D01*
D10*
X16726190Y9523810D02*
X16773810Y9714286D01*
D10*
X16869048Y9952381D02*
X17154762Y10238095D01*
D10*
X16773810Y9809524D02*
X16869048Y9952381D01*
D10*
X16726190Y9714286D02*
X16773810Y9809524D01*
D10*
X16678571Y9523810D02*
X16726190Y9714286D01*
D10*
X16773810Y10523810D02*
X16630952Y10380952D01*
D10*
X16869048Y10523810D02*
X16773810Y10523810D01*
D10*
X17107142Y10380952D02*
X16869048Y10523810D01*
D10*
X16773810Y10476190D02*
X16678571Y10428571D01*
D10*
X16869048Y10476190D02*
X16773810Y10476190D01*
D10*
X17107142Y10380952D02*
X16869048Y10476190D01*
D10*
X17202380Y10380952D02*
X17107142Y10380952D01*
D10*
X17250000Y10428571D02*
X17202380Y10380952D01*
D10*
X17297620Y10523810D02*
X17250000Y10428571D01*
D10*
X10952381Y33428572D02*
X10904762Y33428572D01*
D10*
X11000000Y33523810D02*
X10952381Y33428572D01*
D10*
X10952381Y33238096D02*
X11000000Y33523810D01*
D10*
X10952381Y33333334D02*
X10952381Y33238096D01*
D10*
X10904762Y33428572D02*
X10952381Y33333334D01*
D10*
X10857143Y33476190D02*
X10904762Y33428572D01*
D10*
X10714286Y33523810D02*
X10857143Y33476190D01*
D10*
X10523810Y33523810D02*
X10714286Y33523810D01*
D10*
X10380952Y33476190D02*
X10523810Y33523810D01*
D10*
X10285714Y33380952D02*
X10380952Y33476190D01*
D10*
X10285714Y33285714D02*
X10285714Y33380952D01*
D10*
X10333333Y33190476D02*
X10285714Y33285714D01*
D10*
X10380952Y33142858D02*
X10333333Y33190476D01*
D10*
X10714286Y32952380D02*
X10380952Y33142858D01*
D10*
X10809524Y32857142D02*
X10714286Y32952380D01*
D10*
X10380952Y33190476D02*
X10285714Y33285714D01*
D10*
X10714286Y33000000D02*
X10380952Y33190476D01*
D10*
X10761905Y32952380D02*
X10714286Y33000000D01*
D10*
X10809524Y32857142D02*
X10761905Y32952380D01*
D10*
X10809524Y32714286D02*
X10809524Y32857142D01*
D10*
X10761905Y32619048D02*
X10809524Y32714286D01*
D10*
X10714286Y32571428D02*
X10761905Y32619048D01*
D10*
X10571429Y32523810D02*
X10714286Y32571428D01*
D10*
X10380952Y32523810D02*
X10571429Y32523810D01*
D10*
X10238095Y32571428D02*
X10380952Y32523810D01*
D10*
X10190476Y32619048D02*
X10238095Y32571428D01*
D10*
X10142857Y32714286D02*
X10190476Y32619048D01*
D10*
X10142857Y32809524D02*
X10142857Y32714286D01*
D10*
X10095238Y32523810D02*
X10142857Y32809524D01*
D10*
X10142857Y32619048D02*
X10095238Y32523810D01*
D10*
X10190476Y32619048D02*
X10142857Y32619048D01*
D10*
X11571428Y32523810D02*
X11857143Y33476190D01*
D10*
X11619048Y32523810D02*
X11904762Y33523810D01*
D10*
X11190476Y32809524D02*
X11904762Y33523810D01*
D10*
X11952381Y32809524D02*
X11190476Y32809524D01*
D10*
X13592857Y7273809D02*
X13878571Y8273809D01*
D10*
X13640476Y7273809D02*
X13926190Y8273809D01*
D10*
X14259524Y8273809D02*
X13735714Y8273809D01*
D10*
X14402381Y8226190D02*
X14259524Y8273809D01*
D10*
X14450000Y8130952D02*
X14402381Y8226190D01*
D10*
X14450000Y8035714D02*
X14450000Y8130952D01*
D10*
X14402381Y7892857D02*
X14450000Y8035714D01*
D10*
X14354762Y7845238D02*
X14402381Y7892857D01*
D10*
X14211905Y7797619D02*
X14354762Y7845238D01*
D10*
X13783333Y7797619D02*
X14211905Y7797619D01*
D10*
X14354762Y8226190D02*
X14259524Y8273809D01*
D10*
X14402381Y8130952D02*
X14354762Y8226190D01*
D10*
X14402381Y8035714D02*
X14402381Y8130952D01*
D10*
X14354762Y7892857D02*
X14402381Y8035714D01*
D10*
X14307143Y7845238D02*
X14354762Y7892857D01*
D10*
X14211905Y7797619D02*
X14307143Y7845238D01*
D10*
X14116667Y7750000D02*
X14021429Y7797619D01*
D10*
X14164286Y7702381D02*
X14116667Y7750000D01*
D10*
X14211905Y7321428D02*
X14164286Y7702381D01*
D10*
X14259524Y7273809D02*
X14211905Y7321428D01*
D10*
X14354762Y7273809D02*
X14259524Y7273809D01*
D10*
X14402381Y7369047D02*
X14354762Y7273809D01*
D10*
X14402381Y7416666D02*
X14402381Y7369047D01*
D10*
X14259524Y7369047D02*
X14164286Y7702381D01*
D10*
X14307143Y7321428D02*
X14259524Y7369047D01*
D10*
X14354762Y7321428D02*
X14307143Y7321428D01*
D10*
X14402381Y7369047D02*
X14354762Y7321428D01*
D10*
X13783333Y7273809D02*
X13450000Y7273809D01*
D10*
X14926190Y7273809D02*
X15164286Y8083333D01*
D10*
X14973810Y7273809D02*
X15259524Y8273809D01*
D10*
X15116667Y8130952D02*
X15259524Y8273809D01*
D10*
X14973810Y8035714D02*
X15116667Y8130952D01*
D10*
X14878571Y7988095D02*
X14973810Y8035714D01*
D10*
X15021428Y8035714D02*
X15211905Y8130952D01*
D10*
X14878571Y7988095D02*
X15021428Y8035714D01*
D10*
X15926190Y7273809D02*
X16164286Y8083333D01*
D10*
X15973810Y7273809D02*
X16259524Y8273809D01*
D10*
X16116666Y8130952D02*
X16259524Y8273809D01*
D10*
X15973810Y8035714D02*
X16116666Y8130952D01*
D10*
X15878572Y7988095D02*
X15973810Y8035714D01*
D10*
X16021428Y8035714D02*
X16211905Y8130952D01*
D10*
X15878572Y7988095D02*
X16021428Y8035714D01*
D10*
X8250000Y6773809D02*
X8535714Y7773809D01*
D10*
X8297619Y6773809D02*
X8583333Y7773809D01*
D10*
X8916667Y7773809D02*
X8392857Y7773809D01*
D10*
X9059524Y7726190D02*
X8916667Y7773809D01*
D10*
X9107143Y7630952D02*
X9059524Y7726190D01*
D10*
X9107143Y7535714D02*
X9107143Y7630952D01*
D10*
X9059524Y7392857D02*
X9107143Y7535714D01*
D10*
X9011905Y7345238D02*
X9059524Y7392857D01*
D10*
X8869048Y7297619D02*
X9011905Y7345238D01*
D10*
X8440476Y7297619D02*
X8869048Y7297619D01*
D10*
X9011905Y7726190D02*
X8916667Y7773809D01*
D10*
X9059524Y7630952D02*
X9011905Y7726190D01*
D10*
X9059524Y7535714D02*
X9059524Y7630952D01*
D10*
X9011905Y7392857D02*
X9059524Y7535714D01*
D10*
X8964286Y7345238D02*
X9011905Y7392857D01*
D10*
X8869048Y7297619D02*
X8964286Y7345238D01*
D10*
X8773810Y7250000D02*
X8678572Y7297619D01*
D10*
X8821429Y7202381D02*
X8773810Y7250000D01*
D10*
X8869048Y6821428D02*
X8821429Y7202381D01*
D10*
X8916667Y6773809D02*
X8869048Y6821428D01*
D10*
X9011905Y6773809D02*
X8916667Y6773809D01*
D10*
X9059524Y6869047D02*
X9011905Y6773809D01*
D10*
X9059524Y6916666D02*
X9059524Y6869047D01*
D10*
X8916667Y6869047D02*
X8821429Y7202381D01*
D10*
X8964286Y6821428D02*
X8916667Y6869047D01*
D10*
X9011905Y6821428D02*
X8964286Y6821428D01*
D10*
X9059524Y6869047D02*
X9011905Y6821428D01*
D10*
X8440476Y6773809D02*
X8107143Y6773809D01*
D10*
X10011905Y7345238D02*
X10059524Y7440476D01*
D10*
X9916667Y7250000D02*
X10011905Y7345238D01*
D10*
X9821429Y7202381D02*
X9916667Y7250000D01*
D10*
X9678571Y7202381D02*
X9821429Y7202381D01*
D10*
X9583333Y7250000D02*
X9678571Y7202381D01*
D10*
X9535714Y7297619D02*
X9583333Y7250000D01*
D10*
X9488095Y7392857D02*
X9535714Y7297619D01*
D10*
X9488095Y7535714D02*
X9488095Y7392857D01*
D10*
X9535714Y7630952D02*
X9488095Y7535714D01*
D10*
X9630952Y7726190D02*
X9535714Y7630952D01*
D10*
X9773810Y7773809D02*
X9630952Y7726190D01*
D10*
X9916667Y7773809D02*
X9773810Y7773809D01*
D10*
X10011905Y7726190D02*
X9916667Y7773809D01*
D10*
X10059524Y7678571D02*
X10011905Y7726190D01*
D10*
X10107143Y7583333D02*
X10059524Y7678571D01*
D10*
X10107143Y7392857D02*
X10107143Y7583333D01*
D10*
X10059524Y7202381D02*
X10107143Y7392857D01*
D10*
X10011905Y7059524D02*
X10059524Y7202381D01*
D10*
X9916667Y6916666D02*
X10011905Y7059524D01*
D10*
X9821429Y6821428D02*
X9916667Y6916666D01*
D10*
X9678571Y6773809D02*
X9821429Y6821428D01*
D10*
X9535714Y6773809D02*
X9678571Y6773809D01*
D10*
X9440476Y6821428D02*
X9535714Y6773809D01*
D10*
X9392857Y6916666D02*
X9440476Y6821428D01*
D10*
X9392857Y6964285D02*
X9392857Y6916666D01*
D10*
X9440476Y7011905D02*
X9392857Y6964285D01*
D10*
X9488095Y6964285D02*
X9440476Y7011905D01*
D10*
X9440476Y6916666D02*
X9488095Y6964285D01*
D10*
X9535714Y7345238D02*
X9583333Y7250000D01*
D10*
X9535714Y7535714D02*
X9535714Y7345238D01*
D10*
X9583333Y7630952D02*
X9535714Y7535714D01*
D10*
X9678571Y7726190D02*
X9583333Y7630952D01*
D10*
X9773810Y7773809D02*
X9678571Y7726190D01*
D10*
X10059524Y7630952D02*
X10011905Y7726190D01*
D10*
X10059524Y7392857D02*
X10059524Y7630952D01*
D10*
X10011905Y7202381D02*
X10059524Y7392857D01*
D10*
X9964286Y7059524D02*
X10011905Y7202381D01*
D10*
X9869048Y6916666D02*
X9964286Y7059524D01*
D10*
X9773810Y6821428D02*
X9869048Y6916666D01*
D10*
X9678571Y6773809D02*
X9773810Y6821428D01*
D10*
X15226190Y37892856D02*
X14226190Y38178572D01*
D10*
X15226190Y37940476D02*
X14226190Y38226192D01*
D10*
X14226190Y38559524D02*
X14226190Y38035716D01*
D10*
X14273810Y38702380D02*
X14226190Y38559524D01*
D10*
X14369048Y38750000D02*
X14273810Y38702380D01*
D10*
X14464286Y38750000D02*
X14369048Y38750000D01*
D10*
X14607143Y38702380D02*
X14464286Y38750000D01*
D10*
X14654762Y38654760D02*
X14607143Y38702380D01*
D10*
X14702381Y38511904D02*
X14654762Y38654760D01*
D10*
X14702381Y38083332D02*
X14702381Y38511904D01*
D10*
X14273810Y38654760D02*
X14226190Y38559524D01*
D10*
X14369048Y38702380D02*
X14273810Y38654760D01*
D10*
X14464286Y38702380D02*
X14369048Y38702380D01*
D10*
X14607143Y38654760D02*
X14464286Y38702380D01*
D10*
X14654762Y38607144D02*
X14607143Y38654760D01*
D10*
X14702381Y38511904D02*
X14654762Y38607144D01*
D10*
X14750000Y38416668D02*
X14702381Y38321428D01*
D10*
X14797619Y38464284D02*
X14750000Y38416668D01*
D10*
X15178571Y38511904D02*
X14797619Y38464284D01*
D10*
X15226190Y38559524D02*
X15178571Y38511904D01*
D10*
X15226190Y38654760D02*
X15226190Y38559524D01*
D10*
X15130952Y38702380D02*
X15226190Y38654760D01*
D10*
X15083333Y38702380D02*
X15130952Y38702380D01*
D10*
X15130952Y38559524D02*
X14797619Y38464284D01*
D10*
X15178571Y38607144D02*
X15130952Y38559524D01*
D10*
X15178571Y38654760D02*
X15178571Y38607144D01*
D10*
X15130952Y38702380D02*
X15178571Y38654760D01*
D10*
X15226190Y38083332D02*
X15226190Y37750000D01*
D10*
X15226190Y39226192D02*
X14416667Y39464284D01*
D10*
X15226190Y39273808D02*
X14226190Y39559524D01*
D10*
X14369048Y39416668D02*
X14226190Y39559524D01*
D10*
X14464286Y39273808D02*
X14369048Y39416668D01*
D10*
X14511905Y39178572D02*
X14464286Y39273808D01*
D10*
X14464286Y39321428D02*
X14369048Y39511904D01*
D10*
X14511905Y39178572D02*
X14464286Y39321428D01*
D10*
X17476190Y37892856D02*
X16476190Y38178572D01*
D10*
X17476190Y37940476D02*
X16476190Y38226192D01*
D10*
X16476190Y38559524D02*
X16476190Y38035716D01*
D10*
X16523810Y38702380D02*
X16476190Y38559524D01*
D10*
X16619048Y38750000D02*
X16523810Y38702380D01*
D10*
X16714286Y38750000D02*
X16619048Y38750000D01*
D10*
X16857142Y38702380D02*
X16714286Y38750000D01*
D10*
X16904762Y38654760D02*
X16857142Y38702380D01*
D10*
X16952380Y38511904D02*
X16904762Y38654760D01*
D10*
X16952380Y38083332D02*
X16952380Y38511904D01*
D10*
X16523810Y38654760D02*
X16476190Y38559524D01*
D10*
X16619048Y38702380D02*
X16523810Y38654760D01*
D10*
X16714286Y38702380D02*
X16619048Y38702380D01*
D10*
X16857142Y38654760D02*
X16714286Y38702380D01*
D10*
X16904762Y38607144D02*
X16857142Y38654760D01*
D10*
X16952380Y38511904D02*
X16904762Y38607144D01*
D10*
X17000000Y38416668D02*
X16952380Y38321428D01*
D10*
X17047620Y38464284D02*
X17000000Y38416668D01*
D10*
X17428572Y38511904D02*
X17047620Y38464284D01*
D10*
X17476190Y38559524D02*
X17428572Y38511904D01*
D10*
X17476190Y38654760D02*
X17476190Y38559524D01*
D10*
X17380952Y38702380D02*
X17476190Y38654760D01*
D10*
X17333334Y38702380D02*
X17380952Y38702380D01*
D10*
X17380952Y38559524D02*
X17047620Y38464284D01*
D10*
X17428572Y38607144D02*
X17380952Y38559524D01*
D10*
X17428572Y38654760D02*
X17428572Y38607144D01*
D10*
X17380952Y38702380D02*
X17428572Y38654760D01*
D10*
X17476190Y38083332D02*
X17476190Y37750000D01*
D10*
X16714286Y39273808D02*
X16666667Y39226192D01*
D10*
X16761905Y39226192D02*
X16714286Y39273808D01*
D10*
X16714286Y39178572D02*
X16761905Y39226192D01*
D10*
X16666667Y39178572D02*
X16714286Y39178572D01*
D10*
X16571429Y39226192D02*
X16666667Y39178572D01*
D10*
X16523810Y39273808D02*
X16571429Y39226192D01*
D10*
X16476190Y39416668D02*
X16523810Y39273808D01*
D10*
X16476190Y39559524D02*
X16476190Y39416668D01*
D10*
X16523810Y39702380D02*
X16476190Y39559524D01*
D10*
X16619048Y39750000D02*
X16523810Y39702380D01*
D10*
X16714286Y39750000D02*
X16619048Y39750000D01*
D10*
X16809524Y39702380D02*
X16714286Y39750000D01*
D10*
X16904762Y39607144D02*
X16809524Y39702380D01*
D10*
X17000000Y39464284D02*
X16904762Y39607144D01*
D10*
X17095238Y39273808D02*
X17000000Y39464284D01*
D10*
X17190476Y39130952D02*
X17095238Y39273808D01*
D10*
X17285714Y39035716D02*
X17190476Y39130952D01*
D10*
X17476190Y38940476D02*
X17285714Y39035716D01*
D10*
X16523810Y39654760D02*
X16476190Y39559524D01*
D10*
X16619048Y39702380D02*
X16523810Y39654760D01*
D10*
X16714286Y39702380D02*
X16619048Y39702380D01*
D10*
X16809524Y39654760D02*
X16714286Y39702380D01*
D10*
X16904762Y39559524D02*
X16809524Y39654760D01*
D10*
X17095238Y39273808D02*
X16904762Y39559524D01*
D10*
X17333334Y39035716D02*
X17380952Y38988096D01*
D10*
X17333334Y39130952D02*
X17333334Y39035716D01*
D10*
X17428572Y39369048D02*
X17333334Y39130952D01*
D10*
X17428572Y39511904D02*
X17428572Y39369048D01*
D10*
X17380952Y39607144D02*
X17428572Y39511904D01*
D10*
X17285714Y39654760D02*
X17380952Y39607144D01*
D10*
X17476190Y39369048D02*
X17333334Y39130952D01*
D10*
X17476190Y39511904D02*
X17476190Y39369048D01*
D10*
X17428572Y39607144D02*
X17476190Y39511904D01*
D10*
X17285714Y39654760D02*
X17428572Y39607144D01*
D10*
X3976190Y50142856D02*
X2976190Y50428572D01*
D10*
X3976190Y50190476D02*
X2976190Y50476192D01*
D10*
X2976190Y50809524D02*
X2976190Y50285716D01*
D10*
X3023809Y50952380D02*
X2976190Y50809524D01*
D10*
X3119047Y51000000D02*
X3023809Y50952380D01*
D10*
X3214285Y51000000D02*
X3119047Y51000000D01*
D10*
X3357142Y50952380D02*
X3214285Y51000000D01*
D10*
X3404762Y50904760D02*
X3357142Y50952380D01*
D10*
X3452381Y50761904D02*
X3404762Y50904760D01*
D10*
X3452381Y50333332D02*
X3452381Y50761904D01*
D10*
X3023809Y50904760D02*
X2976190Y50809524D01*
D10*
X3119047Y50952380D02*
X3023809Y50904760D01*
D10*
X3214285Y50952380D02*
X3119047Y50952380D01*
D10*
X3357142Y50904760D02*
X3214285Y50952380D01*
D10*
X3404762Y50857144D02*
X3357142Y50904760D01*
D10*
X3452381Y50761904D02*
X3404762Y50857144D01*
D10*
X3500000Y50666668D02*
X3452381Y50571428D01*
D10*
X3547619Y50714284D02*
X3500000Y50666668D01*
D10*
X3928571Y50761904D02*
X3547619Y50714284D01*
D10*
X3976190Y50809524D02*
X3928571Y50761904D01*
D10*
X3976190Y50904760D02*
X3976190Y50809524D01*
D10*
X3880952Y50952380D02*
X3976190Y50904760D01*
D10*
X3833333Y50952380D02*
X3880952Y50952380D01*
D10*
X3880952Y50809524D02*
X3547619Y50714284D01*
D10*
X3928571Y50857144D02*
X3880952Y50809524D01*
D10*
X3928571Y50904760D02*
X3928571Y50857144D01*
D10*
X3880952Y50952380D02*
X3928571Y50904760D01*
D10*
X3976190Y50333332D02*
X3976190Y50000000D01*
D10*
X3452381Y51333332D02*
X2976190Y51571428D01*
D10*
X2976190Y52047620D02*
X2976190Y51571428D01*
D10*
X3023809Y51809524D02*
X3023809Y51571428D01*
D10*
X2976190Y52047620D02*
X3023809Y51809524D01*
D10*
X3404762Y51380952D02*
X3452381Y51333332D01*
D10*
X3357142Y51523808D02*
X3404762Y51380952D01*
D10*
X3357142Y51666668D02*
X3357142Y51523808D01*
D10*
X3404762Y51809524D02*
X3357142Y51666668D01*
D10*
X3452381Y51857144D02*
X3404762Y51809524D01*
D10*
X3547619Y51904760D02*
X3452381Y51857144D01*
D10*
X3690476Y51904760D02*
X3547619Y51904760D01*
D10*
X3833333Y51857144D02*
X3690476Y51904760D01*
D10*
X3928571Y51761904D02*
X3833333Y51857144D01*
D10*
X3976190Y51619048D02*
X3928571Y51761904D01*
D10*
X3976190Y51476192D02*
X3976190Y51619048D01*
D10*
X3928571Y51333332D02*
X3976190Y51476192D01*
D10*
X3880952Y51285716D02*
X3928571Y51333332D01*
D10*
X3785714Y51238096D02*
X3880952Y51285716D01*
D10*
X3738095Y51238096D02*
X3785714Y51238096D01*
D10*
X3690476Y51285716D02*
X3738095Y51238096D01*
D10*
X3738095Y51333332D02*
X3690476Y51285716D01*
D10*
X3785714Y51285716D02*
X3738095Y51333332D01*
D10*
X3404762Y51761904D02*
X3357142Y51666668D01*
D10*
X3452381Y51809524D02*
X3404762Y51761904D01*
D10*
X3547619Y51857144D02*
X3452381Y51809524D01*
D10*
X3690476Y51857144D02*
X3547619Y51857144D01*
D10*
X3833333Y51809524D02*
X3690476Y51857144D01*
D10*
X3928571Y51714284D02*
X3833333Y51809524D01*
D10*
X3976190Y51619048D02*
X3928571Y51714284D01*
D10*
X12154762Y14678571D02*
X12107143Y14678571D01*
D10*
X12202381Y14773810D02*
X12154762Y14678571D01*
D10*
X12154762Y14488095D02*
X12202381Y14773810D01*
D10*
X12154762Y14583333D02*
X12154762Y14488095D01*
D10*
X12107143Y14678571D02*
X12154762Y14583333D01*
D10*
X12059524Y14726190D02*
X12107143Y14678571D01*
D10*
X11964286Y14773810D02*
X12059524Y14726190D01*
D10*
X11821429Y14773810D02*
X11964286Y14773810D01*
D10*
X11678572Y14726190D02*
X11821429Y14773810D01*
D10*
X11583333Y14630952D02*
X11678572Y14726190D01*
D10*
X11488095Y14488095D02*
X11583333Y14630952D01*
D10*
X11440476Y14345238D02*
X11488095Y14488095D01*
D10*
X11392857Y14154762D02*
X11440476Y14345238D01*
D10*
X11392857Y14011905D02*
X11392857Y14154762D01*
D10*
X11440476Y13869048D02*
X11392857Y14011905D01*
D10*
X11488095Y13821429D02*
X11440476Y13869048D01*
D10*
X11630952Y13773810D02*
X11488095Y13821429D01*
D10*
X11773810Y13773810D02*
X11630952Y13773810D01*
D10*
X11869048Y13821429D02*
X11773810Y13773810D01*
D10*
X11964286Y13916667D02*
X11869048Y13821429D01*
D10*
X12011905Y14011905D02*
X11964286Y13916667D01*
D10*
X11726190Y14726190D02*
X11821429Y14773810D01*
D10*
X11630952Y14630952D02*
X11726190Y14726190D01*
D10*
X11535714Y14488095D02*
X11630952Y14630952D01*
D10*
X11488095Y14345238D02*
X11535714Y14488095D01*
D10*
X11440476Y14154762D02*
X11488095Y14345238D01*
D10*
X11440476Y14011905D02*
X11440476Y14154762D01*
D10*
X11488095Y13869048D02*
X11440476Y14011905D01*
D10*
X11535714Y13821429D02*
X11488095Y13869048D01*
D10*
X11630952Y13773810D02*
X11535714Y13821429D01*
D10*
X13011905Y14345238D02*
X13059524Y14440476D01*
D10*
X12916667Y14250000D02*
X13011905Y14345238D01*
D10*
X12821429Y14202381D02*
X12916667Y14250000D01*
D10*
X12678571Y14202381D02*
X12821429Y14202381D01*
D10*
X12583333Y14250000D02*
X12678571Y14202381D01*
D10*
X12535714Y14297619D02*
X12583333Y14250000D01*
D10*
X12488095Y14392857D02*
X12535714Y14297619D01*
D10*
X12488095Y14535714D02*
X12488095Y14392857D01*
D10*
X12535714Y14630952D02*
X12488095Y14535714D01*
D10*
X12630952Y14726190D02*
X12535714Y14630952D01*
D10*
X12773810Y14773810D02*
X12630952Y14726190D01*
D10*
X12916667Y14773810D02*
X12773810Y14773810D01*
D10*
X13011905Y14726190D02*
X12916667Y14773810D01*
D10*
X13059524Y14678571D02*
X13011905Y14726190D01*
D10*
X13107143Y14583333D02*
X13059524Y14678571D01*
D10*
X13107143Y14392857D02*
X13107143Y14583333D01*
D10*
X13059524Y14202381D02*
X13107143Y14392857D01*
D10*
X13011905Y14059524D02*
X13059524Y14202381D01*
D10*
X12916667Y13916667D02*
X13011905Y14059524D01*
D10*
X12821429Y13821429D02*
X12916667Y13916667D01*
D10*
X12678571Y13773810D02*
X12821429Y13821429D01*
D10*
X12535714Y13773810D02*
X12678571Y13773810D01*
D10*
X12440476Y13821429D02*
X12535714Y13773810D01*
D10*
X12392857Y13916667D02*
X12440476Y13821429D01*
D10*
X12392857Y13964286D02*
X12392857Y13916667D01*
D10*
X12440476Y14011905D02*
X12392857Y13964286D01*
D10*
X12488095Y13964286D02*
X12440476Y14011905D01*
D10*
X12440476Y13916667D02*
X12488095Y13964286D01*
D10*
X12535714Y14345238D02*
X12583333Y14250000D01*
D10*
X12535714Y14535714D02*
X12535714Y14345238D01*
D10*
X12583333Y14630952D02*
X12535714Y14535714D01*
D10*
X12678571Y14726190D02*
X12583333Y14630952D01*
D10*
X12773810Y14773810D02*
X12678571Y14726190D01*
D10*
X13059524Y14630952D02*
X13011905Y14726190D01*
D10*
X13059524Y14392857D02*
X13059524Y14630952D01*
D10*
X13011905Y14202381D02*
X13059524Y14392857D01*
D10*
X12964286Y14059524D02*
X13011905Y14202381D01*
D10*
X12869048Y13916667D02*
X12964286Y14059524D01*
D10*
X12773810Y13821429D02*
X12869048Y13916667D01*
D10*
X12678571Y13773810D02*
X12773810Y13821429D01*
D10*
X16071429Y25404762D02*
X16071429Y25357142D01*
D10*
X15976190Y25452380D02*
X16071429Y25404762D01*
D10*
X16261905Y25404762D02*
X15976190Y25452380D01*
D10*
X16166667Y25404762D02*
X16261905Y25404762D01*
D10*
X16071429Y25357142D02*
X16166667Y25404762D01*
D10*
X16023810Y25309524D02*
X16071429Y25357142D01*
D10*
X15976190Y25214286D02*
X16023810Y25309524D01*
D10*
X15976190Y25071428D02*
X15976190Y25214286D01*
D10*
X16023810Y24928572D02*
X15976190Y25071428D01*
D10*
X16119048Y24833334D02*
X16023810Y24928572D01*
D10*
X16261905Y24738096D02*
X16119048Y24833334D01*
D10*
X16404762Y24690476D02*
X16261905Y24738096D01*
D10*
X16595238Y24642858D02*
X16404762Y24690476D01*
D10*
X16738095Y24642858D02*
X16595238Y24642858D01*
D10*
X16880952Y24690476D02*
X16738095Y24642858D01*
D10*
X16928572Y24738096D02*
X16880952Y24690476D01*
D10*
X16976190Y24880952D02*
X16928572Y24738096D01*
D10*
X16976190Y25023810D02*
X16976190Y24880952D01*
D10*
X16928572Y25119048D02*
X16976190Y25023810D01*
D10*
X16833334Y25214286D02*
X16928572Y25119048D01*
D10*
X16738095Y25261904D02*
X16833334Y25214286D01*
D10*
X16023810Y24976190D02*
X15976190Y25071428D01*
D10*
X16119048Y24880952D02*
X16023810Y24976190D01*
D10*
X16261905Y24785714D02*
X16119048Y24880952D01*
D10*
X16404762Y24738096D02*
X16261905Y24785714D01*
D10*
X16595238Y24690476D02*
X16404762Y24738096D01*
D10*
X16738095Y24690476D02*
X16595238Y24690476D01*
D10*
X16880952Y24738096D02*
X16738095Y24690476D01*
D10*
X16928572Y24785714D02*
X16880952Y24738096D01*
D10*
X16976190Y24880952D02*
X16928572Y24785714D01*
D10*
X16261905Y25690476D02*
X15976190Y25785714D01*
D10*
X16119048Y26357142D02*
X15976190Y26404762D01*
D10*
X16261905Y26261904D02*
X16119048Y26357142D01*
D10*
X16547619Y26023810D02*
X16261905Y26261904D01*
D10*
X16690476Y25928572D02*
X16547619Y26023810D01*
D10*
X16785714Y25880952D02*
X16690476Y25928572D01*
D10*
X16976190Y25833334D02*
X16785714Y25880952D01*
D10*
X16547619Y25976190D02*
X16261905Y26261904D01*
D10*
X16690476Y25880952D02*
X16547619Y25976190D01*
D10*
X16785714Y25833334D02*
X16690476Y25880952D01*
D10*
X16976190Y25785714D02*
X16785714Y25833334D01*
D10*
X15976190Y25880952D02*
X16119048Y25738096D01*
D10*
X15976190Y25976190D02*
X15976190Y25880952D01*
D10*
X16119048Y26214286D02*
X15976190Y25976190D01*
D10*
X16023810Y25880952D02*
X16071429Y25785714D01*
D10*
X16023810Y25976190D02*
X16023810Y25880952D01*
D10*
X16119048Y26214286D02*
X16023810Y25976190D01*
D10*
X16119048Y26309524D02*
X16119048Y26214286D01*
D10*
X16071429Y26357142D02*
X16119048Y26309524D01*
D10*
X15976190Y26404762D02*
X16071429Y26357142D01*
D10*
X13400000Y-2276190D02*
X13685714Y-1276190D01*
D10*
X13447619Y-2276190D02*
X13733334Y-1276190D01*
D10*
X14066667Y-1276190D02*
X13542857Y-1276190D01*
D10*
X14209524Y-1323809D02*
X14066667Y-1276190D01*
D10*
X14257143Y-1419047D02*
X14209524Y-1323809D01*
D10*
X14257143Y-1514285D02*
X14257143Y-1419047D01*
D10*
X14209524Y-1657142D02*
X14257143Y-1514285D01*
D10*
X14161905Y-1704761D02*
X14209524Y-1657142D01*
D10*
X14019048Y-1752381D02*
X14161905Y-1704761D01*
D10*
X13590476Y-1752381D02*
X14019048Y-1752381D01*
D10*
X14161905Y-1323809D02*
X14066667Y-1276190D01*
D10*
X14209524Y-1419047D02*
X14161905Y-1323809D01*
D10*
X14209524Y-1514285D02*
X14209524Y-1419047D01*
D10*
X14161905Y-1657142D02*
X14209524Y-1514285D01*
D10*
X14114286Y-1704761D02*
X14161905Y-1657142D01*
D10*
X14019048Y-1752381D02*
X14114286Y-1704761D01*
D10*
X13923810Y-1800000D02*
X13828572Y-1752381D01*
D10*
X13971428Y-1847619D02*
X13923810Y-1800000D01*
D10*
X14019048Y-2228571D02*
X13971428Y-1847619D01*
D10*
X14066667Y-2276190D02*
X14019048Y-2228571D01*
D10*
X14161905Y-2276190D02*
X14066667Y-2276190D01*
D10*
X14209524Y-2180952D02*
X14161905Y-2276190D01*
D10*
X14209524Y-2133333D02*
X14209524Y-2180952D01*
D10*
X14066667Y-2180952D02*
X13971428Y-1847619D01*
D10*
X14114286Y-2228571D02*
X14066667Y-2180952D01*
D10*
X14161905Y-2228571D02*
X14114286Y-2228571D01*
D10*
X14209524Y-2180952D02*
X14161905Y-2228571D01*
D10*
X13590476Y-2276190D02*
X13257143Y-2276190D01*
D10*
X14733333Y-2276190D02*
X14971429Y-1466666D01*
D10*
X14780952Y-2276190D02*
X15066667Y-1276190D01*
D10*
X14923810Y-1419047D02*
X15066667Y-1276190D01*
D10*
X14780952Y-1514285D02*
X14923810Y-1419047D01*
D10*
X14685714Y-1561904D02*
X14780952Y-1514285D01*
D10*
X14828572Y-1514285D02*
X15019048Y-1419047D01*
D10*
X14685714Y-1561904D02*
X14828572Y-1514285D01*
D10*
X15590476Y-1752381D02*
X15828571Y-1276190D01*
D10*
X16304762Y-1276190D02*
X15828571Y-1276190D01*
D10*
X16066667Y-1323809D02*
X15828571Y-1323809D01*
D10*
X16304762Y-1276190D02*
X16066667Y-1323809D01*
D10*
X15638095Y-1704761D02*
X15590476Y-1752381D01*
D10*
X15780952Y-1657142D02*
X15638095Y-1704761D01*
D10*
X15923810Y-1657142D02*
X15780952Y-1657142D01*
D10*
X16066667Y-1704761D02*
X15923810Y-1657142D01*
D10*
X16114286Y-1752381D02*
X16066667Y-1704761D01*
D10*
X16161905Y-1847619D02*
X16114286Y-1752381D01*
D10*
X16161905Y-1990476D02*
X16161905Y-1847619D01*
D10*
X16114286Y-2133333D02*
X16161905Y-1990476D01*
D10*
X16019048Y-2228571D02*
X16114286Y-2133333D01*
D10*
X15876190Y-2276190D02*
X16019048Y-2228571D01*
D10*
X15733333Y-2276190D02*
X15876190Y-2276190D01*
D10*
X15590476Y-2228571D02*
X15733333Y-2276190D01*
D10*
X15542857Y-2180952D02*
X15590476Y-2228571D01*
D10*
X15495238Y-2085714D02*
X15542857Y-2180952D01*
D10*
X15495238Y-2038095D02*
X15495238Y-2085714D01*
D10*
X15542857Y-1990476D02*
X15495238Y-2038095D01*
D10*
X15590476Y-2038095D02*
X15542857Y-1990476D01*
D10*
X15542857Y-2085714D02*
X15590476Y-2038095D01*
D10*
X16019048Y-1704761D02*
X15923810Y-1657142D01*
D10*
X16066667Y-1752381D02*
X16019048Y-1704761D01*
D10*
X16114286Y-1847619D02*
X16066667Y-1752381D01*
D10*
X16114286Y-1990476D02*
X16114286Y-1847619D01*
D10*
X16066667Y-2133333D02*
X16114286Y-1990476D01*
D10*
X15971429Y-2228571D02*
X16066667Y-2133333D01*
D10*
X15876190Y-2276190D02*
X15971429Y-2228571D01*
D10*
X-6057143Y3523809D02*
X-5771428Y4523809D01*
D10*
X-6009524Y3523809D02*
X-5723809Y4523809D01*
D10*
X-5390476Y4523809D02*
X-5914285Y4523809D01*
D10*
X-5247619Y4476190D02*
X-5390476Y4523809D01*
D10*
X-5200000Y4380952D02*
X-5247619Y4476190D01*
D10*
X-5200000Y4285714D02*
X-5200000Y4380952D01*
D10*
X-5247619Y4142857D02*
X-5200000Y4285714D01*
D10*
X-5295238Y4095238D02*
X-5247619Y4142857D01*
D10*
X-5438095Y4047619D02*
X-5295238Y4095238D01*
D10*
X-5866666Y4047619D02*
X-5438095Y4047619D01*
D10*
X-5295238Y4476190D02*
X-5390476Y4523809D01*
D10*
X-5247619Y4380952D02*
X-5295238Y4476190D01*
D10*
X-5247619Y4285714D02*
X-5247619Y4380952D01*
D10*
X-5295238Y4142857D02*
X-5247619Y4285714D01*
D10*
X-5342857Y4095238D02*
X-5295238Y4142857D01*
D10*
X-5438095Y4047619D02*
X-5342857Y4095238D01*
D10*
X-5533333Y4000000D02*
X-5628571Y4047619D01*
D10*
X-5485714Y3952381D02*
X-5533333Y4000000D01*
D10*
X-5438095Y3571428D02*
X-5485714Y3952381D01*
D10*
X-5390476Y3523809D02*
X-5438095Y3571428D01*
D10*
X-5295238Y3523809D02*
X-5390476Y3523809D01*
D10*
X-5247619Y3619047D02*
X-5295238Y3523809D01*
D10*
X-5247619Y3666666D02*
X-5247619Y3619047D01*
D10*
X-5390476Y3619047D02*
X-5485714Y3952381D01*
D10*
X-5342857Y3571428D02*
X-5390476Y3619047D01*
D10*
X-5295238Y3571428D02*
X-5342857Y3571428D01*
D10*
X-5247619Y3619047D02*
X-5295238Y3571428D01*
D10*
X-5866666Y3523809D02*
X-6200000Y3523809D01*
D10*
X-4580952Y3523809D02*
X-4295238Y4476190D01*
D10*
X-4533333Y3523809D02*
X-4247619Y4523809D01*
D10*
X-4961905Y3809523D02*
X-4247619Y4523809D01*
D10*
X-4200000Y3809523D02*
X-4961905Y3809523D01*
D10*
X-850000Y2500000D02*
X-2350000Y2500000D01*
D10*
X-1150000Y4500000D02*
X-2350000Y4500000D01*
D10*
X-10000000Y32250000D02*
X-12000000Y32250000D01*
D10*
X-8250000Y31500000D02*
X-8250000Y27500000D01*
D10*
X-13750000Y31500000D02*
X-13750000Y27500000D01*
D10*
X-12000000Y26750000D02*
X-10000000Y26750000D01*
D10*
X15050000Y4850000D02*
X15050000Y2950000D01*
D10*
X17450000Y4850000D02*
X17450000Y3650000D01*
D10*
X-2700000Y32250000D02*
X-4700000Y32250000D01*
D10*
X-950000Y31500000D02*
X-950000Y27500000D01*
D10*
X-6450000Y31500000D02*
X-6450000Y27500000D01*
D10*
X-4700000Y26750000D02*
X-2700000Y26750000D01*
D10*
X12300000Y8189998D02*
X11500000Y8189998D01*
D10*
X12300000Y10189998D02*
X11000000Y10189998D01*
D10*
X-8700000Y45380000D02*
X-8700000Y44680000D01*
D10*
X-8700000Y41980000D02*
X-8700000Y42680000D01*
D10*
X-7700000Y45380000D02*
X-7700000Y45980000D01*
D10*
X8700000Y41980000D02*
X8700000Y42680000D01*
D10*
X8700000Y44680000D02*
X8700000Y45380000D01*
D10*
X7700000Y41980000D02*
X8700000Y41980000D01*
D10*
X-7700000Y45380000D02*
X-8700000Y45380000D01*
D10*
X8700000Y45380000D02*
X7700000Y45380000D01*
D10*
X-7700000Y41980000D02*
X-8700000Y41980000D01*
D10*
X7750000Y48700000D02*
X7750000Y49300000D01*
D10*
X6250000Y48700000D02*
X6250000Y49300000D01*
D10*
X4700000Y32250000D02*
X2700000Y32250000D01*
D10*
X6450000Y31500000D02*
X6450000Y27500000D01*
D10*
X950000Y31500000D02*
X950000Y27500000D01*
D10*
X2700000Y26750000D02*
X4700000Y26750000D01*
D10*
X13950000Y47795000D02*
X13050000Y47795000D01*
D10*
X15950000Y42200000D02*
X15950000Y43000000D01*
D10*
X13050000Y47795000D02*
X13050000Y46695000D01*
D10*
X13050000Y42200000D02*
X13050000Y43300000D01*
D10*
X13950000Y42200000D02*
X13050000Y42200000D01*
D10*
X15950000Y47800000D02*
X15950000Y47000000D01*
D10*
X13050000Y43300000D02*
X12550000Y43300000D01*
D10*
X15150000Y42200000D02*
X15950000Y42200000D01*
D10*
X15150000Y47800000D02*
X15950000Y47800000D01*
D10*
X-14250000Y9700000D02*
X-14250000Y10300000D01*
D10*
X-15750000Y9700000D02*
X-15750000Y10300000D01*
D10*
X200000Y8500000D02*
X200000Y7900000D01*
D10*
X1700000Y8500000D02*
X1700000Y7900000D01*
D10*
X6000000Y48700000D02*
X6000000Y49300000D01*
D10*
X4500000Y48700000D02*
X4500000Y49300000D01*
D10*
X12000000Y32250000D02*
X10000000Y32250000D01*
D10*
X13750000Y31500000D02*
X13750000Y27500000D01*
D10*
X8250000Y31500000D02*
X8250000Y27500000D01*
D10*
X10000000Y26750000D02*
X12000000Y26750000D01*
D10*
X-10050000Y6000000D02*
X-9450000Y6000000D01*
D10*
X-10050000Y7500000D02*
X-9450000Y7500000D01*
D10*
X10450000Y5400000D02*
X10450000Y4600000D01*
D10*
X13050000Y5400000D02*
X13050000Y4600000D01*
D10*
X13050000Y5400000D02*
X12250000Y5400000D01*
D10*
X13050000Y1600000D02*
X12250000Y1600000D01*
D10*
X10450000Y1600000D02*
X10450000Y2400000D01*
D10*
X13050000Y1600000D02*
X13050000Y2400000D01*
D10*
X10450000Y5400000D02*
X11250000Y5400000D01*
D10*
X7950000Y15700000D02*
X8550000Y15700000D01*
D10*
X8550000Y23300000D02*
X7950000Y23300000D01*
D10*
X7950000Y16300000D02*
X7950000Y15700000D01*
D10*
X15550000Y22700000D02*
X15550000Y23300000D01*
D10*
X14950000Y15700000D02*
X15550000Y15700000D01*
D10*
X15550000Y15700000D02*
X15550000Y16300000D01*
D10*
X7950000Y23300000D02*
X7950000Y22700000D01*
G75*
M02*
