%FSLAX46Y46*%
%MOMM*%
%ADD12C,0.250000*%
%ADD16C,0.400000*%
%ADD10C,0.500000*%
%ADD11C,0.700000*%
%ADD13C,0.750000*%
%ADD15C,1.000000*%
%ADD14C,2.300000*%
%AMPS40*
21,1,0.500000,2.000000,0.000000,0.000000,360.000000*
%
%ADD40PS40*%
%AMPS39*
21,1,0.500000,2.000000,0.000000,0.000000,180.000000*
%
%ADD39PS39*%
%AMPS34*
21,1,0.800000,0.750000,0.000000,0.000000,360.000000*
%
%ADD34PS34*%
%AMPS18*
21,1,0.800000,0.750000,0.000000,0.000000,270.000000*
%
%ADD18PS18*%
%AMPS37*
21,1,0.800000,0.750000,0.000000,0.000000,180.000000*
%
%ADD37PS37*%
%AMPS25*
21,1,0.800000,0.750000,0.000000,0.000000,90.000000*
%
%ADD25PS25*%
%AMPS32*
21,1,0.500000,0.900000,0.000000,0.000000,360.000000*
%
%ADD32PS32*%
%AMPS43*
21,1,0.500000,0.900000,0.000000,0.000000,270.000000*
%
%ADD43PS43*%
%AMPS41*
21,1,0.500000,0.900000,0.000000,0.000000,90.000000*
%
%ADD41PS41*%
%AMPS29*
21,1,1.016000,2.030000,0.000000,0.000000,360.000000*
%
%ADD29PS29*%
%AMPS47*
21,1,1.000000,1.250000,0.000000,0.000000,180.000000*
%
%ADD47PS47*%
%AMPS19*
21,1,1.000000,1.250000,0.000000,0.000000,90.000000*
%
%ADD19PS19*%
%AMPS27*
21,1,2.180000,2.000000,0.000000,0.000000,360.000000*
%
%ADD27PS27*%
%AMPS26*
21,1,0.600000,1.150000,0.000000,0.000000,360.000000*
%
%ADD26PS26*%
%AMPS30*
21,1,3.960000,6.000000,0.000000,0.000000,270.000000*
%
%ADD30PS30*%
%AMPS35*
21,1,3.960000,6.000000,0.000000,0.000000,90.000000*
%
%ADD35PS35*%
%AMPS42*
21,1,0.900000,1.200000,0.000000,0.000000,270.000000*
%
%ADD42PS42*%
%AMPS28*
21,1,0.300000,1.150000,0.000000,0.000000,360.000000*
%
%ADD28PS28*%
%AMPS38*
21,1,0.700000,1.000000,0.000000,0.000000,360.000000*
%
%ADD38PS38*%
%AMPS33*
21,1,0.700000,1.000000,0.000000,0.000000,270.000000*
%
%ADD33PS33*%
%AMPS17*
21,1,0.700000,1.000000,0.000000,0.000000,90.000000*
%
%ADD17PS17*%
%AMPS49*
21,1,0.900000,2.500000,0.000000,0.000000,360.000000*
%
%ADD49PS49*%
%AMPS45*
21,1,0.900000,2.500000,0.000000,0.000000,180.000000*
%
%ADD45PS45*%
%AMPS44*
21,1,0.900000,2.500000,0.000000,0.000000,90.000000*
%
%ADD44PS44*%
%AMPS48*
21,1,1.400000,1.200000,0.000000,0.000000,270.000000*
%
%ADD48PS48*%
%AMPS31*
21,1,3.960000,2.340000,0.000000,0.000000,270.000000*
%
%ADD31PS31*%
%AMPS36*
21,1,3.960000,2.340000,0.000000,0.000000,90.000000*
%
%ADD36PS36*%
%AMPS50*
1,1,0.700000,0.000000,0.000000*
%
%ADD50PS50*%
%AMPS24*
21,1,2.600000,2.600000,0.000000,0.000000,180.000000*
%
%ADD24PS24*%
%AMPS21*
1,1,0.100000,-0.075000,-0.250000*
1,1,0.100000,0.075000,0.250000*
1,1,0.100000,-0.075000,0.250000*
21,1,0.250000,0.500000,0.000000,0.000000,360.000000*
21,1,0.150000,0.600000,0.000000,0.000000,360.000000*
1,1,0.100000,0.075000,-0.250000*
%
%ADD21PS21*%
%AMPS20*
1,1,0.100000,-0.250000,0.075000*
1,1,0.100000,0.250000,-0.075000*
1,1,0.100000,0.250000,0.075000*
21,1,0.250000,0.500000,0.000000,0.000000,270.000000*
21,1,0.150000,0.600000,0.000000,0.000000,270.000000*
1,1,0.100000,-0.250000,-0.075000*
%
%ADD20PS20*%
%AMPS23*
1,1,0.100000,0.075000,0.250000*
1,1,0.100000,-0.075000,-0.250000*
1,1,0.100000,0.075000,-0.250000*
21,1,0.250000,0.500000,0.000000,0.000000,180.000000*
21,1,0.150000,0.600000,0.000000,0.000000,180.000000*
1,1,0.100000,-0.075000,0.250000*
%
%ADD23PS23*%
%AMPS22*
1,1,0.100000,0.250000,-0.075000*
1,1,0.100000,-0.250000,0.075000*
1,1,0.100000,-0.250000,-0.075000*
21,1,0.250000,0.500000,0.000000,0.000000,90.000000*
21,1,0.150000,0.600000,0.000000,0.000000,90.000000*
1,1,0.100000,0.250000,0.075000*
%
%ADD22PS22*%
%AMPS46*
21,1,2.000000,2.000000,0.000000,0.000000,90.000000*
%
%ADD46PS46*%
G01*
%LPD*%
G36*
X17650000Y-1000000D02*
X17689004Y-992080D01*
X17721829Y-969575D01*
X17743277Y-936048D01*
X17750000Y-900000D01*
X17750000Y5650000D01*
X17742080Y5689004D01*
X17719575Y5721829D01*
X17686048Y5743277D01*
X17650000Y5750000D01*
X13850000Y5750000D01*
X13810996Y5742080D01*
X13778171Y5719575D01*
X13756723Y5686048D01*
X13750000Y5650000D01*
X13750000Y1565066D01*
X13757920Y1526062D01*
X13780425Y1493237D01*
X13813952Y1471789D01*
X13853188Y1465117D01*
X13874295Y1468062D01*
X13896545Y1473635D01*
X13914322Y1477170D01*
X13943467Y1481493D01*
X13961528Y1483273D01*
X13990911Y1484717D01*
X14009089Y1484717D01*
X14038472Y1483273D01*
X14056533Y1481493D01*
X14085678Y1477170D01*
X14103450Y1473636D01*
X14132021Y1466480D01*
X14149397Y1461209D01*
X14177114Y1451291D01*
X14193875Y1444348D01*
X14220485Y1431763D01*
X14236498Y1423203D01*
X14261741Y1408073D01*
X14276846Y1397981D01*
X14300483Y1380450D01*
X14314514Y1368934D01*
X14336321Y1349170D01*
X14349170Y1336321D01*
X14368934Y1314514D01*
X14380450Y1300483D01*
X14397981Y1276846D01*
X14408073Y1261741D01*
X14423203Y1236498D01*
X14431763Y1220485D01*
X14444348Y1193875D01*
X14451291Y1177114D01*
X14461209Y1149397D01*
X14466480Y1132021D01*
X14473635Y1103453D01*
X14477170Y1085677D01*
X14481494Y1056530D01*
X14483273Y1038474D01*
X14484717Y1009088D01*
X14484717Y990912D01*
X14483273Y961526D01*
X14481494Y943470D01*
X14477170Y914323D01*
X14473635Y896547D01*
X14466480Y867979D01*
X14461209Y850603D01*
X14451291Y822886D01*
X14444348Y806125D01*
X14431763Y779515D01*
X14423203Y763502D01*
X14408064Y738244D01*
X14401853Y728948D01*
X14385000Y673392D01*
X14385000Y-900000D01*
X14392920Y-939004D01*
X14415425Y-971829D01*
X14448952Y-993277D01*
X14485000Y-1000000D01*
X17650000Y-1000000D01*
D02*
G37*
%LPD*%
G36*
X14900000Y3000000D02*
X14939004Y3007920D01*
X14971829Y3030425D01*
X14993277Y3063952D01*
X15000000Y3100000D01*
X15000000Y3739949D01*
X15001757Y3748603D01*
X15009246Y3750000D01*
X17489949Y3750000D01*
X17498603Y3748243D01*
X17500000Y3740754D01*
X17500000Y3100000D01*
X17507920Y3060996D01*
X17530425Y3028171D01*
X17563952Y3006723D01*
X17600000Y3000000D01*
X17650000Y3000000D01*
X17689004Y3007920D01*
X17721829Y3030425D01*
X17743277Y3063952D01*
X17750000Y3100000D01*
X17750000Y5400000D01*
X17742080Y5439004D01*
X17719575Y5471829D01*
X17686048Y5493277D01*
X17650000Y5500000D01*
X17600000Y5500000D01*
X17560996Y5492080D01*
X17528171Y5469575D01*
X17506723Y5436048D01*
X17500000Y5400000D01*
X17500000Y4760051D01*
X17498243Y4751397D01*
X17490754Y4750000D01*
X15010051Y4750000D01*
X15001397Y4751757D01*
X15000000Y4759246D01*
X15000000Y5400000D01*
X14992080Y5439004D01*
X14969575Y5471829D01*
X14936048Y5493277D01*
X14900000Y5500000D01*
X13850000Y5500000D01*
X13810996Y5492080D01*
X13778171Y5469575D01*
X13756723Y5436048D01*
X13750000Y5400000D01*
X13750000Y3100000D01*
X13757920Y3060996D01*
X13780425Y3028171D01*
X13813952Y3006723D01*
X13850000Y3000000D01*
X14900000Y3000000D01*
D02*
G37*
G01*
%LPD*%
D10*
X-17699985Y19050015D02*
X-15750000Y21000000D01*
D11*
X831353Y2467709D02*
X1681353Y2467709D01*
D10*
X-10920000Y20000000D02*
X-10920000Y21330000D01*
D12*
X-10718650Y9750000D02*
X-9500000Y9750000D01*
D10*
X-4000000Y21750000D02*
X-5750000Y21750000D01*
D12*
X-1250000Y26000000D02*
X-5181875Y26000000D01*
D12*
X14250000Y12994974D02*
X14250000Y12500000D01*
D12*
X1608125Y33500000D02*
X-1000000Y33500000D01*
D12*
X14500000Y15500000D02*
X14000000Y16000000D01*
D12*
X-4250000Y5255026D02*
X-3744974Y4750000D01*
D12*
X3500000Y16250000D02*
X3500000Y14500000D01*
D12*
X2750000Y26250000D02*
X-750000Y26250000D01*
D12*
X-5720000Y26538125D02*
X-5720000Y28200000D01*
D12*
X4500000Y33000000D02*
X3932499Y33000000D01*
D10*
X-14250000Y25000000D02*
X-13179290Y26070710D01*
D10*
X-12792600Y21000000D02*
X-11042600Y22750000D01*
D10*
X-7600000Y4400000D02*
X-7500000Y4500000D01*
D12*
X-3750000Y30000000D02*
X-4120000Y29630000D01*
D13*
X10075000Y42205000D02*
X13545000Y42205000D01*
D11*
X680534Y8250000D02*
X680534Y8430534D01*
D12*
X6500000Y15000000D02*
X3750000Y17750000D01*
D12*
X-4500000Y13250000D02*
X-4000000Y12750000D01*
D12*
X-9750000Y2750000D02*
X-9750000Y3505000D01*
D10*
X15500000Y8250000D02*
X16500000Y8250000D01*
D12*
X3932499Y33000000D02*
X2500000Y34432499D01*
D10*
X-2250000Y3500000D02*
X-2250000Y4500000D01*
D12*
X-5500000Y6250000D02*
X-5000000Y5750000D01*
D12*
X-2000000Y15000000D02*
X-2250000Y15000000D01*
D12*
X4500000Y29500000D02*
X3000000Y29500000D01*
D12*
X15000000Y31250000D02*
X15500000Y31750000D01*
D12*
X13755026Y11500000D02*
X14250000Y11500000D01*
D12*
X-4450000Y14750000D02*
X-3750000Y15450000D01*
D11*
X2080534Y8419466D02*
X2080534Y10800000D01*
D10*
X15750000Y10500000D02*
X15000000Y9750000D01*
D12*
X-9150000Y12750000D02*
X-9741494Y12750000D01*
D10*
X-7500000Y22750000D02*
X-8000000Y23250000D01*
D11*
X680534Y8250000D02*
X-1019514Y8250000D01*
D11*
X4724982Y6299944D02*
X4724982Y6425396D01*
D10*
X-7250000Y22750000D02*
X-8250000Y22750000D01*
D11*
X3080534Y7300000D02*
X3850378Y7300000D01*
D10*
X-5505026Y21750000D02*
X-5500000Y21755026D01*
D12*
X4081353Y2467709D02*
X4081353Y2918647D01*
D12*
X12750000Y26000000D02*
X13250000Y26500000D01*
D12*
X15500000Y20250000D02*
X15750000Y20000000D01*
D10*
X8500000Y500000D02*
X9940000Y500000D01*
D14*
X10075000Y55055000D02*
X10075000Y42205000D01*
D12*
X-12750000Y12000000D02*
X-12750000Y11000000D01*
D11*
X3930534Y13200000D02*
X3930534Y11980586D01*
D10*
X-12400000Y4400000D02*
X-12500000Y4500000D01*
D11*
X500000Y4000000D02*
X1748610Y4000000D01*
D12*
X10250000Y25750000D02*
X10250000Y33750000D01*
D12*
X7500000Y29000000D02*
X7250000Y29250000D01*
D12*
X6250000Y10000000D02*
X6000000Y10250000D01*
D12*
X-11676340Y9755010D02*
X-10723660Y9755010D01*
D12*
X-5320000Y18073640D02*
X-5320000Y20000000D01*
D12*
X-8920000Y30670000D02*
X-8920000Y28200000D01*
D12*
X-9216249Y5250000D02*
X-8216249Y6250000D01*
D12*
X-11750000Y13500000D02*
X-12000000Y13250000D01*
D12*
X-9720000Y28200000D02*
X-9720000Y30478124D01*
D12*
X-8000000Y7500000D02*
X-9900000Y7500000D01*
D10*
X-14703004Y11780856D02*
X-14753004Y11730856D01*
D12*
X-250000Y25000000D02*
X1750000Y25000000D01*
D12*
X-9150000Y14750000D02*
X-10500000Y14750000D01*
D12*
X-1544990Y16955010D02*
X-2250000Y16250000D01*
D10*
X-8520000Y20000000D02*
X-8520000Y18770000D01*
D10*
X-8750000Y21750000D02*
X-8520000Y21520000D01*
D12*
X1250000Y24500000D02*
X-419376Y24500000D01*
D12*
X16000000Y28250000D02*
X16500000Y27750000D01*
D12*
X2500000Y6350000D02*
X3080534Y6350000D01*
D12*
X-13200000Y14550000D02*
X-13000000Y14750000D01*
D12*
X-1150000Y15500000D02*
X-1500000Y15500000D01*
D10*
X-4890000Y-1000000D02*
X-4890000Y360000D01*
D12*
X-1000000Y33500000D02*
X-1750000Y32750000D01*
D12*
X-9150000Y15250000D02*
X-9741494Y15241494D01*
D12*
X16250000Y21494974D02*
X16250000Y21000000D01*
D12*
X-16200000Y16450000D02*
X-15550000Y16450000D01*
D10*
X-17264106Y12314121D02*
X-17699985Y12750000D01*
D10*
X-17453006Y10030856D02*
X-16714106Y10030856D01*
D10*
X-6920000Y22420000D02*
X-6920000Y20000000D01*
D12*
X-12250000Y16250000D02*
X-12800000Y16250000D01*
D12*
X-7000000Y12100000D02*
X-7000000Y11716494D01*
D13*
X13545000Y42205000D02*
X17500000Y38250000D01*
D15*
X10075000Y13215000D02*
X10075000Y365000D01*
D12*
X3750000Y21750000D02*
X5500000Y23500000D01*
D12*
X-7500000Y15900000D02*
X-7500000Y16250000D01*
D11*
X-819466Y8549936D02*
X-1069458Y8299944D01*
D12*
X8000000Y23000000D02*
X7000000Y24000000D01*
D12*
X-7000000Y16250000D02*
X-7250000Y16500000D01*
D15*
X-2070000Y35000000D02*
X-1620015Y35449985D01*
D12*
X9750000Y25250000D02*
X10250000Y25750000D01*
D11*
X1681353Y1517709D02*
X2381353Y1517709D01*
D12*
X-9250000Y3505000D02*
X-9250000Y4500000D01*
D12*
X3750000Y17750000D02*
X3750000Y18750000D01*
D12*
X14000000Y13244974D02*
X14250000Y12994974D01*
D12*
X-11250000Y8900000D02*
X-11200000Y8950000D01*
D10*
X-8520000Y21520000D02*
X-8520000Y20000000D01*
D12*
X-7250000Y7750000D02*
X-7750000Y7750000D01*
D12*
X8500000Y21750000D02*
X8500000Y23108125D01*
D12*
X3000000Y35500000D02*
X3000000Y42750000D01*
D12*
X10750000Y33500000D02*
X10750000Y27744974D01*
D12*
X-9849619Y13250000D02*
X-9150000Y13250000D01*
D10*
X-2820000Y2930000D02*
X-2250000Y3500000D01*
D12*
X9750000Y26244974D02*
X9750000Y32750000D01*
D12*
X16000000Y27000000D02*
X16000000Y22250000D01*
D12*
X4250000Y27250000D02*
X3750000Y27250000D01*
D10*
X-4890000Y2930000D02*
X-2820000Y2930000D01*
D10*
X-17264106Y10764106D02*
X-17453006Y10575206D01*
D12*
X-10120000Y20000000D02*
X-10120000Y18620000D01*
D11*
X-1019514Y8250000D02*
X-1069458Y8299944D01*
D12*
X-4920000Y26920000D02*
X-4920000Y28200000D01*
D12*
X-4000000Y14250000D02*
X-3750000Y14500000D01*
D12*
X4750000Y19000000D02*
X8000000Y15750000D01*
D12*
X-4000000Y12000000D02*
X-4750000Y12750000D01*
D10*
X-4890000Y2930000D02*
X-4890000Y640000D01*
D12*
X-4750000Y15250000D02*
X-4500000Y15500000D01*
D10*
X15000000Y9750000D02*
X15000000Y8750000D01*
D10*
X0Y-1000000D02*
X653728Y-1000000D01*
D10*
X-10500000Y21750000D02*
X-8750000Y21750000D01*
D10*
X-13503006Y10980854D02*
X-13453004Y11030856D01*
D12*
X-7500000Y11716494D02*
X-7500000Y12100000D01*
D12*
X-3744974Y4750000D02*
X-3250000Y4750000D01*
D12*
X-6250000Y5750000D02*
X-5500000Y5000000D01*
D12*
X6000000Y14719402D02*
X3569401Y17150001D01*
D12*
X-4750000Y16000000D02*
X-4500000Y15750000D01*
D12*
X3750000Y25750000D02*
X5000000Y27000000D01*
D10*
X4081353Y-1432291D02*
X4131353Y-1482291D01*
D12*
X14000000Y24500000D02*
X13500000Y24000000D01*
D12*
X-10250000Y3505000D02*
X-10250000Y4500000D01*
D10*
X-15750000Y21000000D02*
X-12792600Y21000000D01*
D12*
X10750000Y25250000D02*
X11750000Y26250000D01*
D10*
X-3720000Y21470000D02*
X-4000000Y21750000D01*
D13*
X2000000Y58750000D02*
X3250000Y58750000D01*
D12*
X11000000Y33750000D02*
X10750000Y33500000D01*
D12*
X-5350000Y13750000D02*
X-7000000Y13750000D01*
D12*
X-9250000Y4500000D02*
X-9500000Y4750000D01*
D11*
X4724982Y6425396D02*
X3850378Y7300000D01*
D12*
X12250000Y28000000D02*
X13250000Y28000000D01*
D12*
X9000000Y23250000D02*
X8000000Y24250000D01*
D12*
X5500000Y29500000D02*
X5500000Y26750000D01*
D12*
X6250000Y21250000D02*
X8000000Y21250000D01*
D12*
X4500000Y31500000D02*
X5000000Y31500000D01*
D16*
X-12200000Y6550000D02*
X-11200000Y6550000D01*
D12*
X-12500000Y8931350D02*
X-11676340Y9755010D01*
D12*
X-9320000Y18473640D02*
X-8000000Y17028620D01*
D10*
X-1436356Y-1000000D02*
X-1618647Y-1182291D01*
D12*
X6000000Y21500000D02*
X6250000Y21250000D01*
D12*
X16250000Y14000000D02*
X14750000Y14000000D01*
D12*
X3750000Y24250000D02*
X3750000Y25750000D01*
D11*
X2250000Y8250000D02*
X2080534Y8419466D01*
D12*
X-13000000Y16450000D02*
X-13800000Y16450000D01*
D12*
X16250000Y16469402D02*
X15000000Y17719402D01*
D12*
X-9250000Y4500000D02*
X-9250000Y4608124D01*
D12*
X3000000Y29500000D02*
X2250000Y30250000D01*
D10*
X9210000Y1500000D02*
X10075000Y365000D01*
D12*
X3500000Y14500000D02*
X2750000Y13750000D01*
D12*
X-10750000Y4750000D02*
X-10250000Y5250000D01*
D10*
X5250000Y9734936D02*
X6500000Y8484936D01*
D12*
X-7500000Y16250000D02*
X-7250000Y16500000D01*
D10*
X-10520000Y26480000D02*
X-10520000Y28200000D01*
D10*
X-14753004Y11730856D02*
X-15764106Y11730856D01*
D11*
X2749948Y10800000D02*
X2080534Y10800000D01*
D10*
X-12400000Y3505000D02*
X-12400000Y4400000D01*
D12*
X-16200000Y13700000D02*
X-15250000Y12750000D01*
D13*
X-16250000Y7000000D02*
X-16250000Y6700000D01*
D13*
X-16250000Y6700000D02*
X-16950000Y6000000D01*
D12*
X-3500000Y13750000D02*
X-3750000Y13750000D01*
D12*
X1200000Y16460020D02*
X705010Y16955010D01*
D12*
X16250000Y18000000D02*
X16680010Y17569990D01*
D12*
X-8850000Y6550000D02*
X-9300000Y6550000D01*
D11*
X2881353Y-47375D02*
X2671414Y-257314D01*
D12*
X6000000Y10250000D02*
X6000000Y14719402D01*
D12*
X-5181875Y26000000D02*
X-5720000Y26538125D01*
D12*
X6500000Y10719402D02*
X6500000Y15000000D01*
D12*
X8250000Y27250000D02*
X8250000Y31750000D01*
D11*
X2381353Y1517709D02*
X2881353Y2017709D01*
D10*
X9940000Y500000D02*
X10075000Y365000D01*
D12*
X2500000Y22000000D02*
X750000Y23750000D01*
D12*
X2000000Y47750000D02*
X1750000Y48000000D01*
D12*
X-2050000Y13550000D02*
X-2250000Y13750000D01*
D12*
X-1750000Y32750000D02*
X-6840000Y32750000D01*
D10*
X-17453006Y10575206D02*
X-17453006Y10030856D01*
D11*
X-1618647Y1717709D02*
X81353Y1717709D01*
D10*
X-15000000Y15000000D02*
X-15000000Y13750000D01*
D10*
X-11042600Y22750000D02*
X-8250000Y22750000D01*
D12*
X8000000Y25500000D02*
X9250000Y26750000D01*
D12*
X-7000000Y13750000D02*
X-7250000Y14000000D01*
D12*
X14750000Y14000000D02*
X14500000Y14250000D01*
D12*
X-12250000Y14000000D02*
X-12250000Y14750000D01*
D12*
X7449360Y9770042D02*
X6500000Y10719402D01*
D12*
X1681353Y567709D02*
X681353Y567709D01*
D12*
X-3250000Y11250000D02*
X-3725000Y11250000D01*
D10*
X-15250000Y7250000D02*
X-14703004Y7796996D01*
D15*
X-1620015Y35449985D02*
X-300015Y35449985D01*
D10*
X-5500000Y21755026D02*
X-5500000Y22250000D01*
D12*
X-10500000Y11000000D02*
X-11000000Y11000000D01*
D12*
X4724982Y8299944D02*
X4724982Y9105552D01*
D10*
X15750000Y13250000D02*
X15750000Y10500000D01*
D12*
X-2000000Y22250000D02*
X-2858124Y22250000D01*
D12*
X15000000Y24250000D02*
X15000000Y31250000D01*
D12*
X-6750000Y5250000D02*
X-6500000Y5000000D01*
D12*
X14500000Y14250000D02*
X14500000Y15500000D01*
D10*
X-4890000Y640000D02*
X-4750000Y500000D01*
D12*
X750000Y5250000D02*
X1750000Y5250000D01*
D12*
X-4500000Y26500000D02*
X-4920000Y26920000D01*
D12*
X4081353Y2918647D02*
X3750000Y3250000D01*
D11*
X4724974Y6299936D02*
X4724982Y6299944D01*
D12*
X1500000Y34750000D02*
X1000000Y34750000D01*
D11*
X2671414Y-257314D02*
X2671414Y-982314D01*
D12*
X-1750000Y29750000D02*
X-2000000Y30000000D01*
D12*
X-7320000Y26711876D02*
X-7320000Y28200000D01*
D11*
X-69402Y7300000D02*
X-1069458Y6299944D01*
D10*
X-17264106Y11730856D02*
X-17264106Y12314121D01*
D12*
X8250000Y31750000D02*
X5250000Y34750000D01*
D12*
X15500000Y21750000D02*
X15500000Y20250000D01*
D12*
X-13200000Y3505000D02*
X-13200000Y4769402D01*
D12*
X-9300000Y9550000D02*
X-9300000Y8950000D01*
D12*
X-3500000Y9000000D02*
X-2750000Y9750000D01*
D12*
X14000000Y15309475D02*
X14000000Y13244974D01*
D12*
X14500000Y32000000D02*
X15250000Y32750000D01*
D10*
X6500000Y8484936D02*
X6500000Y5500000D01*
D12*
X-9150000Y14250000D02*
X-11250000Y14250000D01*
D12*
X14500000Y24391876D02*
X14500000Y32000000D01*
D12*
X6280598Y22750000D02*
X4750000Y21219402D01*
D12*
X-4000000Y11525000D02*
X-4000000Y12000000D01*
D10*
X5250000Y4250000D02*
X5250000Y1736356D01*
D12*
X13500000Y24000000D02*
X13500000Y15809475D01*
D12*
X-7500000Y15900000D02*
X-7500000Y15000000D01*
D10*
X-3120000Y28000000D02*
X-3320000Y28200000D01*
D12*
X11000000Y27494974D02*
X11000000Y27000000D01*
D10*
X-7720000Y22220000D02*
X-7720000Y20000000D01*
D12*
X-10750000Y3505000D02*
X-10750000Y4750000D01*
D12*
X5250000Y37250000D02*
X4000000Y38500000D01*
D12*
X-4450000Y14750000D02*
X-5350000Y14750000D01*
D12*
X14000000Y16000000D02*
X14000000Y23891876D01*
D11*
X81353Y1717709D02*
X831353Y2467709D01*
D12*
X7500000Y28000000D02*
X7500000Y29000000D01*
D12*
X15517217Y33767217D02*
X14000000Y32250000D01*
D12*
X-13503006Y8330856D02*
X-13503006Y8996994D01*
D12*
X2000000Y37500000D02*
X2000000Y47750000D01*
D12*
X8000000Y24250000D02*
X8000000Y25500000D01*
D12*
X-7000000Y15000000D02*
X-7250000Y14750000D01*
D12*
X-700000Y13550000D02*
X1200000Y13550000D01*
D12*
X-12750000Y11000000D02*
X-12000000Y10250000D01*
D12*
X-6500000Y15900000D02*
X-6500000Y16893640D01*
D12*
X7449360Y4669360D02*
X7449360Y9770042D01*
D12*
X-5750000Y7000000D02*
X-6000000Y6750000D01*
D12*
X1750000Y25000000D02*
X3250000Y23500000D01*
D12*
X750000Y23750000D02*
X-500000Y23750000D01*
D12*
X-12000000Y13250000D02*
X-12500000Y13250000D01*
D12*
X5000000Y30000000D02*
X5500000Y29500000D01*
D12*
X680534Y6350000D02*
X1250000Y6350000D01*
D12*
X5000000Y29000000D02*
X4500000Y29500000D01*
D10*
X3500000Y14500000D02*
X4788662Y14500000D01*
D12*
X-10250000Y5950000D02*
X-10250000Y6550000D01*
D15*
X-8570000Y35000000D02*
X-3170000Y35000000D01*
D12*
X-2000000Y30000000D02*
X-3750000Y30000000D01*
D13*
X17500000Y10750000D02*
X16000000Y9250000D01*
D12*
X-7750000Y7750000D02*
X-8000000Y7500000D01*
D10*
X-14500000Y15500000D02*
X-15000000Y15000000D01*
D11*
X500000Y4000000D02*
X0Y4500000D01*
D12*
X-5465000Y3505000D02*
X-4890000Y2930000D01*
D12*
X-10250000Y5250000D02*
X-9216249Y5250000D01*
D12*
X3250000Y22500000D02*
X1250000Y24500000D01*
D10*
X15000000Y8750000D02*
X15500000Y8250000D01*
D12*
X7500000Y25750000D02*
X8750000Y27000000D01*
D12*
X5000000Y31500000D02*
X7250000Y29250000D01*
D12*
X10750000Y27744974D02*
X11000000Y27494974D01*
D12*
X15750000Y20000000D02*
X16419985Y20000000D01*
D12*
X-5350000Y14250000D02*
X-4750000Y14250000D01*
D12*
X12250000Y28000000D02*
X12250000Y26750000D01*
D12*
X-11250000Y8000000D02*
X-11250000Y8900000D01*
D12*
X-10500000Y14750000D02*
X-10750000Y15000000D01*
D12*
X-1119402Y6250000D02*
X-1069458Y6299944D01*
D12*
X8000000Y21250000D02*
X8500000Y21750000D01*
D12*
X2250000Y30250000D02*
X2250000Y32858125D01*
D11*
X0Y4500000D02*
X-1069458Y5569458D01*
D12*
X-2599990Y21349990D02*
X-8120000Y26870000D01*
D12*
X2099999Y17150001D02*
X1750000Y17500000D01*
D12*
X10075000Y52555000D02*
X10075000Y55055000D01*
D12*
X14500000Y23750000D02*
X15000000Y24250000D01*
D12*
X-700000Y15950000D02*
X-1150000Y15500000D01*
D12*
X15250000Y15750000D02*
X14500000Y16500000D01*
D12*
X-3750000Y9572022D02*
X-3750000Y10000000D01*
D10*
X-7250000Y22750000D02*
X-6920000Y22420000D01*
D12*
X-10000000Y12491494D02*
X-10000000Y11500000D01*
D10*
X-14703004Y9250000D02*
X-14733860Y9280856D01*
D12*
X-419376Y24500000D02*
X-1469386Y25550010D01*
D11*
X3080534Y8250000D02*
X2250000Y8250000D01*
D12*
X5750000Y40500000D02*
X5250000Y41000000D01*
D12*
X4500000Y24750000D02*
X4500000Y25750000D01*
D12*
X-9900000Y7500000D02*
X-10250000Y7150000D01*
D12*
X5000000Y27000000D02*
X5000000Y29000000D01*
D12*
X11000000Y35500000D02*
X11000000Y33750000D01*
D12*
X1655036Y21349990D02*
X-2599990Y21349990D01*
D12*
X-4750000Y12750000D02*
X-5350000Y12750000D01*
D12*
X-1500000Y15500000D02*
X-2000000Y15000000D01*
D10*
X-16703006Y8530856D02*
X-17453006Y8530856D01*
D12*
X7000000Y24000000D02*
X7000000Y26000000D01*
D12*
X-14535000Y3505000D02*
X-15110000Y2930000D01*
D10*
X-6120000Y18714194D02*
X-6058300Y18652494D01*
D12*
X12750000Y26000000D02*
X11250000Y24500000D01*
D10*
X-5750000Y21750000D02*
X-5505026Y21750000D01*
D12*
X-10750000Y2750000D02*
X-10500000Y2500000D01*
D11*
X3080534Y7300000D02*
X1250000Y7300000D01*
D12*
X7000000Y26000000D02*
X8250000Y27250000D01*
D12*
X16500000Y27750000D02*
X16500000Y21744974D01*
D12*
X-6520000Y26520000D02*
X-6520000Y28200000D01*
D10*
X-10920000Y20000000D02*
X-12000000Y20000000D01*
D12*
X-5550010Y25550010D02*
X-6520000Y26520000D01*
D11*
X2881353Y2017709D02*
X2881353Y500000D01*
D12*
X1000000Y34750000D02*
X0Y35750000D01*
D12*
X8000000Y15750000D02*
X12951350Y15750000D01*
D12*
X-13800000Y14550000D02*
X-13200000Y14550000D01*
D12*
X-4460000Y2500000D02*
X-4890000Y2930000D01*
D10*
X4081353Y567709D02*
X4081353Y-1432291D01*
D10*
X-10920000Y21330000D02*
X-10500000Y21750000D01*
D12*
X-7000000Y15900000D02*
X-7000000Y15000000D01*
D12*
X12951350Y15750000D02*
X13500000Y15201350D01*
D15*
X-3170000Y35000000D02*
X-2070000Y35000000D01*
D12*
X-3525000Y2500000D02*
X-4460000Y2500000D01*
D12*
X-13200000Y4769402D02*
X-12314401Y5655001D01*
D12*
X-9741494Y15241494D02*
X-10000000Y15500000D01*
D10*
X-10920000Y18491004D02*
X-10500000Y18071004D01*
D10*
X-6120000Y20000000D02*
X-6120000Y18714194D01*
D11*
X2881353Y2867257D02*
X1748610Y4000000D01*
D12*
X16680010Y17569990D02*
X16680010Y14430010D01*
D12*
X-6500000Y16893640D02*
X-5320000Y18073640D01*
D10*
X-3720000Y20000000D02*
X-3720000Y18970000D01*
D12*
X16250000Y15500000D02*
X16250000Y16469402D01*
D12*
X8750000Y27000000D02*
X8750000Y32000000D01*
D10*
X653728Y-1000000D02*
X671414Y-982314D01*
D12*
X16680010Y14430010D02*
X16250000Y14000000D01*
D12*
X15750000Y15000000D02*
X16250000Y15500000D01*
D12*
X-12800000Y16250000D02*
X-13000000Y16450000D01*
D10*
X5250000Y14038662D02*
X5250000Y9734936D01*
D10*
X-15903006Y8330856D02*
X-16503006Y8330856D01*
D12*
X6750000Y22000000D02*
X7750000Y22000000D01*
D12*
X-500000Y23750000D02*
X-2000000Y22250000D01*
D10*
X0Y-1000000D02*
X-1436356Y-1000000D01*
D12*
X-7250000Y11466494D02*
X-7500000Y11716494D01*
D10*
X14000000Y-1500000D02*
X14000000Y1000000D01*
D10*
X-13503006Y10230856D02*
X-13503006Y10980854D01*
D10*
X-15000000Y13750000D02*
X-14500000Y13250000D01*
D12*
X-5250000Y7750000D02*
X-5000000Y8000000D01*
D12*
X-5350000Y13250000D02*
X-4500000Y13250000D01*
D10*
X-14733860Y9280856D02*
X-15903006Y9280856D01*
D12*
X9000000Y21500000D02*
X9000000Y23250000D01*
D12*
X-10723660Y9755010D02*
X-10718650Y9750000D01*
D16*
X-12750000Y6000000D02*
X-12200000Y6550000D01*
D12*
X-7250000Y10250000D02*
X-4750000Y10250000D01*
D12*
X-8120000Y26870000D02*
X-8120000Y28200000D01*
D12*
X-12314401Y5655001D02*
X-10544999Y5655001D01*
D12*
X2944990Y28694990D02*
X-1444990Y28694990D01*
D12*
X-8216249Y6250000D02*
X-5500000Y6250000D01*
D12*
X2000000Y35500000D02*
X2500000Y35000000D01*
D12*
X8500000Y23108125D02*
X7500000Y24108125D01*
D12*
X-1469386Y25550010D02*
X-5550010Y25550010D01*
D16*
X-14050000Y6000000D02*
X-12750000Y6000000D01*
D12*
X-12000000Y10250000D02*
X-9000000Y10250000D01*
D12*
X-3500000Y9000000D02*
X-3500000Y5750000D01*
D12*
X-8750000Y3505000D02*
X-8750000Y4500000D01*
D12*
X3569401Y17150001D02*
X2099999Y17150001D01*
D10*
X-10929290Y26070710D02*
X-10520000Y26480000D01*
D12*
X16500000Y21744974D02*
X16250000Y21494974D01*
D12*
X-4500000Y15500000D02*
X-4500000Y15750000D01*
D10*
X-15110000Y4030000D02*
X-15250000Y4170000D01*
D13*
X5250000Y55450000D02*
X3800000Y55450000D01*
D10*
X-4890000Y360000D02*
X-4750000Y500000D01*
D12*
X-4750000Y10250000D02*
X-4500000Y10500000D01*
D12*
X14500000Y16500000D02*
X14500000Y23750000D01*
D12*
X13500000Y15201350D02*
X13500000Y11755026D01*
D10*
X17250000Y7500000D02*
X17250000Y5250000D01*
D12*
X15750000Y27250000D02*
X16000000Y27000000D01*
D12*
X-6000000Y16785516D02*
X-4520000Y18265516D01*
D12*
X-6000000Y15900000D02*
X-6000000Y16785516D01*
D12*
X4750000Y21219402D02*
X4750000Y19000000D01*
D15*
X-300015Y35449985D02*
X0Y35750000D01*
D10*
X-15110000Y2930000D02*
X-15110000Y-1000000D01*
D10*
X-14000000Y13250000D02*
X-14000000Y12483860D01*
D12*
X-2858124Y22250000D02*
X-7320000Y26711876D01*
D12*
X-7000000Y11716494D02*
X-7250000Y11466494D01*
D10*
X-15110000Y2930000D02*
X-16680000Y2930000D01*
D12*
X12250000Y26750000D02*
X11750000Y26250000D01*
D12*
X-5750000Y7750000D02*
X-5750000Y7000000D01*
D12*
X5500000Y19750000D02*
X6500000Y20750000D01*
D12*
X-11750000Y4750000D02*
X-11750000Y3505000D01*
D10*
X-2250000Y4500000D02*
X0Y4500000D01*
D10*
X-6120000Y20000000D02*
X-6120000Y21380000D01*
D12*
X-6840000Y32750000D02*
X-8920000Y30670000D01*
D10*
X5250000Y1736356D02*
X4081353Y567709D01*
D12*
X-4120000Y29630000D02*
X-4120000Y28200000D01*
D11*
X1250000Y7300000D02*
X-69402Y7300000D01*
D12*
X1716250Y34000000D02*
X2750000Y32966249D01*
D10*
X4788662Y14500000D02*
X5250000Y14038662D01*
D11*
X2881353Y2017709D02*
X2881353Y2867257D01*
D10*
X-14000000Y12483860D02*
X-14453004Y12030856D01*
D10*
X-2500000Y28000000D02*
X-3120000Y28000000D01*
D10*
X-6120000Y21380000D02*
X-5750000Y21750000D01*
D12*
X681353Y567709D02*
X631353Y517709D01*
D15*
X-14250000Y35000000D02*
X-8570000Y35000000D01*
D10*
X-3720000Y20000000D02*
X-3720000Y21470000D01*
D10*
X-3720000Y20000000D02*
X0Y20000000D01*
D12*
X-10250000Y7150000D02*
X-10250000Y6550000D01*
D12*
X6250000Y36250000D02*
X6250000Y42000000D01*
D12*
X15250000Y32750000D02*
X16500000Y32750000D01*
D13*
X17500000Y38250000D02*
X17500000Y10750000D01*
D12*
X-750000Y26250000D02*
X-1000000Y26500000D01*
D12*
X-6948124Y33250000D02*
X-2000000Y33250000D01*
D12*
X-10250000Y4500000D02*
X-10000000Y4750000D01*
D12*
X7750000Y22000000D02*
X8000000Y22250000D01*
D12*
X-10599619Y12500000D02*
X-9849619Y13250000D01*
D12*
X8750000Y32000000D02*
X5750000Y35000000D01*
D12*
X-1000000Y26500000D02*
X-4500000Y26500000D01*
D12*
X-9250000Y4608124D02*
X-8108125Y5750000D01*
D12*
X-10544999Y5655001D02*
X-10250000Y5950000D01*
D12*
X9250000Y26750000D02*
X9250000Y32250000D01*
D10*
X-14500000Y15500000D02*
X-13800000Y15500000D01*
D10*
X-14703004Y9250000D02*
X-14703004Y11780856D01*
D12*
X-8000000Y5250000D02*
X-6750000Y5250000D01*
D12*
X-11750000Y13500000D02*
X-10750000Y13500000D01*
D12*
X-250000Y25000000D02*
X-1250000Y26000000D01*
D12*
X-5350000Y15250000D02*
X-4750000Y15250000D01*
D12*
X9250000Y32250000D02*
X6250000Y35250000D01*
D10*
X-14703004Y7796996D02*
X-14703004Y9250000D01*
D12*
X-1444990Y28694990D02*
X-1750000Y29000000D01*
D12*
X-5750000Y7750000D02*
X-5250000Y7750000D01*
D12*
X-9741494Y12750000D02*
X-10000000Y12491494D01*
D12*
X6030000Y3250000D02*
X7449360Y4669360D01*
D12*
X-6500000Y5000000D02*
X-6500000Y4750000D01*
D12*
X-12500000Y13250000D02*
X-12500000Y13750000D01*
D12*
X13500000Y11755026D02*
X13755026Y11500000D01*
D12*
X-4250000Y9072022D02*
X-3750000Y9572022D01*
D12*
X4724982Y9105552D02*
X3930534Y9900000D01*
D10*
X6500000Y5500000D02*
X5250000Y4250000D01*
D12*
X-9720000Y30478124D02*
X-6948124Y33250000D01*
D15*
X0Y35750000D02*
X0Y40000000D01*
D10*
X16500000Y8250000D02*
X17250000Y7500000D01*
D11*
X-819466Y10800000D02*
X-819466Y8549936D01*
D12*
X3000000Y42750000D02*
X4250000Y44000000D01*
D12*
X-10500000Y13750000D02*
X-10750000Y13500000D01*
D12*
X2750000Y32966249D02*
X2750000Y30500000D01*
D12*
X-4000000Y12750000D02*
X-3250000Y12750000D01*
D12*
X1655036Y21349990D02*
X2005026Y21000000D01*
D12*
X-11750000Y4750000D02*
X-11500000Y5000000D01*
D12*
X-8750000Y4500000D02*
X-8000000Y5250000D01*
D12*
X10250000Y33750000D02*
X7750000Y36250000D01*
D12*
X1750000Y5250000D02*
X3750000Y3250000D01*
D10*
X-16714106Y10030856D02*
X-16514106Y10230856D01*
D12*
X6250000Y35250000D02*
X6250000Y36250000D01*
D12*
X-1750000Y29000000D02*
X-1750000Y29750000D01*
D12*
X2250000Y32858125D02*
X1608125Y33500000D01*
D12*
X-13000000Y14750000D02*
X-12250000Y14750000D01*
D10*
X-3720000Y18970000D02*
X-3500000Y18750000D01*
D12*
X-5250000Y16000000D02*
X-4750000Y16000000D01*
D12*
X15000000Y17719402D02*
X15000000Y21891876D01*
D10*
X-15110000Y2930000D02*
X-15110000Y4030000D01*
D12*
X-8650000Y6750000D02*
X-8850000Y6550000D01*
D10*
X8500000Y1500000D02*
X9210000Y1500000D01*
D12*
X3750000Y20250000D02*
X3750000Y21750000D01*
D12*
X-10500000Y2500000D02*
X-10000000Y2500000D01*
D10*
X-16680000Y2930000D02*
X-16750000Y3000000D01*
D11*
X680534Y8430534D02*
X1000000Y8750000D01*
D12*
X-10750000Y3505000D02*
X-10750000Y2750000D01*
D10*
X-8250000Y22750000D02*
X-7720000Y22220000D01*
D10*
X-6800000Y3505000D02*
X-5465000Y3505000D01*
D12*
X8000000Y22250000D02*
X8000000Y23000000D01*
D12*
X-13503006Y8996994D02*
X-13500000Y9000000D01*
D12*
X15500000Y31750000D02*
X16250000Y31750000D01*
D12*
X-2250000Y15000000D02*
X-3500000Y13750000D01*
D12*
X15000000Y21891876D02*
X15250000Y22141876D01*
D10*
X-14500000Y13250000D02*
X-14000000Y13250000D01*
D12*
X-15550000Y16450000D02*
X-15000000Y17000000D01*
D10*
X-15250000Y4170000D02*
X-15250000Y7250000D01*
D10*
X-10500000Y18071004D02*
X-10500000Y17994974D01*
D11*
X-1069458Y5569458D02*
X-1069458Y6299944D01*
D12*
X-10000000Y4750000D02*
X-9500000Y4750000D01*
D12*
X3750000Y27250000D02*
X2750000Y26250000D01*
D10*
X-10920000Y20000000D02*
X-10920000Y18491004D01*
D12*
X-4750000Y14250000D02*
X-4000000Y14250000D01*
D12*
X8250000Y20750000D02*
X9000000Y21500000D01*
D15*
X10075000Y42205000D02*
X10075000Y39705000D01*
D12*
X2005026Y21000000D02*
X2500000Y21000000D01*
D12*
X5500000Y23500000D02*
X5500000Y24750000D01*
D10*
X-7600000Y3505000D02*
X-7600000Y4400000D01*
D12*
X9750000Y24750000D02*
X9750000Y25250000D01*
D12*
X9750000Y32750000D02*
X7250000Y35250000D01*
D12*
X8750000Y24750000D02*
X8750000Y25244974D01*
D12*
X-16200000Y14550000D02*
X-16200000Y13700000D01*
D12*
X2500000Y34432499D02*
X2500000Y35000000D01*
D11*
X3930534Y11980586D02*
X2749948Y10800000D01*
D12*
X-4250000Y9072022D02*
X-4250000Y5255026D01*
D12*
X4500000Y25750000D02*
X5500000Y26750000D01*
D12*
X-7250000Y14750000D02*
X-7250000Y14000000D01*
D12*
X-1250000Y34000000D02*
X1716250Y34000000D01*
D12*
X-4520000Y18265516D02*
X-4520000Y20000000D01*
D12*
X-6000000Y6750000D02*
X-8650000Y6750000D01*
D10*
X-13179290Y26070710D02*
X-10929290Y26070710D01*
D12*
X6500000Y20750000D02*
X8250000Y20750000D01*
D12*
X3250000Y30000000D02*
X5000000Y30000000D01*
D12*
X5750000Y35000000D02*
X5750000Y40500000D01*
D12*
X-7000000Y15900000D02*
X-7000000Y16250000D01*
D12*
X7250000Y22750000D02*
X6280598Y22750000D01*
D12*
X-13200000Y3505000D02*
X-14535000Y3505000D01*
D10*
X-17264106Y11730856D02*
X-17264106Y10764106D01*
D12*
X8750000Y25244974D02*
X9750000Y26244974D01*
D12*
X1750000Y48000000D02*
X1750000Y48500000D01*
D12*
X-9500000Y9750000D02*
X-9300000Y9550000D01*
D12*
X-9150000Y13750000D02*
X-10500000Y13750000D01*
D12*
X16000000Y6750000D02*
X16000000Y7000000D01*
D12*
X2000000Y35500000D02*
X2000000Y37500000D01*
D12*
X705010Y16955010D02*
X-1544990Y16955010D01*
D10*
X-10500000Y17994974D02*
X-10500000Y17500000D01*
D12*
X-11000000Y12500000D02*
X-10599619Y12500000D01*
D12*
X-10000000Y11500000D02*
X-10500000Y11000000D01*
D12*
X-3725000Y11250000D02*
X-4000000Y11525000D01*
D12*
X14000000Y32250000D02*
X14000000Y24500000D01*
D12*
X-8500000Y16874980D02*
X-8500000Y15900000D01*
D12*
X-8000000Y17028620D02*
X-8000000Y15900000D01*
D12*
X500000Y29500000D02*
X0Y30000000D01*
D12*
X5250000Y34750000D02*
X5250000Y37250000D01*
D12*
X-12500000Y7250000D02*
X-12500000Y8931350D01*
D12*
X-7500000Y15000000D02*
X-7250000Y14750000D01*
D12*
X-9320000Y20000000D02*
X-9320000Y18473640D01*
D12*
X7500000Y24108125D02*
X7500000Y25750000D01*
D12*
X16000000Y22250000D02*
X15500000Y21750000D01*
D11*
X2881353Y500000D02*
X2881353Y-47375D01*
D12*
X-9000000Y10250000D02*
X-7250000Y10250000D01*
D10*
X-14703004Y11780856D02*
X-14453004Y12030856D01*
D12*
X13500000Y15809475D02*
X14000000Y15309475D01*
D12*
X-3750000Y13750000D02*
X-5350000Y13750000D01*
D12*
X-700000Y13550000D02*
X-2050000Y13550000D01*
D12*
X2750000Y30500000D02*
X3250000Y30000000D01*
D12*
X3139980Y28500000D02*
X2944990Y28694990D01*
D10*
X-17699985Y12750000D02*
X-17699985Y19050015D01*
D12*
X-10000000Y2500000D02*
X-9750000Y2750000D01*
D12*
X1200000Y15950000D02*
X1200000Y16460020D01*
D10*
X-7250000Y22750000D02*
X-7500000Y22750000D01*
D10*
X-8520000Y18770000D02*
X-8500000Y18750000D01*
D12*
X4250000Y28500000D02*
X3139980Y28500000D01*
D12*
X-10120000Y18620000D02*
X-8500000Y16874980D01*
D12*
X-8108125Y5750000D02*
X-6250000Y5750000D01*
D12*
X-3750000Y16250000D02*
X-3750000Y15450000D01*
D10*
X-16514106Y10230856D02*
X-15903006Y10230856D01*
D12*
X16000000Y7000000D02*
X15750000Y7250000D01*
D12*
X15250000Y22141876D02*
X15250000Y23500000D01*
D12*
X14000000Y23891876D02*
X14500000Y24391876D01*
D12*
X-2000000Y33250000D02*
X-1250000Y34000000D01*
D10*
X-16503006Y8330856D02*
X-16703006Y8530856D01*
D12*
X-12500000Y13750000D02*
X-12250000Y14000000D01*
D12*
X4250000Y44000000D02*
X5750000Y44000000D01*
G75*
D17*
X3080534Y7300000D03*
D17*
X680534Y6350000D03*
D17*
X3080534Y8250000D03*
D17*
X680534Y8250000D03*
D17*
X3080534Y6350000D03*
D18*
X-11000000Y12500000D03*
D18*
X-11000000Y11000000D03*
D19*
X-1069458Y8299944D03*
D19*
X-1069458Y6299944D03*
D20*
X-9150000Y15250000D03*
D21*
X-6500000Y12100000D03*
D21*
X-6000000Y12100000D03*
D22*
X-5350000Y14250000D03*
D22*
X-5350000Y15250000D03*
D22*
X-5350000Y12750000D03*
D20*
X-9150000Y12750000D03*
D20*
X-9150000Y13750000D03*
D20*
X-9150000Y14750000D03*
D23*
X-6500000Y15900000D03*
D23*
X-7500000Y15900000D03*
D24*
X-7250000Y14000000D03*
D22*
X-5350000Y14750000D03*
D23*
X-7000000Y15900000D03*
D20*
X-9150000Y14250000D03*
D22*
X-5350000Y13250000D03*
D21*
X-7000000Y12100000D03*
D22*
X-5350000Y13750000D03*
D23*
X-6000000Y15900000D03*
D23*
X-8500000Y15900000D03*
D23*
X-8000000Y15900000D03*
D21*
X-7500000Y12100000D03*
D20*
X-9150000Y13250000D03*
D21*
X-8500000Y12100000D03*
D21*
X-8000000Y12100000D03*
D25*
X4500000Y31500000D03*
D25*
X4500000Y33000000D03*
D26*
X-13200000Y3505000D03*
D27*
X-4890000Y2930000D03*
D28*
X-8750000Y3505000D03*
D27*
X-15110000Y-1000000D03*
D28*
X-11250000Y3505000D03*
D27*
X-15110000Y2930000D03*
D28*
X-9750000Y3505000D03*
D28*
X-8250000Y3505000D03*
D28*
X-11750000Y3505000D03*
D26*
X-7600000Y3505000D03*
D27*
X-4890000Y-1000000D03*
D28*
X-10250000Y3505000D03*
D26*
X-12400000Y3505000D03*
D26*
X-6800000Y3505000D03*
D28*
X-9250000Y3505000D03*
D28*
X-10750000Y3505000D03*
D29*
X5250000Y55450000D03*
D29*
X3250000Y58750000D03*
D30*
X10075000Y39705000D03*
D31*
X10075000Y52555000D03*
D25*
X13250000Y26500000D03*
D25*
X13250000Y28000000D03*
D32*
X-5750000Y7750000D03*
D32*
X-7250000Y7750000D03*
D33*
X-15903006Y9280856D03*
D33*
X-13503006Y10230856D03*
D33*
X-15903006Y8330856D03*
D33*
X-13503006Y8330856D03*
D33*
X-15903006Y10230856D03*
D34*
X-14000000Y13250000D03*
D34*
X-12500000Y13250000D03*
D35*
X10075000Y13215000D03*
D36*
X10075000Y365000D03*
D37*
X-15764106Y11730856D03*
D37*
X-17264106Y11730856D03*
D30*
X10075000Y42205000D03*
D31*
X10075000Y55055000D03*
D38*
X-10250000Y6550000D03*
D38*
X-11200000Y8950000D03*
D38*
X-9300000Y6550000D03*
D38*
X-9300000Y8950000D03*
D38*
X-11200000Y6550000D03*
D39*
X-8120000Y28200000D03*
D39*
X-8920000Y28200000D03*
D40*
X-6120000Y20000000D03*
D40*
X-9320000Y20000000D03*
D40*
X-7720000Y20000000D03*
D39*
X-4920000Y28200000D03*
D39*
X-4120000Y28200000D03*
D39*
X-10520000Y28200000D03*
D40*
X-4520000Y20000000D03*
D39*
X-5720000Y28200000D03*
D39*
X-7320000Y28200000D03*
D40*
X-6920000Y20000000D03*
D40*
X-8520000Y20000000D03*
D40*
X-10120000Y20000000D03*
D40*
X-5320000Y20000000D03*
D39*
X-3320000Y28200000D03*
D39*
X-6520000Y28200000D03*
D39*
X-9720000Y28200000D03*
D40*
X-10920000Y20000000D03*
D40*
X-3720000Y20000000D03*
D25*
X3750000Y18750000D03*
D25*
X3750000Y20250000D03*
D41*
X16000000Y6750000D03*
D41*
X16000000Y5250000D03*
D32*
X-2250000Y16250000D03*
D32*
X-3750000Y16250000D03*
D42*
X3930534Y13200000D03*
D42*
X3930534Y9900000D03*
D43*
X-12250000Y14750000D03*
D43*
X-12250000Y16250000D03*
D44*
X-1618647Y1717709D03*
D44*
X-1618647Y-1182291D03*
D45*
X-819466Y10800000D03*
D45*
X2080534Y10800000D03*
D17*
X-13800000Y15500000D03*
D17*
X-16200000Y14550000D03*
D17*
X-13800000Y16450000D03*
D17*
X-16200000Y16450000D03*
D17*
X-13800000Y14550000D03*
D41*
X-17453006Y10030856D03*
D41*
X-17453006Y8530856D03*
D33*
X1681353Y1517709D03*
D33*
X4081353Y2467709D03*
D33*
X1681353Y567709D03*
D33*
X4081353Y567709D03*
D33*
X1681353Y2467709D03*
D19*
X4724982Y8299944D03*
D19*
X4724982Y6299944D03*
D46*
X0Y40000000D03*
D46*
X0Y50000000D03*
D46*
X-14250000Y25000000D03*
D46*
X-3170000Y35000000D03*
D46*
X0Y30000000D03*
D46*
X-14250000Y35000000D03*
D46*
X-8570000Y35000000D03*
D46*
X-5670000Y55000000D03*
D46*
X0Y20000000D03*
D46*
X-14250000Y45000000D03*
D46*
X-14250000Y55000000D03*
D18*
X-3250000Y12750000D03*
D18*
X-3250000Y11250000D03*
D47*
X671414Y-982314D03*
D47*
X2671414Y-982314D03*
D48*
X1200000Y15950000D03*
D48*
X1200000Y13550000D03*
D48*
X-700000Y13550000D03*
D48*
X-700000Y15950000D03*
D49*
X-14050000Y6000000D03*
D49*
X-16950000Y6000000D03*
D50*
X-11500000Y5000000D03*
D50*
X11250000Y24500000D03*
D50*
X16000000Y9250000D03*
D50*
X10750000Y25250000D03*
D50*
X-3750000Y10000000D03*
D50*
X2500000Y22000000D03*
D50*
X16250000Y18000000D03*
D50*
X3000000Y35500000D03*
D50*
X-12000000Y20000000D03*
D50*
X-3500000Y5750000D03*
D50*
X4250000Y27250000D03*
D50*
X2000000Y37500000D03*
D50*
X14000000Y-1500000D03*
D50*
X8500000Y1500000D03*
D50*
X15900000Y-750000D03*
D50*
X15750000Y15000000D03*
D50*
X-5250000Y16000000D03*
D50*
X-3750000Y14500000D03*
D50*
X-8000000Y7500000D03*
D50*
X-12500000Y4500000D03*
D50*
X-12500000Y7250000D03*
D50*
X-4000000Y21750000D03*
D50*
X631353Y517709D03*
D50*
X8500000Y500000D03*
D50*
X-10750000Y13500000D03*
D50*
X-15000000Y17000000D03*
D50*
X-11250000Y14250000D03*
D50*
X4000000Y38500000D03*
D50*
X-2250000Y4500000D03*
D50*
X-5000000Y5750000D03*
D50*
X14250000Y12500000D03*
D50*
X-5000000Y8000000D03*
D50*
X5500000Y19750000D03*
D50*
X-2250000Y15000000D03*
D50*
X-11250000Y8000000D03*
D50*
X11000000Y35500000D03*
D50*
X2000000Y58750000D03*
D50*
X4250000Y28500000D03*
D50*
X-3250000Y4750000D03*
D50*
X-8500000Y18750000D03*
D50*
X15750000Y7250000D03*
D50*
X-10750000Y15000000D03*
D50*
X7250000Y22750000D03*
D50*
X4131353Y-1482291D03*
D50*
X-5500000Y5000000D03*
D50*
X3250000Y22500000D03*
D50*
X-7250000Y11466494D03*
D50*
X9750000Y24750000D03*
D50*
X4500000Y24750000D03*
D50*
X5750000Y44000000D03*
D50*
X-4500000Y10500000D03*
D50*
X6250000Y42000000D03*
D50*
X6250000Y10000000D03*
D50*
X-12750000Y12000000D03*
D50*
X15750000Y13250000D03*
D50*
X2750000Y13750000D03*
D50*
X15125000Y4250000D03*
D50*
X2500000Y21000000D03*
D50*
X1000000Y8750000D03*
D50*
X-14500000Y15500000D03*
D50*
X6000000Y21500000D03*
D50*
X-7250000Y14750000D03*
D50*
X-16250000Y7000000D03*
D50*
X16250000Y31750000D03*
D50*
X16625000Y4250000D03*
D50*
X4724982Y9105552D03*
D50*
X-16750000Y3000000D03*
D50*
X-10500000Y21750000D03*
D50*
X16000000Y28250000D03*
D50*
X15250000Y23500000D03*
D50*
X750000Y5250000D03*
D50*
X-10500000Y17500000D03*
D50*
X5250000Y41000000D03*
D50*
X-8000000Y23250000D03*
D50*
X14250000Y11500000D03*
D50*
X-13500000Y9000000D03*
D50*
X-10520000Y26480000D03*
D50*
X2500000Y6350000D03*
D50*
X-14453004Y12030856D03*
D50*
X12250000Y28000000D03*
D50*
X-7250000Y16500000D03*
D50*
X7500000Y28000000D03*
D50*
X1250000Y6350000D03*
D50*
X1750000Y48500000D03*
D50*
X14000000Y1000000D03*
D50*
X3800000Y55450000D03*
D50*
X-10000000Y15500000D03*
D50*
X2881353Y500000D03*
D50*
X8750000Y24750000D03*
D50*
X15517217Y33767217D03*
D50*
X1500000Y34750000D03*
D50*
X7750000Y36250000D03*
D50*
X-6500000Y4750000D03*
D50*
X6030000Y3250000D03*
D50*
X15250000Y15750000D03*
D50*
X3250000Y23500000D03*
D50*
X3850378Y7300000D03*
D50*
X0Y-1000000D03*
D50*
X3750000Y3250000D03*
D50*
X16419985Y20000000D03*
D50*
X2000000Y35500000D03*
D50*
X16250000Y21000000D03*
D50*
X-5500000Y22250000D03*
D50*
X7250000Y35250000D03*
D50*
X3500000Y16250000D03*
D50*
X16500000Y32750000D03*
D50*
X15750000Y27250000D03*
D50*
X-8750000Y21750000D03*
D50*
X-15250000Y12750000D03*
D50*
X-2250000Y13750000D03*
D50*
X-7500000Y4500000D03*
D50*
X-3525000Y2500000D03*
D50*
X-6058300Y18652494D03*
D50*
X-2750000Y9750000D03*
D50*
X-13453004Y11030856D03*
D50*
X1750000Y17500000D03*
D50*
X1250000Y7300000D03*
D50*
X5500000Y24750000D03*
D50*
X-3500000Y18750000D03*
D50*
X15875000Y4250000D03*
D50*
X11000000Y27000000D03*
D50*
X6750000Y22000000D03*
D50*
X-2500000Y28000000D03*
D50*
X-4750000Y500000D03*
D50*
X3750000Y24250000D03*
M02*
