%FSLAX46Y46*%
%MOMM*%
%ADD10C,0.150000*%
%ADD11C,0.300000*%
G01*
G01*
%LPD*%
D10*
X-3547619Y5928571D02*
X-3595238Y5928571D01*
D10*
X-3500000Y6023809D02*
X-3547619Y5928571D01*
D10*
X-3547619Y5738095D02*
X-3500000Y6023809D01*
D10*
X-3547619Y5833333D02*
X-3547619Y5738095D01*
D10*
X-3595238Y5928571D02*
X-3547619Y5833333D01*
D10*
X-3642857Y5976190D02*
X-3595238Y5928571D01*
D10*
X-3785714Y6023809D02*
X-3642857Y5976190D01*
D10*
X-3976190Y6023809D02*
X-3785714Y6023809D01*
D10*
X-4119047Y5976190D02*
X-3976190Y6023809D01*
D10*
X-4214285Y5880952D02*
X-4119047Y5976190D01*
D10*
X-4214285Y5785714D02*
X-4214285Y5880952D01*
D10*
X-4166666Y5690476D02*
X-4214285Y5785714D01*
D10*
X-4119047Y5642857D02*
X-4166666Y5690476D01*
D10*
X-3785714Y5452381D02*
X-4119047Y5642857D01*
D10*
X-3690476Y5357143D02*
X-3785714Y5452381D01*
D10*
X-4119047Y5690476D02*
X-4214285Y5785714D01*
D10*
X-3785714Y5500000D02*
X-4119047Y5690476D01*
D10*
X-3738095Y5452381D02*
X-3785714Y5500000D01*
D10*
X-3690476Y5357143D02*
X-3738095Y5452381D01*
D10*
X-3690476Y5214285D02*
X-3690476Y5357143D01*
D10*
X-3738095Y5119047D02*
X-3690476Y5214285D01*
D10*
X-3785714Y5071428D02*
X-3738095Y5119047D01*
D10*
X-3928571Y5023809D02*
X-3785714Y5071428D01*
D10*
X-4119047Y5023809D02*
X-3928571Y5023809D01*
D10*
X-4261905Y5071428D02*
X-4119047Y5023809D01*
D10*
X-4309524Y5119047D02*
X-4261905Y5071428D01*
D10*
X-4357143Y5214285D02*
X-4309524Y5119047D01*
D10*
X-4357143Y5309524D02*
X-4357143Y5214285D01*
D10*
X-4404762Y5023809D02*
X-4357143Y5309524D01*
D10*
X-4357143Y5119047D02*
X-4404762Y5023809D01*
D10*
X-4309524Y5119047D02*
X-4357143Y5119047D01*
D10*
X-3119047Y5023809D02*
X-3023809Y6023809D01*
D10*
X-3071428Y5119047D02*
X-2976190Y6023809D01*
D10*
X-3119047Y5023809D02*
X-2642857Y6023809D01*
D10*
X-2738095Y5023809D02*
X-2642857Y6023809D01*
D10*
X-2690476Y5119047D02*
X-2595238Y6023809D01*
D10*
X-2738095Y5023809D02*
X-2261904Y6023809D01*
D10*
X-2833333Y6023809D02*
X-3166666Y6023809D01*
D10*
X-2119047Y6023809D02*
X-2404762Y6023809D01*
D10*
X-1738095Y5976190D02*
X-1595238Y6023809D01*
D10*
X-1833333Y5880952D02*
X-1738095Y5976190D01*
D10*
X-1928571Y5738095D02*
X-1833333Y5880952D01*
D10*
X-1976190Y5595238D02*
X-1928571Y5738095D01*
D10*
X-2023809Y5404762D02*
X-1976190Y5595238D01*
D10*
X-2023809Y5261905D02*
X-2023809Y5404762D01*
D10*
X-1976190Y5119047D02*
X-2023809Y5261905D01*
D10*
X-1928571Y5071428D02*
X-1976190Y5119047D01*
D10*
X-1833333Y5023809D02*
X-1928571Y5071428D01*
D10*
X-1690476Y5023809D02*
X-1833333Y5023809D01*
D10*
X-1547619Y5071428D02*
X-1690476Y5023809D01*
D10*
X-1452381Y5166666D02*
X-1547619Y5071428D01*
D10*
X-1357143Y5309524D02*
X-1452381Y5166666D01*
D10*
X-1309523Y5452381D02*
X-1357143Y5309524D01*
D10*
X-1261904Y5642857D02*
X-1309523Y5452381D01*
D10*
X-1261904Y5785714D02*
X-1261904Y5642857D01*
D10*
X-1309523Y5928571D02*
X-1261904Y5785714D01*
D10*
X-1357143Y5976190D02*
X-1309523Y5928571D01*
D10*
X-1452381Y6023809D02*
X-1357143Y5976190D01*
D10*
X-1595238Y6023809D02*
X-1452381Y6023809D01*
D10*
X-1690476Y5976190D02*
X-1595238Y6023809D01*
D10*
X-1785714Y5880952D02*
X-1690476Y5976190D01*
D10*
X-1880952Y5738095D02*
X-1785714Y5880952D01*
D10*
X-1928571Y5595238D02*
X-1880952Y5738095D01*
D10*
X-1976190Y5404762D02*
X-1928571Y5595238D01*
D10*
X-1976190Y5261905D02*
X-1976190Y5404762D01*
D10*
X-1928571Y5119047D02*
X-1976190Y5261905D01*
D10*
X-1833333Y5023809D02*
X-1928571Y5119047D01*
D10*
X-1595238Y5071428D02*
X-1690476Y5023809D01*
D10*
X-1500000Y5166666D02*
X-1595238Y5071428D01*
D10*
X-1404762Y5309524D02*
X-1500000Y5166666D01*
D10*
X-1357143Y5452381D02*
X-1404762Y5309524D01*
D10*
X-1309523Y5642857D02*
X-1357143Y5452381D01*
D10*
X-1309523Y5785714D02*
X-1309523Y5642857D01*
D10*
X-1357143Y5928571D02*
X-1309523Y5785714D01*
D10*
X-1452381Y6023809D02*
X-1357143Y5928571D01*
D10*
X7961428Y-11001429D02*
X7890000Y-10930000D01*
D10*
X7890000Y-11072857D02*
X7961428Y-11001429D01*
D10*
X7818571Y-11001429D02*
X7890000Y-11072857D01*
D10*
X7818571Y-10930000D02*
X7818571Y-11001429D01*
D10*
X7890000Y-10787143D02*
X7818571Y-10930000D01*
D10*
X7961428Y-10715714D02*
X7890000Y-10787143D01*
D10*
X8175714Y-10644286D02*
X7961428Y-10715714D01*
D10*
X8390000Y-10644286D02*
X8175714Y-10644286D01*
D10*
X8604286Y-10715714D02*
X8390000Y-10644286D01*
D10*
X8675714Y-10858571D02*
X8604286Y-10715714D01*
D10*
X8675714Y-11001429D02*
X8675714Y-10858571D01*
D10*
X8604286Y-11144286D02*
X8675714Y-11001429D01*
D10*
X8461429Y-11287143D02*
X8604286Y-11144286D01*
D10*
X8247143Y-11430000D02*
X8461429Y-11287143D01*
D10*
X7961428Y-11572857D02*
X8247143Y-11430000D01*
D10*
X7747143Y-11715714D02*
X7961428Y-11572857D01*
D10*
X7604286Y-11858571D02*
X7747143Y-11715714D01*
D10*
X7461428Y-12144286D02*
X7604286Y-11858571D01*
D10*
X8532857Y-10715714D02*
X8390000Y-10644286D01*
D10*
X8604286Y-10858571D02*
X8532857Y-10715714D01*
D10*
X8604286Y-11001429D02*
X8604286Y-10858571D01*
D10*
X8532857Y-11144286D02*
X8604286Y-11001429D01*
D10*
X8390000Y-11287143D02*
X8532857Y-11144286D01*
D10*
X7961428Y-11572857D02*
X8390000Y-11287143D01*
D10*
X7604286Y-11930000D02*
X7532857Y-12001429D01*
D10*
X7747143Y-11930000D02*
X7604286Y-11930000D01*
D10*
X8104286Y-12072857D02*
X7747143Y-11930000D01*
D10*
X8318571Y-12072857D02*
X8104286Y-12072857D01*
D10*
X8461429Y-12001429D02*
X8318571Y-12072857D01*
D10*
X8532857Y-11858571D02*
X8461429Y-12001429D01*
D10*
X8104286Y-12144286D02*
X7747143Y-11930000D01*
D10*
X8318571Y-12144286D02*
X8104286Y-12144286D01*
D10*
X8461429Y-12072857D02*
X8318571Y-12144286D01*
D10*
X8532857Y-11858571D02*
X8461429Y-12072857D01*
D10*
X-4166666Y6523809D02*
X-4214285Y7523809D01*
D10*
X-4119047Y6619047D02*
X-4166666Y7523809D01*
D10*
X-4166666Y6523809D02*
X-3547619Y7523809D01*
D10*
X-4023809Y7523809D02*
X-4309524Y7523809D01*
D10*
X-3452381Y7523809D02*
X-3738095Y7523809D01*
D10*
X-3404762Y6523809D02*
X-3119047Y7523809D01*
D10*
X-3357143Y6523809D02*
X-3071428Y7523809D01*
D10*
X-2833333Y7523809D02*
X-3261904Y7523809D01*
D10*
X-2690476Y7476190D02*
X-2833333Y7523809D01*
D10*
X-2642857Y7428571D02*
X-2690476Y7476190D01*
D10*
X-2595238Y7285714D02*
X-2642857Y7428571D01*
D10*
X-2595238Y7095238D02*
X-2595238Y7285714D01*
D10*
X-2642857Y6904762D02*
X-2595238Y7095238D01*
D10*
X-2738095Y6714285D02*
X-2642857Y6904762D01*
D10*
X-2833333Y6619047D02*
X-2738095Y6714285D01*
D10*
X-2928571Y6571428D02*
X-2833333Y6619047D01*
D10*
X-3119047Y6523809D02*
X-2928571Y6571428D01*
D10*
X-3547619Y6523809D02*
X-3119047Y6523809D01*
D10*
X-2738095Y7476190D02*
X-2833333Y7523809D01*
D10*
X-2690476Y7428571D02*
X-2738095Y7476190D01*
D10*
X-2642857Y7285714D02*
X-2690476Y7428571D01*
D10*
X-2642857Y7095238D02*
X-2642857Y7285714D01*
D10*
X-2690476Y6904762D02*
X-2642857Y7095238D01*
D10*
X-2785714Y6714285D02*
X-2690476Y6904762D01*
D10*
X-2880952Y6619047D02*
X-2785714Y6714285D01*
D10*
X-2976190Y6571428D02*
X-2880952Y6619047D01*
D10*
X-3119047Y6523809D02*
X-2976190Y6571428D01*
D10*
X-2309523Y6523809D02*
X-2023809Y7523809D01*
D10*
X-2261904Y6523809D02*
X-1976190Y7523809D01*
D10*
X-1738095Y7523809D02*
X-2166666Y7523809D01*
D10*
X-1595238Y7476190D02*
X-1738095Y7523809D01*
D10*
X-1547619Y7428571D02*
X-1595238Y7476190D01*
D10*
X-1500000Y7285714D02*
X-1547619Y7428571D01*
D10*
X-1500000Y7095238D02*
X-1500000Y7285714D01*
D10*
X-1547619Y6904762D02*
X-1500000Y7095238D01*
D10*
X-1642857Y6714285D02*
X-1547619Y6904762D01*
D10*
X-1738095Y6619047D02*
X-1642857Y6714285D01*
D10*
X-1833333Y6571428D02*
X-1738095Y6619047D01*
D10*
X-2023809Y6523809D02*
X-1833333Y6571428D01*
D10*
X-2452381Y6523809D02*
X-2023809Y6523809D01*
D10*
X-1642857Y7476190D02*
X-1738095Y7523809D01*
D10*
X-1595238Y7428571D02*
X-1642857Y7476190D01*
D10*
X-1547619Y7285714D02*
X-1595238Y7428571D01*
D10*
X-1547619Y7095238D02*
X-1547619Y7285714D01*
D10*
X-1595238Y6904762D02*
X-1547619Y7095238D01*
D10*
X-1690476Y6714285D02*
X-1595238Y6904762D01*
D10*
X-1785714Y6619047D02*
X-1690476Y6714285D01*
D10*
X-1880952Y6571428D02*
X-1785714Y6619047D01*
D10*
X-2023809Y6523809D02*
X-1880952Y6571428D01*
D10*
X4333857Y-1746190D02*
X4619571Y-746190D01*
D10*
X4381476Y-1746190D02*
X4667190Y-746190D01*
D10*
X4905285Y-746190D02*
X4476714Y-746190D01*
D10*
X5048143Y-793809D02*
X4905285Y-746190D01*
D10*
X5095762Y-841428D02*
X5048143Y-793809D01*
D10*
X5143381Y-984285D02*
X5095762Y-841428D01*
D10*
X5143381Y-1174761D02*
X5143381Y-984285D01*
D10*
X5095762Y-1365238D02*
X5143381Y-1174761D01*
D10*
X5000524Y-1555714D02*
X5095762Y-1365238D01*
D10*
X4905285Y-1650952D02*
X5000524Y-1555714D01*
D10*
X4810047Y-1698571D02*
X4905285Y-1650952D01*
D10*
X4619571Y-1746190D02*
X4810047Y-1698571D01*
D10*
X4191000Y-1746190D02*
X4619571Y-1746190D01*
D10*
X5000524Y-793809D02*
X4905285Y-746190D01*
D10*
X5048143Y-841428D02*
X5000524Y-793809D01*
D10*
X5095762Y-984285D02*
X5048143Y-841428D01*
D10*
X5095762Y-1174761D02*
X5095762Y-984285D01*
D10*
X5048143Y-1365238D02*
X5095762Y-1174761D01*
D10*
X4952905Y-1555714D02*
X5048143Y-1365238D01*
D10*
X4857666Y-1650952D02*
X4952905Y-1555714D01*
D10*
X4762428Y-1698571D02*
X4857666Y-1650952D01*
D10*
X4619571Y-1746190D02*
X4762428Y-1698571D01*
D10*
X5429095Y-1746190D02*
X5714809Y-746190D01*
D10*
X5476714Y-1746190D02*
X5762428Y-746190D01*
D10*
X5905286Y-746190D02*
X5571952Y-746190D01*
D10*
X5619571Y-1746190D02*
X5286238Y-1746190D01*
D10*
X6333857Y-793809D02*
X6476714Y-746190D01*
D10*
X6238619Y-889047D02*
X6333857Y-793809D01*
D10*
X6143381Y-1031904D02*
X6238619Y-889047D01*
D10*
X6095762Y-1174761D02*
X6143381Y-1031904D01*
D10*
X6048143Y-1365238D02*
X6095762Y-1174761D01*
D10*
X6048143Y-1508095D02*
X6048143Y-1365238D01*
D10*
X6095762Y-1650952D02*
X6048143Y-1508095D01*
D10*
X6143381Y-1698571D02*
X6095762Y-1650952D01*
D10*
X6238619Y-1746190D02*
X6143381Y-1698571D01*
D10*
X6381476Y-1746190D02*
X6238619Y-1746190D01*
D10*
X6524333Y-1698571D02*
X6381476Y-1746190D01*
D10*
X6619571Y-1603333D02*
X6524333Y-1698571D01*
D10*
X6714809Y-1460476D02*
X6619571Y-1603333D01*
D10*
X6762428Y-1317619D02*
X6714809Y-1460476D01*
D10*
X6810047Y-1127142D02*
X6762428Y-1317619D01*
D10*
X6810047Y-984285D02*
X6810047Y-1127142D01*
D10*
X6762428Y-841428D02*
X6810047Y-984285D01*
D10*
X6714809Y-793809D02*
X6762428Y-841428D01*
D10*
X6619571Y-746190D02*
X6714809Y-793809D01*
D10*
X6476714Y-746190D02*
X6619571Y-746190D01*
D10*
X6381476Y-793809D02*
X6476714Y-746190D01*
D10*
X6286238Y-889047D02*
X6381476Y-793809D01*
D10*
X6191000Y-1031904D02*
X6286238Y-889047D01*
D10*
X6143381Y-1174761D02*
X6191000Y-1031904D01*
D10*
X6095762Y-1365238D02*
X6143381Y-1174761D01*
D10*
X6095762Y-1508095D02*
X6095762Y-1365238D01*
D10*
X6143381Y-1650952D02*
X6095762Y-1508095D01*
D10*
X6238619Y-1746190D02*
X6143381Y-1650952D01*
D10*
X6476714Y-1698571D02*
X6381476Y-1746190D01*
D10*
X6571952Y-1603333D02*
X6476714Y-1698571D01*
D10*
X6667190Y-1460476D02*
X6571952Y-1603333D01*
D10*
X6714809Y-1317619D02*
X6667190Y-1460476D01*
D10*
X6762428Y-1127142D02*
X6714809Y-1317619D01*
D10*
X6762428Y-984285D02*
X6762428Y-1127142D01*
D10*
X6714809Y-841428D02*
X6762428Y-984285D01*
D10*
X6619571Y-746190D02*
X6714809Y-841428D01*
D10*
X14470000Y10715714D02*
X14827143Y11930000D01*
D10*
X14541429Y10715714D02*
X14970000Y12215714D01*
D10*
X14755714Y12001429D02*
X14970000Y12215714D01*
D10*
X14541429Y11858571D02*
X14755714Y12001429D01*
D10*
X14398571Y11787143D02*
X14541429Y11858571D01*
D10*
X14612857Y11858571D02*
X14898571Y12001429D01*
D10*
X14398571Y11787143D02*
X14612857Y11858571D01*
D10*
X16612857Y11572857D02*
X16684286Y11715714D01*
D10*
X16470000Y11430000D02*
X16612857Y11572857D01*
D10*
X16327143Y11358571D02*
X16470000Y11430000D01*
D10*
X16112857Y11358571D02*
X16327143Y11358571D01*
D10*
X15970000Y11430000D02*
X16112857Y11358571D01*
D10*
X15898571Y11501429D02*
X15970000Y11430000D01*
D10*
X15827143Y11644286D02*
X15898571Y11501429D01*
D10*
X15827143Y11858571D02*
X15827143Y11644286D01*
D10*
X15898571Y12001429D02*
X15827143Y11858571D01*
D10*
X16041428Y12144286D02*
X15898571Y12001429D01*
D10*
X16255714Y12215714D02*
X16041428Y12144286D01*
D10*
X16470000Y12215714D02*
X16255714Y12215714D01*
D10*
X16612857Y12144286D02*
X16470000Y12215714D01*
D10*
X16684286Y12072857D02*
X16612857Y12144286D01*
D10*
X16755714Y11930000D02*
X16684286Y12072857D01*
D10*
X16755714Y11644286D02*
X16755714Y11930000D01*
D10*
X16684286Y11358571D02*
X16755714Y11644286D01*
D10*
X16612857Y11144286D02*
X16684286Y11358571D01*
D10*
X16470000Y10930000D02*
X16612857Y11144286D01*
D10*
X16327143Y10787143D02*
X16470000Y10930000D01*
D10*
X16112857Y10715714D02*
X16327143Y10787143D01*
D10*
X15898571Y10715714D02*
X16112857Y10715714D01*
D10*
X15755714Y10787143D02*
X15898571Y10715714D01*
D10*
X15684286Y10930000D02*
X15755714Y10787143D01*
D10*
X15684286Y11001429D02*
X15684286Y10930000D01*
D10*
X15755714Y11072857D02*
X15684286Y11001429D01*
D10*
X15827143Y11001429D02*
X15755714Y11072857D01*
D10*
X15755714Y10930000D02*
X15827143Y11001429D01*
D10*
X15898571Y11572857D02*
X15970000Y11430000D01*
D10*
X15898571Y11858571D02*
X15898571Y11572857D01*
D10*
X15970000Y12001429D02*
X15898571Y11858571D01*
D10*
X16112857Y12144286D02*
X15970000Y12001429D01*
D10*
X16255714Y12215714D02*
X16112857Y12144286D01*
D10*
X16684286Y12001429D02*
X16612857Y12144286D01*
D10*
X16684286Y11644286D02*
X16684286Y12001429D01*
D10*
X16612857Y11358571D02*
X16684286Y11644286D01*
D10*
X16541428Y11144286D02*
X16612857Y11358571D01*
D10*
X16398572Y10930000D02*
X16541428Y11144286D01*
D10*
X16255714Y10787143D02*
X16398572Y10930000D01*
D10*
X16112857Y10715714D02*
X16255714Y10787143D01*
D10*
X5095762Y1698571D02*
X5048143Y1698571D01*
D10*
X5143381Y1793809D02*
X5095762Y1698571D01*
D10*
X5095762Y1508095D02*
X5143381Y1793809D01*
D10*
X5095762Y1603333D02*
X5095762Y1508095D01*
D10*
X5048143Y1698571D02*
X5095762Y1603333D01*
D10*
X5000524Y1746190D02*
X5048143Y1698571D01*
D10*
X4905285Y1793809D02*
X5000524Y1746190D01*
D10*
X4762428Y1793809D02*
X4905285Y1793809D01*
D10*
X4619571Y1746190D02*
X4762428Y1793809D01*
D10*
X4524333Y1650952D02*
X4619571Y1746190D01*
D10*
X4429095Y1508095D02*
X4524333Y1650952D01*
D10*
X4381476Y1365238D02*
X4429095Y1508095D01*
D10*
X4333857Y1174761D02*
X4381476Y1365238D01*
D10*
X4333857Y1031904D02*
X4333857Y1174761D01*
D10*
X4381476Y889047D02*
X4333857Y1031904D01*
D10*
X4429095Y841428D02*
X4381476Y889047D01*
D10*
X4571952Y793809D02*
X4429095Y841428D01*
D10*
X4714809Y793809D02*
X4571952Y793809D01*
D10*
X4810047Y841428D02*
X4714809Y793809D01*
D10*
X4905285Y936666D02*
X4810047Y841428D01*
D10*
X4952905Y1031904D02*
X4905285Y936666D01*
D10*
X4667190Y1746190D02*
X4762428Y1793809D01*
D10*
X4571952Y1650952D02*
X4667190Y1746190D01*
D10*
X4476714Y1508095D02*
X4571952Y1650952D01*
D10*
X4429095Y1365238D02*
X4476714Y1508095D01*
D10*
X4381476Y1174761D02*
X4429095Y1365238D01*
D10*
X4381476Y1031904D02*
X4381476Y1174761D01*
D10*
X4429095Y889047D02*
X4381476Y1031904D01*
D10*
X4476714Y841428D02*
X4429095Y889047D01*
D10*
X4571952Y793809D02*
X4476714Y841428D01*
D10*
X5333857Y793809D02*
X5619571Y1793809D01*
D10*
X5381476Y793809D02*
X5667190Y1793809D01*
D10*
X5810047Y1793809D02*
X5476714Y1793809D01*
D10*
X5905286Y793809D02*
X5191000Y793809D01*
D10*
X6000524Y1079523D02*
X5905286Y793809D01*
D10*
X5857666Y793809D02*
X6000524Y1079523D01*
D10*
X6286238Y793809D02*
X6571952Y1793809D01*
D10*
X6333857Y793809D02*
X6619571Y1793809D01*
D10*
X6429095Y1174761D02*
X7238619Y1793809D01*
D10*
X6952905Y793809D02*
X6762428Y1365238D01*
D10*
X6905286Y793809D02*
X6714809Y1365238D01*
D10*
X6762428Y1793809D02*
X6429095Y1793809D01*
D10*
X7333857Y1793809D02*
X7048143Y1793809D01*
D10*
X6476714Y793809D02*
X6143381Y793809D01*
D10*
X7048143Y793809D02*
X6762428Y793809D01*
D10*
X5095762Y-3381428D02*
X5048143Y-3381428D01*
D10*
X5143381Y-3286190D02*
X5095762Y-3381428D01*
D10*
X5095762Y-3571904D02*
X5143381Y-3286190D01*
D10*
X5095762Y-3476666D02*
X5095762Y-3571904D01*
D10*
X5048143Y-3381428D02*
X5095762Y-3476666D01*
D10*
X5000524Y-3333809D02*
X5048143Y-3381428D01*
D10*
X4905285Y-3286190D02*
X5000524Y-3333809D01*
D10*
X4762428Y-3286190D02*
X4905285Y-3286190D01*
D10*
X4619571Y-3333809D02*
X4762428Y-3286190D01*
D10*
X4524333Y-3429047D02*
X4619571Y-3333809D01*
D10*
X4429095Y-3571904D02*
X4524333Y-3429047D01*
D10*
X4381476Y-3714762D02*
X4429095Y-3571904D01*
D10*
X4333857Y-3905238D02*
X4381476Y-3714762D01*
D10*
X4333857Y-4048095D02*
X4333857Y-3905238D01*
D10*
X4381476Y-4190952D02*
X4333857Y-4048095D01*
D10*
X4429095Y-4238571D02*
X4381476Y-4190952D01*
D10*
X4571952Y-4286190D02*
X4429095Y-4238571D01*
D10*
X4667190Y-4286190D02*
X4571952Y-4286190D01*
D10*
X4810047Y-4238571D02*
X4667190Y-4286190D01*
D10*
X4905285Y-4143333D02*
X4810047Y-4238571D01*
D10*
X5000524Y-3952857D02*
X4905285Y-4143333D01*
D10*
X4667190Y-3333809D02*
X4762428Y-3286190D01*
D10*
X4571952Y-3429047D02*
X4667190Y-3333809D01*
D10*
X4476714Y-3571904D02*
X4571952Y-3429047D01*
D10*
X4429095Y-3714762D02*
X4476714Y-3571904D01*
D10*
X4381476Y-3905238D02*
X4429095Y-3714762D01*
D10*
X4381476Y-4048095D02*
X4381476Y-3905238D01*
D10*
X4429095Y-4190952D02*
X4381476Y-4048095D01*
D10*
X4476714Y-4238571D02*
X4429095Y-4190952D01*
D10*
X4571952Y-4286190D02*
X4476714Y-4238571D01*
D10*
X4762428Y-4238571D02*
X4667190Y-4286190D01*
D10*
X4857666Y-4143333D02*
X4762428Y-4238571D01*
D10*
X4952905Y-3952857D02*
X4857666Y-4143333D01*
D10*
X5143381Y-3952857D02*
X4810047Y-3952857D01*
D10*
X5381476Y-4286190D02*
X5667190Y-3286190D01*
D10*
X6000524Y-4143333D02*
X5667190Y-3286190D01*
D10*
X6000524Y-4286190D02*
X5667190Y-3429047D01*
D10*
X6000524Y-4286190D02*
X6286238Y-3286190D01*
D10*
X5667190Y-3286190D02*
X5524333Y-3286190D01*
D10*
X6429095Y-3286190D02*
X6143381Y-3286190D01*
D10*
X5524333Y-4286190D02*
X5238619Y-4286190D01*
D10*
X6571952Y-4286190D02*
X6857666Y-3286190D01*
D10*
X6619571Y-4286190D02*
X6905286Y-3286190D01*
D10*
X7143381Y-3286190D02*
X6714809Y-3286190D01*
D10*
X7286238Y-3333809D02*
X7143381Y-3286190D01*
D10*
X7333857Y-3381428D02*
X7286238Y-3333809D01*
D10*
X7381476Y-3524285D02*
X7333857Y-3381428D01*
D10*
X7381476Y-3714762D02*
X7381476Y-3524285D01*
D10*
X7333857Y-3905238D02*
X7381476Y-3714762D01*
D10*
X7238619Y-4095714D02*
X7333857Y-3905238D01*
D10*
X7143381Y-4190952D02*
X7238619Y-4095714D01*
D10*
X7048143Y-4238571D02*
X7143381Y-4190952D01*
D10*
X6857666Y-4286190D02*
X7048143Y-4238571D01*
D10*
X6429095Y-4286190D02*
X6857666Y-4286190D01*
D10*
X7238619Y-3333809D02*
X7143381Y-3286190D01*
D10*
X7286238Y-3381428D02*
X7238619Y-3333809D01*
D10*
X7333857Y-3524285D02*
X7286238Y-3381428D01*
D10*
X7333857Y-3714762D02*
X7333857Y-3524285D01*
D10*
X7286238Y-3905238D02*
X7333857Y-3714762D01*
D10*
X7191000Y-4095714D02*
X7286238Y-3905238D01*
D10*
X7095762Y-4190952D02*
X7191000Y-4095714D01*
D10*
X7000524Y-4238571D02*
X7095762Y-4190952D01*
D10*
X6857666Y-4286190D02*
X7000524Y-4238571D01*
D10*
X1746190Y8604286D02*
X1984285Y9413810D01*
D10*
X1698571Y8509048D02*
X1746190Y8604286D01*
D10*
X1650952Y8461429D02*
X1698571Y8509048D01*
D10*
X1555714Y8413810D02*
X1650952Y8461429D01*
D10*
X1460476Y8413810D02*
X1555714Y8413810D01*
D10*
X1365238Y8461429D02*
X1460476Y8413810D01*
D10*
X1317619Y8556667D02*
X1365238Y8461429D01*
D10*
X1317619Y8651905D02*
X1317619Y8556667D01*
D10*
X1365238Y8699524D02*
X1317619Y8651905D01*
D10*
X1412857Y8651905D02*
X1365238Y8699524D01*
D10*
X1365238Y8604286D02*
X1412857Y8651905D01*
D10*
X1698571Y8604286D02*
X1936666Y9413810D01*
D10*
X1650952Y8509048D02*
X1698571Y8604286D01*
D10*
X1555714Y8413810D02*
X1650952Y8509048D01*
D10*
X2127143Y9413810D02*
X1793809Y9413810D01*
D10*
X2460476Y8413810D02*
X2698571Y9223333D01*
D10*
X2508095Y8413810D02*
X2793809Y9413810D01*
D10*
X2650952Y9270952D02*
X2793809Y9413810D01*
D10*
X2508095Y9175714D02*
X2650952Y9270952D01*
D10*
X2412857Y9128095D02*
X2508095Y9175714D01*
D10*
X2555714Y9175714D02*
X2746190Y9270952D01*
D10*
X2412857Y9128095D02*
X2555714Y9175714D01*
D10*
X4333857Y5873809D02*
X4619571Y6873809D01*
D10*
X4952905Y6016666D02*
X4619571Y6873809D01*
D10*
X4952905Y5873809D02*
X4619571Y6730952D01*
D10*
X4952905Y5873809D02*
X5238619Y6873809D01*
D10*
X4619571Y6873809D02*
X4476714Y6873809D01*
D10*
X5381476Y6873809D02*
X5095762Y6873809D01*
D10*
X4476714Y5873809D02*
X4191000Y5873809D01*
D10*
X5524333Y5873809D02*
X5810047Y6873809D01*
D10*
X5571952Y5873809D02*
X5857666Y6873809D01*
D10*
X6191000Y6873809D02*
X5667190Y6873809D01*
D10*
X6333857Y6826190D02*
X6191000Y6873809D01*
D10*
X6381476Y6730952D02*
X6333857Y6826190D01*
D10*
X6381476Y6635714D02*
X6381476Y6730952D01*
D10*
X6333857Y6492857D02*
X6381476Y6635714D01*
D10*
X6286238Y6445238D02*
X6333857Y6492857D01*
D10*
X6143381Y6397619D02*
X6286238Y6445238D01*
D10*
X5714809Y6397619D02*
X6143381Y6397619D01*
D10*
X6286238Y6826190D02*
X6191000Y6873809D01*
D10*
X6333857Y6730952D02*
X6286238Y6826190D01*
D10*
X6333857Y6635714D02*
X6333857Y6730952D01*
D10*
X6286238Y6492857D02*
X6333857Y6635714D01*
D10*
X6238619Y6445238D02*
X6286238Y6492857D01*
D10*
X6143381Y6397619D02*
X6238619Y6445238D01*
D10*
X6048143Y6350000D02*
X5952905Y6397619D01*
D10*
X6095762Y6302381D02*
X6048143Y6350000D01*
D10*
X6143381Y5921428D02*
X6095762Y6302381D01*
D10*
X6191000Y5873809D02*
X6143381Y5921428D01*
D10*
X6286238Y5873809D02*
X6191000Y5873809D01*
D10*
X6333857Y5969047D02*
X6286238Y5873809D01*
D10*
X6333857Y6016666D02*
X6333857Y5969047D01*
D10*
X6191000Y5969047D02*
X6095762Y6302381D01*
D10*
X6238619Y5921428D02*
X6191000Y5969047D01*
D10*
X6286238Y5921428D02*
X6238619Y5921428D01*
D10*
X6333857Y5969047D02*
X6286238Y5921428D01*
D10*
X5714809Y5873809D02*
X5381476Y5873809D01*
D10*
X7476714Y6778571D02*
X7429095Y6778571D01*
D10*
X7524333Y6873809D02*
X7476714Y6778571D01*
D10*
X7476714Y6588095D02*
X7524333Y6873809D01*
D10*
X7476714Y6683333D02*
X7476714Y6588095D01*
D10*
X7429095Y6778571D02*
X7476714Y6683333D01*
D10*
X7381476Y6826190D02*
X7429095Y6778571D01*
D10*
X7238619Y6873809D02*
X7381476Y6826190D01*
D10*
X7048143Y6873809D02*
X7238619Y6873809D01*
D10*
X6905286Y6826190D02*
X7048143Y6873809D01*
D10*
X6810047Y6730952D02*
X6905286Y6826190D01*
D10*
X6810047Y6635714D02*
X6810047Y6730952D01*
D10*
X6857666Y6540476D02*
X6810047Y6635714D01*
D10*
X6905286Y6492857D02*
X6857666Y6540476D01*
D10*
X7238619Y6302381D02*
X6905286Y6492857D01*
D10*
X7333857Y6207143D02*
X7238619Y6302381D01*
D10*
X6905286Y6540476D02*
X6810047Y6635714D01*
D10*
X7238619Y6350000D02*
X6905286Y6540476D01*
D10*
X7286238Y6302381D02*
X7238619Y6350000D01*
D10*
X7333857Y6207143D02*
X7286238Y6302381D01*
D10*
X7333857Y6064285D02*
X7333857Y6207143D01*
D10*
X7286238Y5969047D02*
X7333857Y6064285D01*
D10*
X7238619Y5921428D02*
X7286238Y5969047D01*
D10*
X7095762Y5873809D02*
X7238619Y5921428D01*
D10*
X6905286Y5873809D02*
X7095762Y5873809D01*
D10*
X6762428Y5921428D02*
X6905286Y5873809D01*
D10*
X6714809Y5969047D02*
X6762428Y5921428D01*
D10*
X6667190Y6064285D02*
X6714809Y5969047D01*
D10*
X6667190Y6159524D02*
X6667190Y6064285D01*
D10*
X6619571Y5873809D02*
X6667190Y6159524D01*
D10*
X6667190Y5969047D02*
X6619571Y5873809D01*
D10*
X6714809Y5969047D02*
X6667190Y5969047D01*
D10*
X7952905Y5873809D02*
X8238619Y6873809D01*
D10*
X8000524Y5873809D02*
X8286238Y6873809D01*
D10*
X7810047Y6588095D02*
X7952905Y6873809D01*
D10*
X7905286Y6873809D02*
X7810047Y6588095D01*
D10*
X8619572Y6873809D02*
X7905286Y6873809D01*
D10*
X8571952Y6588095D02*
X8619572Y6873809D01*
D10*
X8571952Y6873809D02*
X8571952Y6588095D01*
D10*
X8143381Y5873809D02*
X7810047Y5873809D01*
D10*
X6461428Y11858571D02*
X6390000Y11930000D01*
D10*
X6390000Y11787143D02*
X6461428Y11858571D01*
D10*
X6318571Y11858571D02*
X6390000Y11787143D01*
D10*
X6318571Y11930000D02*
X6318571Y11858571D01*
D10*
X6390000Y12072857D02*
X6318571Y11930000D01*
D10*
X6461428Y12144286D02*
X6390000Y12072857D01*
D10*
X6675714Y12215714D02*
X6461428Y12144286D01*
D10*
X6890000Y12215714D02*
X6675714Y12215714D01*
D10*
X7104286Y12144286D02*
X6890000Y12215714D01*
D10*
X7175714Y12001429D02*
X7104286Y12144286D01*
D10*
X7175714Y11858571D02*
X7175714Y12001429D01*
D10*
X7104286Y11715714D02*
X7175714Y11858571D01*
D10*
X6961428Y11572857D02*
X7104286Y11715714D01*
D10*
X6747143Y11430000D02*
X6961428Y11572857D01*
D10*
X6461428Y11287143D02*
X6747143Y11430000D01*
D10*
X6247143Y11144286D02*
X6461428Y11287143D01*
D10*
X6104286Y11001429D02*
X6247143Y11144286D01*
D10*
X5961428Y10715714D02*
X6104286Y11001429D01*
D10*
X7032857Y12144286D02*
X6890000Y12215714D01*
D10*
X7104286Y12001429D02*
X7032857Y12144286D01*
D10*
X7104286Y11858571D02*
X7104286Y12001429D01*
D10*
X7032857Y11715714D02*
X7104286Y11858571D01*
D10*
X6890000Y11572857D02*
X7032857Y11715714D01*
D10*
X6461428Y11287143D02*
X6890000Y11572857D01*
D10*
X6104286Y10930000D02*
X6032857Y10858571D01*
D10*
X6247143Y10930000D02*
X6104286Y10930000D01*
D10*
X6604286Y10787143D02*
X6247143Y10930000D01*
D10*
X6818571Y10787143D02*
X6604286Y10787143D01*
D10*
X6961428Y10858571D02*
X6818571Y10787143D01*
D10*
X7032857Y11001429D02*
X6961428Y10858571D01*
D10*
X6604286Y10715714D02*
X6247143Y10930000D01*
D10*
X6818571Y10715714D02*
X6604286Y10715714D01*
D10*
X6961428Y10787143D02*
X6818571Y10715714D01*
D10*
X7032857Y11001429D02*
X6961428Y10787143D01*
D10*
X8032857Y12144286D02*
X8247143Y12215714D01*
D10*
X7890000Y12001429D02*
X8032857Y12144286D01*
D10*
X7747143Y11787143D02*
X7890000Y12001429D01*
D10*
X7675714Y11572857D02*
X7747143Y11787143D01*
D10*
X7604286Y11287143D02*
X7675714Y11572857D01*
D10*
X7604286Y11072857D02*
X7604286Y11287143D01*
D10*
X7675714Y10858571D02*
X7604286Y11072857D01*
D10*
X7747143Y10787143D02*
X7675714Y10858571D01*
D10*
X7890000Y10715714D02*
X7747143Y10787143D01*
D10*
X8032857Y10715714D02*
X7890000Y10715714D01*
D10*
X8247143Y10787143D02*
X8032857Y10715714D01*
D10*
X8390000Y10930000D02*
X8247143Y10787143D01*
D10*
X8532857Y11144286D02*
X8390000Y10930000D01*
D10*
X8604286Y11358571D02*
X8532857Y11144286D01*
D10*
X8675714Y11644286D02*
X8604286Y11358571D01*
D10*
X8675714Y11858571D02*
X8675714Y11644286D01*
D10*
X8604286Y12072857D02*
X8675714Y11858571D01*
D10*
X8532857Y12144286D02*
X8604286Y12072857D01*
D10*
X8390000Y12215714D02*
X8532857Y12144286D01*
D10*
X8247143Y12215714D02*
X8390000Y12215714D01*
D10*
X8104286Y12144286D02*
X8247143Y12215714D01*
D10*
X7961428Y12001429D02*
X8104286Y12144286D01*
D10*
X7818571Y11787143D02*
X7961428Y12001429D01*
D10*
X7747143Y11572857D02*
X7818571Y11787143D01*
D10*
X7675714Y11287143D02*
X7747143Y11572857D01*
D10*
X7675714Y11072857D02*
X7675714Y11287143D01*
D10*
X7747143Y10858571D02*
X7675714Y11072857D01*
D10*
X7890000Y10715714D02*
X7747143Y10858571D01*
D10*
X8175714Y10787143D02*
X8032857Y10715714D01*
D10*
X8318571Y10930000D02*
X8175714Y10787143D01*
D10*
X8461429Y11144286D02*
X8318571Y10930000D01*
D10*
X8532857Y11358571D02*
X8461429Y11144286D01*
D10*
X8604286Y11644286D02*
X8532857Y11358571D01*
D10*
X8604286Y11858571D02*
X8604286Y11644286D01*
D10*
X8532857Y12072857D02*
X8604286Y11858571D01*
D10*
X8390000Y12215714D02*
X8532857Y12072857D01*
D10*
X-4357143Y-5976190D02*
X-4071428Y-4976190D01*
D10*
X-4309524Y-5976190D02*
X-4023809Y-4976190D01*
D10*
X-3785714Y-4976190D02*
X-4214285Y-4976190D01*
D10*
X-3642857Y-5023809D02*
X-3785714Y-4976190D01*
D10*
X-3595238Y-5071428D02*
X-3642857Y-5023809D01*
D10*
X-3547619Y-5214285D02*
X-3595238Y-5071428D01*
D10*
X-3547619Y-5404762D02*
X-3547619Y-5214285D01*
D10*
X-3595238Y-5595238D02*
X-3547619Y-5404762D01*
D10*
X-3690476Y-5785714D02*
X-3595238Y-5595238D01*
D10*
X-3785714Y-5880952D02*
X-3690476Y-5785714D01*
D10*
X-3880952Y-5928571D02*
X-3785714Y-5880952D01*
D10*
X-4071428Y-5976190D02*
X-3880952Y-5928571D01*
D10*
X-4500000Y-5976190D02*
X-4071428Y-5976190D01*
D10*
X-3690476Y-5023809D02*
X-3785714Y-4976190D01*
D10*
X-3642857Y-5071428D02*
X-3690476Y-5023809D01*
D10*
X-3595238Y-5214285D02*
X-3642857Y-5071428D01*
D10*
X-3595238Y-5404762D02*
X-3595238Y-5214285D01*
D10*
X-3642857Y-5595238D02*
X-3595238Y-5404762D01*
D10*
X-3738095Y-5785714D02*
X-3642857Y-5595238D01*
D10*
X-3833333Y-5880952D02*
X-3738095Y-5785714D01*
D10*
X-3928571Y-5928571D02*
X-3833333Y-5880952D01*
D10*
X-4071428Y-5976190D02*
X-3928571Y-5928571D01*
D10*
X-3261904Y-5976190D02*
X-2976190Y-4976190D01*
D10*
X-3214285Y-5976190D02*
X-2928571Y-4976190D01*
D10*
X-2785714Y-4976190D02*
X-3119047Y-4976190D01*
D10*
X-3071428Y-5976190D02*
X-3404762Y-5976190D01*
D10*
X-2357143Y-5023809D02*
X-2214285Y-4976190D01*
D10*
X-2452381Y-5119047D02*
X-2357143Y-5023809D01*
D10*
X-2547619Y-5261905D02*
X-2452381Y-5119047D01*
D10*
X-2595238Y-5404762D02*
X-2547619Y-5261905D01*
D10*
X-2642857Y-5595238D02*
X-2595238Y-5404762D01*
D10*
X-2642857Y-5738095D02*
X-2642857Y-5595238D01*
D10*
X-2595238Y-5880952D02*
X-2642857Y-5738095D01*
D10*
X-2547619Y-5928571D02*
X-2595238Y-5880952D01*
D10*
X-2452381Y-5976190D02*
X-2547619Y-5928571D01*
D10*
X-2309523Y-5976190D02*
X-2452381Y-5976190D01*
D10*
X-2166666Y-5928571D02*
X-2309523Y-5976190D01*
D10*
X-2071428Y-5833333D02*
X-2166666Y-5928571D01*
D10*
X-1976190Y-5690476D02*
X-2071428Y-5833333D01*
D10*
X-1928571Y-5547619D02*
X-1976190Y-5690476D01*
D10*
X-1880952Y-5357143D02*
X-1928571Y-5547619D01*
D10*
X-1880952Y-5214285D02*
X-1880952Y-5357143D01*
D10*
X-1928571Y-5071428D02*
X-1880952Y-5214285D01*
D10*
X-1976190Y-5023809D02*
X-1928571Y-5071428D01*
D10*
X-2071428Y-4976190D02*
X-1976190Y-5023809D01*
D10*
X-2214285Y-4976190D02*
X-2071428Y-4976190D01*
D10*
X-2309523Y-5023809D02*
X-2214285Y-4976190D01*
D10*
X-2404762Y-5119047D02*
X-2309523Y-5023809D01*
D10*
X-2500000Y-5261905D02*
X-2404762Y-5119047D01*
D10*
X-2547619Y-5404762D02*
X-2500000Y-5261905D01*
D10*
X-2595238Y-5595238D02*
X-2547619Y-5404762D01*
D10*
X-2595238Y-5738095D02*
X-2595238Y-5595238D01*
D10*
X-2547619Y-5880952D02*
X-2595238Y-5738095D01*
D10*
X-2452381Y-5976190D02*
X-2547619Y-5880952D01*
D10*
X-2214285Y-5928571D02*
X-2309523Y-5976190D01*
D10*
X-2119047Y-5833333D02*
X-2214285Y-5928571D01*
D10*
X-2023809Y-5690476D02*
X-2119047Y-5833333D01*
D10*
X-1976190Y-5547619D02*
X-2023809Y-5690476D01*
D10*
X-1928571Y-5357143D02*
X-1976190Y-5547619D01*
D10*
X-1928571Y-5214285D02*
X-1928571Y-5357143D01*
D10*
X-1976190Y-5071428D02*
X-1928571Y-5214285D01*
D10*
X-2071428Y-4976190D02*
X-1976190Y-5071428D01*
D10*
X-4357143Y-4476190D02*
X-4071428Y-3476190D01*
D10*
X-3738095Y-4333333D02*
X-4071428Y-3476190D01*
D10*
X-3738095Y-4476190D02*
X-4071428Y-3619047D01*
D10*
X-3738095Y-4476190D02*
X-3452381Y-3476190D01*
D10*
X-4071428Y-3476190D02*
X-4214285Y-3476190D01*
D10*
X-3309524Y-3476190D02*
X-3595238Y-3476190D01*
D10*
X-4214285Y-4476190D02*
X-4500000Y-4476190D01*
D10*
X-3166666Y-4476190D02*
X-2880952Y-3476190D01*
D10*
X-3119047Y-4476190D02*
X-2833333Y-3476190D01*
D10*
X-2500000Y-3476190D02*
X-3023809Y-3476190D01*
D10*
X-2357143Y-3523809D02*
X-2500000Y-3476190D01*
D10*
X-2309523Y-3619047D02*
X-2357143Y-3523809D01*
D10*
X-2309523Y-3714285D02*
X-2309523Y-3619047D01*
D10*
X-2357143Y-3857142D02*
X-2309523Y-3714285D01*
D10*
X-2404762Y-3904762D02*
X-2357143Y-3857142D01*
D10*
X-2547619Y-3952381D02*
X-2404762Y-3904762D01*
D10*
X-2976190Y-3952381D02*
X-2547619Y-3952381D01*
D10*
X-2404762Y-3523809D02*
X-2500000Y-3476190D01*
D10*
X-2357143Y-3619047D02*
X-2404762Y-3523809D01*
D10*
X-2357143Y-3714285D02*
X-2357143Y-3619047D01*
D10*
X-2404762Y-3857142D02*
X-2357143Y-3714285D01*
D10*
X-2452381Y-3904762D02*
X-2404762Y-3857142D01*
D10*
X-2547619Y-3952381D02*
X-2452381Y-3904762D01*
D10*
X-2642857Y-4000000D02*
X-2738095Y-3952381D01*
D10*
X-2595238Y-4047619D02*
X-2642857Y-4000000D01*
D10*
X-2547619Y-4428571D02*
X-2595238Y-4047619D01*
D10*
X-2500000Y-4476190D02*
X-2547619Y-4428571D01*
D10*
X-2404762Y-4476190D02*
X-2500000Y-4476190D01*
D10*
X-2357143Y-4380952D02*
X-2404762Y-4476190D01*
D10*
X-2357143Y-4333333D02*
X-2357143Y-4380952D01*
D10*
X-2500000Y-4380952D02*
X-2595238Y-4047619D01*
D10*
X-2452381Y-4428571D02*
X-2500000Y-4380952D01*
D10*
X-2404762Y-4428571D02*
X-2452381Y-4428571D01*
D10*
X-2357143Y-4380952D02*
X-2404762Y-4428571D01*
D10*
X-2976190Y-4476190D02*
X-3309524Y-4476190D01*
D10*
X-1214285Y-3571428D02*
X-1261904Y-3571428D01*
D10*
X-1166666Y-3476190D02*
X-1214285Y-3571428D01*
D10*
X-1214285Y-3761904D02*
X-1166666Y-3476190D01*
D10*
X-1214285Y-3666666D02*
X-1214285Y-3761904D01*
D10*
X-1261904Y-3571428D02*
X-1214285Y-3666666D01*
D10*
X-1309523Y-3523809D02*
X-1261904Y-3571428D01*
D10*
X-1452381Y-3476190D02*
X-1309523Y-3523809D01*
D10*
X-1642857Y-3476190D02*
X-1452381Y-3476190D01*
D10*
X-1785714Y-3523809D02*
X-1642857Y-3476190D01*
D10*
X-1880952Y-3619047D02*
X-1785714Y-3523809D01*
D10*
X-1880952Y-3714285D02*
X-1880952Y-3619047D01*
D10*
X-1833333Y-3809523D02*
X-1880952Y-3714285D01*
D10*
X-1785714Y-3857142D02*
X-1833333Y-3809523D01*
D10*
X-1452381Y-4047619D02*
X-1785714Y-3857142D01*
D10*
X-1357143Y-4142857D02*
X-1452381Y-4047619D01*
D10*
X-1785714Y-3809523D02*
X-1880952Y-3714285D01*
D10*
X-1452381Y-4000000D02*
X-1785714Y-3809523D01*
D10*
X-1404762Y-4047619D02*
X-1452381Y-4000000D01*
D10*
X-1357143Y-4142857D02*
X-1404762Y-4047619D01*
D10*
X-1357143Y-4285714D02*
X-1357143Y-4142857D01*
D10*
X-1404762Y-4380952D02*
X-1357143Y-4285714D01*
D10*
X-1452381Y-4428571D02*
X-1404762Y-4380952D01*
D10*
X-1595238Y-4476190D02*
X-1452381Y-4428571D01*
D10*
X-1785714Y-4476190D02*
X-1595238Y-4476190D01*
D10*
X-1928571Y-4428571D02*
X-1785714Y-4476190D01*
D10*
X-1976190Y-4380952D02*
X-1928571Y-4428571D01*
D10*
X-2023809Y-4285714D02*
X-1976190Y-4380952D01*
D10*
X-2023809Y-4190476D02*
X-2023809Y-4285714D01*
D10*
X-2071428Y-4476190D02*
X-2023809Y-4190476D01*
D10*
X-2023809Y-4380952D02*
X-2071428Y-4476190D01*
D10*
X-1976190Y-4380952D02*
X-2023809Y-4380952D01*
D10*
X-738095Y-4476190D02*
X-452381Y-3476190D01*
D10*
X-690476Y-4476190D02*
X-404762Y-3476190D01*
D10*
X-880952Y-3761904D02*
X-738095Y-3476190D01*
D10*
X-785714Y-3476190D02*
X-880952Y-3761904D01*
D10*
X-71428Y-3476190D02*
X-785714Y-3476190D01*
D10*
X-119047Y-3761904D02*
X-71428Y-3476190D01*
D10*
X-119047Y-3476190D02*
X-119047Y-3761904D01*
D10*
X-547619Y-4476190D02*
X-880952Y-4476190D01*
D10*
X14470000Y-12144286D02*
X14827143Y-10930000D01*
D10*
X14541429Y-12144286D02*
X14970000Y-10644286D01*
D10*
X14755714Y-10858571D02*
X14970000Y-10644286D01*
D10*
X14541429Y-11001429D02*
X14755714Y-10858571D01*
D10*
X14398571Y-11072857D02*
X14541429Y-11001429D01*
D10*
X14612857Y-11001429D02*
X14898571Y-10858571D01*
D10*
X14398571Y-11072857D02*
X14612857Y-11001429D01*
D10*
X-3595238Y4428571D02*
X-3642857Y4428571D01*
D10*
X-3547619Y4523809D02*
X-3595238Y4428571D01*
D10*
X-3595238Y4238095D02*
X-3547619Y4523809D01*
D10*
X-3595238Y4333333D02*
X-3595238Y4238095D01*
D10*
X-3642857Y4428571D02*
X-3595238Y4333333D01*
D10*
X-3690476Y4476190D02*
X-3642857Y4428571D01*
D10*
X-3785714Y4523809D02*
X-3690476Y4476190D01*
D10*
X-3928571Y4523809D02*
X-3785714Y4523809D01*
D10*
X-4071428Y4476190D02*
X-3928571Y4523809D01*
D10*
X-4166666Y4380952D02*
X-4071428Y4476190D01*
D10*
X-4261905Y4238095D02*
X-4166666Y4380952D01*
D10*
X-4309524Y4095238D02*
X-4261905Y4238095D01*
D10*
X-4357143Y3904762D02*
X-4309524Y4095238D01*
D10*
X-4357143Y3761904D02*
X-4357143Y3904762D01*
D10*
X-4309524Y3619047D02*
X-4357143Y3761904D01*
D10*
X-4261905Y3571428D02*
X-4309524Y3619047D01*
D10*
X-4119047Y3523809D02*
X-4261905Y3571428D01*
D10*
X-4023809Y3523809D02*
X-4119047Y3523809D01*
D10*
X-3880952Y3571428D02*
X-4023809Y3523809D01*
D10*
X-3785714Y3666666D02*
X-3880952Y3571428D01*
D10*
X-3690476Y3857142D02*
X-3785714Y3666666D01*
D10*
X-4023809Y4476190D02*
X-3928571Y4523809D01*
D10*
X-4119047Y4380952D02*
X-4023809Y4476190D01*
D10*
X-4214285Y4238095D02*
X-4119047Y4380952D01*
D10*
X-4261905Y4095238D02*
X-4214285Y4238095D01*
D10*
X-4309524Y3904762D02*
X-4261905Y4095238D01*
D10*
X-4309524Y3761904D02*
X-4309524Y3904762D01*
D10*
X-4261905Y3619047D02*
X-4309524Y3761904D01*
D10*
X-4214285Y3571428D02*
X-4261905Y3619047D01*
D10*
X-4119047Y3523809D02*
X-4214285Y3571428D01*
D10*
X-3928571Y3571428D02*
X-4023809Y3523809D01*
D10*
X-3833333Y3666666D02*
X-3928571Y3571428D01*
D10*
X-3738095Y3857142D02*
X-3833333Y3666666D01*
D10*
X-3547619Y3857142D02*
X-3880952Y3857142D01*
D10*
X-3309524Y3523809D02*
X-3023809Y4523809D01*
D10*
X-2690476Y3666666D02*
X-3023809Y4523809D01*
D10*
X-2690476Y3523809D02*
X-3023809Y4380952D01*
D10*
X-2690476Y3523809D02*
X-2404762Y4523809D01*
D10*
X-3023809Y4523809D02*
X-3166666Y4523809D01*
D10*
X-2261904Y4523809D02*
X-2547619Y4523809D01*
D10*
X-3166666Y3523809D02*
X-3452381Y3523809D01*
D10*
X-2119047Y3523809D02*
X-1833333Y4523809D01*
D10*
X-2071428Y3523809D02*
X-1785714Y4523809D01*
D10*
X-1547619Y4523809D02*
X-1976190Y4523809D01*
D10*
X-1404762Y4476190D02*
X-1547619Y4523809D01*
D10*
X-1357143Y4428571D02*
X-1404762Y4476190D01*
D10*
X-1309523Y4285714D02*
X-1357143Y4428571D01*
D10*
X-1309523Y4095238D02*
X-1309523Y4285714D01*
D10*
X-1357143Y3904762D02*
X-1309523Y4095238D01*
D10*
X-1452381Y3714285D02*
X-1357143Y3904762D01*
D10*
X-1547619Y3619047D02*
X-1452381Y3714285D01*
D10*
X-1642857Y3571428D02*
X-1547619Y3619047D01*
D10*
X-1833333Y3523809D02*
X-1642857Y3571428D01*
D10*
X-2261904Y3523809D02*
X-1833333Y3523809D01*
D10*
X-1452381Y4476190D02*
X-1547619Y4523809D01*
D10*
X-1404762Y4428571D02*
X-1452381Y4476190D01*
D10*
X-1357143Y4285714D02*
X-1404762Y4428571D01*
D10*
X-1357143Y4095238D02*
X-1357143Y4285714D01*
D10*
X-1404762Y3904762D02*
X-1357143Y4095238D01*
D10*
X-1500000Y3714285D02*
X-1404762Y3904762D01*
D10*
X-1595238Y3619047D02*
X-1500000Y3714285D01*
D10*
X-1690476Y3571428D02*
X-1595238Y3619047D01*
D10*
X-1833333Y3523809D02*
X-1690476Y3571428D01*
D11*
X-2059523Y-10559524D02*
X-2154762Y-10750000D01*
D11*
X-1869047Y-10369048D02*
X-2059523Y-10559524D01*
D11*
X-1583333Y-10369048D02*
X-1869047Y-10369048D01*
D11*
X-1488095Y-10464286D02*
X-1583333Y-10369048D01*
D11*
X-1488095Y-10654762D02*
X-1488095Y-10464286D01*
D11*
X-1583333Y-11035714D02*
X-1488095Y-10654762D01*
D11*
X-1773809Y-11702381D02*
X-1583333Y-11035714D01*
D11*
X-1583333Y-10464286D02*
X-1678571Y-10369048D01*
D11*
X-1583333Y-10654762D02*
X-1583333Y-10464286D01*
D11*
X-1678571Y-11035714D02*
X-1583333Y-10654762D01*
D11*
X-1869047Y-11702381D02*
X-1678571Y-11035714D01*
D11*
X-1392857Y-10654762D02*
X-1583333Y-11035714D01*
D11*
X-1202381Y-10464286D02*
X-1392857Y-10654762D01*
D11*
X-1011904Y-10369048D02*
X-1202381Y-10464286D01*
D11*
X-821428Y-10369048D02*
X-1011904Y-10369048D01*
D11*
X-726190Y-10464286D02*
X-821428Y-10369048D01*
D11*
X-726190Y-10559524D02*
X-726190Y-10464286D01*
D11*
X-821428Y-10654762D02*
X-726190Y-10559524D01*
D11*
X-916666Y-10559524D02*
X-821428Y-10654762D01*
D11*
X-821428Y-10464286D02*
X-916666Y-10559524D01*
D11*
X130952Y-11130952D02*
X-250000Y-11226190D01*
D11*
X416666Y-11035714D02*
X130952Y-11130952D01*
D11*
X702381Y-10845238D02*
X416666Y-11035714D01*
D11*
X797619Y-10654762D02*
X702381Y-10845238D01*
D11*
X702381Y-10464286D02*
X797619Y-10654762D01*
D11*
X511904Y-10369048D02*
X702381Y-10464286D01*
D11*
X226190Y-10369048D02*
X511904Y-10369048D01*
D11*
X-59523Y-10464286D02*
X226190Y-10369048D01*
D11*
X-250000Y-10750000D02*
X-59523Y-10464286D01*
D11*
X-345238Y-11035714D02*
X-250000Y-10750000D01*
D11*
X-345238Y-11321429D02*
X-345238Y-11035714D01*
D11*
X-250000Y-11511905D02*
X-345238Y-11321429D01*
D11*
X-154762Y-11607143D02*
X-250000Y-11511905D01*
D11*
X35714Y-11702381D02*
X-154762Y-11607143D01*
D11*
X226190Y-11702381D02*
X35714Y-11702381D01*
D11*
X511904Y-11607143D02*
X226190Y-11702381D01*
D11*
X702381Y-11416667D02*
X511904Y-11607143D01*
D11*
X35714Y-10464286D02*
X226190Y-10369048D01*
D11*
X-154762Y-10750000D02*
X35714Y-10464286D01*
D11*
X-250000Y-11035714D02*
X-154762Y-10750000D01*
D11*
X-250000Y-11416667D02*
X-250000Y-11035714D01*
D11*
X-154762Y-11607143D02*
X-250000Y-11416667D01*
D11*
X1273809Y-10559524D02*
X1178571Y-10750000D01*
D11*
X1464285Y-10369048D02*
X1273809Y-10559524D01*
D11*
X1750000Y-10369048D02*
X1464285Y-10369048D01*
D11*
X1845238Y-10464286D02*
X1750000Y-10369048D01*
D11*
X1845238Y-10750000D02*
X1845238Y-10464286D01*
D11*
X1654761Y-11321429D02*
X1845238Y-10750000D01*
D11*
X1654761Y-11511905D02*
X1654761Y-11321429D01*
D11*
X1845238Y-11702381D02*
X1654761Y-11511905D01*
D11*
X1750000Y-10464286D02*
X1654761Y-10369048D01*
D11*
X1750000Y-10750000D02*
X1750000Y-10464286D01*
D11*
X1559523Y-11321429D02*
X1750000Y-10750000D01*
D11*
X1559523Y-11511905D02*
X1559523Y-11321429D01*
D11*
X1654761Y-11607143D02*
X1559523Y-11511905D01*
D11*
X1845238Y-11702381D02*
X1654761Y-11607143D01*
D11*
X1940476Y-11702381D02*
X1845238Y-11702381D01*
D11*
X2226190Y-11607143D02*
X1940476Y-11702381D01*
D11*
X2416666Y-11416667D02*
X2226190Y-11607143D01*
D11*
X2607143Y-11130952D02*
X2416666Y-11416667D01*
D11*
X2702381Y-10750000D02*
X2607143Y-11130952D01*
D11*
X2702381Y-10369048D02*
X2702381Y-10750000D01*
D11*
X2607143Y-10369048D02*
X2702381Y-10369048D01*
D11*
X2702381Y-10559524D02*
X2607143Y-10369048D01*
D11*
X4511904Y-10178571D02*
X4416666Y-10083333D01*
D11*
X4416666Y-10273810D02*
X4511904Y-10178571D01*
D11*
X4321428Y-10178571D02*
X4416666Y-10273810D01*
D11*
X4321428Y-10083333D02*
X4321428Y-10178571D01*
D11*
X4416666Y-9892857D02*
X4321428Y-10083333D01*
D11*
X4511904Y-9797619D02*
X4416666Y-9892857D01*
D11*
X4797619Y-9702381D02*
X4511904Y-9797619D01*
D11*
X5083333Y-9702381D02*
X4797619Y-9702381D01*
D11*
X5369047Y-9797619D02*
X5083333Y-9702381D01*
D11*
X5464285Y-9988095D02*
X5369047Y-9797619D01*
D11*
X5464285Y-10178571D02*
X5464285Y-9988095D01*
D11*
X5369047Y-10369048D02*
X5464285Y-10178571D01*
D11*
X5178571Y-10559524D02*
X5369047Y-10369048D01*
D11*
X4892857Y-10750000D02*
X5178571Y-10559524D01*
D11*
X4511904Y-10940476D02*
X4892857Y-10750000D01*
D11*
X4226190Y-11130952D02*
X4511904Y-10940476D01*
D11*
X4035714Y-11321429D02*
X4226190Y-11130952D01*
D11*
X3845238Y-11702381D02*
X4035714Y-11321429D01*
D11*
X5273809Y-9797619D02*
X5083333Y-9702381D01*
D11*
X5369047Y-9988095D02*
X5273809Y-9797619D01*
D11*
X5369047Y-10178571D02*
X5369047Y-9988095D01*
D11*
X5273809Y-10369048D02*
X5369047Y-10178571D01*
D11*
X5083333Y-10559524D02*
X5273809Y-10369048D01*
D11*
X4511904Y-10940476D02*
X5083333Y-10559524D01*
D11*
X4035714Y-11416667D02*
X3940476Y-11511905D01*
D11*
X4226190Y-11416667D02*
X4035714Y-11416667D01*
D11*
X4702381Y-11607143D02*
X4226190Y-11416667D01*
D11*
X4988095Y-11607143D02*
X4702381Y-11607143D01*
D11*
X5178571Y-11511905D02*
X4988095Y-11607143D01*
D11*
X5273809Y-11321429D02*
X5178571Y-11511905D01*
D11*
X4702381Y-11702381D02*
X4226190Y-11416667D01*
D11*
X4988095Y-11702381D02*
X4702381Y-11702381D01*
D11*
X5178571Y-11607143D02*
X4988095Y-11702381D01*
D11*
X5273809Y-11321429D02*
X5178571Y-11607143D01*
D10*
X5143381Y4238571D02*
X5095762Y4238571D01*
D10*
X5191000Y4333809D02*
X5143381Y4238571D01*
D10*
X5143381Y4048095D02*
X5191000Y4333809D01*
D10*
X5143381Y4143333D02*
X5143381Y4048095D01*
D10*
X5095762Y4238571D02*
X5143381Y4143333D01*
D10*
X5048143Y4286190D02*
X5095762Y4238571D01*
D10*
X4905285Y4333809D02*
X5048143Y4286190D01*
D10*
X4714809Y4333809D02*
X4905285Y4333809D01*
D10*
X4571952Y4286190D02*
X4714809Y4333809D01*
D10*
X4476714Y4190952D02*
X4571952Y4286190D01*
D10*
X4476714Y4095714D02*
X4476714Y4190952D01*
D10*
X4524333Y4000476D02*
X4476714Y4095714D01*
D10*
X4571952Y3952857D02*
X4524333Y4000476D01*
D10*
X4905285Y3762381D02*
X4571952Y3952857D01*
D10*
X5000524Y3667142D02*
X4905285Y3762381D01*
D10*
X4571952Y4000476D02*
X4476714Y4095714D01*
D10*
X4905285Y3810000D02*
X4571952Y4000476D01*
D10*
X4952905Y3762381D02*
X4905285Y3810000D01*
D10*
X5000524Y3667142D02*
X4952905Y3762381D01*
D10*
X5000524Y3524285D02*
X5000524Y3667142D01*
D10*
X4952905Y3429047D02*
X5000524Y3524285D01*
D10*
X4905285Y3381428D02*
X4952905Y3429047D01*
D10*
X4762428Y3333809D02*
X4905285Y3381428D01*
D10*
X4571952Y3333809D02*
X4762428Y3333809D01*
D10*
X4429095Y3381428D02*
X4571952Y3333809D01*
D10*
X4381476Y3429047D02*
X4429095Y3381428D01*
D10*
X4333857Y3524285D02*
X4381476Y3429047D01*
D10*
X4333857Y3619523D02*
X4333857Y3524285D01*
D10*
X4286238Y3333809D02*
X4333857Y3619523D01*
D10*
X4333857Y3429047D02*
X4286238Y3333809D01*
D10*
X4381476Y3429047D02*
X4333857Y3429047D01*
D10*
X5571952Y3333809D02*
X5667190Y4333809D01*
D10*
X5619571Y3429047D02*
X5714809Y4333809D01*
D10*
X5571952Y3333809D02*
X6048143Y4333809D01*
D10*
X5952905Y3333809D02*
X6048143Y4333809D01*
D10*
X6000524Y3429047D02*
X6095762Y4333809D01*
D10*
X5952905Y3333809D02*
X6429095Y4333809D01*
D10*
X5857666Y4333809D02*
X5524333Y4333809D01*
D10*
X6571952Y4333809D02*
X6286238Y4333809D01*
D10*
X6952905Y4286190D02*
X7095762Y4333809D01*
D10*
X6857666Y4190952D02*
X6952905Y4286190D01*
D10*
X6762428Y4048095D02*
X6857666Y4190952D01*
D10*
X6714809Y3905238D02*
X6762428Y4048095D01*
D10*
X6667190Y3714762D02*
X6714809Y3905238D01*
D10*
X6667190Y3571904D02*
X6667190Y3714762D01*
D10*
X6714809Y3429047D02*
X6667190Y3571904D01*
D10*
X6762428Y3381428D02*
X6714809Y3429047D01*
D10*
X6857666Y3333809D02*
X6762428Y3381428D01*
D10*
X7000524Y3333809D02*
X6857666Y3333809D01*
D10*
X7143381Y3381428D02*
X7000524Y3333809D01*
D10*
X7238619Y3476666D02*
X7143381Y3381428D01*
D10*
X7333857Y3619523D02*
X7238619Y3476666D01*
D10*
X7381476Y3762381D02*
X7333857Y3619523D01*
D10*
X7429095Y3952857D02*
X7381476Y3762381D01*
D10*
X7429095Y4095714D02*
X7429095Y3952857D01*
D10*
X7381476Y4238571D02*
X7429095Y4095714D01*
D10*
X7333857Y4286190D02*
X7381476Y4238571D01*
D10*
X7238619Y4333809D02*
X7333857Y4286190D01*
D10*
X7095762Y4333809D02*
X7238619Y4333809D01*
D10*
X7000524Y4286190D02*
X7095762Y4333809D01*
D10*
X6905286Y4190952D02*
X7000524Y4286190D01*
D10*
X6810047Y4048095D02*
X6905286Y4190952D01*
D10*
X6762428Y3905238D02*
X6810047Y4048095D01*
D10*
X6714809Y3714762D02*
X6762428Y3905238D01*
D10*
X6714809Y3571904D02*
X6714809Y3714762D01*
D10*
X6762428Y3429047D02*
X6714809Y3571904D01*
D10*
X6857666Y3333809D02*
X6762428Y3429047D01*
D10*
X7095762Y3381428D02*
X7000524Y3333809D01*
D10*
X7191000Y3476666D02*
X7095762Y3381428D01*
D10*
X7286238Y3619523D02*
X7191000Y3476666D01*
D10*
X7333857Y3762381D02*
X7286238Y3619523D01*
D10*
X7381476Y3952857D02*
X7333857Y3762381D01*
D10*
X7381476Y4095714D02*
X7381476Y3952857D01*
D10*
X7333857Y4238571D02*
X7381476Y4095714D01*
D10*
X7238619Y4333809D02*
X7333857Y4238571D01*
D10*
X-7223809Y3514285D02*
X-6985714Y4323809D01*
D10*
X-7271428Y3419047D02*
X-7223809Y3514285D01*
D10*
X-7319047Y3371428D02*
X-7271428Y3419047D01*
D10*
X-7414285Y3323809D02*
X-7319047Y3371428D01*
D10*
X-7509524Y3323809D02*
X-7414285Y3323809D01*
D10*
X-7604762Y3371428D02*
X-7509524Y3323809D01*
D10*
X-7652381Y3466666D02*
X-7604762Y3371428D01*
D10*
X-7652381Y3561904D02*
X-7652381Y3466666D01*
D10*
X-7604762Y3609523D02*
X-7652381Y3561904D01*
D10*
X-7557143Y3561904D02*
X-7604762Y3609523D01*
D10*
X-7604762Y3514285D02*
X-7557143Y3561904D01*
D10*
X-7271428Y3514285D02*
X-7033333Y4323809D01*
D10*
X-7319047Y3419047D02*
X-7271428Y3514285D01*
D10*
X-7414285Y3323809D02*
X-7319047Y3419047D01*
D10*
X-6842857Y4323809D02*
X-7176190Y4323809D01*
D10*
X-6461905Y4085714D02*
X-6509524Y4133333D01*
D10*
X-6509524Y4038095D02*
X-6461905Y4085714D01*
D10*
X-6557143Y4085714D02*
X-6509524Y4038095D01*
D10*
X-6557143Y4133333D02*
X-6557143Y4085714D01*
D10*
X-6509524Y4228571D02*
X-6557143Y4133333D01*
D10*
X-6461905Y4276190D02*
X-6509524Y4228571D01*
D10*
X-6319047Y4323809D02*
X-6461905Y4276190D01*
D10*
X-6176190Y4323809D02*
X-6319047Y4323809D01*
D10*
X-6033333Y4276190D02*
X-6176190Y4323809D01*
D10*
X-5985714Y4180952D02*
X-6033333Y4276190D01*
D10*
X-5985714Y4085714D02*
X-5985714Y4180952D01*
D10*
X-6033333Y3990476D02*
X-5985714Y4085714D01*
D10*
X-6128571Y3895238D02*
X-6033333Y3990476D01*
D10*
X-6271428Y3800000D02*
X-6128571Y3895238D01*
D10*
X-6461905Y3704762D02*
X-6271428Y3800000D01*
D10*
X-6604762Y3609523D02*
X-6461905Y3704762D01*
D10*
X-6700000Y3514285D02*
X-6604762Y3609523D01*
D10*
X-6795238Y3323809D02*
X-6700000Y3514285D01*
D10*
X-6080952Y4276190D02*
X-6176190Y4323809D01*
D10*
X-6033333Y4180952D02*
X-6080952Y4276190D01*
D10*
X-6033333Y4085714D02*
X-6033333Y4180952D01*
D10*
X-6080952Y3990476D02*
X-6033333Y4085714D01*
D10*
X-6176190Y3895238D02*
X-6080952Y3990476D01*
D10*
X-6461905Y3704762D02*
X-6176190Y3895238D01*
D10*
X-6700000Y3466666D02*
X-6747619Y3419047D01*
D10*
X-6604762Y3466666D02*
X-6700000Y3466666D01*
D10*
X-6366667Y3371428D02*
X-6604762Y3466666D01*
D10*
X-6223809Y3371428D02*
X-6366667Y3371428D01*
D10*
X-6128571Y3419047D02*
X-6223809Y3371428D01*
D10*
X-6080952Y3514285D02*
X-6128571Y3419047D01*
D10*
X-6366667Y3323809D02*
X-6604762Y3466666D01*
D10*
X-6223809Y3323809D02*
X-6366667Y3323809D01*
D10*
X-6128571Y3371428D02*
X-6223809Y3323809D01*
D10*
X-6080952Y3514285D02*
X-6128571Y3371428D01*
D10*
X4524333Y-6826190D02*
X4476714Y-5826190D01*
D10*
X4571952Y-6730952D02*
X4524333Y-5826190D01*
D10*
X4524333Y-6826190D02*
X5143381Y-5826190D01*
D10*
X4667190Y-5826190D02*
X4381476Y-5826190D01*
D10*
X5238619Y-5826190D02*
X4952905Y-5826190D01*
D10*
X5286238Y-6826190D02*
X5571952Y-5826190D01*
D10*
X5333857Y-6826190D02*
X5619571Y-5826190D01*
D10*
X5857666Y-5826190D02*
X5429095Y-5826190D01*
D10*
X6000524Y-5873809D02*
X5857666Y-5826190D01*
D10*
X6048143Y-5921428D02*
X6000524Y-5873809D01*
D10*
X6095762Y-6064285D02*
X6048143Y-5921428D01*
D10*
X6095762Y-6254762D02*
X6095762Y-6064285D01*
D10*
X6048143Y-6445238D02*
X6095762Y-6254762D01*
D10*
X5952905Y-6635714D02*
X6048143Y-6445238D01*
D10*
X5857666Y-6730952D02*
X5952905Y-6635714D01*
D10*
X5762428Y-6778571D02*
X5857666Y-6730952D01*
D10*
X5571952Y-6826190D02*
X5762428Y-6778571D01*
D10*
X5143381Y-6826190D02*
X5571952Y-6826190D01*
D10*
X5952905Y-5873809D02*
X5857666Y-5826190D01*
D10*
X6000524Y-5921428D02*
X5952905Y-5873809D01*
D10*
X6048143Y-6064285D02*
X6000524Y-5921428D01*
D10*
X6048143Y-6254762D02*
X6048143Y-6064285D01*
D10*
X6000524Y-6445238D02*
X6048143Y-6254762D01*
D10*
X5905286Y-6635714D02*
X6000524Y-6445238D01*
D10*
X5810047Y-6730952D02*
X5905286Y-6635714D01*
D10*
X5714809Y-6778571D02*
X5810047Y-6730952D01*
D10*
X5571952Y-6826190D02*
X5714809Y-6778571D01*
D10*
X6381476Y-6826190D02*
X6667190Y-5826190D01*
D10*
X6429095Y-6826190D02*
X6714809Y-5826190D01*
D10*
X6952905Y-5826190D02*
X6524333Y-5826190D01*
D10*
X7095762Y-5873809D02*
X6952905Y-5826190D01*
D10*
X7143381Y-5921428D02*
X7095762Y-5873809D01*
D10*
X7191000Y-6064285D02*
X7143381Y-5921428D01*
D10*
X7191000Y-6254762D02*
X7191000Y-6064285D01*
D10*
X7143381Y-6445238D02*
X7191000Y-6254762D01*
D10*
X7048143Y-6635714D02*
X7143381Y-6445238D01*
D10*
X6952905Y-6730952D02*
X7048143Y-6635714D01*
D10*
X6857666Y-6778571D02*
X6952905Y-6730952D01*
D10*
X6667190Y-6826190D02*
X6857666Y-6778571D01*
D10*
X6238619Y-6826190D02*
X6667190Y-6826190D01*
D10*
X7048143Y-5873809D02*
X6952905Y-5826190D01*
D10*
X7095762Y-5921428D02*
X7048143Y-5873809D01*
D10*
X7143381Y-6064285D02*
X7095762Y-5921428D01*
D10*
X7143381Y-6254762D02*
X7143381Y-6064285D01*
D10*
X7095762Y-6445238D02*
X7143381Y-6254762D01*
D10*
X7000524Y-6635714D02*
X7095762Y-6445238D01*
D10*
X6905286Y-6730952D02*
X7000524Y-6635714D01*
D10*
X6810047Y-6778571D02*
X6905286Y-6730952D01*
D10*
X6667190Y-6826190D02*
X6810047Y-6778571D01*
D10*
X-3595238Y-6571428D02*
X-3642857Y-6571428D01*
D10*
X-3547619Y-6476190D02*
X-3595238Y-6571428D01*
D10*
X-3595238Y-6761905D02*
X-3547619Y-6476190D01*
D10*
X-3595238Y-6666666D02*
X-3595238Y-6761905D01*
D10*
X-3642857Y-6571428D02*
X-3595238Y-6666666D01*
D10*
X-3690476Y-6523809D02*
X-3642857Y-6571428D01*
D10*
X-3785714Y-6476190D02*
X-3690476Y-6523809D01*
D10*
X-3928571Y-6476190D02*
X-3785714Y-6476190D01*
D10*
X-4071428Y-6523809D02*
X-3928571Y-6476190D01*
D10*
X-4166666Y-6619047D02*
X-4071428Y-6523809D01*
D10*
X-4261905Y-6761905D02*
X-4166666Y-6619047D01*
D10*
X-4309524Y-6904762D02*
X-4261905Y-6761905D01*
D10*
X-4357143Y-7095238D02*
X-4309524Y-6904762D01*
D10*
X-4357143Y-7238095D02*
X-4357143Y-7095238D01*
D10*
X-4309524Y-7380952D02*
X-4357143Y-7238095D01*
D10*
X-4261905Y-7428571D02*
X-4309524Y-7380952D01*
D10*
X-4119047Y-7476190D02*
X-4261905Y-7428571D01*
D10*
X-3976190Y-7476190D02*
X-4119047Y-7476190D01*
D10*
X-3880952Y-7428571D02*
X-3976190Y-7476190D01*
D10*
X-3785714Y-7333333D02*
X-3880952Y-7428571D01*
D10*
X-3738095Y-7238095D02*
X-3785714Y-7333333D01*
D10*
X-4023809Y-6523809D02*
X-3928571Y-6476190D01*
D10*
X-4119047Y-6619047D02*
X-4023809Y-6523809D01*
D10*
X-4214285Y-6761905D02*
X-4119047Y-6619047D01*
D10*
X-4261905Y-6904762D02*
X-4214285Y-6761905D01*
D10*
X-4309524Y-7095238D02*
X-4261905Y-6904762D01*
D10*
X-4309524Y-7238095D02*
X-4309524Y-7095238D01*
D10*
X-4261905Y-7380952D02*
X-4309524Y-7238095D01*
D10*
X-4214285Y-7428571D02*
X-4261905Y-7380952D01*
D10*
X-4119047Y-7476190D02*
X-4214285Y-7428571D01*
D10*
X-3357143Y-7476190D02*
X-3071428Y-6476190D01*
D10*
X-3309524Y-7476190D02*
X-3023809Y-6476190D01*
D10*
X-2880952Y-6476190D02*
X-3214285Y-6476190D01*
D10*
X-2785714Y-7476190D02*
X-3500000Y-7476190D01*
D10*
X-2690476Y-7190476D02*
X-2785714Y-7476190D01*
D10*
X-2833333Y-7476190D02*
X-2690476Y-7190476D01*
D10*
X-2404762Y-7476190D02*
X-2119047Y-6476190D01*
D10*
X-2357143Y-7476190D02*
X-2071428Y-6476190D01*
D10*
X-2261904Y-7095238D02*
X-1452381Y-6476190D01*
D10*
X-1738095Y-7476190D02*
X-1928571Y-6904762D01*
D10*
X-1785714Y-7476190D02*
X-1976190Y-6904762D01*
D10*
X-1928571Y-6476190D02*
X-2261904Y-6476190D01*
D10*
X-1357143Y-6476190D02*
X-1642857Y-6476190D01*
D10*
X-2214285Y-7476190D02*
X-2547619Y-7476190D01*
D10*
X-1642857Y-7476190D02*
X-1928571Y-7476190D01*
D10*
X-5700000Y-2795000D02*
X-4800000Y-2795000D01*
D10*
X-7700000Y2800000D02*
X-7700000Y2000000D01*
D10*
X-4800000Y-2795000D02*
X-4800000Y-1695000D01*
D10*
X-4800000Y2800000D02*
X-4800000Y1700000D01*
D10*
X-5700000Y2800000D02*
X-4800000Y2800000D01*
D10*
X-7700000Y-2800000D02*
X-7700000Y-2000000D01*
D10*
X-4800000Y1700000D02*
X-4300000Y1700000D01*
D10*
X-6900000Y2800000D02*
X-7700000Y2800000D01*
D10*
X-6900000Y-2800000D02*
X-7700000Y-2800000D01*
D10*
X1270000Y-7620000D02*
X1270000Y7620000D01*
D10*
X3810000Y7620000D02*
X3810000Y-7620000D01*
D10*
X20000Y6725000D02*
X770000Y6350000D01*
D10*
X770000Y6350000D02*
X20000Y5975000D01*
D10*
X3810000Y-7620000D02*
X1270000Y-7620000D01*
D10*
X20000Y5975000D02*
X20000Y6725000D01*
D10*
X1270000Y7620000D02*
X3810000Y7620000D01*
G75*
M02*
