%FSLAX46Y46*%
%MOMM*%
%ADD10C,0.250000*%
%AMPS12*
1,1,1.700000,0.000000,0.000000*
%
%ADD12PS12*%
%AMPS11*
1,1,1.700000,0.000000,0.000000*
%
%ADD11PS11*%
%AMPS13*
1,1,0.700000,0.000000,0.000000*
%
%ADD13PS13*%
G01*
G01*
%LPD*%
D10*
X5000000Y2500000D02*
X-750000Y2500000D01*
D10*
X5000000Y-750000D02*
X4250000Y0D01*
D10*
X5000000Y-3000000D02*
X5000000Y-750000D01*
D10*
X-2650000Y6350000D02*
X-3500000Y5500000D01*
D10*
X2540000Y-3810000D02*
X4190000Y-3810000D01*
D10*
X4250000Y0D02*
X500000Y0D01*
D10*
X4190000Y-3810000D02*
X5000000Y-3000000D01*
D10*
X10160000Y3810000D02*
X10160000Y6350000D01*
D10*
X0Y500000D02*
X-2250000Y500000D01*
D10*
X10160000Y-1270000D02*
X10160000Y1270000D01*
D10*
X-750000Y2500000D02*
X-2250000Y2500000D01*
D10*
X4900000Y-6350000D02*
X5750000Y-5500000D01*
D10*
X10160000Y-1270000D02*
X10160000Y-2220000D01*
D10*
X-3000000Y-500000D02*
X-2250000Y-500000D01*
D10*
X10160000Y-3810000D02*
X10160000Y-6350000D01*
D10*
X5750000Y1750000D02*
X5000000Y2500000D01*
D10*
X-2250000Y-1500000D02*
X2310000Y-1500000D01*
D10*
X-3500000Y0D02*
X-3000000Y-500000D01*
D10*
X10160000Y9840000D02*
X10160000Y11430000D01*
D10*
X-3500000Y5500000D02*
X-3500000Y0D01*
D10*
X500000Y0D02*
X0Y500000D01*
D10*
X2540000Y6350000D02*
X-2650000Y6350000D01*
D10*
X5750000Y-5500000D02*
X5750000Y1750000D01*
D10*
X2310000Y-1500000D02*
X2540000Y-1270000D01*
D10*
X10160000Y-2220000D02*
X10160000Y-3810000D01*
D10*
X10160000Y8890000D02*
X10160000Y9840000D01*
D10*
X10160000Y1270000D02*
X10160000Y3810000D01*
D10*
X10160000Y6350000D02*
X10160000Y8890000D01*
D10*
X2540000Y-6350000D02*
X4900000Y-6350000D01*
G75*
D11*
X12700000Y11430000D03*
D11*
X12700000Y3810000D03*
D11*
X10160000Y3810000D03*
D11*
X10160000Y6350000D03*
D11*
X12700000Y-3810000D03*
D11*
X12700000Y-8890000D03*
D11*
X12700000Y6350000D03*
D11*
X12700000Y-1270000D03*
D11*
X10160000Y-8890000D03*
D11*
X10160000Y-1270000D03*
D11*
X10160000Y11430000D03*
D11*
X12700000Y1270000D03*
D11*
X10160000Y1270000D03*
D11*
X12700000Y-6350000D03*
D11*
X10160000Y-11430000D03*
D11*
X12700000Y8890000D03*
D11*
X10160000Y-6350000D03*
D11*
X12700000Y-11430000D03*
D11*
X10160000Y8890000D03*
D11*
X10160000Y-3810000D03*
D12*
X2540000Y-1270000D03*
D12*
X2540000Y6350000D03*
D12*
X2540000Y3810000D03*
D12*
X2540000Y-3810000D03*
D12*
X2540000Y1270000D03*
D12*
X2540000Y-6350000D03*
D13*
X-2250000Y-2500000D03*
D13*
X-2250000Y500000D03*
D13*
X-2250000Y2500000D03*
D13*
X-2250000Y1500000D03*
D13*
X-2250000Y-1500000D03*
D13*
X-2250000Y-500000D03*
M02*
