%FSLAX46Y46*%
%MOMM*%
%AMPS13*
1,1,1.900000,0.000000,0.000000*
%
%ADD13PS13*%
%AMPS12*
1,1,1.900000,0.000000,0.000000*
%
%ADD12PS12*%
%AMPS10*
21,1,1.100000,0.750000,0.000000,0.000000,0.000000*
%
%ADD10PS10*%
%AMPS11*
21,1,0.450000,0.850000,0.000000,0.000000,90.000000*
%
%ADD11PS11*%
%AMPS14*
1,1,0.550000,0.000000,0.000000*
%
%ADD14PS14*%
G01*
G01*
%LPD*%
G75*
D10*
X-6925000Y-2175000D03*
D11*
X-4900000Y250000D03*
D11*
X-4900000Y-250000D03*
D11*
X-4900000Y750000D03*
D11*
X-4900000Y1250000D03*
D11*
X-4900000Y-1250000D03*
D10*
X-6925000Y2175000D03*
D11*
X-4900000Y-750000D03*
D12*
X12700000Y11430000D03*
D12*
X12700000Y3810000D03*
D12*
X10160000Y3810000D03*
D12*
X10160000Y6350000D03*
D12*
X12700000Y-3810000D03*
D12*
X12700000Y-8890000D03*
D12*
X12700000Y6350000D03*
D12*
X12700000Y-1270000D03*
D12*
X10160000Y-8890000D03*
D12*
X10160000Y-1270000D03*
D12*
X10160000Y11430000D03*
D12*
X12700000Y1270000D03*
D12*
X10160000Y1270000D03*
D12*
X12700000Y-6350000D03*
D12*
X10160000Y-11430000D03*
D12*
X12700000Y8890000D03*
D12*
X10160000Y-6350000D03*
D12*
X12700000Y-11430000D03*
D12*
X10160000Y8890000D03*
D12*
X10160000Y-3810000D03*
D13*
X2540000Y-1270000D03*
D13*
X2540000Y6350000D03*
D13*
X2540000Y3810000D03*
D13*
X2540000Y-3810000D03*
D13*
X2540000Y1270000D03*
D13*
X2540000Y-6350000D03*
D14*
X-2250000Y-2500000D03*
D14*
X-2250000Y500000D03*
D14*
X-2250000Y2500000D03*
D14*
X-2250000Y1500000D03*
D14*
X-2250000Y-1500000D03*
D14*
X-2250000Y-500000D03*
M02*
