M48
FMAT,2
METRIC,TZ
T3C0.350
T2C1.000
T1C1.020
%
G90
G05
M71
T3
X-2.250Y-2.500
X-2.250Y0.500
X-2.250Y2.500
X-2.250Y1.500
X-2.250Y-1.500
X-2.250Y-0.500
T2
X2.540Y-1.270
X2.540Y6.350
X2.540Y3.810
X2.540Y-3.810
X2.540Y1.270
X2.540Y-6.350
T1
X12.700Y11.430
X12.700Y3.810
X10.160Y3.810
X10.160Y6.350
X12.700Y-3.810
X12.700Y-8.890
X12.700Y6.350
X12.700Y-1.270
X10.160Y-8.890
X10.160Y-1.270
X10.160Y11.430
X12.700Y1.270
X10.160Y1.270
X12.700Y-6.350
X10.160Y-11.430
X12.700Y8.890
X10.160Y-6.350
X12.700Y-11.430
X10.160Y8.890
X10.160Y-3.810
M30
