%FSLAX46Y46*%
%MOMM*%
%ADD10C,0.150000*%
G01*
G01*
%LPD*%
D10*
X13953810Y16214286D02*
X13715714Y17023810D01*
D10*
X14001429Y16119048D02*
X13953810Y16214286D01*
D10*
X14049048Y16071429D02*
X14001429Y16119048D01*
D10*
X14144286Y16023810D02*
X14049048Y16071429D01*
D10*
X14239524Y16023810D02*
X14144286Y16023810D01*
D10*
X14334762Y16071429D02*
X14239524Y16023810D01*
D10*
X14382381Y16166667D02*
X14334762Y16071429D01*
D10*
X14382381Y16261905D02*
X14382381Y16166667D01*
D10*
X14334762Y16309524D02*
X14382381Y16261905D01*
D10*
X14287143Y16261905D02*
X14334762Y16309524D01*
D10*
X14334762Y16214286D02*
X14287143Y16261905D01*
D10*
X14001429Y16214286D02*
X13763333Y17023810D01*
D10*
X14049048Y16119048D02*
X14001429Y16214286D01*
D10*
X14144286Y16023810D02*
X14049048Y16119048D01*
D10*
X13572857Y17023810D02*
X13906190Y17023810D01*
D10*
X13191905Y16785714D02*
X13239524Y16833334D01*
D10*
X13239524Y16738095D02*
X13191905Y16785714D01*
D10*
X13287143Y16785714D02*
X13239524Y16738095D01*
D10*
X13287143Y16833334D02*
X13287143Y16785714D01*
D10*
X13239524Y16928572D02*
X13287143Y16833334D01*
D10*
X13191905Y16976190D02*
X13239524Y16928572D01*
D10*
X13049048Y17023810D02*
X13191905Y16976190D01*
D10*
X12906190Y17023810D02*
X13049048Y17023810D01*
D10*
X12763333Y16976190D02*
X12906190Y17023810D01*
D10*
X12715714Y16880952D02*
X12763333Y16976190D01*
D10*
X12715714Y16785714D02*
X12715714Y16880952D01*
D10*
X12763333Y16690476D02*
X12715714Y16785714D01*
D10*
X12906190Y16595238D02*
X12763333Y16690476D01*
D10*
X13049048Y16547619D02*
X12906190Y16595238D01*
D10*
X12810952Y16976190D02*
X12906190Y17023810D01*
D10*
X12763333Y16880952D02*
X12810952Y16976190D01*
D10*
X12763333Y16785714D02*
X12763333Y16880952D01*
D10*
X12810952Y16690476D02*
X12763333Y16785714D01*
D10*
X12906190Y16595238D02*
X12810952Y16690476D01*
D10*
X13049048Y16547619D02*
X13144286Y16547619D01*
D10*
X12906190Y16500000D02*
X13049048Y16547619D01*
D10*
X12858572Y16452381D02*
X12906190Y16500000D01*
D10*
X12810952Y16357143D02*
X12858572Y16452381D01*
D10*
X12810952Y16214286D02*
X12810952Y16357143D01*
D10*
X12858572Y16119048D02*
X12810952Y16214286D01*
D10*
X12906190Y16071429D02*
X12858572Y16119048D01*
D10*
X13049048Y16023810D02*
X12906190Y16071429D01*
D10*
X13239524Y16023810D02*
X13049048Y16023810D01*
D10*
X13382381Y16071429D02*
X13239524Y16023810D01*
D10*
X13430000Y16119048D02*
X13382381Y16071429D01*
D10*
X13477619Y16214286D02*
X13430000Y16119048D01*
D10*
X13477619Y16261905D02*
X13477619Y16214286D01*
D10*
X13430000Y16309524D02*
X13477619Y16261905D01*
D10*
X13382381Y16261905D02*
X13430000Y16309524D01*
D10*
X13430000Y16214286D02*
X13382381Y16261905D01*
D10*
X12953810Y16500000D02*
X13049048Y16547619D01*
D10*
X12906190Y16452381D02*
X12953810Y16500000D01*
D10*
X12858572Y16357143D02*
X12906190Y16452381D01*
D10*
X12858572Y16214286D02*
X12858572Y16357143D01*
D10*
X12906190Y16119048D02*
X12858572Y16214286D01*
D10*
X12953810Y16071429D02*
X12906190Y16119048D01*
D10*
X13049048Y16023810D02*
X12953810Y16071429D01*
D10*
X15720000Y11805000D02*
X14970000Y11430000D01*
D10*
X8430001Y15240000D02*
X8430001Y-15240000D01*
D10*
X8430001Y-15240000D02*
X14429999Y-15240000D01*
D10*
X15430000Y-1850000D02*
X15430000Y1850000D01*
D10*
X14430000Y1850000D02*
X14429999Y15240000D01*
D10*
X14429999Y15240000D02*
X8430001Y15240000D01*
D10*
X15720000Y11055000D02*
X15720000Y11805000D01*
D10*
X14970000Y11430000D02*
X15720000Y11055000D01*
D10*
X14429999Y-1850000D02*
X15430000Y-1850000D01*
D10*
X15430000Y1850000D02*
X14430000Y1850000D01*
D10*
X14429999Y-15240000D02*
X14429999Y-1850000D01*
G75*
M02*
